<?xml version="1.0" encoding="UTF-8" standalone="no"?>
<!-- Created with Inkscape (http://www.inkscape.org/) -->

<svg
   width="35.713078in"
   height="35.433071in"
   viewBox="0 0 907.11216 900.00001"
   version="1.1"
   id="svg5"
   inkscape:version="1.4 (e7c3feb100, 2024-10-09)"
   sodipodi:docname="goligher_risque_liberation.svg"
   xmlns:inkscape="http://www.inkscape.org/namespaces/inkscape"
   xmlns:sodipodi="http://sodipodi.sourceforge.net/DTD/sodipodi-0.dtd"
   xmlns="http://www.w3.org/2000/svg"
   xmlns:svg="http://www.w3.org/2000/svg"
   xmlns:rdf="http://www.w3.org/1999/02/22-rdf-syntax-ns#"
   xmlns:cc="http://creativecommons.org/ns#"
   xmlns:dc="http://purl.org/dc/elements/1.1/">
  <sodipodi:namedview
     id="namedview7"
     pagecolor="#ffffff"
     bordercolor="#999999"
     borderopacity="1"
     inkscape:showpageshadow="0"
     inkscape:pageopacity="0"
     inkscape:pagecheckerboard="0"
     inkscape:deskcolor="#d1d1d1"
     inkscape:document-units="mm"
     showgrid="false"
     inkscape:zoom="0.21673446"
     inkscape:cx="1640.256"
     inkscape:cy="1700.2372"
     inkscape:window-width="1920"
     inkscape:window-height="997"
     inkscape:window-x="0"
     inkscape:window-y="0"
     inkscape:window-maximized="1"
     inkscape:current-layer="layer1" />
  <defs
     id="defs2" />
  <g
     inkscape:label="Calque 1"
     inkscape:groupmode="layer"
     id="layer1"
     transform="translate(-83.362251,-34.144157)">
    <rect
       style="fill:#ffffff;fill-opacity:1;fill-rule:evenodd;stroke-width:0;stroke-linecap:round;stroke-linejoin:round;stroke-miterlimit:2;stroke-opacity:0.680142;paint-order:stroke markers fill"
       id="rect2"
       width="907.11212"
       height="900"
       x="83.362251"
       y="34.144157" />
    <g
       id="group-MC4"
       transform="matrix(2.4219947,0,0,2.4219947,-140.30328,-211.91766)">
      <path
         id="path42"
         d="m 85.838,500.826 h 264.071 v 0.25 H 85.838 Z"
         style="fill:#e7e8e9;fill-opacity:1;fill-rule:nonzero;stroke:none"
         transform="matrix(1.3333333,0,0,-1.3333333,0,1043.9814)" />
      <path
         id="path43"
         d="m 85.838,611.956 h 264.071 v 0.24988 H 85.838 Z"
         style="fill:#e7e8e9;fill-opacity:1;fill-rule:nonzero;stroke:none"
         transform="matrix(1.3333333,0,0,-1.3333333,0,1043.9814)" />
      <path
         id="path44"
         d="M 0,0 H 264.071"
         style="fill:none;stroke:#e7e8e9;stroke-width:0.25;stroke-linecap:butt;stroke-linejoin:miter;stroke-miterlimit:10;stroke-dasharray:none;stroke-opacity:1"
         transform="matrix(1.3333333,0,0,-1.3333333,114.45067,153.78936)" />
      <path
         id="path45"
         d="m 127.724,462.057 h 0.25008 V 706.541 H 127.724 Z"
         style="fill:#e7e8e9;fill-opacity:1;fill-rule:nonzero;stroke:none"
         transform="matrix(1.3333333,0,0,-1.3333333,0,1043.9814)" />
      <path
         id="path46"
         d="m 187.741,462.057 h 0.25 v 244.484 h -0.25 z"
         style="fill:#e7e8e9;fill-opacity:1;fill-rule:nonzero;stroke:none"
         transform="matrix(1.3333333,0,0,-1.3333333,0,1043.9814)" />
      <path
         id="path47"
         d="m 247.757,462.057 h 0.25 v 244.484 h -0.25 z"
         style="fill:#e7e8e9;fill-opacity:1;fill-rule:nonzero;stroke:none"
         transform="matrix(1.3333333,0,0,-1.3333333,0,1043.9814)" />
      <path
         id="path48"
         d="m 307.771,462.057 h 0.24997 V 706.541 H 307.771 Z"
         style="fill:#e7e8e9;fill-opacity:1;fill-rule:nonzero;stroke:none"
         transform="matrix(1.3333333,0,0,-1.3333333,0,1043.9814)" />
      <path
         id="path49"
         d="m 3.3987422,-2.7412183 c 0,1.4179687 -0.3632813,2.26171874 -1.171875,2.26171874 -0.8085938,0 -1.1835938,-0.84375004 -1.1835938,-2.26171874 0,-1.40625 0.375,-2.25 1.1835938,-2.25 0.8085937,0 1.171875,0.84375 1.171875,2.25 z m 0.75,0 c 0,-1.1601563 -0.3046875,-2.8828125 -1.921875,-2.8828125 -1.61718751,0 -1.93359376,1.7226562 -1.93359376,2.8828125 0,1.171875 0.31640625,2.89453124 1.93359376,2.89453124 1.6171875,0 1.921875,-1.72265624 1.921875,-2.89453124 z m 1.8222656,1.89843749 H 5.1389766 V 9.691875e-4 H 5.9710078 Z M 10.069641,-2.7412183 c 0,1.4179687 -0.3632816,2.26171874 -1.1718754,2.26171874 -0.8085937,0 -1.1835937,-0.84375004 -1.1835937,-2.26171874 0,-1.40625 0.375,-2.25 1.1835937,-2.25 0.8085938,0 1.1718754,0.84375 1.1718754,2.25 z m 0.75,0 c 0,-1.1601563 -0.304688,-2.8828125 -1.9218754,-2.8828125 -1.6171875,0 -1.9335937,1.7226562 -1.9335937,2.8828125 0,1.171875 0.3164062,2.89453124 1.9335937,2.89453124 1.6171874,0 1.9218754,-1.72265624 1.9218754,-2.89453124 z M 3.3987422,-58.305671 c 0,1.417968 -0.3632813,2.261718 -1.171875,2.261718 -0.8085938,0 -1.1835938,-0.84375 -1.1835938,-2.261718 0,-1.40625 0.375,-2.25 1.1835938,-2.25 0.8085937,0 1.171875,0.84375 1.171875,2.25 z m 0.75,0 c 0,-1.160157 -0.3046875,-2.882813 -1.921875,-2.882813 -1.61718751,0 -1.93359376,1.722656 -1.93359376,2.882813 0,1.171875 0.31640625,2.894531 1.93359376,2.894531 1.6171875,0 1.921875,-1.722656 1.921875,-2.894531 z m 1.8222656,1.898437 H 5.1389766 v 0.84375 h 0.8320312 z m 2.1181641,-3.972656 h 2.3789061 v -0.691406 H 7.5618281 l -0.421875,3.023437 0.609375,0.02344 c 0.2578125,-0.339844 0.6210938,-0.527344 1.03125,-0.527344 0.703125,0 1.2539059,0.433594 1.2539059,1.242187 0,0.703125 -0.4570309,1.289063 -1.1835934,1.289063 -0.6328125,0 -1.125,-0.292969 -1.1953125,-0.949219 H 6.9290156 c 0.1289063,1.265625 1.078125,1.558594 1.8164063,1.558594 1.7578121,0 2.0390621,-1.347656 2.0390621,-1.980469 0,-1.160156 -0.9374996,-1.792969 -1.8515621,-1.792969 -0.5039063,0 -0.84375,0.164063 -1.0898438,0.351563 z M 2.8713984,-116.75587 H 2.3206172 c -0.2226563,0.91407 -0.5976563,1.00782 -1.51171876,1.06641 v 0.5625 H 2.1213984 v 3.99609 h 0.75 z m 3.0996094,4.78125 H 5.1389766 v 0.84375 h 0.8320312 z m 4.0986332,-1.89843 c 0,1.41796 -0.3632816,2.26171 -1.1718754,2.26171 -0.8085937,0 -1.1835937,-0.84375 -1.1835937,-2.26171 0,-1.40625 0.375,-2.25 1.1835937,-2.25 0.8085938,0 1.1718754,0.84375 1.1718754,2.25 z m 0.75,0 c 0,-1.16016 -0.304688,-2.88282 -1.9218754,-2.88282 -1.6171875,0 -1.9335937,1.72266 -1.9335937,2.88282 0,1.17187 0.3164062,2.89453 1.9335937,2.89453 1.6171874,0 1.9218754,-1.72266 1.9218754,-2.89453 z M 2.8713984,-172.32032 H 2.3206172 c -0.2226563,0.91406 -0.5976563,1.00781 -1.51171876,1.06641 v 0.5625 H 2.1213984 v 3.99609 h 0.75 z m 3.0996094,4.78125 H 5.1389766 v 0.84375 h 0.8320312 z m 2.1181641,-3.97266 h 2.3789061 v -0.6914 H 7.5618281 l -0.421875,3.02344 0.609375,0.0234 c 0.2578125,-0.33984 0.6210938,-0.52734 1.03125,-0.52734 0.703125,0 1.2539059,0.43359 1.2539059,1.24219 0,0.70312 -0.4570309,1.28906 -1.1835934,1.28906 -0.6328125,0 -1.125,-0.29297 -1.1953125,-0.94922 H 6.9290156 c 0.1289063,1.26563 1.078125,1.55859 1.8164063,1.55859 1.7578121,0 2.0390621,-1.34765 2.0390621,-1.98046 0,-1.16016 -0.9374996,-1.79297 -1.8515621,-1.79297 -0.5039063,0 -0.84375,0.16406 -1.0898438,0.35156 z m -7.0341797,-54.35742 c 0.023437,-0.38672 0.070312,-1.38281 1.1367187,-1.38281 0.8203125,0 1.1132813,0.5625 1.1132813,1.01953 0,0.72656 -0.4335938,0.96094 -1.03125,1.3125 l -0.75,0.42188 c -0.75000001,0.44531 -1.27734376,1.0664 -1.31250001,2.23828 H 4.0549922 v -0.66797 H 0.99639844 c 0.0351563,-0.21094 0.19921876,-0.65625 0.97265626,-1.07813 l 0.5859375,-0.3164 c 0.84375,-0.44532 1.5,-0.87891 1.5,-1.88672 0,-1.04297 -0.7851563,-1.67578 -1.7578125,-1.67578 -0.609375,0 -1.94531251,0.1875 -1.94531251,2.01562 z m 4.9160156,2.76563 H 5.1389766 v 0.84375 h 0.8320312 z m 4.0986332,-1.89844 c 0,1.41797 -0.3632816,2.26172 -1.1718754,2.26172 -0.8085937,0 -1.1835937,-0.84375 -1.1835937,-2.26172 0,-1.40625 0.375,-2.25 1.1835937,-2.25 0.8085938,0 1.1718754,0.84375 1.1718754,2.25 z m 0.75,0 c 0,-1.16016 -0.304688,-2.88281 -1.9218754,-2.88281 -1.6171875,0 -1.9335937,1.72265 -1.9335937,2.88281 0,1.17187 0.3164062,2.89453 1.9335937,2.89453 1.6171874,0 1.9218754,-1.72266 1.9218754,-2.89453 z M 22.810852,19.383782 v -0.574219 h -4.042969 v 0.574219 z m 4.49707,0.363281 v -0.609375 h -0.820313 v -3.644531 h -0.585937 l -2.578125,3.5625 v 0.691406 h 2.460937 v 1.371094 h 0.703125 V 19.747063 Z M 25.761047,16.583 h 0.02344 v 2.554688 h -1.816406 z m 5.208984,1.792969 c 0,1.417969 -0.363281,2.261719 -1.171875,2.261719 -0.808593,0 -1.183593,-0.84375 -1.183593,-2.261719 0,-1.40625 0.375,-2.25 1.183593,-2.25 0.808594,0 1.171875,0.84375 1.171875,2.25 z m 0.75,0 c 0,-1.160156 -0.304687,-2.882812 -1.921875,-2.882812 -1.617187,0 -1.933593,1.722656 -1.933593,2.882812 0,1.171875 0.316406,2.894531 1.933593,2.894531 1.617188,0 1.921875,-1.722656 1.921875,-2.894531 z m 0.615235,-1.464844 c 0,0.761719 0.609375,1.371094 1.359375,1.371094 0.761718,0 1.371093,-0.621094 1.371093,-1.371094 0,-0.75 -0.621093,-1.359375 -1.371093,-1.359375 -0.75,0 -1.359375,0.597657 -1.359375,1.359375 z m 0.550781,0 c 0,-0.433593 0.351562,-0.796875 0.808594,-0.796875 0.445312,0 0.808593,0.339844 0.808593,0.796875 0,0.433594 -0.351562,0.808594 -0.808593,0.808594 -0.421875,0 -0.808594,-0.316406 -0.808594,-0.808594 z m 3.210937,2.894532 c 0,0.773437 0.609375,1.371093 1.359375,1.371093 0.761719,0 1.371094,-0.621093 1.371094,-1.371093 0,-0.75 -0.621094,-1.347657 -1.371094,-1.347657 -0.75,0 -1.359375,0.585938 -1.359375,1.347657 z m 0.550782,0 c 0,-0.433594 0.363281,-0.796875 0.808593,-0.796875 0.445313,0 0.808594,0.351562 0.808594,0.796875 0,0.445312 -0.351562,0.808593 -0.808594,0.808593 -0.421875,0 -0.808593,-0.316406 -0.808593,-0.808593 z m 0.726562,-4.3125 H 36.929016 L 33.776672,21.2705 h 0.421875 z m 45.454102,3.890625 v -0.574219 h -4.042969 v 0.574219 z m 1.368164,-1.875 c 0.02344,-0.386719 0.07031,-1.382813 1.136719,-1.382813 0.820312,0 1.113281,0.5625 1.113281,1.019531 0,0.726563 -0.433594,0.960938 -1.03125,1.3125 l -0.75,0.421875 c -0.75,0.445313 -1.277344,1.066407 -1.3125,2.238282 h 3.84375 V 20.450188 H 84.138 c 0.03516,-0.210938 0.199219,-0.65625 0.972656,-1.078125 l 0.585938,-0.316406 c 0.84375,-0.445313 1.5,-0.878907 1.5,-1.886719 0,-1.042969 -0.785156,-1.675781 -1.757813,-1.675781 -0.609375,0 -1.945312,0.1875 -1.945312,2.015625 z m 6.791015,0.867187 c 0,1.417969 -0.363281,2.261719 -1.171875,2.261719 -0.808593,0 -1.183593,-0.84375 -1.183593,-2.261719 0,-1.40625 0.375,-2.25 1.183593,-2.25 0.808594,0 1.171875,0.84375 1.171875,2.25 z m 0.75,0 c 0,-1.160156 -0.304687,-2.882812 -1.921875,-2.882812 -1.617187,0 -1.933593,1.722656 -1.933593,2.882812 0,1.171875 0.316406,2.894531 1.933593,2.894531 1.617188,0 1.921875,-1.722656 1.921875,-2.894531 z m 0.615235,-1.464844 c 0,0.761719 0.609375,1.371094 1.359375,1.371094 0.761719,0 1.371094,-0.621094 1.371094,-1.371094 0,-0.75 -0.621094,-1.359375 -1.371094,-1.359375 -0.75,0 -1.359375,0.597657 -1.359375,1.359375 z m 0.550781,0 c 0,-0.433593 0.351563,-0.796875 0.808594,-0.796875 0.445312,0 0.808594,0.339844 0.808594,0.796875 0,0.433594 -0.351563,0.808594 -0.808594,0.808594 -0.421875,0 -0.808594,-0.316406 -0.808594,-0.808594 z m 3.210938,2.894532 c 0,0.773437 0.609375,1.371093 1.359375,1.371093 0.761718,0 1.371093,-0.621093 1.371093,-1.371093 0,-0.75 -0.621093,-1.347657 -1.371093,-1.347657 -0.75,0 -1.359375,0.585938 -1.359375,1.347657 z m 0.550781,0 c 0,-0.433594 0.363281,-0.796875 0.808594,-0.796875 0.445312,0 0.808593,0.351562 0.808593,0.796875 0,0.445312 -0.351562,0.808593 -0.808593,0.808593 -0.421875,0 -0.808594,-0.316406 -0.808594,-0.808593 z m 0.726562,-4.3125 H 96.946594 L 93.79425,21.2705 h 0.421875 z m 49.051754,2.882812 c 0,1.417969 -0.36328,2.261719 -1.17187,2.261719 -0.80859,0 -1.18359,-0.84375 -1.18359,-2.261719 0,-1.40625 0.375,-2.25 1.18359,-2.25 0.80859,0 1.17187,0.84375 1.17187,2.25 z m 0.75,0 c 0,-1.160156 -0.30468,-2.882812 -1.92187,-2.882812 -1.61719,0 -1.93359,1.722656 -1.93359,2.882812 0,1.171875 0.3164,2.894531 1.93359,2.894531 1.61719,0 1.92187,-1.722656 1.92187,-2.894531 z m 0.61524,-1.464844 c 0,0.761719 0.60937,1.371094 1.35937,1.371094 0.76172,0 1.3711,-0.621094 1.3711,-1.371094 0,-0.75 -0.6211,-1.359375 -1.3711,-1.359375 -0.75,0 -1.35937,0.597657 -1.35937,1.359375 z m 0.55078,0 c 0,-0.433593 0.35156,-0.796875 0.80859,-0.796875 0.44532,0 0.8086,0.339844 0.8086,0.796875 0,0.433594 -0.35157,0.808594 -0.8086,0.808594 -0.42187,0 -0.80859,-0.316406 -0.80859,-0.808594 z m 3.21094,2.894532 c 0,0.773437 0.60937,1.371093 1.35937,1.371093 0.76172,0 1.3711,-0.621093 1.3711,-1.371093 0,-0.75 -0.6211,-1.347657 -1.3711,-1.347657 -0.75,0 -1.35937,0.585938 -1.35937,1.347657 z m 0.55078,0 c 0,-0.433594 0.36328,-0.796875 0.80859,-0.796875 0.44531,0 0.8086,0.351562 0.8086,0.796875 0,0.445312 -0.35157,0.808593 -0.8086,0.808593 -0.42187,0 -0.80859,-0.316406 -0.80859,-0.808593 z m 0.72656,-4.3125 h -0.44531 L 149.2503,21.2705 h 0.42188 z m 47.7041,3.316406 h -1.73437 v 0.574219 h 1.73437 v 1.734375 h 0.58594 v -1.734375 h 1.72266 V 18.809563 H 201.138 v -1.734375 h -0.58594 z m 3.67676,-1.300781 c 0.0234,-0.386719 0.0703,-1.382813 1.13672,-1.382813 0.82031,0 1.11328,0.5625 1.11328,1.019531 0,0.726563 -0.43359,0.960938 -1.03125,1.3125 l -0.75,0.421875 c -0.75,0.445313 -1.27734,1.066407 -1.3125,2.238282 h 3.84375 v -0.667969 h -3.05859 c 0.0351,-0.210938 0.19922,-0.65625 0.97265,-1.078125 l 0.58594,-0.316406 c 0.84375,-0.445313 1.5,-0.878907 1.5,-1.886719 0,-1.042969 -0.78516,-1.675781 -1.75781,-1.675781 -0.60938,0 -1.94531,0.1875 -1.94531,2.015625 z m 6.79102,0.867187 c 0,1.417969 -0.36329,2.261719 -1.17188,2.261719 -0.80859,0 -1.18359,-0.84375 -1.18359,-2.261719 0,-1.40625 0.375,-2.25 1.18359,-2.25 0.80859,0 1.17188,0.84375 1.17188,2.25 z m 0.75,0 c 0,-1.160156 -0.30469,-2.882812 -1.92188,-2.882812 -1.61719,0 -1.93359,1.722656 -1.93359,2.882812 0,1.171875 0.3164,2.894531 1.93359,2.894531 1.61719,0 1.92188,-1.722656 1.92188,-2.894531 z m 0.61523,-1.464844 c 0,0.761719 0.60938,1.371094 1.35938,1.371094 0.76171,0 1.37109,-0.621094 1.37109,-1.371094 0,-0.75 -0.62109,-1.359375 -1.37109,-1.359375 -0.75,0 -1.35938,0.597657 -1.35938,1.359375 z m 0.55078,0 c 0,-0.433593 0.35156,-0.796875 0.8086,-0.796875 0.44531,0 0.80859,0.339844 0.80859,0.796875 0,0.433594 -0.35156,0.808594 -0.80859,0.808594 -0.42188,0 -0.8086,-0.316406 -0.8086,-0.808594 z m 3.21094,2.894532 c 0,0.773437 0.60937,1.371093 1.35937,1.371093 0.76172,0 1.3711,-0.621093 1.3711,-1.371093 0,-0.75 -0.6211,-1.347657 -1.3711,-1.347657 -0.75,0 -1.35937,0.585938 -1.35937,1.347657 z m 0.55078,0 c 0,-0.433594 0.36328,-0.796875 0.80859,-0.796875 0.44532,0 0.8086,0.351562 0.8086,0.796875 0,0.445312 -0.35156,0.808593 -0.8086,0.808593 -0.42187,0 -0.80859,-0.316406 -0.80859,-0.808593 z m 0.72656,-4.3125 h -0.44531 l -3.15234,5.777343 h 0.42187 z m 43.14551,3.316406 h -1.73437 v 0.574219 h 1.73437 v 1.734375 h 0.58594 v -1.734375 h 1.72265 v -0.574219 h -1.72265 v -1.734375 h -0.58594 z m 6.80274,0.9375 v -0.609375 h -0.82032 v -3.644531 h -0.58593 l -2.57813,3.5625 v 0.691406 h 2.46094 v 1.371094 h 0.70312 V 19.747063 Z M 265.8255,16.583 h 0.0234 v 2.554688 h -1.81641 z m 5.21191,1.792969 c 0,1.417969 -0.36328,2.261719 -1.17187,2.261719 -0.80859,0 -1.18359,-0.84375 -1.18359,-2.261719 0,-1.40625 0.375,-2.25 1.18359,-2.25 0.80859,0 1.17187,0.84375 1.17187,2.25 z m 0.75,0 c 0,-1.160156 -0.30468,-2.882812 -1.92187,-2.882812 -1.61719,0 -1.93359,1.722656 -1.93359,2.882812 0,1.171875 0.3164,2.894531 1.93359,2.894531 1.61719,0 1.92187,-1.722656 1.92187,-2.894531 z m 0.61524,-1.464844 c 0,0.761719 0.60937,1.371094 1.35937,1.371094 0.76172,0 1.3711,-0.621094 1.3711,-1.371094 0,-0.75 -0.6211,-1.359375 -1.3711,-1.359375 -0.75,0 -1.35937,0.597657 -1.35937,1.359375 z m 0.55078,0 c 0,-0.433593 0.35156,-0.796875 0.80859,-0.796875 0.44532,0 0.8086,0.339844 0.8086,0.796875 0,0.433594 -0.35157,0.808594 -0.8086,0.808594 -0.42187,0 -0.80859,-0.316406 -0.80859,-0.808594 z m 3.21094,2.894532 c 0,0.773437 0.60937,1.371093 1.35937,1.371093 0.76172,0 1.3711,-0.621093 1.3711,-1.371093 0,-0.75 -0.6211,-1.347657 -1.3711,-1.347657 -0.75,0 -1.35937,0.585938 -1.35937,1.347657 z m 0.55078,0 c 0,-0.433594 0.36328,-0.796875 0.80859,-0.796875 0.44531,0 0.8086,0.351562 0.8086,0.796875 0,0.445312 -0.35157,0.808593 -0.8086,0.808593 -0.42187,0 -0.80859,-0.316406 -0.80859,-0.808593 z m 0.72656,-4.3125 h -0.44531 l -3.15235,5.777343 h 0.42188 z"
         style="fill:#231f20;fill-opacity:1;fill-rule:nonzero;stroke:none"
         aria-label="0.0&#10;0.5&#10;1.0&#10;1.5&#10;2.0&#10;−40%−20%0%+20%+40%&#10;Change in diaphragm thickness from baseline&#10;(% of baseline thickness) "
         transform="matrix(1.3333333,0,0,1.3333333,92.066,416.47136)"
         sodipodi:nodetypes="sssssssssscccccsssssssssssssssssssscccccccccccsssccssscccccccccccccccsssssssssscccccccccccccccccccsssccssscccssccccccccsscccccccssssssssssccccccccccccccccccccccsssssssssssssssssssssssssssssscccccccccccssccccccccssccsssssssssssssssssssssssssssssscccccsssssssssssssssssssssssssssssscccccccccccccccccccssccccccccssccsssssssssssssssssssssssssssssscccccccccccccccccccccccccccccccccccssssssssssssssssssssssssssssssccccc" />
      <path
         id="path51"
         d="M 0,0 H 264.071"
         style="fill:none;stroke:#c6c8ca;stroke-width:0.5;stroke-linecap:butt;stroke-linejoin:miter;stroke-miterlimit:10;stroke-dasharray:none;stroke-opacity:1"
         transform="matrix(1.3333333,0,0,-1.3333333,114.45067,413.08936)" />
      <path
         id="path52"
         d="m 85.838,584.049 h 264.071 v 0.49994 H 85.838 Z"
         style="fill:#c6c8ca;fill-opacity:1;fill-rule:nonzero;stroke:none"
         transform="matrix(1.3333333,0,0,-1.3333333,0,1043.9814)" />
      <path
         id="path53"
         d="m 85.838,639.613 h 264.071 v 0.5 H 85.838 Z"
         style="fill:#c6c8ca;fill-opacity:1;fill-rule:nonzero;stroke:none"
         transform="matrix(1.3333333,0,0,-1.3333333,0,1043.9814)" />
      <path
         id="path54"
         d="M 0,0 H 264.071"
         style="fill:none;stroke:#c6c8ca;stroke-width:0.5;stroke-linecap:butt;stroke-linejoin:miter;stroke-miterlimit:10;stroke-dasharray:none;stroke-opacity:1"
         transform="matrix(1.3333333,0,0,-1.3333333,114.45067,116.74536)" />
      <path
         id="path55"
         d="M 0,0 V 244.484"
         style="fill:none;stroke:#c6c8ca;stroke-width:0.5;stroke-linecap:butt;stroke-linejoin:miter;stroke-miterlimit:10;stroke-dasharray:none;stroke-opacity:1"
         transform="matrix(1.3333333,0,0,-1.3333333,130.45467,427.9067)" />
      <path
         id="path56"
         d="m 157.607,462.057 h 0.50002 V 706.541 H 157.607 Z"
         style="fill:#c6c8ca;fill-opacity:1;fill-rule:nonzero;stroke:none"
         transform="matrix(1.3333333,0,0,-1.3333333,0,1043.9814)" />
      <path
         id="path57"
         d="m 217.624,462.057 h 0.5 v 244.484 h -0.5 z"
         style="fill:#c6c8ca;fill-opacity:1;fill-rule:nonzero;stroke:none"
         transform="matrix(1.3333333,0,0,-1.3333333,0,1043.9814)" />
      <path
         id="path58"
         d="m 277.64,462.057 h 0.5 v 244.484 h -0.5 z"
         style="fill:#c6c8ca;fill-opacity:1;fill-rule:nonzero;stroke:none"
         transform="matrix(1.3333333,0,0,-1.3333333,0,1043.9814)" />
      <path
         id="path59"
         d="M 0,0 V 244.484"
         style="fill:none;stroke:#c6c8ca;stroke-width:0.5;stroke-linecap:butt;stroke-linejoin:miter;stroke-miterlimit:10;stroke-dasharray:none;stroke-opacity:1"
         transform="matrix(1.3333333,0,0,-1.3333333,450.54133,427.90536)" />
      <path
         id="path60"
         d="M 0,0 H 264.071 V -244.484 H 0 Z"
         style="fill:none;stroke:#231f20;stroke-width:0.5;stroke-linecap:butt;stroke-linejoin:miter;stroke-miterlimit:10;stroke-dasharray:none;stroke-opacity:1"
         transform="matrix(1.3333333,0,0,-1.3333333,114.45067,101.92803)" />
      <path
         id="path61"
         d="M 0,0 H 2.835"
         style="fill:none;stroke:#231f20;stroke-width:0.5;stroke-linecap:butt;stroke-linejoin:miter;stroke-miterlimit:10;stroke-dasharray:none;stroke-opacity:1"
         transform="matrix(1.3333333,0,0,-1.3333333,110.672,413.08936)" />
      <path
         id="path62"
         d="M 0,0 H 2.835"
         style="fill:none;stroke:#231f20;stroke-width:0.5;stroke-linecap:butt;stroke-linejoin:miter;stroke-miterlimit:10;stroke-dasharray:none;stroke-opacity:1"
         transform="matrix(1.3333333,0,0,-1.3333333,110.672,339.00403)" />
      <path
         id="path63"
         d="M 0,0 H 2.835"
         style="fill:none;stroke:#231f20;stroke-width:0.5;stroke-linecap:butt;stroke-linejoin:miter;stroke-miterlimit:10;stroke-dasharray:none;stroke-opacity:1"
         transform="matrix(1.3333333,0,0,-1.3333333,110.672,264.91603)" />
      <path
         id="path64"
         d="M 0,0 H 2.835"
         style="fill:none;stroke:#231f20;stroke-width:0.5;stroke-linecap:butt;stroke-linejoin:miter;stroke-miterlimit:10;stroke-dasharray:none;stroke-opacity:1"
         transform="matrix(1.3333333,0,0,-1.3333333,110.672,190.8307)" />
      <path
         id="path65"
         d="M 0,0 H 2.835"
         style="fill:none;stroke:#231f20;stroke-width:0.5;stroke-linecap:butt;stroke-linejoin:miter;stroke-miterlimit:10;stroke-dasharray:none;stroke-opacity:1"
         transform="matrix(1.3333333,0,0,-1.3333333,110.672,116.74403)" />
      <path
         id="path66"
         d="M 0,0 V 2.834"
         style="fill:none;stroke:#231f20;stroke-width:0.5;stroke-linecap:butt;stroke-linejoin:miter;stroke-miterlimit:10;stroke-dasharray:none;stroke-opacity:1"
         transform="matrix(1.3333333,0,0,-1.3333333,130.45467,431.68403)" />
      <path
         id="path67"
         d="M 0,0 V 2.834"
         style="fill:none;stroke:#231f20;stroke-width:0.5;stroke-linecap:butt;stroke-linejoin:miter;stroke-miterlimit:10;stroke-dasharray:none;stroke-opacity:1"
         transform="matrix(1.3333333,0,0,-1.3333333,210.476,431.68403)" />
      <path
         id="path68"
         d="M 0,0 V 2.834"
         style="fill:none;stroke:#231f20;stroke-width:0.5;stroke-linecap:butt;stroke-linejoin:miter;stroke-miterlimit:10;stroke-dasharray:none;stroke-opacity:1"
         transform="matrix(1.3333333,0,0,-1.3333333,290.5,431.68403)" />
      <path
         id="path69"
         d="M 0,0 V 2.834"
         style="fill:none;stroke:#231f20;stroke-width:0.5;stroke-linecap:butt;stroke-linejoin:miter;stroke-miterlimit:10;stroke-dasharray:none;stroke-opacity:1"
         transform="matrix(1.3333333,0,0,-1.3333333,370.52133,431.68403)" />
      <path
         id="path70"
         d="M 0,0 V 2.834"
         style="fill:none;stroke:#231f20;stroke-width:0.5;stroke-linecap:butt;stroke-linejoin:miter;stroke-miterlimit:10;stroke-dasharray:none;stroke-opacity:1"
         transform="matrix(1.3333333,0,0,-1.3333333,450.54267,431.68403)" />
      <path
         id="path71"
         d="m 85.838,556.391 h 264.071 v 0.25 H 85.838 Z"
         style="fill:#e7e8e9;fill-opacity:1;fill-rule:nonzero;stroke:none"
         transform="matrix(1.3333333,0,0,-1.3333333,0,1043.9814)" />
      <path
         id="path72"
         d="m 85.838,528.483 h 264.071 v 0.5 H 85.838 Z"
         style="fill:#c6c8ca;fill-opacity:1;fill-rule:nonzero;stroke:none"
         transform="matrix(1.3333333,0,0,-1.3333333,0,1043.9814)" />
      <path
         id="path73"
         d="M 0,0 V 11.437 H 23.611 L 22.924,11.014 21.65,10.249 20.377,9.505 19.103,8.779 17.829,8.074 16.556,7.388 15.283,6.721 14.009,6.071 12.735,5.439 11.462,4.824 10.188,4.226 8.915,3.645 7.641,3.079 6.368,2.529 5.094,1.994 3.82,1.474 2.547,0.969 1.273,0.477 0,0 M 24.016,11.687 H 0 V 39.094 H 28.625 V 14.701 l -0.607,-0.416 -1.273,-0.851 -1.274,-0.828 -1.274,-0.807 -0.181,-0.112 m 4.859,3.185 V 39.094 H 55.884 L 54.763,37.862 53.49,36.484 52.215,35.129 50.941,33.798 49.668,32.491 48.395,31.213 47.121,29.96 45.848,28.734 44.574,27.535 43.3,26.361 42.027,25.216 40.754,24.096 39.48,23.002 38.206,21.934 36.933,20.892 35.66,19.875 34.386,18.884 33.113,17.916 31.839,16.973 30.565,16.053 29.292,15.158 28.875,14.872"
         style="fill:#bbbdc0;fill-opacity:1;fill-rule:nonzero;stroke:none"
         transform="matrix(1.3333333,0,0,-1.3333333,132.132,391.4627)" />
      <path
         id="path74"
         d="M 0,0 H -23.611 V 0.25 H 0.405 L 0,0"
         style="fill:#adb0b2;fill-opacity:1;fill-rule:nonzero;stroke:none"
         transform="matrix(1.3333333,0,0,-1.3333333,163.61333,376.21336)" />
      <path
         id="path75"
         d="M 0,0 V 24.393 H 0.25 V 0.171 L 0,0"
         style="fill:#adb0b2;fill-opacity:1;fill-rule:nonzero;stroke:none"
         transform="matrix(1.3333333,0,0,-1.3333333,170.29867,371.86136)" />
      <path
         id="path76"
         d="M 0,0 -0.777,0.342 H 0 V 0 m 0,0.592 h -1.344 l -1.205,0.54 -1.272,0.582 -1.275,0.594 -1.273,0.604 -1.274,0.618 -1.274,0.629 -1.273,0.642 -1.272,0.653 -1.274,0.668 -1.274,0.68 -1.275,0.692 -1.273,0.707 -1.273,0.719 -1.274,0.735 -1.273,0.747 -1.274,0.762 -1.273,0.776 -1.274,0.791 -1.274,0.807 -1.273,0.82 -1.274,0.837 -1.211,0.809 V 27.999 H 0 V 0.592 m -29.481,15.581 -1.085,0.74 -1.274,0.882 -1.272,0.9 -1.273,0.915 -1.273,0.933 -1.274,0.947 -1.274,0.965 -1.273,0.981 -1.274,0.999 -1.274,1.015 -1.273,1.033 -1.273,1.049 -0.559,0.467 h 15.651 V 16.173"
         style="fill:#bbbdc0;fill-opacity:1;fill-rule:nonzero;stroke:none"
         transform="matrix(1.3333333,0,0,-1.3333333,449.66933,376.66936)" />
      <path
         id="path77"
         d="M 0,0 H -0.777 L -1.273,0.218 -1.344,0.25 H 0 V 0"
         style="fill:#adb0b2;fill-opacity:1;fill-rule:nonzero;stroke:none"
         transform="matrix(1.3333333,0,0,-1.3333333,449.66933,376.21336)" />
      <path
         id="path78"
         d="M 0,0 -0.062,0.042 -0.25,0.169 V 11.995 H 0 V 0"
         style="fill:#adb0b2;fill-opacity:1;fill-rule:nonzero;stroke:none"
         transform="matrix(1.3333333,0,0,-1.3333333,410.69467,355.3307)" />
      <path
         id="path79"
         d="M 0,0 H -29.231 V 27.408 H 0 V 0 m -29.481,0 h -16.248 l -0.118,0.099 -1.274,1.085 -1.274,1.101 -1.273,1.119 -1.273,1.135 -1.274,1.153 -1.274,1.169 -1.274,1.186 -1.273,1.202 -1.273,1.219 -1.273,1.233 -0.53,0.52 v 15.187 h 29.631 V 0"
         style="fill:#bbbdc0;fill-opacity:1;fill-rule:nonzero;stroke:none"
         transform="matrix(1.3333333,0,0,-1.3333333,449.66933,338.6707)" />
      <path
         id="path80"
         d="m 307.771,528.983 h 0.24997 v 27.408 H 307.771 Z"
         style="fill:#adb0b2;fill-opacity:1;fill-rule:nonzero;stroke:none"
         transform="matrix(1.3333333,0,0,-1.3333333,0,1043.9814)" />
      <path
         id="path81"
         d="M 0,0 H -27.459 V 27.408 H 2.173 V 2.442 L 0.975,1.089 0,0 m -27.709,0 h -28.625 v 23.867 l 1.273,0.586 1.274,0.59 1.273,0.598 1.274,0.603 1.273,0.61 1.144,0.554 h 21.114 V 0"
         style="fill:#bbbdc0;fill-opacity:1;fill-rule:nonzero;stroke:none"
         transform="matrix(1.3333333,0,0,-1.3333333,207.244,338.6707)" />
      <path
         id="path82"
         d="m 127.724,528.983 h 0.25008 v 27.408 H 127.724 Z"
         style="fill:#adb0b2;fill-opacity:1;fill-rule:nonzero;stroke:none"
         transform="matrix(1.3333333,0,0,-1.3333333,0,1043.9814)" />
      <path
         id="path83"
         d="M 0,0 V 24.396 H 21.055 L 19.952,23.188 18.679,21.771 17.405,20.334 16.132,18.88 14.858,17.41 13.584,15.928 12.312,14.436 11.038,12.936 9.764,11.43 8.49,9.923 7.217,8.416 5.943,6.911 4.669,5.412 3.396,3.921 2.123,2.438 0.85,0.969 0,0 m 119.533,9.7 -0.244,0.239 -1.274,1.264 -1.273,1.28 -1.274,1.292 -1.274,1.305 -1.273,1.318 -1.274,1.329 -1.274,1.338 -1.272,1.348 -1.274,1.355 -1.273,1.361 -1.183,1.267 h 14.162 V 9.7 m 59.612,14.946 h -29.231 v 27.408 h 29.231 V 24.646 m -29.481,0 h -29.631 v 27.408 h 29.631 V 24.646 m 29.481,27.908 h -29.231 v 27.407 h 29.231 V 52.554 m -29.481,0 h -29.631 v 27.407 h 29.631 V 52.554 m 29.481,27.657 h -29.231 v 27.407 h 29.231 V 80.211 m -29.481,0 h -29.631 v 27.407 h 29.631 V 80.211 m 29.481,27.907 h -29.231 v 4.057 l 1.211,0.246 1.274,0.264 1.273,0.27 1.274,0.276 1.274,0.28 1.273,0.284 1.274,0.29 1.273,0.295 1.274,0.298 1.273,0.303 1.273,0.308 1.275,0.31 1.274,0.315 1.274,0.318 1.272,0.323 1.273,0.326 1.274,0.33 1.274,0.332 1.273,0.337 1.275,0.339 1.272,0.343 1.276,0.346 1.273,0.349 v -11.139 m -29.481,0 h -29.631 v 0.428 l 0.53,10e-4 1.273,0.021 1.273,0.039 1.273,0.055 1.274,0.071 1.274,0.085 1.274,0.1 1.273,0.112 1.273,0.124 1.274,0.138 1.274,0.148 1.274,0.158 1.273,0.169 1.273,0.177 1.274,0.187 1.274,0.196 1.273,0.204 1.274,0.211 1.274,0.22 1.273,0.227 1.273,0.233 1.272,0.241 1.274,0.247 1.085,0.215 v -4.007"
         style="fill:#bbbdc0;fill-opacity:1;fill-rule:nonzero;stroke:none"
         transform="matrix(1.3333333,0,0,-1.3333333,210.80933,334.6547)" />
      <path
         id="path84"
         d="M 0,0 H -29.231 V 0.25 H 0 V 0 m -29.481,0 h -29.631 v 0.25 h 29.631 V 0"
         style="fill:#adb0b2;fill-opacity:1;fill-rule:nonzero;stroke:none"
         transform="matrix(1.3333333,0,0,-1.3333333,449.66933,228.04003)" />
      <path
         id="path85"
         d="M 0,0 H -0.25 V 27.408 H 0 V 0 M 0,27.908 H -0.25 V 82.972 H 0 V 27.908 m 0,55.564 h -0.25 v 4.007 L -0.062,87.516 0,87.529 v -4.057"
         style="fill:#adb0b2;fill-opacity:1;fill-rule:nonzero;stroke:none"
         transform="matrix(1.3333333,0,0,-1.3333333,410.69467,301.79336)" />
      <path
         id="path86"
         d="M 0,0 H -59.112 V 0.5 H 0 V 0"
         style="fill:#97999c;fill-opacity:1;fill-rule:nonzero;stroke:none"
         transform="matrix(1.3333333,0,0,-1.3333333,449.66933,265.24936)" />
      <path
         id="path87"
         d="M 0,0 H -59.112 V 0.5 H 0 V 0"
         style="fill:#97999c;fill-opacity:1;fill-rule:nonzero;stroke:none"
         transform="matrix(1.3333333,0,0,-1.3333333,449.66933,191.16403)" />
      <path
         id="path88"
         d="m 0,0 h -14.395 l -2.405,2.586 -1.274,1.365 -1.273,1.357 -1.274,1.345 -1.274,1.329 -1.273,1.309 -1.273,1.284 -1.274,1.257 -1.274,1.223 -1.274,1.187 -1.273,1.146 -0.097,0.084 V 27.408 H 0 V 0 m -29.883,15.689 -0.926,0.803 -1.274,1.056 -1.273,1.006 -1.274,0.954 -1.274,0.9 -1.273,0.843 -1.274,0.784 -1.273,0.725 -1.274,0.665 -1.274,0.604 -1.273,0.542 -1.274,0.483 -1.273,0.421 -1.274,0.36 -1.274,0.299 -1.272,0.239 -1.274,0.181 -1.274,0.122 -1.274,0.065 -1.274,0.007 -1.274,-0.05 -1.272,-0.106 -1.274,-0.161 -0.688,-0.116 v 1.093 h 29.633 V 15.689 M 0,27.908 H -29.633 V 55.315 H 0 V 27.908 m -29.883,0 h -29.633 v 27.407 h 29.633 V 27.908 M 0,55.565 H -29.633 V 82.972 H 0 V 55.565 m -29.883,0 h -29.633 v 27.407 h 29.633 V 55.565 M 0,83.472 h -29.633 v 8.971 l 0.097,-0.062 1.273,-0.795 1.274,-0.758 1.274,-0.719 1.274,-0.68 1.273,-0.639 1.273,-0.596 1.274,-0.554 1.274,-0.512 1.273,-0.469 1.274,-0.426 1.273,-0.384 1.273,-0.344 1.275,-0.303 1.273,-0.265 1.274,-0.23 1.272,-0.197 1.274,-0.166 1.274,-0.136 1.273,-0.11 1.274,-0.084 1.274,-0.061 1.273,-0.038 1.274,-0.017 L 0,83.899 v -0.427 m -29.883,0 h -29.633 v 24.666 l 0.688,0.099 1.274,0.052 1.272,-0.073 1.274,-0.192 1.274,-0.3 1.274,-0.404 1.274,-0.497 1.274,-0.581 1.272,-0.656 1.274,-0.725 1.274,-0.781 1.273,-0.829 1.274,-0.87 1.273,-0.901 1.274,-0.923 1.274,-0.939 2.547,-1.891 1.273,-0.939 1.274,-0.927 1.274,-0.908 1.273,-0.886 1.274,-0.859 0.926,-0.602 v -9.134"
         style="fill:#bbbdc0;fill-opacity:1;fill-rule:nonzero;stroke:none"
         transform="matrix(1.3333333,0,0,-1.3333333,370.18667,301.79336)" />
      <path
         id="path89"
         d="M 0,0 H -29.633 V 0.25 H 0 V 0 m -29.883,0 h -29.633 v 0.25 h 29.633 V 0"
         style="fill:#adb0b2;fill-opacity:1;fill-rule:nonzero;stroke:none"
         transform="matrix(1.3333333,0,0,-1.3333333,370.18667,228.04003)" />
      <path
         id="path90"
         d="M 0,0 -0.25,0.217 V 11.936 H 0 V 0 M 0,12.436 H -0.25 V 67.5 H 0 V 12.436 M 0,68 h -0.25 v 9.134 L 0,76.971 V 68"
         style="fill:#adb0b2;fill-opacity:1;fill-rule:nonzero;stroke:none"
         transform="matrix(1.3333333,0,0,-1.3333333,330.676,281.16403)" />
      <path
         id="path91"
         d="M 0,0 H -59.516 V 0.5 H 0 V 0"
         style="fill:#97999c;fill-opacity:1;fill-rule:nonzero;stroke:none"
         transform="matrix(1.3333333,0,0,-1.3333333,370.18667,265.24936)" />
      <path
         id="path92"
         d="M 0,0 H -59.516 V 0.5 H 0 V 0"
         style="fill:#97999c;fill-opacity:1;fill-rule:nonzero;stroke:none"
         transform="matrix(1.3333333,0,0,-1.3333333,370.18667,191.16403)" />
      <path
         id="path93"
         d="M 0,0 H -21.284 V 27.408 H 8.35 V 8.483 L 7.584,7.761 6.31,6.529 5.036,5.268 3.762,3.976 2.489,2.656 1.216,1.309 0,0 M 8.6,8.719 V 27.408 H 38.234 V 26.23 L 38.149,26.216 36.875,25.945 35.601,25.623 34.328,25.25 33.054,24.83 31.78,24.36 30.507,23.846 29.234,23.287 27.96,22.684 26.687,22.039 25.413,21.352 24.14,20.626 22.866,19.858 21.592,19.052 20.319,18.207 19.046,17.325 17.772,16.404 16.498,15.447 15.225,14.454 13.952,13.424 12.677,12.36 11.404,11.26 10.13,10.128 8.857,8.961 8.6,8.719 M 38.234,27.908 H 8.6 V 55.315 H 38.234 V 27.908 m -29.884,0 h -29.634 v 6.809 l 0.85,0.874 1.273,1.346 1.273,1.382 1.273,1.419 1.274,1.459 1.274,1.497 1.273,1.536 1.274,1.575 1.274,1.616 1.274,1.655 1.272,1.694 1.274,1.733 1.274,1.772 0.732,1.04 H 8.35 V 27.908 M 38.234,55.565 H 8.6 v 19.663 l 0.257,0.408 1.273,2.017 1.274,2.009 1.273,1.994 0.85,1.316 H 38.234 V 55.565 m -29.884,0 H -4.244 l 0.365,0.519 1.274,1.843 1.273,1.877 1.274,1.907 1.274,1.935 1.273,1.96 1.273,1.982 1.274,1.997 1.274,2.011 1.274,2.019 0.766,1.216 V 55.565 M 38.234,83.472 H 13.851 l 0.101,0.157 1.273,1.943 1.273,1.909 1.274,1.868 1.274,1.818 1.273,1.762 1.273,1.7 1.274,1.63 1.274,1.553 1.273,1.469 1.274,1.378 1.273,1.281 1.274,1.179 1.273,1.071 1.273,0.956 1.274,0.836 1.274,0.713 1.273,0.586 1.274,0.453 1.274,0.32 0.085,0.012 V 83.472"
         style="fill:#bbbdc0;fill-opacity:1;fill-rule:nonzero;stroke:none"
         transform="matrix(1.3333333,0,0,-1.3333333,239.188,301.79336)" />
      <path
         id="path94"
         d="M 0,0 H -29.634 V 0.25 H 0 V 0 m -29.884,0 h -12.77 l 0.176,0.25 h 12.594 V 0"
         style="fill:#adb0b2;fill-opacity:1;fill-rule:nonzero;stroke:none"
         transform="matrix(1.3333333,0,0,-1.3333333,290.16533,228.04003)" />
      <path
         id="path95"
         d="M 0,0 V 18.925 H 0.25 V 0.236 L 0,0 M 0.25,19.425 H 0 v 46.924 l 0.25,0.396 v -47.32"
         style="fill:#adb0b2;fill-opacity:1;fill-rule:nonzero;stroke:none"
         transform="matrix(1.3333333,0,0,-1.3333333,250.32133,290.4827)" />
      <path
         id="path96"
         d="M 0,0 H -59.518 V 0.5 H 0 V 0"
         style="fill:#97999c;fill-opacity:1;fill-rule:nonzero;stroke:none"
         transform="matrix(1.3333333,0,0,-1.3333333,290.16533,265.24936)" />
      <path
         id="path97"
         d="m 0,0 h -24.707 l 0.324,0.5 H 0 V 0"
         style="fill:#97999c;fill-opacity:1;fill-rule:nonzero;stroke:none"
         transform="matrix(1.3333333,0,0,-1.3333333,290.16533,191.16403)" />
      <path
         id="path98"
         d="m 0,0 h -29.633 v 11.3 l 0.417,0.252 1.273,0.782 1.274,0.795 1.274,0.808 1.273,0.822 1.274,0.837 1.273,0.852 1.274,0.869 1.273,0.885 1.274,0.904 1.274,0.922 1.273,0.942 1.273,0.964 1.274,0.985 1.274,1.009 1.274,1.034 1.273,1.06 1.273,1.088 0.339,0.298 H 0 V 0 m -29.883,0 h -20.602 l 0.892,0.437 1.273,0.631 1.274,0.638 1.274,0.647 1.273,0.653 1.275,0.662 1.273,0.669 1.273,0.678 1.274,0.686 1.273,0.696 1.274,0.705 1.274,0.716 1.273,0.725 1.273,0.736 1.274,0.746 1.274,0.758 0.606,0.366 V 0 M 0,27.908 h -6.657 l 0.365,0.32 1.274,1.147 1.273,1.178 1.274,1.209 1.273,1.242 L 0,34.205 v -6.297"
         style="fill:#bbbdc0;fill-opacity:1;fill-rule:nonzero;stroke:none"
         transform="matrix(1.3333333,0,0,-1.3333333,210.14267,301.79336)" />
      <path
         id="path99"
         d="M 0,0 H -0.25 V 11.149 L 0,11.3 V 0"
         style="fill:#adb0b2;fill-opacity:1;fill-rule:nonzero;stroke:none"
         transform="matrix(1.3333333,0,0,-1.3333333,170.632,301.79336)" />
      <path
         id="path100"
         d="m 0,0 h -7.227 l 0.57,0.5 H 0 V 0"
         style="fill:#97999c;fill-opacity:1;fill-rule:nonzero;stroke:none"
         transform="matrix(1.3333333,0,0,-1.3333333,210.14267,265.24936)" />
      <path
         id="path101"
         d="M 0,0 V 24.966 H 0.5 V 0.57 L 0.076,0.085 0,0 M 0.5,25.216 H 0 V 59.421 L 0.076,59.496 0.5,59.933 V 25.216"
         style="fill:#97999c;fill-opacity:1;fill-rule:nonzero;stroke:none"
         transform="matrix(1.3333333,0,0,-1.3333333,210.14267,335.4147)" />
      <path
         id="path102"
         d="m 0,0 v 81.836 l 0.5,0.072 V 0.085 L 0,0"
         style="fill:#97999c;fill-opacity:1;fill-rule:nonzero;stroke:none"
         transform="matrix(1.3333333,0,0,-1.3333333,290.16533,266.82003)" />
      <path
         id="path103"
         d="M 0,0 -0.5,0.491 V 15.187 H 0 V 0 M 0,15.437 H -0.5 V 99.336 L 0,99.337 v -83.9"
         style="fill:#97999c;fill-opacity:1;fill-rule:nonzero;stroke:none"
         transform="matrix(1.3333333,0,0,-1.3333333,370.85333,322.37603)" />
      <path
         id="path104"
         d="m 0,0 h -73.774 l -0.092,0.099 -0.141,0.151 H 0 V 0 m -158.09,0 h -72.551 l 0.13,0.063 0.381,0.187 h 72.269 L -157.919,0.187 -158.09,0"
         style="fill:#adb0b2;fill-opacity:1;fill-rule:nonzero;stroke:none"
         transform="matrix(1.3333333,0,0,-1.3333333,449.66933,302.1267)" />
      <path
         id="path105"
         d="m 0,0 h -45.132 l -0.597,0.5 H 0 V 0 m -182.269,0 h -55.884 v 0.5 h 56.335 L -182.116,0.168 -182.269,0"
         style="fill:#97999c;fill-opacity:1;fill-rule:nonzero;stroke:none"
         transform="matrix(1.3333333,0,0,-1.3333333,449.66933,339.33736)" />
      <path
         id="path106"
         d="m 99.099,552.85 1.274,0.586 1.274,0.59 1.273,0.598 1.273,0.603 1.274,0.61 1.273,0.617 1.274,0.624 1.273,0.631 1.274,0.638 1.274,0.647 1.273,0.653 1.274,0.662 1.273,0.669 1.273,0.678 1.275,0.686 1.273,0.696 1.273,0.705 1.274,0.716 1.273,0.725 1.274,0.736 1.274,0.746 1.274,0.758 1.273,0.769 1.273,0.782 1.274,0.795 1.274,0.808 1.273,0.822 1.274,0.837 1.273,0.852 1.274,0.869 1.273,0.885 1.274,0.904 1.273,0.922 1.273,0.942 1.274,0.964 1.274,0.985 1.274,1.009 1.274,1.034 1.272,1.06 1.273,1.088 1.274,1.118 1.275,1.147 1.273,1.178 1.274,1.209 1.272,1.242 1.275,1.276 1.274,1.311 1.273,1.346 1.273,1.382 1.273,1.419 1.274,1.459 1.274,1.497 1.273,1.536 1.274,1.575 1.274,1.616 1.273,1.655 1.273,1.694 1.274,1.733 1.274,1.772 1.273,1.809 1.274,1.843 1.273,1.877 1.274,1.907 1.274,1.935 1.273,1.96 1.273,1.982 1.274,1.997 1.274,2.011 1.274,2.019 1.273,2.021 1.273,2.017 1.274,2.009 1.273,1.994 1.275,1.973 1.273,1.944 1.273,1.908 1.274,1.868 1.274,1.818 1.273,1.762 1.273,1.7 1.274,1.63 1.274,1.553 1.272,1.469 1.275,1.378 1.272,1.282 1.274,1.178 1.273,1.071 1.273,0.956 1.274,0.836 1.274,0.713 1.273,0.586 1.274,0.453 1.274,0.32 1.274,0.183 1.273,0.053 1.272,-0.074 1.274,-0.192 1.274,-0.3 1.274,-0.404 1.274,-0.497 1.274,-0.581 1.272,-0.657 1.274,-0.724 1.274,-0.781 1.273,-0.829 1.274,-0.87 1.273,-0.9 1.274,-0.924 1.274,-0.939 1.273,-0.945 1.274,-0.946 1.273,-0.939 1.274,-0.927 1.274,-0.908 1.273,-0.886 1.274,-0.859 1.273,-0.827 1.273,-0.794 1.274,-0.759 1.274,-0.719 1.274,-0.68 1.273,-0.639 1.273,-0.596 1.274,-0.554 1.273,-0.512 1.274,-0.469 1.274,-0.426 1.273,-0.384 1.273,-0.344 1.275,-0.303 1.273,-0.265 1.274,-0.23 1.272,-0.197 1.274,-0.166 1.274,-0.136 1.273,-0.11 1.274,-0.084 1.274,-0.061 1.273,-0.038 1.274,-0.016 1.274,0.002 1.273,0.021 1.273,0.04 1.273,0.054 1.274,0.071 1.274,0.085 1.274,0.1 1.273,0.113 1.273,0.123 1.274,0.138 1.274,0.148 1.274,0.158 1.273,0.169 1.273,0.177 1.274,0.187 1.274,0.196 1.273,0.204 1.274,0.211 1.274,0.22 1.273,0.227 1.273,0.234 1.272,0.24 1.274,0.247 1.273,0.252 1.273,0.259 1.274,0.265 1.273,0.269 1.274,0.276 1.274,0.28 1.273,0.285 1.274,0.289 1.273,0.295 1.274,0.298 1.273,0.303 1.273,0.308 1.275,0.31 1.274,0.315 1.274,0.319 1.272,0.322 1.273,0.326 1.274,0.331 1.274,0.332 1.273,0.337 1.275,0.338 1.272,0.343 1.276,0.346 1.273,0.349 V 500.484 l -1.273,0.56 -1.276,0.572 -1.272,0.582 -1.275,0.593 -1.273,0.605 -1.274,0.618 -1.274,0.629 -1.273,0.642 -1.272,0.653 -1.274,0.668 -1.274,0.68 -1.275,0.692 -1.273,0.707 -1.273,0.719 -1.274,0.735 -1.273,0.747 -1.274,0.762 -1.273,0.776 -1.274,0.791 -1.274,0.806 -1.273,0.821 -1.274,0.837 -1.273,0.851 -1.273,0.867 -1.274,0.882 -1.272,0.9 -1.273,0.915 -1.273,0.933 -1.274,0.947 -1.274,0.965 -1.273,0.981 -1.274,0.999 -1.274,1.015 -1.273,1.033 -1.273,1.049 -1.274,1.066 -1.274,1.084 -1.274,1.102 -1.273,1.119 -1.273,1.135 -1.274,1.153 -1.274,1.169 -1.274,1.186 -1.273,1.202 -1.273,1.219 -1.273,1.233 -1.274,1.25 -1.274,1.264 -1.273,1.28 -1.274,1.292 -1.274,1.305 -1.273,1.318 -1.274,1.329 -1.274,1.338 -1.272,1.348 -1.274,1.355 -1.273,1.361 -1.275,1.366 -1.273,1.368 -1.273,1.369 -1.274,1.365 -1.274,1.357 -1.273,1.345 -1.274,1.329 -1.273,1.309 -1.273,1.284 -1.274,1.257 -1.274,1.223 -1.274,1.187 -1.273,1.146 -1.273,1.104 -1.274,1.055 -1.273,1.007 -1.274,0.954 -1.274,0.9 -1.273,0.843 -1.274,0.784 -1.273,0.725 -1.274,0.665 -1.274,0.604 -1.273,0.542 -1.274,0.483 -1.273,0.421 -1.274,0.36 -1.274,0.299 -1.272,0.239 -1.274,0.181 -1.274,0.122 -1.274,0.065 -1.274,0.007 -1.274,-0.05 -1.272,-0.106 -1.273,-0.161 -1.274,-0.215 -1.274,-0.271 -1.274,-0.322 -1.273,-0.373 -1.274,-0.42 -1.274,-0.47 -1.273,-0.514 -1.273,-0.559 -1.274,-0.603 -1.272,-0.645 -1.275,-0.687 -1.272,-0.726 -1.274,-0.768 -1.274,-0.806 -1.273,-0.845 -1.273,-0.882 -1.274,-0.921 -1.274,-0.957 -1.273,-0.993 -1.273,-1.03 -1.275,-1.064 -1.273,-1.1 -1.274,-1.132 -1.273,-1.167 -1.273,-1.2 -1.274,-1.232 -1.274,-1.261 -1.274,-1.292 -1.273,-1.32 -1.273,-1.347 -1.274,-1.372 -1.274,-1.395 -1.273,-1.417 -1.274,-1.437 -1.273,-1.454 -1.274,-1.47 -1.274,-1.482 -1.273,-1.492 -1.273,-1.5 -1.274,-1.506 -1.274,-1.507 -1.273,-1.507 -1.274,-1.505 -1.274,-1.499 -1.273,-1.491 -1.273,-1.483 -1.273,-1.469 -1.274,-1.454 -1.275,-1.438 -1.272,-1.421 -1.274,-1.4 -1.273,-1.378 -1.275,-1.355 -1.274,-1.331 -1.273,-1.307 -1.272,-1.278 -1.274,-1.253 -1.274,-1.226 -1.274,-1.199 -1.274,-1.174 -1.273,-1.145 -1.273,-1.12 -1.274,-1.094 -1.273,-1.068 -1.274,-1.042 -1.273,-1.017 -1.274,-0.991 -1.273,-0.968 -1.274,-0.943 -1.274,-0.92 -1.273,-0.895 -1.273,-0.873 -1.274,-0.851 -1.274,-0.828 -1.274,-0.807 -1.273,-0.785 -1.274,-0.765 -1.273,-0.744 -1.273,-0.726 -1.275,-0.705 -1.273,-0.686 -1.273,-0.667 -1.274,-0.65 -1.273,-0.632 -1.274,-0.615 -1.274,-0.598 -1.273,-0.581 -1.274,-0.566 -1.273,-0.55 -1.274,-0.535 -1.273,-0.52 -1.273,-0.505 -1.274,-0.492 -1.274,-0.477 z"
         style="fill:none;stroke:#ffffff;stroke-width:0.5;stroke-linecap:butt;stroke-linejoin:miter;stroke-miterlimit:4;stroke-dasharray:9.9999, 9.9999;stroke-dashoffset:0;stroke-opacity:1"
         transform="matrix(1.3333333,0,0,-1.3333333,0,1043.9814)" />
      <path
         id="path107"
         d="m 0,0 1.273,0.659 1.274,0.672 1.273,0.683 1.274,0.697 1.274,0.708 1.273,0.723 1.274,0.735 1.273,0.749 1.274,0.762 1.273,0.777 1.274,0.791 1.274,0.805 1.273,0.82 1.273,0.835 1.274,0.85 1.274,0.866 1.273,0.881 1.274,0.898 1.273,0.915 1.274,0.931 1.273,0.949 1.274,0.965 1.274,0.983 1.273,1.002 1.274,1.02 1.274,1.038 1.273,1.058 1.273,1.077 1.274,1.097 1.273,1.116 1.274,1.137 1.274,1.159 1.273,1.179 1.273,1.201 1.274,1.223 1.274,1.246 1.273,1.268 1.274,1.292 1.273,1.314 1.273,1.34 1.274,1.362 1.274,1.387 1.274,1.408 1.273,1.431 1.273,1.453 1.274,1.472 1.274,1.493 1.273,1.511 1.273,1.53 1.273,1.547 1.274,1.564 1.274,1.577 1.273,1.592 1.274,1.604 1.274,1.615 1.273,1.625 1.273,1.634 1.274,1.639 1.274,1.644 1.273,1.646 1.274,1.648 1.273,1.646 1.274,1.644 1.274,1.64 1.273,1.63 1.273,1.621 1.274,1.608 1.274,1.595 1.274,1.577 1.273,1.557 1.273,1.535 1.274,1.509 1.273,1.481 1.275,1.45 1.273,1.416 1.273,1.379 1.274,1.338 1.274,1.298 1.273,1.249 1.273,1.202 1.274,1.149 1.274,1.094 1.273,1.037 1.274,0.975 1.273,0.912 1.274,0.844 1.273,0.773 1.273,0.702 1.274,0.627 1.274,0.548 1.273,0.468 1.274,0.384 1.274,0.3 1.274,0.212 1.273,0.126 1.272,0.042 1.274,-0.039 1.274,-0.121 1.274,-0.194 1.274,-0.269 1.274,-0.341 1.272,-0.406 1.274,-0.473 1.274,-0.533 1.273,-0.593 1.274,-0.647 1.273,-0.7 1.274,-0.748 1.274,-0.794 1.273,-0.836 1.274,-0.876 1.273,-0.911 1.274,-0.944 1.273,-0.974 1.274,-1.001 1.274,-1.024 1.274,-1.047 1.272,-1.062 1.274,-1.079 1.274,-1.09 1.274,-1.101 1.273,-1.107 2.547,-2.227 1.273,-1.115 1.274,-1.112 1.274,-1.107 1.273,-1.102 1.273,-1.091 1.275,-1.082 1.273,-1.073 1.274,-1.062 1.272,-1.052 1.274,-1.044 1.274,-1.034 1.273,-1.024 1.274,-1.016 1.274,-1.004 1.273,-0.998 1.274,-0.987 1.273,-0.978 1.274,-0.97 1.274,-0.96 1.272,-0.952 1.274,-0.943 1.274,-0.935 1.274,-0.925 1.273,-0.918 1.273,-0.91 1.274,-0.9 1.274,-0.893 1.274,-0.884 1.273,-0.878 1.273,-0.868 1.274,-0.86 1.274,-0.853 1.273,-0.845 1.274,-0.837 1.274,-0.829 1.272,-0.823 1.274,-0.814 1.272,-0.807 1.274,-0.801 1.273,-0.792 1.273,-0.786 1.274,-0.777 1.273,-0.772 1.274,-0.763 1.273,-0.758 1.274,-0.75 1.274,-0.743 1.273,-0.737 1.274,-0.729 1.273,-0.723 1.273,-0.717 1.275,-0.709 1.274,-0.704 1.273,-0.697 1.273,-0.691 1.273,-0.685 1.274,-0.678 1.274,-0.672 1.273,-0.665 1.275,-0.661 1.272,-0.654 1.276,-0.646 1.273,-0.642"
         style="fill:none;stroke:#231f20;stroke-width:0.75;stroke-linecap:butt;stroke-linejoin:miter;stroke-miterlimit:1;stroke-dasharray:none;stroke-opacity:1"
         transform="matrix(1.3333333,0,0,-1.3333333,132.132,365.15603)" />
    </g>
    <text
       xml:space="preserve"
       style="font-size:31.9027px;line-height:150%;font-family:sans-serif;-inkscape-font-specification:sans-serif;text-align:end;letter-spacing:0px;writing-mode:lr-tb;direction:ltr;text-anchor:end;fill:#000000;fill-opacity:0.897165;fill-rule:evenodd;stroke-width:0;stroke-linecap:round;stroke-linejoin:round;stroke-miterlimit:2;stroke-opacity:0.680142;paint-order:stroke markers fill"
       x="874.43677"
       y="927.50812"
       id="text1"><tspan
         sodipodi:role="line"
         id="tspan1"
         style="font-size:31.9027px;fill:#000000;stroke-width:0"
         x="884.5777"
         y="927.50812">Variation d'épaisseur diaphragmatique </tspan></text>
  </g>
  <metadata
     id="metadata139">
    <rdf:RDF>
      <cc:Work
         rdf:about="">
        <dc:creator>
          <cc:Agent>
            <dc:title>Nicolas Blais St-Laurent</dc:title>
          </cc:Agent>
        </dc:creator>
      </cc:Work>
    </rdf:RDF>
  </metadata>
</svg>
