<?xml version="1.0" encoding="UTF-8" standalone="no"?>
<!-- Created with Inkscape (http://www.inkscape.org/) -->

<svg
   width="31.540474in"
   height="35.433071in"
   viewBox="0 0 801.12804 900.00001"
   version="1.1"
   id="svg5"
   inkscape:version="1.4 (e7c3feb100, 2024-10-09)"
   sodipodi:docname="goligher_duree_de_ventilation.svg"
   xmlns:inkscape="http://www.inkscape.org/namespaces/inkscape"
   xmlns:sodipodi="http://sodipodi.sourceforge.net/DTD/sodipodi-0.dtd"
   xmlns="http://www.w3.org/2000/svg"
   xmlns:svg="http://www.w3.org/2000/svg"
   xmlns:rdf="http://www.w3.org/1999/02/22-rdf-syntax-ns#"
   xmlns:cc="http://creativecommons.org/ns#"
   xmlns:dc="http://purl.org/dc/elements/1.1/">
  <sodipodi:namedview
     id="namedview7"
     pagecolor="#ffffff"
     bordercolor="#999999"
     borderopacity="1"
     inkscape:showpageshadow="0"
     inkscape:pageopacity="0"
     inkscape:pagecheckerboard="0"
     inkscape:deskcolor="#d1d1d1"
     inkscape:document-units="mm"
     showgrid="false"
     inkscape:zoom="0.21665284"
     inkscape:cx="1513.9427"
     inkscape:cy="1700.8778"
     inkscape:window-width="1920"
     inkscape:window-height="997"
     inkscape:window-x="0"
     inkscape:window-y="0"
     inkscape:window-maximized="1"
     inkscape:current-layer="layer1" />
  <defs
     id="defs2">
    <clipPath
       clipPathUnits="userSpaceOnUse"
       id="clipPath101">
      <path
         d="M 58.677,706.79 H 348.945 V 398.438 H 58.677 Z"
         transform="translate(0,2.7000001e-5)"
         id="path101" />
    </clipPath>
    <clipPath
       clipPathUnits="userSpaceOnUse"
       id="clipPath122">
      <path
         d="M 58.677,706.79 H 348.945 V 398.438 H 58.677 Z"
         transform="matrix(1,0,0,-1,-161.5428,400.10061)"
         id="path122" />
    </clipPath>
    <clipPath
       clipPathUnits="userSpaceOnUse"
       id="clipPath125">
      <path
         d="M 58.677,706.79 H 348.945 V 398.438 H 58.677 Z"
         transform="matrix(1,0,0,-1,-206.4463,400.10061)"
         id="path125" />
    </clipPath>
    <clipPath
       clipPathUnits="userSpaceOnUse"
       id="clipPath128">
      <path
         d="M 58.677,706.79 H 348.945 V 398.438 H 58.677 Z"
         transform="matrix(1,0,0,-1,-290.03761,400.10061)"
         id="path128" />
    </clipPath>
  </defs>
  <g
     inkscape:label="Calque 1"
     inkscape:groupmode="layer"
     id="layer1"
     transform="translate(-44.991576,-23.547917)">
    <rect
       style="fill:#ffffff;fill-rule:evenodd;stroke-width:0;stroke-linecap:round;stroke-linejoin:round;stroke-miterlimit:2;stroke-opacity:0.680142;paint-order:stroke markers fill"
       id="rect1"
       width="801.12805"
       height="899.99994"
       x="44.991577"
       y="23.547916" />
    <g
       id="group-MC7"
       transform="matrix(2.1614559,0,0,2.1614559,-159.51931,-196.04467)">
      <g
         id="group-MC8">
        <path
           id="path21"
           d="M 0,0 H 263.724"
           style="fill:none;stroke:#dcddde;stroke-width:0.25;stroke-linecap:butt;stroke-linejoin:miter;stroke-miterlimit:10;stroke-dasharray:none;stroke-opacity:1"
           transform="matrix(1.3333333,0,0,-1.3333333,113.37733,413.38403)" />
        <path
           id="path22"
           d="M 0,0 H 263.724"
           style="fill:none;stroke:#dcddde;stroke-width:0.25;stroke-linecap:butt;stroke-linejoin:miter;stroke-miterlimit:10;stroke-dasharray:none;stroke-opacity:1"
           transform="matrix(1.3333333,0,0,-1.3333333,113.37733,359.68536)" />
        <path
           id="path23"
           d="M 0,0 H 263.724"
           style="fill:none;stroke:#dcddde;stroke-width:0.25;stroke-linecap:butt;stroke-linejoin:miter;stroke-miterlimit:10;stroke-dasharray:none;stroke-opacity:1"
           transform="matrix(1.3333333,0,0,-1.3333333,113.37733,305.98536)" />
        <path
           id="path24"
           d="M 0,0 H 263.724"
           style="fill:none;stroke:#dcddde;stroke-width:0.25;stroke-linecap:butt;stroke-linejoin:miter;stroke-miterlimit:10;stroke-dasharray:none;stroke-opacity:1"
           transform="matrix(1.3333333,0,0,-1.3333333,113.37733,252.2867)" />
        <path
           id="path25"
           d="M 0,0 H 263.724"
           style="fill:none;stroke:#dcddde;stroke-width:0.25;stroke-linecap:butt;stroke-linejoin:miter;stroke-miterlimit:10;stroke-dasharray:none;stroke-opacity:1"
           transform="matrix(1.3333333,0,0,-1.3333333,113.37733,198.5867)" />
        <path
           id="path26"
           d="M 0,0 H 263.724"
           style="fill:none;stroke:#dcddde;stroke-width:0.25;stroke-linecap:butt;stroke-linejoin:miter;stroke-miterlimit:10;stroke-dasharray:none;stroke-opacity:1"
           transform="matrix(1.3333333,0,0,-1.3333333,113.37733,144.88803)" />
        <path
           id="path27"
           d="M 0,0 H 263.724"
           style="fill:none;stroke:#bcbec0;stroke-width:0.5;stroke-linecap:butt;stroke-linejoin:miter;stroke-miterlimit:10;stroke-dasharray:none;stroke-opacity:1"
           transform="matrix(1.3333333,0,0,-1.3333333,113.37733,440.23336)" />
        <path
           id="path28"
           d="M 0,0 H 263.724"
           style="fill:none;stroke:#bcbec0;stroke-width:0.5;stroke-linecap:butt;stroke-linejoin:miter;stroke-miterlimit:10;stroke-dasharray:none;stroke-opacity:1"
           transform="matrix(1.3333333,0,0,-1.3333333,113.37733,386.5347)" />
        <path
           id="path29"
           d="M 0,0 H 263.724"
           style="fill:none;stroke:#bcbec0;stroke-width:0.5;stroke-linecap:butt;stroke-linejoin:miter;stroke-miterlimit:10;stroke-dasharray:none;stroke-opacity:1"
           transform="matrix(1.3333333,0,0,-1.3333333,113.37733,332.83603)" />
        <path
           id="path30"
           d="M 0,0 H 263.724"
           style="fill:none;stroke:#bcbec0;stroke-width:0.5;stroke-linecap:butt;stroke-linejoin:miter;stroke-miterlimit:10;stroke-dasharray:none;stroke-opacity:1"
           transform="matrix(1.3333333,0,0,-1.3333333,113.37733,279.13603)" />
        <path
           id="path31"
           d="M 0,0 H 263.724"
           style="fill:none;stroke:#bcbec0;stroke-width:0.5;stroke-linecap:butt;stroke-linejoin:miter;stroke-miterlimit:10;stroke-dasharray:none;stroke-opacity:1"
           transform="matrix(1.3333333,0,0,-1.3333333,113.37733,225.43736)" />
        <path
           id="path32"
           d="M 0,0 H 263.724"
           style="fill:none;stroke:#bcbec0;stroke-width:0.5;stroke-linecap:butt;stroke-linejoin:miter;stroke-miterlimit:10;stroke-dasharray:none;stroke-opacity:1"
           transform="matrix(1.3333333,0,0,-1.3333333,113.37733,171.7387)" />
        <path
           id="path33"
           d="M 0,0 H 263.724"
           style="fill:none;stroke:#bcbec0;stroke-width:0.5;stroke-linecap:butt;stroke-linejoin:miter;stroke-miterlimit:10;stroke-dasharray:none;stroke-opacity:1"
           transform="matrix(1.3333333,0,0,-1.3333333,113.37733,118.0387)" />
        <path
           id="path34"
           d="M 0,0 V 265.811"
           style="fill:none;stroke:#bcbec0;stroke-width:0.5;stroke-linecap:butt;stroke-linejoin:miter;stroke-miterlimit:10;stroke-dasharray:none;stroke-opacity:1"
           transform="matrix(1.3333333,0,0,-1.3333333,136.30933,456.34403)" />
        <path
           id="path35"
           d="M 0,0 V 265.811"
           style="fill:none;stroke:#bcbec0;stroke-width:0.5;stroke-linecap:butt;stroke-linejoin:miter;stroke-miterlimit:10;stroke-dasharray:none;stroke-opacity:1"
           transform="matrix(1.3333333,0,0,-1.3333333,174.52933,456.34403)" />
        <path
           id="path36"
           d="M 0,0 V 265.811"
           style="fill:none;stroke:#bcbec0;stroke-width:0.5;stroke-linecap:butt;stroke-linejoin:miter;stroke-miterlimit:10;stroke-dasharray:none;stroke-opacity:1"
           transform="matrix(1.3333333,0,0,-1.3333333,212.75067,456.34403)" />
        <path
           id="path37"
           d="M 0,0 V 265.811"
           style="fill:none;stroke:#bcbec0;stroke-width:0.5;stroke-linecap:butt;stroke-linejoin:miter;stroke-miterlimit:10;stroke-dasharray:none;stroke-opacity:1"
           transform="matrix(1.3333333,0,0,-1.3333333,250.972,456.34403)" />
        <path
           id="path38"
           d="M 0,0 V 265.811"
           style="fill:none;stroke:#bcbec0;stroke-width:0.5;stroke-linecap:butt;stroke-linejoin:miter;stroke-miterlimit:10;stroke-dasharray:none;stroke-opacity:1"
           transform="matrix(1.3333333,0,0,-1.3333333,289.19333,456.34403)" />
        <path
           id="path39"
           d="M 0,0 V 265.811"
           style="fill:none;stroke:#bcbec0;stroke-width:0.5;stroke-linecap:butt;stroke-linejoin:miter;stroke-miterlimit:10;stroke-dasharray:none;stroke-opacity:1"
           transform="matrix(1.3333333,0,0,-1.3333333,327.41333,456.34403)" />
        <path
           id="path40"
           d="M 0,0 V 265.811"
           style="fill:none;stroke:#bcbec0;stroke-width:0.5;stroke-linecap:butt;stroke-linejoin:miter;stroke-miterlimit:10;stroke-dasharray:none;stroke-opacity:1"
           transform="matrix(1.3333333,0,0,-1.3333333,365.63467,456.34403)" />
        <path
           id="path41"
           d="M 0,0 V 265.811"
           style="fill:none;stroke:#bcbec0;stroke-width:0.5;stroke-linecap:butt;stroke-linejoin:miter;stroke-miterlimit:10;stroke-dasharray:none;stroke-opacity:1"
           transform="matrix(1.3333333,0,0,-1.3333333,403.85333,456.34403)" />
        <path
           id="path42"
           d="M 0,0 V 265.811"
           style="fill:none;stroke:#bcbec0;stroke-width:0.5;stroke-linecap:butt;stroke-linejoin:miter;stroke-miterlimit:10;stroke-dasharray:none;stroke-opacity:1"
           transform="matrix(1.3333333,0,0,-1.3333333,442.076,456.34403)" />
        <path
           id="path43"
           d="M 0,0 V 100.686"
           style="fill:none;stroke:#231f20;stroke-width:0.5;stroke-linecap:butt;stroke-linejoin:miter;stroke-miterlimit:10;stroke-dasharray:none;stroke-opacity:1"
           transform="matrix(1.3333333,0,0,-1.3333333,136.30933,241.54536)" />
        <path
           id="path44"
           d="M 0,0 V -24.165"
           style="fill:none;stroke:#231f20;stroke-width:0.5;stroke-linecap:butt;stroke-linejoin:miter;stroke-miterlimit:10;stroke-dasharray:none;stroke-opacity:1"
           transform="matrix(1.3333333,0,0,-1.3333333,136.30933,375.79336)" />
        <path
           id="path45"
           d="m 91.482,501.14 h 21.499 V 601.826 H 91.482 Z"
           style="fill:#bcbec0;fill-opacity:1;fill-rule:nonzero;stroke:none"
           transform="matrix(1.3333333,0,0,-1.3333333,0,1043.9814)" />
        <path
           id="path46"
           d="M 21.499,0 H 0 v -100.686 h 21.499 z"
           style="fill:none;stroke:#231f20;stroke-width:0.5;stroke-linecap:butt;stroke-linejoin:miter;stroke-miterlimit:10;stroke-dasharray:none;stroke-opacity:1"
           transform="matrix(1.3333333,0,0,-1.3333333,121.976,241.54536)" />
        <path
           id="path47"
           d="M 0,0 Z"
           style="fill:none;stroke:#231f20;stroke-width:0.5;stroke-linecap:butt;stroke-linejoin:miter;stroke-miterlimit:10;stroke-dasharray:none;stroke-opacity:1"
           transform="matrix(1.3333333,0,0,-1.3333333,121.976,241.54536)" />
        <path
           id="path48"
           d="M 0,0 H 21.499"
           style="fill:none;stroke:#231f20;stroke-width:1;stroke-linecap:butt;stroke-linejoin:miter;stroke-miterlimit:10;stroke-dasharray:none;stroke-opacity:1"
           transform="matrix(1.3333333,0,0,-1.3333333,121.976,332.83603)" />
        <path
           id="path49"
           d="M 0,0 V 116.796"
           style="fill:none;stroke:#231f20;stroke-width:0.5;stroke-linecap:butt;stroke-linejoin:miter;stroke-miterlimit:10;stroke-dasharray:none;stroke-opacity:1"
           transform="matrix(1.3333333,0,0,-1.3333333,174.52933,263.02536)" />
        <path
           id="path50"
           d="M 0,0 V -16.109"
           style="fill:none;stroke:#231f20;stroke-width:0.5;stroke-linecap:butt;stroke-linejoin:miter;stroke-miterlimit:10;stroke-dasharray:none;stroke-opacity:1"
           transform="matrix(1.3333333,0,0,-1.3333333,174.52933,386.53336)" />
        <path
           id="path51"
           d="m 120.147,493.086 h 21.499 v 92.63 h -21.499 z"
           style="fill:#bcbec0;fill-opacity:1;fill-rule:nonzero;stroke:none"
           transform="matrix(1.3333333,0,0,-1.3333333,0,1043.9814)" />
        <path
           id="path52"
           d="M 21.499,0 H 0 v -92.63 h 21.499 z"
           style="fill:none;stroke:#231f20;stroke-width:0.5;stroke-linecap:butt;stroke-linejoin:miter;stroke-miterlimit:10;stroke-dasharray:none;stroke-opacity:1"
           transform="matrix(1.3333333,0,0,-1.3333333,160.196,263.02536)" />
        <path
           id="path53"
           d="M 0,0 Z"
           style="fill:none;stroke:#231f20;stroke-width:0.5;stroke-linecap:butt;stroke-linejoin:miter;stroke-miterlimit:10;stroke-dasharray:none;stroke-opacity:1"
           transform="matrix(1.3333333,0,0,-1.3333333,160.196,263.02536)" />
        <path
           id="path54"
           d="M 0,0 H 21.499"
           style="fill:none;stroke:#231f20;stroke-width:1;stroke-linecap:butt;stroke-linejoin:miter;stroke-miterlimit:10;stroke-dasharray:none;stroke-opacity:1"
           transform="matrix(1.3333333,0,0,-1.3333333,160.196,338.20403)" />
        <path
           id="path55"
           d="M 0,0 V 108.741"
           style="fill:none;stroke:#231f20;stroke-width:0.5;stroke-linecap:butt;stroke-linejoin:miter;stroke-miterlimit:10;stroke-dasharray:none;stroke-opacity:1"
           transform="matrix(1.3333333,0,0,-1.3333333,212.75067,246.91603)" />
        <path
           id="path56"
           d="M 0,0 V -16.109"
           style="fill:none;stroke:#231f20;stroke-width:0.5;stroke-linecap:butt;stroke-linejoin:miter;stroke-miterlimit:10;stroke-dasharray:none;stroke-opacity:1"
           transform="matrix(1.3333333,0,0,-1.3333333,212.75067,386.53336)" />
        <path
           id="path57"
           d="m 148.813,493.085 h 21.499 v 104.713 h -21.499 z"
           style="fill:#bcbec0;fill-opacity:1;fill-rule:nonzero;stroke:none"
           transform="matrix(1.3333333,0,0,-1.3333333,0,1043.9814)" />
        <path
           id="path58"
           d="M 21.499,0 H 0 v -104.713 h 21.499 z"
           style="fill:none;stroke:#231f20;stroke-width:0.5;stroke-linecap:butt;stroke-linejoin:miter;stroke-miterlimit:10;stroke-dasharray:none;stroke-opacity:1"
           transform="matrix(1.3333333,0,0,-1.3333333,198.41733,246.91603)" />
        <path
           id="path59"
           d="M 0,0 Z"
           style="fill:none;stroke:#231f20;stroke-width:0.5;stroke-linecap:butt;stroke-linejoin:miter;stroke-miterlimit:10;stroke-dasharray:none;stroke-opacity:1"
           transform="matrix(1.3333333,0,0,-1.3333333,198.41733,246.91603)" />
        <path
           id="path60"
           d="M 0,0 H 21.499"
           style="fill:none;stroke:#231f20;stroke-width:1;stroke-linecap:butt;stroke-linejoin:miter;stroke-miterlimit:10;stroke-dasharray:none;stroke-opacity:1"
           transform="matrix(1.3333333,0,0,-1.3333333,198.41733,354.31603)" />
        <path
           id="path61"
           d="M 0,0 V 56.385"
           style="fill:none;stroke:#231f20;stroke-width:0.5;stroke-linecap:butt;stroke-linejoin:miter;stroke-miterlimit:10;stroke-dasharray:none;stroke-opacity:1"
           transform="matrix(1.3333333,0,0,-1.3333333,250.97067,343.5747)" />
        <path
           id="path62"
           d="M 0,0 V -8.055"
           style="fill:none;stroke:#231f20;stroke-width:0.5;stroke-linecap:butt;stroke-linejoin:miter;stroke-miterlimit:10;stroke-dasharray:none;stroke-opacity:1"
           transform="matrix(1.3333333,0,0,-1.3333333,250.97067,397.2747)" />
        <path
           id="path63"
           d="m 177.479,485.03 h 21.499 v 40.275 h -21.499 z"
           style="fill:#bcbec0;fill-opacity:1;fill-rule:nonzero;stroke:none"
           transform="matrix(1.3333333,0,0,-1.3333333,0,1043.9814)" />
        <path
           id="path64"
           d="M 21.499,0 H 0 v -40.275 h 21.499 z"
           style="fill:none;stroke:#231f20;stroke-width:0.5;stroke-linecap:butt;stroke-linejoin:miter;stroke-miterlimit:10;stroke-dasharray:none;stroke-opacity:1"
           transform="matrix(1.3333333,0,0,-1.3333333,236.63867,343.5747)" />
        <path
           id="path65"
           d="M 0,0 Z"
           style="fill:none;stroke:#231f20;stroke-width:0.5;stroke-linecap:butt;stroke-linejoin:miter;stroke-miterlimit:10;stroke-dasharray:none;stroke-opacity:1"
           transform="matrix(1.3333333,0,0,-1.3333333,236.63867,343.5747)" />
        <path
           id="path66"
           d="M 0,0 H 21.499"
           style="fill:none;stroke:#231f20;stroke-width:1;stroke-linecap:butt;stroke-linejoin:miter;stroke-miterlimit:10;stroke-dasharray:none;stroke-opacity:1"
           transform="matrix(1.3333333,0,0,-1.3333333,236.63867,375.7947)" />
        <path
           id="path67"
           d="m 0,0 c 0,-0.791 -0.639,-1.431 -1.429,-1.431 -0.788,0 -1.429,0.64 -1.429,1.431 0,0.789 0.641,1.43 1.429,1.43 C -0.639,1.43 0,0.789 0,0"
           style="fill:#231f20;fill-opacity:1;fill-rule:nonzero;stroke:none"
           transform="matrix(1.3333333,0,0,-1.3333333,291.096,268.3947)" />
        <path
           id="path68"
           d="m 0,0 c 0,-0.889 -0.719,-1.609 -1.609,-1.609 -0.885,0 -1.607,0.72 -1.607,1.609 0,0.888 0.722,1.609 1.607,1.609 C -0.719,1.609 0,0.888 0,0 Z"
           style="fill:none;stroke:#231f20;stroke-width:0.5;stroke-linecap:butt;stroke-linejoin:miter;stroke-miterlimit:10;stroke-dasharray:none;stroke-opacity:1"
           transform="matrix(1.3333333,0,0,-1.3333333,291.33467,268.39603)" />
        <path
           id="path69"
           d="M 0,0 V 24.166"
           style="fill:none;stroke:#231f20;stroke-width:0.5;stroke-linecap:butt;stroke-linejoin:miter;stroke-miterlimit:10;stroke-dasharray:none;stroke-opacity:1"
           transform="matrix(1.3333333,0,0,-1.3333333,289.192,354.31603)" />
        <path
           id="path70"
           d="M 0,0 V -8.055"
           style="fill:none;stroke:#231f20;stroke-width:0.5;stroke-linecap:butt;stroke-linejoin:miter;stroke-miterlimit:10;stroke-dasharray:none;stroke-opacity:1"
           transform="matrix(1.3333333,0,0,-1.3333333,289.192,397.2747)" />
        <path
           id="path71"
           d="m 206.143,485.03 h 21.5 v 32.219 h -21.5 z"
           style="fill:#bcbec0;fill-opacity:1;fill-rule:nonzero;stroke:none"
           transform="matrix(1.3333333,0,0,-1.3333333,0,1043.9814)" />
        <path
           id="path72"
           d="M 21.5,0 H 0 v -32.219 h 21.5 z"
           style="fill:none;stroke:#231f20;stroke-width:0.5;stroke-linecap:butt;stroke-linejoin:miter;stroke-miterlimit:10;stroke-dasharray:none;stroke-opacity:1"
           transform="matrix(1.3333333,0,0,-1.3333333,274.85733,354.31603)" />
        <path
           id="path73"
           d="M 0,0 Z"
           style="fill:none;stroke:#231f20;stroke-width:0.5;stroke-linecap:butt;stroke-linejoin:miter;stroke-miterlimit:10;stroke-dasharray:none;stroke-opacity:1"
           transform="matrix(1.3333333,0,0,-1.3333333,274.85733,354.31603)" />
        <path
           id="path74"
           d="M 0,0 H 21.5"
           style="fill:none;stroke:#231f20;stroke-width:1;stroke-linecap:butt;stroke-linejoin:miter;stroke-miterlimit:10;stroke-dasharray:none;stroke-opacity:1"
           transform="matrix(1.3333333,0,0,-1.3333333,274.85733,386.5347)" />
        <path
           id="path75"
           d="M 0,0 V 32.219"
           style="fill:none;stroke:#231f20;stroke-width:0.5;stroke-linecap:butt;stroke-linejoin:miter;stroke-miterlimit:10;stroke-dasharray:none;stroke-opacity:1"
           transform="matrix(1.3333333,0,0,-1.3333333,327.412,343.5747)" />
        <path
           id="path76"
           d="M 0,0 V -4.028"
           style="fill:none;stroke:#231f20;stroke-width:0.5;stroke-linecap:butt;stroke-linejoin:miter;stroke-miterlimit:10;stroke-dasharray:none;stroke-opacity:1"
           transform="matrix(1.3333333,0,0,-1.3333333,327.412,391.90403)" />
        <path
           id="path77"
           d="m 234.81,489.058 h 21.499 v 36.247 H 234.81 Z"
           style="fill:#bcbec0;fill-opacity:1;fill-rule:nonzero;stroke:none"
           transform="matrix(1.3333333,0,0,-1.3333333,0,1043.9814)" />
        <path
           id="path78"
           d="M 21.499,0 H 0 v -36.247 h 21.499 z"
           style="fill:none;stroke:#231f20;stroke-width:0.5;stroke-linecap:butt;stroke-linejoin:miter;stroke-miterlimit:10;stroke-dasharray:none;stroke-opacity:1"
           transform="matrix(1.3333333,0,0,-1.3333333,313.08,343.5747)" />
        <path
           id="path79"
           d="M 0,0 Z"
           style="fill:none;stroke:#231f20;stroke-width:0.5;stroke-linecap:butt;stroke-linejoin:miter;stroke-miterlimit:10;stroke-dasharray:none;stroke-opacity:1"
           transform="matrix(1.3333333,0,0,-1.3333333,313.08,343.5747)" />
        <path
           id="path80"
           d="M 0,0 H 21.499"
           style="fill:none;stroke:#231f20;stroke-width:1;stroke-linecap:butt;stroke-linejoin:miter;stroke-miterlimit:10;stroke-dasharray:none;stroke-opacity:1"
           transform="matrix(1.3333333,0,0,-1.3333333,313.08,359.68536)" />
        <path
           id="path81"
           d="M 0,0 V 8.056"
           style="fill:none;stroke:#231f20;stroke-width:0.5;stroke-linecap:butt;stroke-linejoin:miter;stroke-miterlimit:10;stroke-dasharray:none;stroke-opacity:1"
           transform="matrix(1.3333333,0,0,-1.3333333,365.63333,311.35603)" />
        <path
           id="path82"
           d="M 0,0 V -16.109"
           style="fill:none;stroke:#231f20;stroke-width:0.5;stroke-linecap:butt;stroke-linejoin:miter;stroke-miterlimit:10;stroke-dasharray:none;stroke-opacity:1"
           transform="matrix(1.3333333,0,0,-1.3333333,365.63333,365.0547)" />
        <path
           id="path83"
           d="m 263.475,509.195 h 21.499 v 40.274 h -21.499 z"
           style="fill:#bcbec0;fill-opacity:1;fill-rule:nonzero;stroke:none"
           transform="matrix(1.3333333,0,0,-1.3333333,0,1043.9814)" />
        <path
           id="path84"
           d="M 21.499,0 H 0 v -40.274 h 21.499 z"
           style="fill:none;stroke:#231f20;stroke-width:0.5;stroke-linecap:butt;stroke-linejoin:miter;stroke-miterlimit:10;stroke-dasharray:none;stroke-opacity:1"
           transform="matrix(1.3333333,0,0,-1.3333333,351.3,311.35603)" />
        <path
           id="path85"
           d="M 0,0 Z"
           style="fill:none;stroke:#231f20;stroke-width:0.5;stroke-linecap:butt;stroke-linejoin:miter;stroke-miterlimit:10;stroke-dasharray:none;stroke-opacity:1"
           transform="matrix(1.3333333,0,0,-1.3333333,351.3,311.35603)" />
        <path
           id="path86"
           d="M 0,0 H 21.499"
           style="fill:none;stroke:#231f20;stroke-width:1;stroke-linecap:butt;stroke-linejoin:miter;stroke-miterlimit:10;stroke-dasharray:none;stroke-opacity:1"
           transform="matrix(1.3333333,0,0,-1.3333333,351.3,365.0547)" />
        <path
           id="path87"
           d="M 0,0 V 72.494"
           style="fill:none;stroke:#231f20;stroke-width:0.5;stroke-linecap:butt;stroke-linejoin:miter;stroke-miterlimit:10;stroke-dasharray:none;stroke-opacity:1"
           transform="matrix(1.3333333,0,0,-1.3333333,403.852,214.69736)" />
        <path
           id="path88"
           d="M 0,0 V -36.247"
           style="fill:none;stroke:#231f20;stroke-width:0.5;stroke-linecap:butt;stroke-linejoin:miter;stroke-miterlimit:10;stroke-dasharray:none;stroke-opacity:1"
           transform="matrix(1.3333333,0,0,-1.3333333,403.852,359.68536)" />
        <path
           id="path89"
           d="m 292.14,513.222 h 21.499 V 621.963 H 292.14 Z"
           style="fill:#bcbec0;fill-opacity:1;fill-rule:nonzero;stroke:none"
           transform="matrix(1.3333333,0,0,-1.3333333,0,1043.9814)" />
        <path
           id="path90"
           d="M 21.499,0 H 0 v -108.741 h 21.499 z"
           style="fill:none;stroke:#231f20;stroke-width:0.5;stroke-linecap:butt;stroke-linejoin:miter;stroke-miterlimit:10;stroke-dasharray:none;stroke-opacity:1"
           transform="matrix(1.3333333,0,0,-1.3333333,389.52,214.69736)" />
        <path
           id="path91"
           d="M 0,0 Z"
           style="fill:none;stroke:#231f20;stroke-width:0.5;stroke-linecap:butt;stroke-linejoin:miter;stroke-miterlimit:10;stroke-dasharray:none;stroke-opacity:1"
           transform="matrix(1.3333333,0,0,-1.3333333,389.52,214.69736)" />
        <path
           id="path92"
           d="M 0,0 H 21.499"
           style="fill:none;stroke:#231f20;stroke-width:1;stroke-linecap:butt;stroke-linejoin:miter;stroke-miterlimit:10;stroke-dasharray:none;stroke-opacity:1"
           transform="matrix(1.3333333,0,0,-1.3333333,389.52,311.35603)" />
        <path
           id="path93"
           d="M 0,0 V 0"
           style="fill:none;stroke:#231f20;stroke-width:0.5;stroke-linecap:butt;stroke-linejoin:miter;stroke-miterlimit:10;stroke-dasharray:none;stroke-opacity:1"
           transform="matrix(1.3333333,0,0,-1.3333333,442.07467,246.91603)" />
        <path
           id="path94"
           d="M 0,0 V -36.247"
           style="fill:none;stroke:#231f20;stroke-width:0.5;stroke-linecap:butt;stroke-linejoin:miter;stroke-miterlimit:10;stroke-dasharray:none;stroke-opacity:1"
           transform="matrix(1.3333333,0,0,-1.3333333,442.07467,348.94536)" />
        <path
           id="path95"
           d="m 320.806,521.277 h 21.501 v 76.522 h -21.501 z"
           style="fill:#bcbec0;fill-opacity:1;fill-rule:nonzero;stroke:none"
           transform="matrix(1.3333333,0,0,-1.3333333,0,1043.9814)" />
        <path
           id="path96"
           d="M 21.501,0 H 0 v -76.522 h 21.501 z"
           style="fill:none;stroke:#231f20;stroke-width:0.5;stroke-linecap:butt;stroke-linejoin:miter;stroke-miterlimit:10;stroke-dasharray:none;stroke-opacity:1"
           transform="matrix(1.3333333,0,0,-1.3333333,427.74133,246.91603)" />
        <path
           id="path97"
           d="M 0,0 Z"
           style="fill:none;stroke:#231f20;stroke-width:0.5;stroke-linecap:butt;stroke-linejoin:miter;stroke-miterlimit:10;stroke-dasharray:none;stroke-opacity:1"
           transform="matrix(1.3333333,0,0,-1.3333333,427.74133,246.91603)" />
        <path
           id="path98"
           d="M 0,0 H 21.501"
           style="fill:none;stroke:#231f20;stroke-width:1;stroke-linecap:butt;stroke-linejoin:miter;stroke-miterlimit:10;stroke-dasharray:none;stroke-opacity:1"
           transform="matrix(1.3333333,0,0,-1.3333333,427.74133,332.83603)" />
        <path
           id="path99"
           d="m 1.0555672,-3.6084042 c 0.023437,-0.3867188 0.070312,-1.3828125 1.1367187,-1.3828125 0.8203125,0 1.1132813,0.5625 1.1132813,1.0195312 0,0.7265625 -0.4335938,0.9609375 -1.03125,1.3125 l -0.75,0.421875 C 0.77431719,-1.791998 0.24697344,-1.1709042 0.21181719,9.7075e-4 H 4.0555672 V -0.666998 H 0.99697344 C 1.0321297,-0.8779355 1.1961922,-1.323248 1.9696297,-1.745123 l 0.5859375,-0.3164062 c 0.84375,-0.4453125 1.5,-0.8789063 1.5,-1.8867188 0,-1.0429687 -0.7851563,-1.6757812 -1.7578125,-1.6757812 -0.609375,0 -1.94531251,0.1875 -1.94531251,2.015625 z M 4.7411141,-4.8154355 H 7.8465828 C 6.7567391,-3.5615292 5.7372078,-1.5459042 5.5497078,9.7075e-4 H 6.3231453 C 6.7333016,-2.5068417 8.0692391,-4.2998105 8.6317391,-4.885748 V -5.5068417 H 4.7411141 Z M 32.898341,-1.370123 v -0.609375 h -0.820313 v -3.6445312 h -0.585937 l -2.578125,3.5625 v 0.6914062 h 2.460937 V 9.7075e-4 h 0.703125 V -1.370123 Z m -1.546875,-3.1640625 h 0.02344 V -1.979498 H 29.5585 Z m 5.99707,3.1640625 v -0.609375 h -0.820313 v -3.6445312 h -0.585937 l -2.578125,3.5625 v 0.6914062 h 2.460937 V 9.7075e-4 h 0.703125 V -1.370123 Z m -1.546875,-3.1640625 h 0.02344 v 2.5546875 h -1.816406 z m 22.637695,0.9257813 c 0.02344,-0.3867188 0.07031,-1.3828125 1.136719,-1.3828125 0.820313,0 1.113281,0.5625 1.113281,1.0195312 0,0.7265625 -0.433593,0.9609375 -1.03125,1.3125 l -0.75,0.421875 c -0.75,0.4453125 -1.277343,1.0664063 -1.3125,2.23828125 h 3.84375 V -0.666998 h -3.058593 c 0.03516,-0.2109375 0.199218,-0.65625 0.972656,-1.078125 l 0.585937,-0.3164062 c 0.84375,-0.4453125 1.5,-0.8789063 1.5,-1.8867188 0,-1.0429687 -0.785156,-1.6757812 -1.757812,-1.6757812 -0.609375,0 -1.945313,0.1875 -1.945313,2.015625 z m 4.810547,-1.2070313 h 2.378906 v -0.6914062 h -2.90625 l -0.421875,3.0234375 0.609375,0.023437 c 0.257813,-0.3398438 0.621094,-0.5273438 1.03125,-0.5273438 0.703125,0 1.253907,0.4335938 1.253907,1.2421875 0,0.703125 -0.457032,1.2890625 -1.183594,1.2890625 -0.632813,0 -1.125,-0.29296875 -1.195313,-0.9492187 h -0.726562 c 0.128906,1.26562495 1.078125,1.5585937 1.816406,1.5585937 1.757813,0 2.039063,-1.3476562 2.039063,-1.9804687 0,-1.1601563 -0.9375,-1.7929688 -1.851563,-1.7929688 -0.503906,0 -0.84375,0.1640625 -1.089844,0.3515625 z m 23.856445,1.2070313 c 0.02344,-0.3867188 0.07031,-1.3828125 1.136719,-1.3828125 0.820313,0 1.113281,0.5625 1.113281,1.0195312 0,0.7265625 -0.433593,0.9609375 -1.03125,1.3125 l -0.75,0.421875 c -0.75,0.4453125 -1.277343,1.0664063 -1.3125,2.23828125 h 3.84375 V -0.666998 h -3.058593 c 0.03516,-0.2109375 0.199218,-0.65625 0.972656,-1.078125 l 0.585937,-0.3164062 c 0.84375,-0.4453125 1.5,-0.8789063 1.5,-1.8867188 0,-1.0429687 -0.785156,-1.6757812 -1.757812,-1.6757812 -0.609375,0 -1.945313,0.1875 -1.945313,2.015625 z m 6.791016,0.8671875 c 0,1.4179687 -0.363281,2.2617187 -1.171875,2.2617187 -0.808594,0 -1.183594,-0.84375 -1.183594,-2.2617187 0,-1.40625 0.375,-2.25 1.183594,-2.25 0.808594,0 1.171875,0.84375 1.171875,2.25 z m 0.75,0 c 0,-1.1601563 -0.304687,-2.8828125 -1.921875,-2.8828125 -1.617187,0 -1.933594,1.7226562 -1.933594,2.8828125 0,1.171875 0.316407,2.8945312 1.933594,2.8945312 1.617188,0 1.921875,-1.7226562 1.921875,-2.8945312 z m 22.942386,-2.8828125 h -0.55078 c -0.22266,0.9140625 -0.59766,1.0078125 -1.51172,1.0664062 v 0.5625 h 1.3125 V 9.7075e-4 h 0.75 z m 2.63086,2.015625 c 0.0234,-0.3867188 0.0703,-1.3828125 1.13672,-1.3828125 0.82031,0 1.11328,0.5625 1.11328,1.0195312 0,0.7265625 -0.4336,0.9609375 -1.03125,1.3125 l -0.75,0.421875 c -0.75,0.4453125 -1.27735,1.0664063 -1.3125,2.23828125 h 3.84375 V -0.666998 h -3.0586 c 0.0352,-0.2109375 0.19922,-0.65625 0.97266,-1.078125 l 0.58594,-0.3164062 c 0.84375,-0.4453125 1.5,-0.8789063 1.5,-1.8867188 0,-1.0429687 -0.78516,-1.6757812 -1.75782,-1.6757812 -0.60937,0 -1.94531,0.1875 -1.94531,2.015625 z m 29.36132,-0.515625 c -0.082,-1.1484375 -0.99609,-1.5 -1.64062,-1.5 -1.6875,0 -2.08594,1.7695312 -2.08594,3.0117187 0,0.7265625 0.0937,1.4179688 0.4336,1.9453125 0.39843,0.6328125 1.01953,0.8203125 1.4414,0.8203125 0.79688,0 1.13672,-0.2109375 1.42969,-0.5390625 0.38672,-0.421875 0.53906,-0.8320312 0.53906,-1.4179687 0,-1.3359375 -1.07812,-1.78125 -1.75781,-1.78125 -0.77344,0 -1.17188,0.3867187 -1.34766,0.6914062 l -0.0117,-0.023437 c 0,-0.5859375 0.23438,-2.0742187 1.33594,-2.0742187 0.60938,0 0.87891,0.3632812 0.97266,0.8671875 z m -2.90625,2.390625 c 0,-0.65625 0.375,-1.21875 1.16016,-1.21875 0.86719,0 1.13672,0.6914062 1.13672,1.1835937 0,0.7617188 -0.43359,1.2890625 -1.11328,1.2890625 -0.82031,0 -1.1836,-0.6445312 -1.1836,-1.2539062 z m 28.95997,-3.0820313 h 2.3789 v -0.6914062 h -2.90625 l -0.42187,3.0234375 0.60937,0.023437 c 0.25781,-0.3398438 0.6211,-0.5273438 1.03125,-0.5273438 0.70313,0 1.25391,0.4335938 1.25391,1.2421875 0,0.703125 -0.45703,1.2890625 -1.1836,1.2890625 -0.63281,0 -1.125,-0.29296875 -1.19531,-0.9492187 h -0.72656 c 0.12891,1.26562495 1.07812,1.5585937 1.81641,1.5585937 1.75781,0 2.03906,-1.3476562 2.03906,-1.9804687 0,-1.1601563 -0.9375,-1.7929688 -1.85156,-1.7929688 -0.50391,0 -0.84375,0.1640625 -1.08985,0.3515625 z m 29.03906,2.2265625 c 0.10547,0 0.21094,-0.011719 0.3164,-0.011719 0.48047,0 1.3125,0.09375 1.3125,1.03125 0,0.6445312 -0.5039,1.0898437 -1.21875,1.0898437 -1.05468,0 -1.18359,-0.7148437 -1.20703,-1.2421875 h -0.72656 c 0.0469,0.6445313 0.22266,1.30078125 0.84375,1.62890625 0.26953,0.140625 0.62109,0.24609375 1.04297,0.24609375 1.42969,0 2.02734,-0.890625 2.02734,-1.8046875 0,-0.7617187 -0.39843,-1.1367187 -0.9375,-1.3125 v -0.023437 c 0.30469,-0.09375 0.71485,-0.4335937 0.71485,-1.1601562 0,-0.8554688 -0.64453,-1.4765625 -1.73438,-1.4765625 -1.47656,0 -1.8164,1.0195312 -1.8164,1.8398437 h 0.6914 c 0.0234,-0.3984375 0.0937,-1.2070312 1.08985,-1.2070312 0.84375,0 1.04296,0.5507812 1.04296,0.890625 0,0.703125 -0.52734,0.9140625 -1.07812,0.9140625 -0.11719,0 -0.24609,-0.011719 -0.36328,-0.011719 z m 31.05761,1.21875 v -0.609375 h -0.82031 v -3.6445312 h -0.58594 l -2.57812,3.5625 v 0.6914062 h 2.46094 V 9.7075e-4 h 0.70312 V -1.370123 Z m -1.54687,-3.1640625 h 0.0234 v 2.5546875 h -1.81641 z m 0,0"
           style="fill:#231f20;fill-opacity:1;fill-rule:nonzero;stroke:none"
           aria-label="27442520126534"
           transform="matrix(1.3333333,0,0,1.3333333,130.37773,442.57683)" />
        <path
           id="path100"
           d="M 85.033,706.54 H 348.757 V 440.729 H 85.033 Z"
           style="fill:none;stroke:#231f20;stroke-width:0.5;stroke-linecap:butt;stroke-linejoin:miter;stroke-miterlimit:10;stroke-dasharray:none;stroke-opacity:1"
           transform="matrix(1.3333333,0,0,-1.3333333,0,1043.9814)"
           clip-path="url(#clipPath101)" />
        <path
           id="path102"
           d="m 3.3985562,-2.7428496 c 0,1.4179688 -0.3632812,2.26171879 -1.171875,2.26171879 -0.8085937,0 -1.1835937,-0.84374999 -1.1835937,-2.26171879 0,-1.40625 0.375,-2.25 1.1835937,-2.25 0.8085938,0 1.171875,0.84375 1.171875,2.25 z m 0.75,0 c 0,-1.1601562 -0.3046875,-2.8828125 -1.921875,-2.8828125 -1.61718745,0 -1.9335937,1.7226563 -1.9335937,2.8828125 0,1.171875 0.31640625,2.89453129 1.9335937,2.89453129 1.6171875,0 1.921875,-1.72265629 1.921875,-2.89453129 z M 1.4180875,-45.088553 h 2.3789062 v -0.691406 H 0.89074375 l -0.421875,3.023438 0.60937495,0.02344 c 0.2578125,-0.339844 0.6210938,-0.527344 1.03125,-0.527344 0.703125,0 1.2539063,0.433594 1.2539063,1.242188 0,0.703125 -0.4570313,1.289062 -1.1835938,1.289062 -0.6328125,0 -1.125,-0.292968 -1.19531245,-0.949218 h -0.7265625 c 0.12890625,1.265625 1.07812495,1.558593 1.81640625,1.558593 1.7578125,0 2.0390625,-1.347656 2.0390625,-1.980468 0,-1.160157 -0.9375,-1.792969 -1.8515625,-1.792969 -0.5039063,0 -0.84375,0.164062 -1.0898438,0.351562 z M -1.5760531,-86.17449 h -0.5507813 c -0.2226562,0.914062 -0.5976562,1.007812 -1.5117187,1.066406 v 0.5625 h 1.3125 v 3.996094 h 0.75 z m 4.9746093,2.882812 c 0,1.417969 -0.3632812,2.261719 -1.171875,2.261719 -0.8085937,0 -1.1835937,-0.84375 -1.1835937,-2.261719 0,-1.40625 0.375,-2.25 1.1835937,-2.25 0.8085938,0 1.171875,0.84375 1.171875,2.25 z m 0.75,0 c 0,-1.160156 -0.3046875,-2.882812 -1.921875,-2.882812 -1.61718745,0 -1.9335937,1.722656 -1.9335937,2.882812 0,1.171875 0.31640625,2.894532 1.9335937,2.894532 1.6171875,0 1.921875,-1.722657 1.921875,-2.894532 z m -5.7246093,-43.154292 h -0.5507813 c -0.2226562,0.91406 -0.5976562,1.00781 -1.5117187,1.0664 v 0.5625 h 1.3125 v 3.9961 h 0.75 z m 2.9941406,0.80859 h 2.3789062 v -0.69141 H 0.89074375 l -0.421875,3.02344 0.60937495,0.0234 c 0.2578125,-0.33985 0.6210938,-0.52735 1.03125,-0.52735 0.703125,0 1.2539063,0.4336 1.2539063,1.24219 0,0.70313 -0.4570313,1.28906 -1.1835938,1.28906 -0.6328125,0 -1.125,-0.29296 -1.19531245,-0.94921 h -0.7265625 c 0.12890625,1.26562 1.07812495,1.55859 1.81640625,1.55859 1.7578125,0 2.0390625,-1.34766 2.0390625,-1.98047 0,-1.16016 -0.9375,-1.79297 -1.8515625,-1.79297 -0.5039063,0 -0.84375,0.16406 -1.0898438,0.35156 z m -4.8105469,-39.06738 c 0.023437,-0.38672 0.070312,-1.38282 1.1367188,-1.38282 0.8203125,0 1.1132812,0.5625 1.1132812,1.01954 0,0.72656 -0.4335937,0.96093 -1.03125,1.3125 l -0.75,0.42187 c -0.75,0.44531 -1.2773437,1.06641 -1.3125,2.23828 h 3.84375002 v -0.66797 H -3.4510531 c 0.035156,-0.21093 0.1992187,-0.65625 0.9726562,-1.07812 l 0.5859375,-0.31641 c 0.84375,-0.44531 1.50000002,-0.8789 1.50000002,-1.88672 0,-1.04297 -0.78515622,-1.67578 -1.75781252,-1.67578 -0.609375,0 -1.9453125,0.1875 -1.9453125,2.01563 z m 6.7910156,0.86718 c 0,1.41797 -0.3632812,2.26172 -1.171875,2.26172 -0.8085937,0 -1.1835937,-0.84375 -1.1835937,-2.26172 0,-1.40625 0.375,-2.25 1.1835937,-2.25 0.8085938,0 1.171875,0.84375 1.171875,2.25 z m 0.75,0 c 0,-1.16015 -0.3046875,-2.88281 -1.921875,-2.88281 -1.61718745,0 -1.9335937,1.72266 -1.9335937,2.88281 0,1.17188 0.31640625,2.89454 1.9335937,2.89454 1.6171875,0 1.921875,-1.72266 1.921875,-2.89454 z m -7.5410156,-41.1416 c 0.023437,-0.38672 0.070312,-1.38281 1.1367188,-1.38281 0.8203125,0 1.1132812,0.5625 1.1132812,1.01953 0,0.72656 -0.4335937,0.96094 -1.03125,1.3125 l -0.75,0.42188 c -0.75,0.44531 -1.2773437,1.0664 -1.3125,2.23828 h 3.84375002 v -0.66797 H -3.4510531 c 0.035156,-0.21094 0.1992187,-0.65625 0.9726562,-1.07813 l 0.5859375,-0.3164 c 0.84375,-0.44532 1.50000002,-0.87891 1.50000002,-1.88672 0,-1.04297 -0.78515622,-1.67578 -1.75781252,-1.67578 -0.609375,0 -1.9453125,0.1875 -1.9453125,2.01562 z m 4.8105469,-1.20703 h 2.3789062 v -0.69141 H 0.89074375 l -0.421875,3.02344 0.60937495,0.0234 c 0.2578125,-0.33984 0.6210938,-0.52734 1.03125,-0.52734 0.703125,0 1.2539063,0.43359 1.2539063,1.24218 0,0.70313 -0.4570313,1.28907 -1.1835938,1.28907 -0.6328125,0 -1.125,-0.29297 -1.19531245,-0.94922 h -0.7265625 c 0.12890625,1.26562 1.07812495,1.55859 1.81640625,1.55859 1.7578125,0 2.0390625,-1.34766 2.0390625,-1.98047 0,-1.16015 -0.9375,-1.79297 -1.8515625,-1.79297 -0.5039063,0 -0.84375,0.16407 -1.0898438,0.35157 z m -4.0722656,-38.04785 c 0.1054687,0 0.2109375,-0.0117 0.3164062,-0.0117 0.4804688,0 1.3125,0.0937 1.3125,1.03125 0,0.64453 -0.5039062,1.08984 -1.21875,1.08984 -1.0546875,0 -1.1835937,-0.71484 -1.2070312,-1.24218 h -0.7265625 c 0.046875,0.64453 0.2226562,1.30078 0.84375,1.6289 0.2695312,0.14063 0.6210937,0.2461 1.0429687,0.2461 1.42968752,0 2.02734377,-0.89063 2.02734377,-1.80469 0,-0.76172 -0.3984375,-1.13672 -0.93749997,-1.3125 v -0.0234 c 0.30468747,-0.0937 0.71484372,-0.43359 0.71484372,-1.16015 0,-0.85547 -0.64453122,-1.47657 -1.73437502,-1.47657 -1.4765625,0 -1.8164062,1.01953 -1.8164062,1.83985 h 0.6914062 c 0.023437,-0.39844 0.09375,-1.20703 1.0898438,-1.20703 0.84375,0 1.0429687,0.55078 1.0429687,0.89062 0,0.70313 -0.5273437,0.91406 -1.078125,0.91406 -0.1171875,0 -0.2460937,-0.0117 -0.3632812,-0.0117 z m 6.0527343,-0.15234 c 0,1.41796 -0.3632812,2.26171 -1.171875,2.26171 -0.8085937,0 -1.1835937,-0.84375 -1.1835937,-2.26171 0,-1.40625 0.375,-2.25 1.1835937,-2.25 0.8085938,0 1.171875,0.84375 1.171875,2.25 z m 0.75,0 c 0,-1.16016 -0.3046875,-2.88282 -1.921875,-2.88282 -1.61718745,0 -1.9335937,1.72266 -1.9335937,2.88282 0,1.17187 0.31640625,2.89453 1.9335937,2.89453 1.6171875,0 1.921875,-1.72266 1.921875,-2.89453 z m 0,0"
           style="fill:#231f20;fill-opacity:1;fill-rule:nonzero;stroke:none"
           aria-label="0&#10;5&#10;10&#10;15&#10;20&#10;25&#10;30"
           transform="matrix(1.3333333,0,0,1.3333333,100.26547,443.61416)" />
        <path
           id="path103"
           d="M 0,0 H 2.834"
           style="fill:none;stroke:#231f20;stroke-width:0.5;stroke-linecap:butt;stroke-linejoin:miter;stroke-miterlimit:10;stroke-dasharray:none;stroke-opacity:1"
           transform="matrix(1.3333333,0,0,-1.3333333,109.59733,440.23336)" />
        <path
           id="path104"
           d="M 0,0 H 2.834"
           style="fill:none;stroke:#231f20;stroke-width:0.5;stroke-linecap:butt;stroke-linejoin:miter;stroke-miterlimit:10;stroke-dasharray:none;stroke-opacity:1"
           transform="matrix(1.3333333,0,0,-1.3333333,109.59733,386.5347)" />
        <path
           id="path105"
           d="M 0,0 H 2.834"
           style="fill:none;stroke:#231f20;stroke-width:0.5;stroke-linecap:butt;stroke-linejoin:miter;stroke-miterlimit:10;stroke-dasharray:none;stroke-opacity:1"
           transform="matrix(1.3333333,0,0,-1.3333333,109.59733,332.83603)" />
        <path
           id="path106"
           d="M 0,0 H 2.834"
           style="fill:none;stroke:#231f20;stroke-width:0.5;stroke-linecap:butt;stroke-linejoin:miter;stroke-miterlimit:10;stroke-dasharray:none;stroke-opacity:1"
           transform="matrix(1.3333333,0,0,-1.3333333,109.59733,279.13603)" />
        <path
           id="path107"
           d="M 0,0 H 2.834"
           style="fill:none;stroke:#231f20;stroke-width:0.5;stroke-linecap:butt;stroke-linejoin:miter;stroke-miterlimit:10;stroke-dasharray:none;stroke-opacity:1"
           transform="matrix(1.3333333,0,0,-1.3333333,109.59733,225.43736)" />
        <path
           id="path108"
           d="M 0,0 H 2.834"
           style="fill:none;stroke:#231f20;stroke-width:0.5;stroke-linecap:butt;stroke-linejoin:miter;stroke-miterlimit:10;stroke-dasharray:none;stroke-opacity:1"
           transform="matrix(1.3333333,0,0,-1.3333333,109.59733,171.7387)" />
        <path
           id="path109"
           d="M 0,0 H 2.834"
           style="fill:none;stroke:#231f20;stroke-width:0.5;stroke-linecap:butt;stroke-linejoin:miter;stroke-miterlimit:10;stroke-dasharray:none;stroke-opacity:1"
           transform="matrix(1.3333333,0,0,-1.3333333,109.59733,118.0387)" />
        <path
           id="path110"
           d="M 0,0 V 2.834"
           style="fill:none;stroke:#231f20;stroke-width:0.5;stroke-linecap:butt;stroke-linejoin:miter;stroke-miterlimit:10;stroke-dasharray:none;stroke-opacity:1"
           transform="matrix(1.3333333,0,0,-1.3333333,136.30933,460.12136)" />
        <path
           id="path111"
           d="M 0,0 V 2.834"
           style="fill:none;stroke:#231f20;stroke-width:0.5;stroke-linecap:butt;stroke-linejoin:miter;stroke-miterlimit:10;stroke-dasharray:none;stroke-opacity:1"
           transform="matrix(1.3333333,0,0,-1.3333333,174.52933,460.12136)" />
        <path
           id="path112"
           d="M 0,0 V 2.834"
           style="fill:none;stroke:#231f20;stroke-width:0.5;stroke-linecap:butt;stroke-linejoin:miter;stroke-miterlimit:10;stroke-dasharray:none;stroke-opacity:1"
           transform="matrix(1.3333333,0,0,-1.3333333,212.75067,460.12136)" />
        <path
           id="path113"
           d="M 0,0 V 2.834"
           style="fill:none;stroke:#231f20;stroke-width:0.5;stroke-linecap:butt;stroke-linejoin:miter;stroke-miterlimit:10;stroke-dasharray:none;stroke-opacity:1"
           transform="matrix(1.3333333,0,0,-1.3333333,250.972,460.12136)" />
        <path
           id="path114"
           d="M 0,0 V 2.834"
           style="fill:none;stroke:#231f20;stroke-width:0.5;stroke-linecap:butt;stroke-linejoin:miter;stroke-miterlimit:10;stroke-dasharray:none;stroke-opacity:1"
           transform="matrix(1.3333333,0,0,-1.3333333,289.19333,460.12136)" />
        <path
           id="path115"
           d="M 0,0 V 2.834"
           style="fill:none;stroke:#231f20;stroke-width:0.5;stroke-linecap:butt;stroke-linejoin:miter;stroke-miterlimit:10;stroke-dasharray:none;stroke-opacity:1"
           transform="matrix(1.3333333,0,0,-1.3333333,327.41333,460.12136)" />
        <path
           id="path116"
           d="M 0,0 V 2.834"
           style="fill:none;stroke:#231f20;stroke-width:0.5;stroke-linecap:butt;stroke-linejoin:miter;stroke-miterlimit:10;stroke-dasharray:none;stroke-opacity:1"
           transform="matrix(1.3333333,0,0,-1.3333333,365.63467,460.12136)" />
        <path
           id="path117"
           d="M 0,0 V 2.834"
           style="fill:none;stroke:#231f20;stroke-width:0.5;stroke-linecap:butt;stroke-linejoin:miter;stroke-miterlimit:10;stroke-dasharray:none;stroke-opacity:1"
           transform="matrix(1.3333333,0,0,-1.3333333,403.85333,460.12136)" />
        <path
           id="path118"
           d="M 0,0 V 2.834"
           style="fill:none;stroke:#231f20;stroke-width:0.5;stroke-linecap:butt;stroke-linejoin:miter;stroke-miterlimit:10;stroke-dasharray:none;stroke-opacity:1"
           transform="matrix(1.3333333,0,0,-1.3333333,442.076,460.12136)" />
        <path
           id="path119"
           d="M 4.292413,-0.7285749 1.1767237,-2.0212545 4.292413,-3.3139341 v -0.6463398 l -3.91118442,1.6572816 v 0.5634757 L 4.292413,-0.09880792 Z M 6.0967782,-4.8241318 H 8.4666908 V -5.5036173 H 5.5664481 l -0.4308932,3.0162524 0.6131942,0.033146 c 0.265165,-0.3480291 0.629767,-0.5303301 1.0275145,-0.5303301 0.7126311,0 1.259534,0.4308932 1.259534,1.2429612 0,0.6960582 -0.4640388,1.27610674 -1.1766699,1.27610674 -0.6463398,0 -1.1269514,-0.28173785 -1.2098155,-0.94465044 h -0.712631 c 0.1160097,1.27610675 1.0772329,1.55784461 1.8064368,1.55784461 1.7567184,0 2.0384563,-1.34239801 2.0384563,-1.97216501 0,-1.1600971 -0.9280777,-1.789864 -1.8561553,-1.789864 -0.4971845,0 -0.8286408,0.1491553 -1.077233,0.3480291 z m 3.3373507,0.6152657 c 0,0.7623495 0.6131941,1.3755437 1.3589711,1.3755437 0.762349,0 1.375543,-0.629767 1.375543,-1.3755437 0,-0.7457767 -0.629767,-1.3589708 -1.375543,-1.3589708 -0.745777,0 -1.3589711,0.5966213 -1.3589711,1.3589708 z m 0.5469029,0 c 0,-0.4308932 0.3646022,-0.7954951 0.8120682,-0.7954951 0.447466,0 0.812068,0.3480291 0.812068,0.7954951 0,0.4308932 -0.348029,0.812068 -0.812068,0.812068 -0.414321,0 -0.8120682,-0.3148835 -0.8120682,-0.812068 z m 3.2151262,2.9002427 c 0,0.76234947 0.613194,1.37554363 1.358971,1.37554363 0.762349,0 1.375543,-0.62976697 1.375543,-1.37554363 0,-0.7457767 -0.629767,-1.3589709 -1.375543,-1.3589709 -0.745777,0 -1.358971,0.5966214 -1.358971,1.3589709 z m 0.546903,0 c 0,-0.4308932 0.364602,-0.7954952 0.812068,-0.7954952 0.447466,0 0.812068,0.3480292 0.812068,0.7954952 0,0.44746598 -0.348029,0.81206792 -0.812068,0.81206792 -0.414321,0 -0.812068,-0.31488349 -0.812068,-0.81206792 z m 0.729204,-4.308932 h -0.447466 l -3.148835,5.76733971 h 0.430893 z M 13.585619,16.009968 h 2.369913 v -0.679485 h -2.900243 l -0.430893,3.016252 0.613194,0.03315 c 0.265165,-0.348029 0.629767,-0.53033 1.027514,-0.53033 0.712632,0 1.259534,0.430893 1.259534,1.242961 0,0.696058 -0.464038,1.276107 -1.176669,1.276107 -0.64634,0 -1.126952,-0.281738 -1.209816,-0.944651 h -0.712631 c 0.11601,1.276107 1.077233,1.557845 1.806437,1.557845 1.756718,0 2.038456,-1.342398 2.038456,-1.972165 0,-1.160097 -0.928078,-1.789864 -1.856155,-1.789864 -0.497185,0 -0.828641,0.149155 -1.077233,0.348029 z m 7.482626,2.320195 h -4.458087 v 0.580048 h 4.458087 z m 2.856739,-3.113618 h -0.546903 c -0.215446,0.911505 -0.596621,0.994369 -1.508126,1.06066 v 0.563476 h 1.309252 v 3.994048 h 0.745777 z m 4.97806,2.881598 c 0,1.408689 -0.364602,2.253903 -1.17667,2.253903 -0.795495,0 -1.17667,-0.845214 -1.17667,-2.253903 0,-1.408689 0.381175,-2.253903 1.17667,-2.253903 0.812068,0 1.17667,0.845214 1.17667,2.253903 z m 0.745776,0 c 0,-1.160097 -0.29831,-2.88367 -1.922446,-2.88367 -1.607563,0 -1.922447,1.723573 -1.922447,2.88367 0,1.160097 0.314884,2.88367 1.922447,2.88367 1.624136,0 1.922446,-1.723573 1.922446,-2.88367 z m 0.619409,-1.472909 c 0,0.76235 0.613194,1.375544 1.358971,1.375544 0.76235,0 1.375544,-0.629767 1.375544,-1.375544 0,-0.745776 -0.629767,-1.358971 -1.375544,-1.358971 -0.745777,0 -1.358971,0.596622 -1.358971,1.358971 z m 0.546903,0 c 0,-0.430893 0.364602,-0.795495 0.812068,-0.795495 0.447466,0 0.812068,0.348029 0.812068,0.795495 0,0.430893 -0.348029,0.812068 -0.812068,0.812068 -0.41432,0 -0.812068,-0.314883 -0.812068,-0.812068 z m 3.215126,2.900243 c 0,0.762349 0.613194,1.375544 1.358971,1.375544 0.76235,0 1.375544,-0.629767 1.375544,-1.375544 0,-0.745777 -0.629767,-1.358971 -1.375544,-1.358971 -0.745777,0 -1.358971,0.596621 -1.358971,1.358971 z m 0.546903,0 c 0,-0.430893 0.364602,-0.795495 0.812068,-0.795495 0.447466,0 0.812068,0.348029 0.812068,0.795495 0,0.447466 -0.348029,0.812068 -0.812068,0.812068 -0.41432,0 -0.812068,-0.314884 -0.812068,-0.812068 z m 0.729204,-4.308932 h -0.447466 l -3.148835,5.76734 h 0.430893 z m -4.748112,19.978529 h -0.546902 c -0.215447,0.911504 -0.596622,0.994369 -1.508127,1.06066 v 0.563476 h 1.309253 v 3.994048 h 0.745776 z m 4.97806,2.881598 c 0,1.408689 -0.364602,2.253903 -1.17667,2.253903 -0.795495,0 -1.17667,-0.845214 -1.17667,-2.253903 0,-1.408689 0.381175,-2.253903 1.17667,-2.253903 0.812068,0 1.17667,0.845214 1.17667,2.253903 z m 0.745776,0 c 0,-1.160097 -0.29831,-2.88367 -1.922446,-2.88367 -1.607563,0 -1.922447,1.723573 -1.922447,2.88367 0,1.160097 0.314884,2.88367 1.922447,2.88367 1.624136,0 1.922446,-1.723573 1.922446,-2.88367 z m 4.762613,0.234091 h -4.458087 v 0.580048 h 4.458087 z m 2.856739,-3.117761 h -0.546903 c -0.215446,0.911505 -0.596621,0.994369 -1.508126,1.06066 v 0.563476 h 1.309253 v 3.994048 h 0.745776 z m 3.005895,0.797567 h 2.369912 v -0.679486 h -2.900242 l -0.430894,3.016253 0.613194,0.03314 c 0.265166,-0.348029 0.629767,-0.53033 1.027515,-0.53033 0.712631,0 1.259534,0.430893 1.259534,1.242961 0,0.696059 -0.464039,1.276107 -1.17667,1.276107 -0.64634,0 -1.126951,-0.281738 -1.209815,-0.94465 h -0.712631 c 0.116009,1.276106 1.077233,1.557844 1.806436,1.557844 1.756719,0 2.038457,-1.342398 2.038457,-1.972165 0,-1.160097 -0.928078,-1.789864 -1.856156,-1.789864 -0.497184,0 -0.82864,0.149156 -1.077233,0.348029 z m 3.339422,0.613194 c 0,0.762349 0.613194,1.375544 1.358971,1.375544 0.762349,0 1.375543,-0.629767 1.375543,-1.375544 0,-0.745777 -0.629767,-1.358971 -1.375543,-1.358971 -0.745777,0 -1.358971,0.596621 -1.358971,1.358971 z m 0.546903,0 c 0,-0.430893 0.364602,-0.795495 0.812068,-0.795495 0.447466,0 0.812068,0.348029 0.812068,0.795495 0,0.430893 -0.348029,0.812068 -0.812068,0.812068 -0.414321,0 -0.812068,-0.314884 -0.812068,-0.812068 z m 3.215126,2.900243 c 0,0.762349 0.613194,1.375543 1.358971,1.375543 0.762349,0 1.375543,-0.629767 1.375543,-1.375543 0,-0.745777 -0.629767,-1.358971 -1.375543,-1.358971 -0.745777,0 -1.358971,0.596621 -1.358971,1.358971 z m 0.546903,0 c 0,-0.430894 0.364602,-0.795496 0.812068,-0.795496 0.447466,0 0.812068,0.34803 0.812068,0.795496 0,0.447466 -0.348029,0.812068 -0.812068,0.812068 -0.414321,0 -0.812068,-0.314884 -0.812068,-0.812068 z m 0.729204,-4.308932 h -0.447466 l -3.148835,5.767339 h 0.430893 z M 50.627933,55.264753 H 50.08103 c -0.215447,0.911505 -0.596622,0.994369 -1.508126,1.06066 v 0.563476 h 1.309252 v 3.994048 h 0.745777 z m 3.007966,0.795495 h 2.369912 v -0.679485 h -2.900243 l -0.430893,3.016252 0.613194,0.03315 c 0.265165,-0.34803 0.629767,-0.530331 1.027515,-0.530331 0.712631,0 1.259534,0.430894 1.259534,1.242962 0,0.696058 -0.464039,1.276106 -1.17667,1.276106 -0.64634,0 -1.126951,-0.281738 -1.209815,-0.94465 h -0.712631 c 0.116009,1.276107 1.077232,1.557844 1.806436,1.557844 1.756719,0 2.038457,-1.342398 2.038457,-1.972165 0,-1.160097 -0.928078,-1.789864 -1.856156,-1.789864 -0.497184,0 -0.82864,0.149156 -1.077233,0.34803 z m 7.478482,2.320194 h -4.458087 v 0.580049 h 4.458087 z m 1.052374,-1.110379 c 0.01657,-0.381174 0.06629,-1.375543 1.126952,-1.375543 0.82864,0 1.110378,0.563475 1.110378,1.010942 0,0.729203 -0.430893,0.961223 -1.027514,1.309252 l -0.745777,0.430893 c -0.745777,0.447466 -1.276107,1.06066 -1.309252,2.23733 h 3.844893 v -0.662912 h -3.065971 c 0.03315,-0.215447 0.198874,-0.662913 0.977796,-1.077233 l 0.580049,-0.314884 c 0.845213,-0.447466 1.508126,-0.878359 1.508126,-1.889301 0,-1.044087 -0.795495,-1.673854 -1.756719,-1.673854 -0.613194,0 -1.955592,0.182301 -1.955592,2.00531 z m 6.782425,0.87836 c 0,1.408689 -0.364602,2.253903 -1.17667,2.253903 -0.795495,0 -1.17667,-0.845214 -1.17667,-2.253903 0,-1.40869 0.381175,-2.253903 1.17667,-2.253903 0.812068,0 1.17667,0.845213 1.17667,2.253903 z m 0.745776,0 c 0,-1.160097 -0.29831,-2.88367 -1.922446,-2.88367 -1.607563,0 -1.922447,1.723573 -1.922447,2.88367 0,1.160097 0.314884,2.883669 1.922447,2.883669 1.624136,0 1.922446,-1.723572 1.922446,-2.883669 z m 0.621481,-1.474981 c 0,0.76235 0.613194,1.375544 1.358971,1.375544 0.762349,0 1.375544,-0.629767 1.375544,-1.375544 0,-0.745777 -0.629767,-1.358971 -1.375544,-1.358971 -0.745777,0 -1.358971,0.596622 -1.358971,1.358971 z m 0.546903,0 c 0,-0.430893 0.364602,-0.795495 0.812068,-0.795495 0.447466,0 0.812068,0.348029 0.812068,0.795495 0,0.430893 -0.348029,0.812068 -0.812068,0.812068 -0.41432,0 -0.812068,-0.314883 -0.812068,-0.812068 z m 3.215126,2.900243 c 0,0.762349 0.613194,1.375543 1.358971,1.375543 0.762349,0 1.375544,-0.629767 1.375544,-1.375543 0,-0.745777 -0.629767,-1.358971 -1.375544,-1.358971 -0.745777,0 -1.358971,0.596621 -1.358971,1.358971 z m 0.546903,0 c 0,-0.430893 0.364602,-0.795495 0.812068,-0.795495 0.447466,0 0.812068,0.348029 0.812068,0.795495 0,0.447466 -0.348029,0.812068 -0.812068,0.812068 -0.41432,0 -0.812068,-0.314884 -0.812068,-0.812068 z m 0.729204,-4.308932 h -0.447466 l -3.148835,5.767339 h 0.430893 z m -6.264524,22.273863 c 0.01657,-0.381174 0.06629,-1.375543 1.126951,-1.375543 0.828641,0 1.110379,0.563475 1.110379,1.010941 0,0.729204 -0.430893,0.961224 -1.027515,1.309253 l -0.745776,0.430893 c -0.745777,0.447466 -1.276107,1.06066 -1.309253,2.23733 h 3.844893 v -0.662912 h -3.065971 c 0.03315,-0.215447 0.198874,-0.662913 0.977797,-1.077233 l 0.580048,-0.314884 c 0.845214,-0.447466 1.508126,-0.878359 1.508126,-1.889301 0,-1.044087 -0.795495,-1.673854 -1.756718,-1.673854 -0.613194,0 -1.955592,0.182301 -1.955592,2.00531 z m 6.784496,0.876288 c 0,1.408689 -0.364602,2.253903 -1.17667,2.253903 -0.795495,0 -1.17667,-0.845214 -1.17667,-2.253903 0,-1.408689 0.381175,-2.253903 1.17667,-2.253903 0.812068,0 1.17667,0.845214 1.17667,2.253903 z m 0.745777,0 c 0,-1.160097 -0.298311,-2.88367 -1.922447,-2.88367 -1.607563,0 -1.922446,1.723573 -1.922446,2.88367 0,1.160097 0.314883,2.88367 1.922446,2.88367 1.624136,0 1.922447,-1.723573 1.922447,-2.88367 z m 4.762612,0.234091 h -4.458087 v 0.580049 h 4.458087 z m 1.050303,-1.11245 c 0.01657,-0.381175 0.06629,-1.375544 1.126951,-1.375544 0.828641,0 1.110379,0.563476 1.110379,1.010942 0,0.729204 -0.430894,0.961223 -1.027515,1.309252 l -0.745777,0.430893 c -0.745776,0.447466 -1.276106,1.060661 -1.309252,2.237331 h 3.844893 v -0.662913 h -3.065971 c 0.03315,-0.215447 0.198874,-0.662913 0.977796,-1.077233 l 0.580049,-0.314884 c 0.845213,-0.447466 1.508126,-0.878359 1.508126,-1.8893 0,-1.044088 -0.795495,-1.673855 -1.756718,-1.673855 -0.613194,0 -1.955592,0.182301 -1.955592,2.005311 z m 4.812331,-1.207744 h 2.369912 v -0.679486 h -2.900242 l -0.430894,3.016253 0.613195,0.03315 c 0.265165,-0.348029 0.629767,-0.53033 1.027514,-0.53033 0.712631,0 1.259534,0.430894 1.259534,1.242962 0,0.696058 -0.464039,1.276106 -1.17667,1.276106 -0.64634,0 -1.126951,-0.281738 -1.209815,-0.94465 h -0.712631 c 0.116009,1.276107 1.077233,1.557844 1.806437,1.557844 1.756718,0 2.038456,-1.342398 2.038456,-1.972165 0,-1.160097 -0.928078,-1.789864 -1.856155,-1.789864 -0.497185,0 -0.828641,0.149156 -1.077233,0.34803 z m 3.339422,0.613194 c 0,0.76235 0.613194,1.375544 1.358971,1.375544 0.762349,0 1.375544,-0.629767 1.375544,-1.375544 0,-0.745777 -0.629767,-1.358971 -1.375544,-1.358971 -0.745777,0 -1.358971,0.596622 -1.358971,1.358971 z m 0.546903,0 c 0,-0.430893 0.364602,-0.795495 0.812068,-0.795495 0.447466,0 0.812068,0.348029 0.812068,0.795495 0,0.430893 -0.348029,0.812068 -0.812068,0.812068 -0.414321,0 -0.812068,-0.314883 -0.812068,-0.812068 z m 3.215126,2.900243 c 0,0.762349 0.613194,1.375543 1.358971,1.375543 0.762349,0 1.375544,-0.629767 1.375544,-1.375543 0,-0.745777 -0.629767,-1.358971 -1.375544,-1.358971 -0.745777,0 -1.358971,0.596621 -1.358971,1.358971 z m 0.546903,0 c 0,-0.430893 0.364602,-0.795495 0.812068,-0.795495 0.447466,0 0.812068,0.348029 0.812068,0.795495 0,0.447466 -0.348029,0.812068 -0.812068,0.812068 -0.41432,0 -0.812068,-0.314884 -0.812068,-0.812068 z m 0.729204,-4.308932 H 95.17566 l -3.148835,5.767339 h 0.430893 z m -6.063579,22.474809 c 0.01657,-0.381175 0.06629,-1.375544 1.126952,-1.375544 0.82864,0 1.110378,0.563476 1.110378,1.010942 0,0.729204 -0.430893,0.961223 -1.027514,1.309252 l -0.745777,0.430893 c -0.745777,0.447466 -1.276107,1.060662 -1.309252,2.237332 h 3.844893 v -0.66291 h -3.065971 c 0.03315,-0.21545 0.198874,-0.66292 0.977796,-1.077237 L 91.0511,99.565959 c 0.845214,-0.447466 1.508127,-0.878359 1.508127,-1.889301 0,-1.044087 -0.795495,-1.673854 -1.756719,-1.673854 -0.613194,0 -1.955592,0.182301 -1.955592,2.005311 z m 4.814403,-1.209816 h 2.369912 V 96.118814 H 93.84362 l -0.430893,3.016252 0.613194,0.03315 c 0.265165,-0.348029 0.629767,-0.53033 1.027514,-0.53033 0.712631,0 1.259534,0.430893 1.259534,1.242961 0,0.696053 -0.464039,1.276103 -1.17667,1.276103 -0.646339,0 -1.126951,-0.28174 -1.209815,-0.94465 h -0.712631 c 0.11601,1.27611 1.077233,1.55784 1.806437,1.55784 1.756718,0 2.038456,-1.34239 2.038456,-1.972157 0,-1.160097 -0.928078,-1.789864 -1.856155,-1.789864 -0.497185,0 -0.828641,0.149155 -1.077233,0.348029 z m 7.47848,2.320194 h -4.458085 v 0.580049 h 4.458085 z m 1.78158,-0.08286 c 0.11601,0 0.21545,-0.01657 0.31488,-0.01657 0.48062,0 1.30926,0.09944 1.30926,1.027517 0,0.64634 -0.49719,1.09381 -1.20982,1.09381 -1.06066,0 -1.17667,-0.71263 -1.20981,-1.242967 h -0.72921 c 0.0497,0.646347 0.23202,1.309257 0.84521,1.624137 0.26517,0.14916 0.62977,0.24859 1.04409,0.24859 1.42526,0 2.02189,-0.89493 2.02189,-1.806436 0,-0.76235 -0.39775,-1.126951 -0.92808,-1.309252 v -0.01657 c 0.29831,-0.09944 0.71263,-0.430893 0.71263,-1.160097 0,-0.861787 -0.64634,-1.474981 -1.74015,-1.474981 -1.47498,0 -1.80643,1.010942 -1.80643,1.839583 h 0.67948 c 0.0332,-0.397748 0.0994,-1.209816 1.09381,-1.209816 0.84521,0 1.04409,0.546903 1.04409,0.894932 0,0.696058 -0.53033,0.911505 -1.07724,0.911505 -0.11601,0 -0.24859,-0.01657 -0.3646,-0.01657 z m 6.05322,-0.149155 c 0,1.408682 -0.3646,2.253902 -1.17667,2.253902 -0.79549,0 -1.17667,-0.84522 -1.17667,-2.253902 0,-1.408689 0.38118,-2.253903 1.17667,-2.253903 0.81207,0 1.17667,0.845214 1.17667,2.253903 z m 0.74578,0 c 0,-1.160097 -0.29831,-2.88367 -1.92245,-2.88367 -1.60756,0 -1.92245,1.723573 -1.92245,2.88367 0,1.160092 0.31489,2.883662 1.92245,2.883662 1.62414,0 1.92245,-1.72357 1.92245,-2.883662 z m 0.62148,-1.474981 c 0,0.76235 0.61319,1.375544 1.35897,1.375544 0.76235,0 1.37554,-0.629767 1.37554,-1.375544 0,-0.745776 -0.62976,-1.35897 -1.37554,-1.35897 -0.74578,0 -1.35897,0.596621 -1.35897,1.35897 z m 0.5469,0 c 0,-0.430893 0.3646,-0.795495 0.81207,-0.795495 0.44747,0 0.81207,0.348029 0.81207,0.795495 0,0.430894 -0.34803,0.812068 -0.81207,0.812068 -0.41432,0 -0.81207,-0.314883 -0.81207,-0.812068 z m 3.21513,2.900243 c 0,0.76235 0.61319,1.37554 1.35897,1.37554 0.76235,0 1.37554,-0.62977 1.37554,-1.37554 0,-0.745777 -0.62977,-1.358971 -1.37554,-1.358971 -0.74578,0 -1.35897,0.596622 -1.35897,1.358971 z m 0.5469,0 c 0,-0.430893 0.3646,-0.795495 0.81207,-0.795495 0.44746,0 0.81207,0.348029 0.81207,0.795495 0,0.44746 -0.34803,0.81206 -0.81207,0.81206 -0.41432,0 -0.81207,-0.31488 -0.81207,-0.81206 z m 0.7292,-4.308932 h -0.44746 l -3.14884,5.767332 h 0.4309 z m -5.73626,23.100432 c 0.11601,0 0.21545,-0.0166 0.31488,-0.0166 0.48061,0 1.30925,0.0994 1.30925,1.02752 0,0.64634 -0.49718,1.0938 -1.20981,1.0938 -1.06066,0 -1.17667,-0.71263 -1.20982,-1.24296 h -0.7292 c 0.0497,0.64634 0.23202,1.30926 0.84521,1.62414 0.26517,0.14915 0.62977,0.24859 1.04409,0.24859 1.42526,0 2.02188,-0.89493 2.02188,-1.80644 0,-0.76234 -0.39774,-1.12695 -0.92807,-1.30925 v -0.0166 c 0.29831,-0.0994 0.71263,-0.43089 0.71263,-1.1601 0,-0.86178 -0.64634,-1.47498 -1.74015,-1.47498 -1.47498,0 -1.80644,1.01094 -1.80644,1.83958 h 0.67949 c 0.0331,-0.39774 0.0994,-1.20981 1.09381,-1.20981 0.84521,0 1.04408,0.5469 1.04408,0.89493 0,0.69606 -0.53033,0.91151 -1.07723,0.91151 -0.11601,0 -0.24859,-0.0166 -0.3646,-0.0166 z m 6.05736,-0.14916 c 0,1.40869 -0.3646,2.2539 -1.17667,2.2539 -0.79549,0 -1.17667,-0.84521 -1.17667,-2.2539 0,-1.40869 0.38118,-2.2539 1.17667,-2.2539 0.81207,0 1.17667,0.84521 1.17667,2.2539 z m 0.74578,0 c 0,-1.1601 -0.29831,-2.88367 -1.92245,-2.88367 -1.60756,0 -1.92244,1.72357 -1.92244,2.88367 0,1.1601 0.31488,2.88367 1.92244,2.88367 1.62414,0 1.92245,-1.72357 1.92245,-2.88367 z m 4.76261,0.23409 h -4.45809 v 0.58005 h 4.45809 z m 1.77951,-0.0849 c 0.11601,0 0.21544,-0.0166 0.31488,-0.0166 0.48061,0 1.30925,0.0994 1.30925,1.02752 0,0.64634 -0.49718,1.0938 -1.20981,1.0938 -1.06066,0 -1.17667,-0.71263 -1.20982,-1.24296 h -0.7292 c 0.0497,0.64634 0.23202,1.30926 0.84521,1.62414 0.26517,0.14915 0.62977,0.24859 1.04409,0.24859 1.42526,0 2.02188,-0.89493 2.02188,-1.80644 0,-0.76234 -0.39774,-1.12695 -0.92807,-1.30925 v -0.0166 c 0.29831,-0.0994 0.71263,-0.43089 0.71263,-1.1601 0,-0.86178 -0.64634,-1.47498 -1.74015,-1.47498 -1.47498,0 -1.80644,1.01094 -1.80644,1.83958 h 0.67949 c 0.0331,-0.39774 0.0994,-1.20981 1.09381,-1.20981 0.84521,0 1.04408,0.5469 1.04408,0.89493 0,0.69606 -0.53033,0.91151 -1.07723,0.91151 -0.11601,0 -0.24859,-0.0166 -0.3646,-0.0166 z m 4.08313,-2.23526 h 2.36991 v -0.67949 h -2.90024 l -0.4309,3.01626 0.6132,0.0331 c 0.26516,-0.34803 0.62976,-0.53033 1.02751,-0.53033 0.71263,0 1.25953,0.43089 1.25953,1.24296 0,0.69606 -0.46403,1.27611 -1.17667,1.27611 -0.64633,0 -1.12695,-0.28174 -1.20981,-0.94465 h -0.71263 c 0.11601,1.27611 1.07723,1.55784 1.80644,1.55784 1.75671,0 2.03845,-1.3424 2.03845,-1.97216 0,-1.1601 -0.92808,-1.78987 -1.85615,-1.78987 -0.49719,0 -0.82864,0.14916 -1.07724,0.34803 z m 3.33735,0.61112 c 0,0.76235 0.61319,1.37554 1.35897,1.37554 0.76235,0 1.37554,-0.62976 1.37554,-1.37554 0,-0.74578 -0.62977,-1.35897 -1.37554,-1.35897 -0.74578,0 -1.35897,0.59662 -1.35897,1.35897 z m 0.5469,0 c 0,-0.43089 0.3646,-0.79549 0.81207,-0.79549 0.44746,0 0.81206,0.34802 0.81206,0.79549 0,0.43089 -0.34802,0.81207 -0.81206,0.81207 -0.41432,0 -0.81207,-0.31488 -0.81207,-0.81207 z m 3.21513,2.90024 c 0,0.76235 0.61319,1.37555 1.35897,1.37555 0.76235,0 1.37554,-0.62977 1.37554,-1.37555 0,-0.74577 -0.62977,-1.35897 -1.37554,-1.35897 -0.74578,0 -1.35897,0.59662 -1.35897,1.35897 z m 0.5469,0 c 0,-0.43089 0.3646,-0.79549 0.81207,-0.79549 0.44746,0 0.81206,0.34803 0.81206,0.79549 0,0.44747 -0.34803,0.81207 -0.81206,0.81207 -0.41432,0 -0.81207,-0.31488 -0.81207,-0.81207 z m 0.7292,-4.30893 h -0.44746 l -3.14884,5.76734 h 0.43089 z m -5.53532,23.30138 c 0.11601,0 0.21545,-0.0166 0.31488,-0.0166 0.48062,0 1.30926,0.0994 1.30926,1.02751 0,0.64634 -0.49719,1.09381 -1.20982,1.09381 -1.06066,0 -1.17667,-0.71263 -1.20981,-1.24296 h -0.72921 c 0.0497,0.64634 0.23202,1.30925 0.84522,1.62413 0.26516,0.14916 0.62976,0.24859 1.04408,0.24859 1.42527,0 2.02189,-0.89493 2.02189,-1.80643 0,-0.76235 -0.39775,-1.12695 -0.92808,-1.30925 v -0.0166 c 0.29831,-0.0994 0.71263,-0.43089 0.71263,-1.16009 0,-0.86179 -0.64634,-1.47499 -1.74015,-1.47499 -1.47498,0 -1.80643,1.01095 -1.80643,1.83959 h 0.67948 c 0.0331,-0.39775 0.0994,-1.20982 1.09381,-1.20982 0.84521,0 1.04409,0.5469 1.04409,0.89493 0,0.69606 -0.53033,0.91151 -1.07724,0.91151 -0.11601,0 -0.24859,-0.0166 -0.3646,-0.0166 z m 4.0852,-2.23733 h 2.36991 V 136.455 h -2.90024 l -0.43089,3.01626 0.61319,0.0331 c 0.26517,-0.34803 0.62977,-0.53033 1.02752,-0.53033 0.71263,0 1.25953,0.4309 1.25953,1.24296 0,0.69606 -0.46404,1.27611 -1.17667,1.27611 -0.64634,0 -1.12695,-0.28174 -1.20982,-0.94465 h -0.71263 c 0.11601,1.27611 1.07724,1.55784 1.80644,1.55784 1.75672,0 2.03846,-1.34239 2.03846,-1.97216 0,-1.1601 -0.92808,-1.78986 -1.85616,-1.78986 -0.49718,0 -0.82864,0.14915 -1.07723,0.34802 z m 7.48055,2.32227 h -4.45808 v 0.58004 h 4.45808 z m 4.166,1.12488 v -0.59663 h -0.81207 v -3.64602 h -0.58005 l -2.58536,3.56316 v 0.67949 h 2.46935 v 1.37554 h 0.69606 v -1.37554 z m -1.54128,-3.16541 h 0.0332 v 2.56878 h -1.82301 z m 5.21008,1.80851 c 0,1.40869 -0.3646,2.2539 -1.17667,2.2539 -0.79549,0 -1.17667,-0.84521 -1.17667,-2.2539 0,-1.40869 0.38118,-2.25391 1.17667,-2.25391 0.81207,0 1.17667,0.84522 1.17667,2.25391 z m 0.74578,0 c 0,-1.1601 -0.29831,-2.88367 -1.92245,-2.88367 -1.60756,0 -1.92244,1.72357 -1.92244,2.88367 0,1.16009 0.31488,2.88367 1.92244,2.88367 1.62414,0 1.92245,-1.72358 1.92245,-2.88367 z m 0.61941,-1.47706 c 0,0.76235 0.61319,1.37555 1.35897,1.37555 0.76235,0 1.37554,-0.62977 1.37554,-1.37555 0,-0.74577 -0.62976,-1.35897 -1.37554,-1.35897 -0.74578,0 -1.35897,0.59662 -1.35897,1.35897 z m 0.5469,0 c 0,-0.43089 0.3646,-0.79549 0.81207,-0.79549 0.44747,0 0.81207,0.34803 0.81207,0.79549 0,0.4309 -0.34803,0.81207 -0.81207,0.81207 -0.41432,0 -0.81207,-0.31488 -0.81207,-0.81207 z m 3.21513,2.90025 c 0,0.76235 0.61319,1.37554 1.35897,1.37554 0.76235,0 1.37554,-0.62977 1.37554,-1.37554 0,-0.74578 -0.62976,-1.35897 -1.37554,-1.35897 -0.74578,0 -1.35897,0.59662 -1.35897,1.35897 z m 0.5469,0 c 0,-0.4309 0.3646,-0.7955 0.81207,-0.7955 0.44746,0 0.81207,0.34803 0.81207,0.7955 0,0.44746 -0.34803,0.81206 -0.81207,0.81206 -0.41432,0 -0.81207,-0.31488 -0.81207,-0.81206 z m 0.7292,-4.30894 h -0.44746 l -3.14884,5.76734 h 0.4309 z m 1.76708,22.61154 3.11569,1.29268 -3.11569,1.29268 v 0.62977 l 3.91119,-1.64071 v -0.56348 l -3.91119,-1.65728 z m 8.46871,1.93902 v -0.59662 h -0.81207 v -3.64602 h -0.58005 l -2.58536,3.56315 v 0.67949 h 2.46935 v 1.37554 h 0.69606 v -1.37554 z m -1.54127,-3.16541 h 0.0331 v 2.56879 h -1.82301 z m 5.21008,1.80851 c 0,1.40869 -0.36461,2.2539 -1.17667,2.2539 -0.7955,0 -1.17667,-0.84521 -1.17667,-2.2539 0,-1.40869 0.38117,-2.2539 1.17667,-2.2539 0.81206,0 1.17667,0.84521 1.17667,2.2539 z m 0.74577,0 c 0,-1.1601 -0.29831,-2.88367 -1.92244,-2.88367 -1.60757,0 -1.92245,1.72357 -1.92245,2.88367 0,1.1601 0.31488,2.88367 1.92245,2.88367 1.62413,0 1.92244,-1.72357 1.92244,-2.88367 z m 0.61941,-1.47705 c 0,0.76235 0.6132,1.37554 1.35897,1.37554 0.76235,0 1.37555,-0.62977 1.37555,-1.37554 0,-0.74578 -0.62977,-1.35897 -1.37555,-1.35897 -0.74577,0 -1.35897,0.59662 -1.35897,1.35897 z m 0.54691,0 c 0,-0.4309 0.3646,-0.7955 0.81206,-0.7955 0.44747,0 0.81207,0.34803 0.81207,0.7955 0,0.43089 -0.34803,0.81207 -0.81207,0.81207 -0.41432,0 -0.81206,-0.31489 -0.81206,-0.81207 z m 3.21512,2.90024 c 0,0.76235 0.6132,1.37554 1.35897,1.37554 0.76235,0 1.37555,-0.62976 1.37555,-1.37554 0,-0.74578 -0.62977,-1.35897 -1.37555,-1.35897 -0.74577,0 -1.35897,0.59662 -1.35897,1.35897 z m 0.5469,0 c 0,-0.43089 0.36461,-0.7955 0.81207,-0.7955 0.44747,0 0.81207,0.34803 0.81207,0.7955 0,0.44747 -0.34803,0.81207 -0.81207,0.81207 -0.41432,0 -0.81207,-0.31489 -0.81207,-0.81207 z m 0.72921,-4.30893 h -0.44747 l -3.14883,5.76734 h 0.43089 z m 0,0"
           style="fill:#231f20;fill-opacity:1;fill-rule:nonzero;stroke:none"
           aria-label="&lt;5%&#10;510%&#10;1015%&#10;1520%&#10;2025%&#10;2530%&#10;3035%&#10;3540%&#10;&gt;40%"
           transform="matrix(0.94280904,-0.94280904,0.94280904,0.94280904,127.3392,483.50336)" />
      </g>
    </g>
    <text
       xml:space="preserve"
       style="font-size:25.9375px;line-height:150%;font-family:sans-serif;-inkscape-font-specification:sans-serif;text-align:end;letter-spacing:0px;writing-mode:lr-tb;direction:ltr;text-anchor:end;fill:#000000;fill-rule:evenodd;stroke-width:0;stroke-linecap:round;stroke-linejoin:round;stroke-miterlimit:2;stroke-opacity:0.680142;paint-order:stroke markers fill"
       x="811.15814"
       y="918.15271"
       id="text1"><tspan
         sodipodi:role="line"
         id="tspan1"
         style="font-size:25.9375px;fill:#000000;stroke-width:0"
         x="811.15808"
         y="918.15271">Fractiond'paississement moyenne (3 premiers jours)</tspan></text>
  </g>
  <metadata
     id="metadata139">
    <rdf:RDF>
      <cc:Work
         rdf:about="">
        <dc:creator>
          <cc:Agent>
            <dc:title>Nicolas Blais St-Laurent</dc:title>
          </cc:Agent>
        </dc:creator>
      </cc:Work>
    </rdf:RDF>
  </metadata>
</svg>
