<?xml version="1.0" encoding="UTF-8" standalone="no"?>
<!-- Created with Inkscape (http://www.inkscape.org/) -->

<svg
   width="11.573763in"
   height="9.375in"
   viewBox="0 0 293.97358 238.125"
   version="1.1"
   id="svg5"
   inkscape:version="1.4 (e7c3feb100, 2024-10-09)"
   xml:space="preserve"
   sodipodi:docname="rationnel-pmi_vect.svg"
   xmlns:inkscape="http://www.inkscape.org/namespaces/inkscape"
   xmlns:sodipodi="http://sodipodi.sourceforge.net/DTD/sodipodi-0.dtd"
   xmlns="http://www.w3.org/2000/svg"
   xmlns:svg="http://www.w3.org/2000/svg"
   xmlns:rdf="http://www.w3.org/1999/02/22-rdf-syntax-ns#"
   xmlns:cc="http://creativecommons.org/ns#"
   xmlns:dc="http://purl.org/dc/elements/1.1/"><sodipodi:namedview
     id="namedview7"
     pagecolor="#ffffff"
     bordercolor="#999999"
     borderopacity="1"
     inkscape:showpageshadow="0"
     inkscape:pageopacity="0"
     inkscape:pagecheckerboard="0"
     inkscape:deskcolor="#d1d1d1"
     inkscape:document-units="mm"
     showgrid="false"
     inkscape:zoom="0.51237969"
     inkscape:cx="183.4577"
     inkscape:cy="459.62009"
     inkscape:window-width="1920"
     inkscape:window-height="997"
     inkscape:window-x="0"
     inkscape:window-y="0"
     inkscape:window-maximized="1"
     inkscape:current-layer="layer2" /><defs
     id="defs2" /><g
     inkscape:groupmode="layer"
     id="layer2"
     inkscape:label="Vect"
     transform="translate(-69.320616,-39.447089)"><rect
       style="fill:#ffffff;fill-opacity:1;fill-rule:evenodd;stroke:#c6c6b8;stroke-width:0;stroke-linecap:round;stroke-linejoin:round;stroke-miterlimit:2;stroke-opacity:0.680142;paint-order:stroke markers fill"
       id="rect9"
       width="293.9736"
       height="238.125"
       x="69.320618"
       y="39.44709" /><g
       id="g9"
       transform="matrix(0.94444445,0,0,0.94444445,12.017075,8.806088)"><path
         style="font-variation-settings:normal;opacity:1;vector-effect:none;fill:#c6c6b8;fill-opacity:1;stroke:#c6c6b8;stroke-width:0.557084;stroke-linecap:butt;stroke-linejoin:miter;stroke-miterlimit:4;stroke-dasharray:none;stroke-dashoffset:0;stroke-opacity:1;-inkscape-stroke:none;stop-color:#000000;stop-opacity:1"
         d="M 363.16527,86.19772 H 70.961897"
         id="path9" /><path
         style="fill:#6dcff6;stroke-width:2.10552"
         d="m 206.56096,52.594276 c -0.28084,-0.514746 -0.97772,-1.838378 -1.54865,-2.941405 l -1.03804,-2.005501 h 1.2145 1.21451 l 0.11243,-0.935901 c 0.0619,-0.514746 0.11307,-2.359809 0.11391,-4.100142 l 0.002,-3.164238 h 0.62392 0.62395 v 4.10014 4.100141 h 1.24786 c 0.68633,0 1.24787,0.04687 1.24787,0.104139 0,0.107044 -1.09318,2.146918 -1.99817,3.728607 -0.2805,0.490233 -0.64238,1.152049 -0.80421,1.470702 -0.16191,0.318651 -0.34069,0.579366 -0.39754,0.579366 -0.0568,0 -0.33311,-0.421155 -0.61392,-0.935901 z m 17.97156,-4.082137 c -0.85633,-0.228101 -1.2017,-0.741537 -1.28639,-1.912469 -0.0819,-1.131999 0.23523,-2.007556 0.84535,-2.334088 0.43058,-0.230432 1.45074,-0.236906 2.0398,-0.01284 0.47682,0.181285 1.08754,1.148921 0.90826,1.439029 -0.19645,0.317796 -0.84261,0.178001 -1.26026,-0.272636 -0.47667,-0.514329 -0.82364,-0.561426 -1.21951,-0.165536 -0.31947,0.319466 -0.37573,1.525608 -0.0956,2.049056 0.25598,0.478333 1.17776,0.470214 1.33072,-0.01179 0.16213,-0.510531 1.34781,-0.525469 1.21438,-0.01537 -0.22508,0.86072 -1.49936,1.49695 -2.47676,1.236605 z m 11.33445,0.07837 c -0.47001,-0.17282 -0.89133,-0.631678 -0.89133,-0.970762 0,-0.418956 0.91938,-0.457331 1.25544,-0.05241 0.30669,0.369554 1.30672,0.27369 1.38366,-0.132647 0.0427,-0.22532 -0.11517,-0.333006 -0.62247,-0.424927 -1.51309,-0.274117 -2.2744,-1.061422 -1.87469,-1.938699 0.49138,-1.078479 2.40475,-1.291079 3.20861,-0.356519 0.49352,0.573736 0.43534,0.863845 -0.18802,0.937997 -0.32671,0.03887 -0.52444,-0.05676 -0.66661,-0.32238 -0.15307,-0.286047 -0.33972,-0.364294 -0.7696,-0.322651 -0.95747,0.09275 -0.6843,0.528712 0.5855,0.934432 1.38595,0.44284 1.8502,1.012833 1.44365,1.772469 -0.41513,0.77567 -1.90103,1.230189 -2.8641,0.876082 z m 6.82779,-0.222601 c -1.09944,-0.67036 -1.17696,-2.643944 -0.14444,-3.676472 0.55139,-0.551386 1.13378,-0.678313 2.01883,-0.439992 1.41015,0.379711 2.07134,2.179562 1.24661,3.393335 -0.74598,1.097843 -2.02169,1.393422 -3.121,0.723129 z m 1.98632,-0.938464 c 0.63027,-0.899817 0.14781,-2.277806 -0.79761,-2.277806 -0.40161,0 -0.5854,0.126226 -0.8066,0.554002 -0.68434,1.323369 0.78146,2.898446 1.60421,1.723804 z m -31.30044,0.672838 c -1.17583,-0.799003 -1.56257,-2.671774 -0.85398,-4.135505 0.96407,-1.991521 3.72662,-2.026847 4.87979,-0.06241 0.46262,0.788097 0.4786,2.492153 0.0314,3.349784 -0.68139,1.306727 -2.7469,1.738505 -4.05722,0.848123 z m 2.71632,-1.008558 c 0.45054,-0.482317 0.51718,-0.690085 0.51718,-1.612507 0,-1.337103 -0.48307,-1.933981 -1.56522,-1.933981 -1.08596,0 -1.55444,0.61787 -1.55444,2.050071 0,0.950589 0.0686,1.203053 0.43218,1.590041 0.62603,0.666389 1.49538,0.628885 2.1703,-0.09363 z m 3.25062,1.190239 c -0.21244,-0.153703 -0.52389,-0.639866 -0.69212,-1.080367 -0.26296,-0.688586 -0.27464,-0.91239 -0.0834,-1.595779 0.12233,-0.437174 0.36781,-0.926336 0.54537,-1.087023 0.47515,-0.430003 1.44078,-0.59716 2.12882,-0.368511 0.65217,0.216714 1.36368,1.028742 1.17248,1.338093 -0.17728,0.286817 -0.98599,0.239475 -1.10266,-0.06455 -0.13896,-0.361999 -0.69968,-0.508055 -1.10918,-0.288892 -0.77121,0.41273 -0.57923,2.510444 0.22973,2.510444 0.22032,0 0.54579,-0.16044 0.72324,-0.356535 0.37866,-0.418406 1.33701,-0.489421 1.33701,-0.09907 0,0.141596 -0.18697,0.474811 -0.41546,0.740462 -0.33432,0.38868 -0.60412,0.497474 -1.38156,0.557096 -0.68918,0.05285 -1.07682,-0.0061 -1.35235,-0.205372 z m 8.43796,0.135911 c -0.15033,-0.150271 -0.15265,-3.584954 -0.004,-4.828062 0.10064,-0.836966 0.15749,-0.935902 0.53899,-0.935902 0.25814,0 0.47711,0.135679 0.55455,0.343605 0.0703,0.188991 0.1038,1.512615 0.0741,2.941405 l -0.0537,2.5978 h -0.49592 c -0.27277,0 -0.54941,-0.05348 -0.61479,-0.118856 z m 2.77473,-0.03011 c -0.32913,-0.208909 -0.57647,-1.22018 -0.57366,-2.345597 0.004,-1.412777 0.13706,-1.783847 0.64228,-1.783847 0.39946,0 0.42487,0.06268 0.42487,1.047319 0,2.109779 0.44349,2.852479 1.34897,2.25918 0.40299,-0.264044 0.43371,-0.391257 0.43371,-1.795339 v -1.51116 h 0.62959 0.62959 l -0.0503,2.094636 -0.0503,2.094639 -0.51545,0.05885 c -0.28351,0.03236 -0.57413,-0.03609 -0.64583,-0.152103 -0.0968,-0.156797 -0.2247,-0.160461 -0.49787,-0.01432 -0.42697,0.22852 -1.44766,0.255942 -1.77575,0.04771 z m 9.22858,-1.99024 V 44.26032 h 0.52428 c 0.28837,0 0.57571,0.08319 0.63854,0.184864 0.063,0.101676 0.0573,1.064317 -0.0126,2.139204 l -0.12675,1.954339 h -0.51187 -0.51187 z m 7.1696,0.04457 0.0503,-2.094638 0.49126,-0.05651 c 0.31871,-0.03666 0.52855,0.0407 0.59744,0.220273 0.0945,0.246099 0.14802,0.247423 0.48433,0.012 0.54034,-0.378462 1.4782,-0.333275 1.90318,0.0917 0.309,0.308997 0.35654,0.594222 0.35654,2.139203 v 1.78267 h -0.5348 -0.5348 v -1.601006 c 0,-1.542545 -0.0147,-1.60494 -0.42908,-1.708695 -0.23599,-0.05923 -0.59698,-0.0179 -0.8022,0.09201 -0.33356,0.178505 -0.37312,0.359763 -0.37312,1.708693 v 1.508997 h -0.62961 -0.62959 z m -7.1696,-3.253372 c 0,-0.521465 0.0373,-0.553791 0.57938,-0.50153 0.48424,0.0467 0.57935,0.129026 0.57935,0.50153 0,0.372501 -0.0952,0.454837 -0.57935,0.501529 -0.54203,0.05226 -0.57938,0.02 -0.57938,-0.501529 z"
         id="path2" /><path
         style="fill:#0067a5;stroke-width:2.10552"
         d="m 206.6312,105.94067 c 0,-1.35069 0.0678,-2.13921 0.18381,-2.13921 0.10106,0 0.23089,0.12255 0.28837,0.27232 0.1556,0.40537 -0.12401,4.00609 -0.31111,4.00609 -0.0886,0 -0.16107,-0.96264 -0.16107,-2.1392 z m 0,-6.59588 c 0,-1.782669 0.0446,-2.139204 0.2674,-2.139204 0.22282,0 0.2674,0.356535 0.2674,2.139204 0,1.78267 -0.0446,2.1392 -0.2674,2.1392 -0.22283,0 -0.2674,-0.35653 -0.2674,-2.1392 z m -88.46685,-2.535637 -1.5617,-1.093571 -0.51268,-1.617036 c -0.28197,-0.889367 -0.57015,-2.253739 -0.6404,-3.031933 -0.108,-1.196167 -0.1938,-1.466866 -0.55507,-1.751044 -0.40231,-0.316454 -0.42733,-0.445417 -0.42733,-2.202106 0,-1.476692 -0.0702,-2.003947 -0.33658,-2.527365 -0.18511,-0.36377 -0.41651,-0.94217 -0.51422,-1.285335 -1.31009,-4.601366 -2.22248,-7.255088 -2.60486,-7.576346 -0.42702,-0.358758 -1.06823,-2.187855 -2.46656,-7.036015 -0.5662,-1.963088 -0.62225,-2.069621 -1.40691,-2.674005 -0.44948,-0.346205 -1.8271,-1.411609 -3.06139,-2.367565 -2.11713,-1.639715 -2.29273,-1.738459 -3.10207,-1.744365 -0.73789,-0.0055 -1.056428,-0.140522 -2.27697,-0.965909 l -1.419062,-0.959648 -0.497308,0.354114 -0.497306,0.354114 v 2.935537 c 0,2.981111 -0.0874,3.431388 -0.792181,4.081729 -0.645018,0.595189 -0.812222,1.172184 -0.812222,2.802851 0,1.425011 -0.06232,1.773722 -0.445668,2.493844 -0.385469,0.7241 -0.44687,1.073064 -0.454568,2.583453 l -0.0088,1.746268 -1.19695,2.175768 c -1.195775,2.173633 -1.198872,2.177263 -3.15534,3.699736 -1.077114,0.838182 -2.125254,1.644281 -2.329201,1.791328 -0.20394,0.147049 -1.006148,0.381372 -1.78267,0.520717 -4.458454,0.800066 -4.628397,0.814933 -9.31555,0.814933 H 71.32661 v -0.5348 -0.534801 l 4.501242,-4e-4 c 4.365578,-3.88e-4 4.5939,-0.01832 7.575596,-0.59412 3.013077,-0.581889 3.091246,-0.608443 3.921872,-1.332351 0.466136,-0.406245 1.345654,-1.121587 1.954485,-1.589649 0.60883,-0.468063 1.15557,-0.990932 1.214979,-1.161933 0.05942,-0.17101 0.206656,-0.411662 0.327233,-0.534801 0.120561,-0.123131 0.556523,-0.851755 0.968789,-1.619146 0.729382,-1.35767 0.749576,-1.440673 0.749576,-3.081032 0,-1.444786 0.06371,-1.811499 0.445666,-2.565257 0.373746,-0.737551 0.446149,-1.132165 0.448639,-2.445244 0.0029,-1.536226 0.01811,-1.590829 0.802202,-2.894633 l 0.79923,-1.328871 v -2.823473 -2.823473 l 0.826596,-0.883697 c 0.454627,-0.486035 0.941719,-0.883698 1.082425,-0.883698 0.276414,0 1.474869,0.655243 2.668907,1.459196 0.588303,0.396111 0.947733,0.50174 1.707273,0.50174 1.02234,0 1.22662,0.124521 4.51465,2.752153 3.4292,2.740444 3.16884,2.378382 4.1741,5.804662 1.41706,4.829869 1.66137,5.520177 1.99058,5.624667 0.45058,0.143007 0.5651,0.415359 1.12052,2.664747 0.76659,3.104569 1.66747,5.937665 2.1498,6.760706 0.38768,0.661526 0.44412,0.969811 0.44412,2.42595 0,1.532366 0.0359,1.705631 0.44163,2.129078 0.37924,0.395841 0.45745,0.686827 0.55368,2.059826 0.11081,1.581025 0.62167,3.472049 1.08653,4.021892 0.13197,0.156103 0.67927,0.586394 1.21622,0.956205 l 0.97627,0.672381 1.82927,-0.213855 c 1.3264,-0.155071 2.13376,-0.357291 2.93685,-0.735608 1.00869,-0.475168 1.1817,-0.505134 1.93798,-0.335648 0.81051,0.181642 0.8992,0.155534 3.70113,-1.089409 1.57889,-0.70153 3.16593,-1.379666 3.52676,-1.50697 0.3608,-0.127299 1.21858,-0.478375 1.90618,-0.780161 0.74656,-0.327662 1.55225,-0.548699 2.00005,-0.548699 0.47494,0 1.25653,-0.228754 2.13175,-0.623934 1.27283,-0.574698 1.51783,-0.623933 3.10465,-0.623933 1.41583,0 1.85649,-0.0687 2.4733,-0.385573 0.46623,-0.239515 1.99982,-0.605087 4.04847,-0.965056 1.81388,-0.318716 4.01037,-0.70675 4.88113,-0.862297 0.87076,-0.155556 2.31472,-0.283546 3.20881,-0.284443 1.37113,-0.0014 1.76515,-0.07096 2.51695,-0.444464 0.86825,-0.431367 0.96289,-0.44004 3.65448,-0.334907 2.56658,0.100243 2.83249,0.08024 3.7382,-0.281438 0.86271,-0.344498 1.50973,-0.409417 5.6154,-0.563417 l 4.64035,-0.174063 2.0701,-0.720067 2.07008,-0.72007 0.10401,-1.240047 c 0.0636,-0.758565 0.23934,-1.461977 0.45258,-1.811617 0.34535,-0.566148 1.29224,-2.283886 1.74794,-3.170856 0.13012,-0.253047 0.36221,-1.123402 0.516,-1.934122 0.1537,-0.81072 0.47751,-2.022606 0.71935,-2.69308 0.45028,-1.248293 1.13586,-5.825949 1.14133,-7.620797 0.002,-0.518357 0.22348,-1.669809 0.49312,-2.55878 0.4467,-1.472846 0.54621,-1.644939 1.12103,-1.93877 l 0.63082,-0.322453 1.24099,0.752964 c 1.05812,0.642012 1.52837,0.801805 3.19124,1.084437 1.93463,0.328819 1.95893,0.339119 3.03056,1.285609 0.59413,0.524774 1.52148,1.160646 2.06073,1.413049 0.53926,0.252403 1.03871,0.55138 1.1099,0.664396 0.0712,0.113003 0.53956,1.248343 1.0408,2.52295 0.76091,1.934864 1.02698,2.41597 1.61162,2.914076 0.88771,0.756305 0.97692,0.932073 1.32275,2.606333 0.20086,0.97239 0.40777,1.491684 0.70208,1.761914 0.27547,0.252917 0.52089,0.823362 0.72201,1.678201 0.2368,1.006554 0.41767,1.383814 0.81188,1.693535 0.44936,0.353047 0.56942,0.683126 1.05268,2.894231 0.30001,1.372655 0.59533,2.916893 0.65624,3.431639 l 0.11075,0.935901 0.91135,0.0013 c 2.17934,0.0032 5.56244,-0.390013 6.35178,-0.738026 0.71604,-0.315692 1.0525,-0.343186 3.03053,-0.247631 1.22379,0.05912 9.49446,0.146375 18.37927,0.193918 15.80166,0.08454 16.16114,0.09412 16.47275,0.43844 0.45313,0.500708 2.30691,0.503982 2.83803,0.0051 0.35859,-0.336885 0.82757,-0.349758 16.08658,-0.441622 15.55167,-0.09363 15.72588,-0.09079 16.5417,0.270098 0.91586,0.405124 1.24697,0.376658 3.1244,-0.268603 0.88099,-0.302787 1.32965,-0.365471 1.8718,-0.261502 1.35777,0.260382 2.02041,0.177073 3.0031,-0.377507 0.86791,-0.489831 1.0888,-0.534655 2.62674,-0.53307 1.65893,0.0017 1.68874,0.0095 2.4813,0.642824 l 0.8022,0.641096 3.29796,-0.121888 c 5.30141,-0.195939 24.19974,-0.150629 32.71198,0.07845 7.77979,0.209373 7.85077,0.208067 8.70529,-0.159029 1.06407,-0.457118 1.23405,-0.457916 2.53048,-0.01179 0.97569,0.335691 1.43722,0.355756 7.33487,0.318914 4.51355,-0.02819 6.35104,0.01811 6.49651,0.163514 0.11159,0.11155 0.15602,0.389203 0.099,0.616986 l -0.10402,0.414152 -6.55908,-0.04453 c -5.83196,-0.0396 -6.66747,-0.08104 -7.53675,-0.37386 -0.96144,-0.323853 -0.99204,-0.323358 -1.84157,0.02969 -0.85585,0.355678 -0.969,0.356813 -12.17971,0.122204 -7.55162,-0.15804 -15.03591,-0.196044 -22.49899,-0.114266 l -11.18315,0.122562 -0.7343,-0.628534 c -0.66673,-0.570698 -0.83467,-0.628532 -1.82497,-0.628532 -0.90784,0 -1.29736,0.108286 -2.32367,0.645909 l -1.23301,0.645908 -1.42304,-0.208067 c -1.42074,-0.20773 -1.42577,-0.207056 -3.12464,0.429254 l -1.70162,0.637331 -0.89046,-0.451229 -0.89045,-0.451231 H 271.9141 256.60829 l -0.41868,0.445668 c -0.38403,0.408774 -0.54636,0.445669 -1.96095,0.445669 -1.42483,0 -1.57495,-0.03481 -1.97163,-0.457053 l -0.42938,-0.457051 -15.51202,0.02956 c -10.70916,0.02042 -15.80933,-0.03127 -16.47227,-0.166883 -1.70863,-0.349547 -3.65972,-0.254536 -4.61653,0.22481 -0.90552,0.453652 -3.96728,0.846219 -6.67908,0.856363 -0.75988,0.0027 -1.38157,0.07753 -1.38157,0.165978 0,0.08845 -0.0792,0.160798 -0.17581,0.160798 -0.23298,0 -0.71546,-1.173066 -0.71546,-1.739517 0,-0.246459 -0.24577,-1.66057 -0.54617,-3.142467 -0.45195,-2.229531 -0.6191,-2.755871 -0.96896,-3.050896 -0.29999,-0.25297 -0.53566,-0.808023 -0.81134,-1.910865 -0.27938,-1.117551 -0.47835,-1.582834 -0.70812,-1.655756 -0.39443,-0.125194 -0.48956,-0.350368 -0.89371,-2.115654 -0.28997,-1.26648 -0.40074,-1.475829 -1.13201,-2.139203 -0.71173,-0.645673 -0.9284,-1.038527 -1.77695,-3.221862 -0.94127,-2.4219 -0.98308,-2.491397 -1.60893,-2.674004 -0.35341,-0.103107 -1.15656,-0.625747 -1.78476,-1.161407 -1.10556,-0.942694 -1.20423,-0.986312 -3.07654,-1.360001 -1.47779,-0.294951 -2.18455,-0.538565 -2.99444,-1.032167 -0.58306,-0.35535 -1.11388,-0.585662 -1.17961,-0.511801 -0.24787,0.278533 -0.70165,1.91631 -0.70045,2.528084 6.8e-4,0.350211 -0.11517,1.519167 -0.25729,2.597682 -0.14212,1.078516 -0.3421,2.628167 -0.44424,3.443669 -0.10212,0.815502 -0.30379,1.738034 -0.44806,2.050071 -0.54259,1.173562 -0.96925,2.570893 -1.17643,3.852984 -0.1177,0.728592 -0.40624,1.668919 -0.64111,2.089618 -1.50045,2.687583 -1.54277,2.796967 -1.6622,4.29741 -0.0644,0.809819 -0.19687,1.552137 -0.29441,1.649597 -0.0975,0.09746 -1.21577,0.531203 -2.48512,0.963869 -2.5038,0.853425 -2.57909,0.862773 -8.8913,1.103851 -2.65272,0.101317 -3.12743,0.166209 -3.92188,0.53614 -0.83538,0.388996 -1.12868,0.421008 -3.87213,0.422616 -2.78696,0.0016 -3.02651,0.02887 -3.92186,0.445669 -0.83302,0.387793 -1.20155,0.444177 -2.91453,0.44591 -1.07853,0.0011 -2.64283,0.126562 -3.47621,0.278837 -0.8334,0.152271 -2.7988,0.504469 -4.36755,0.782667 -1.83075,0.324662 -3.20342,0.67171 -3.83274,0.969032 -0.83536,0.394664 -1.22581,0.463474 -2.63829,0.464959 -1.10352,0.0012 -1.82649,0.08898 -2.16232,0.262631 -0.95827,0.495535 -2.06558,0.803532 -2.89816,0.806118 -0.63204,0.002 -1.3701,0.246553 -3.03055,1.004292 -1.20727,0.550934 -3.30017,1.489539 -4.6509,2.085787 -2.41637,1.066658 -2.46884,1.08062 -3.26298,0.86822 -0.75021,-0.200656 -0.86234,-0.183496 -1.59053,0.243246 -0.56493,0.331069 -1.29559,0.529141 -2.61983,0.710201 -1.01003,0.138101 -2.07707,0.28975 -2.37121,0.337006 -0.43868,0.07047 -0.8155,-0.110644 -2.0965,-1.007651 z m 88.46685,-4.06024 c 0,-1.78267 0.0446,-2.139203 0.2674,-2.139203 0.22282,0 0.2674,0.356533 0.2674,2.139203 0,1.782668 -0.0446,2.139204 -0.2674,2.139204 -0.22283,0 -0.2674,-0.356536 -0.2674,-2.139204 z m 0.17833,-13.295744 c 0,-1.71546 0.0524,-2.22566 0.22283,-2.168664 0.15749,0.05268 0.23119,0.640009 0.25134,2.003049 0.029,1.959045 -0.0299,2.408806 -0.31499,2.408806 -0.0876,0 -0.15918,-1.009437 -0.15918,-2.243191 z m 0,-6.670157 c 0,-1.782668 0.0446,-2.139203 0.2674,-2.139203 0.22283,0 0.26741,0.356535 0.26741,2.139203 0,1.782671 -0.0446,2.139204 -0.26741,2.139204 -0.22284,0 -0.2674,-0.356533 -0.2674,-2.139204 z m 0.0392,-6.596499 c 0.0672,-2.872483 0.39108,-2.903655 0.45664,-0.04394 0.0432,1.881913 0.0105,2.183771 -0.22832,2.183771 -0.23965,0 -0.27142,-0.297745 -0.22832,-2.139829 z m 0.1099,-4.629715 c -0.13454,-0.395906 0.0636,-4.283012 0.21841,-4.283012 0.21706,0 0.22135,4.224064 0.004,4.358131 -0.0897,0.05542 -0.18992,0.02162 -0.22283,-0.07512 z"
         id="path3" /><path
         style="fill:#72bf44;stroke-width:2.10552"
         d="m 206.0964,197.31301 c 0,-0.53347 0.0802,-1.01953 0.17833,-1.08013 0.11139,-0.0688 0.17834,0.29528 0.17834,0.96995 0,0.60125 -0.079,1.08013 -0.17834,1.08013 -0.0981,0 -0.17833,-0.43648 -0.17833,-0.96995 z m 0.11875,-3.24904 c -0.19308,-0.19308 -0.13791,-4.30502 0.0594,-4.42695 0.11539,-0.0714 0.17834,0.7112 0.17834,2.2178 0,1.28041 -0.0267,2.328 -0.0594,2.328 -0.0326,0 -0.11285,-0.0535 -0.17833,-0.11875 z m -0.0798,-8.80777 c 0.0364,-1.58287 0.11328,-2.20688 0.27864,-2.26179 0.17918,-0.0596 0.21763,0.39506 0.17834,2.11006 -0.0364,1.58287 -0.11328,2.20688 -0.27864,2.26179 -0.17918,0.0596 -0.21763,-0.39506 -0.17834,-2.11006 z m -0.0389,-6.47164 c 0,-1.58541 0.0583,-2.07671 0.2674,-2.25017 0.23529,-0.19539 0.2674,0.0482 0.2674,2.02825 0,1.8813 -0.0438,2.25016 -0.2674,2.25016 -0.22203,0 -0.2674,-0.34421 -0.2674,-2.02824 z m 41.44707,-4.13323 c -0.70346,-0.36363 -0.9126,-0.60085 -1.05087,-1.19204 -0.10527,-0.4506 -0.0718,-0.49025 0.41544,-0.49025 0.32775,0 0.70021,0.17013 0.97576,0.44568 0.51349,0.51351 1.35974,0.59192 1.78613,0.16549 0.32994,-0.32991 0.33347,-0.35674 0.1038,-0.78603 -0.10759,-0.20108 -0.528,-0.40504 -1.07851,-0.5231 -1.10329,-0.23661 -1.8739,-0.61921 -2.0214,-1.00359 -0.0608,-0.15876 -0.11075,-0.59637 -0.11075,-0.97254 0,-0.59123 0.0857,-0.73697 0.63307,-1.0752 0.52867,-0.32673 0.82656,-0.37893 1.80649,-0.31654 0.95715,0.0611 1.23474,0.15054 1.50612,0.48561 0.18297,0.22599 0.33273,0.56243 0.33273,0.74767 0,0.46877 -0.83328,0.44799 -1.22069,-0.0305 -0.37154,-0.45883 -1.3596,-0.51595 -1.77304,-0.10254 -0.46182,0.46183 -0.0684,0.87324 1.14117,1.1936 1.40672,0.37255 1.76221,0.58862 2.02934,1.23351 0.68621,1.65669 -1.66226,3.15758 -3.47473,2.22067 z m -26.24982,-0.0297 -1.82723,-0.0606 v -2.84602 -2.84605 h 2.22833 2.22835 v 0.44567 c 0,0.4426 -0.0105,0.44566 -1.61571,0.44566 h -1.61569 l 0.0558,0.57937 0.0558,0.57938 1.38158,0.052 1.38156,0.052 v 0.5273 0.52731 h -1.42613 -1.42613 v 0.71307 0.71306 h 1.61569 1.61571 l -0.0558,0.57937 c -0.0636,0.66055 0.0939,0.62785 -2.59616,0.53847 z m 3.91828,-0.0785 c -0.15434,-0.15433 -0.21923,-1.02747 -0.21923,-2.95203 v -2.73282 l 2.27291,0.0499 c 2.13741,0.0469 2.2729,0.0712 2.2729,0.40642 0,0.32714 -0.13602,0.36076 -1.64898,0.40778 l -1.64897,0.0512 v 0.61003 0.61003 l 1.4707,0.0518 c 1.45729,0.0514 1.47123,0.0562 1.52711,0.54202 l 0.0564,0.49023 h -1.52713 -1.52711 v 0.71307 0.71306 h 1.70483 1.70484 l -0.0558,0.57937 -0.0558,0.57938 -2.05368,0.0499 c -1.44565,0.0352 -2.11859,-0.0147 -2.27291,-0.16929 z m 5.43408,0.0979 c -0.0699,-0.0699 -0.12696,-1.39718 -0.12696,-2.94957 v -2.82257 l 1.64897,6.7e-4 c 2.00353,8e-4 2.71875,0.32435 2.90439,1.31388 0.29802,1.58859 -0.48643,2.42722 -2.27155,2.42838 l -1.01614,6.7e-4 -0.0535,1.02503 c -0.0495,0.94811 -0.0874,1.02901 -0.50581,1.07779 -0.24879,0.0291 -0.5095,-0.004 -0.57936,-0.0743 z m 2.80276,-3.27199 c 0.35012,-0.13307 0.45727,-0.29875 0.45727,-0.7068 0,-0.65391 -0.46515,-0.94447 -1.38911,-0.86777 -0.6381,0.0531 -0.66284,0.0806 -0.71514,0.79976 -0.0505,0.69547 -0.0211,0.74984 0.44565,0.82006 0.27494,0.0413 0.55481,0.0872 0.62197,0.1019 0.0672,0.0147 0.32785,-0.0516 0.57936,-0.14717 z m 7.89326,3.27199 c -0.0699,-0.0699 -0.12696,-1.39718 -0.12696,-2.94957 v -2.82257 h 1.43187 c 2.23915,0 3.02481,0.48094 3.02481,1.85169 0,1.37829 -0.60481,1.89191 -2.22783,1.89191 h -0.96319 l -0.0535,1.02503 c -0.0495,0.94811 -0.0874,1.02901 -0.5058,1.07779 -0.24879,0.0291 -0.5095,-0.004 -0.57936,-0.0743 z m 2.89456,-3.35476 c 0.11706,-0.14107 0.18718,-0.48208 0.15559,-0.75763 -0.0529,-0.46165 -0.12401,-0.50528 -0.90423,-0.55535 l -0.84676,-0.0543 v 0.81197 0.81197 h 0.69125 c 0.38404,0 0.78588,-0.11412 0.90421,-0.25662 z m -30.11818,0.43489 v -2.85227 h 1.74301 c 2.04795,0 2.44505,0.18549 2.62054,1.22425 0.13855,0.82052 -0.23512,1.86146 -0.77139,2.14847 -0.19792,0.1059 -0.8064,0.19265 -1.3521,0.19265 h -0.99218 v 1.0696 1.0696 h -0.62395 -0.62393 z m 3.17712,-0.94668 c 0.0829,-0.72392 -0.24586,-1.01427 -1.14888,-1.01427 h -0.78036 v 0.81153 0.81151 l 0.9359,-0.0539 c 0.87817,-0.0505 0.93944,-0.0848 0.99334,-0.55489 z m -11.05926,3.39683 c -0.13855,-0.40569 0.0752,-4.23282 0.23638,-4.23282 0.20782,0 0.20676,4.22754 -0.001,4.35599 -0.0878,0.0543 -0.19371,-0.001 -0.23533,-0.12317 z m 31.41338,-1.10238 c 0,-0.78589 -0.004,-0.79185 -0.6685,-0.84678 -0.53697,-0.0444 -0.6797,-0.13433 -0.72546,-0.45643 -0.0512,-0.35958 0.019,-0.4011 0.6685,-0.4011 h 0.72546 v -0.71306 c 0,-0.64176 0.0446,-0.71307 0.44567,-0.71307 0.40001,0 0.44566,0.072 0.44566,0.70282 0,0.69939 0.004,0.70307 0.75765,0.75763 0.62051,0.0448 0.75762,0.11938 0.75762,0.41135 0,0.29202 -0.13707,0.36647 -0.75762,0.41136 l -0.75765,0.0547 v 0.79197 c 0,0.7259 -0.0373,0.79195 -0.44566,0.79195 -0.40847,0 -0.44567,-0.0661 -0.44567,-0.79145 z m -148.695495,-4.73484 -2.901179,-3.03054 h -2.384319 -2.38432 l -0.845657,-0.71303 -0.845655,-0.71307 h -4.400636 -4.400635 v -0.5348 -0.5348 h 4.609854 4.609855 l 0.782721,0.62221 0.782723,0.6222 2.417719,0.002 2.417719,0.002 2.836765,2.98598 2.836765,2.98596 0.895727,-0.06 c 0.939657,-0.063 1.519662,-0.41378 1.519662,-0.91902 0,-0.16486 0.239746,-1.09507 0.532769,-2.067 0.430192,-1.4269 0.533158,-2.09589 0.534801,-3.47467 0.0019,-1.58245 0.0399,-1.76528 0.519041,-2.49574 0.284356,-0.43351 0.736677,-1.52591 1.00516,-2.42757 0.268483,-0.90165 0.590475,-1.67864 0.715538,-1.72663 0.125068,-0.048 1.417528,-0.1449 2.872147,-0.21536 l 2.64476,-0.12812 2.08013,-1.8443 c 1.961,-1.73868 2.12454,-1.8443 2.85546,-1.8443 0.54466,0 0.98652,-0.14183 1.4852,-0.47672 0.93483,-0.62777 0.97073,-0.69532 0.97834,-1.84076 l 0.007,-0.98047 1.64519,-1.85588 c 0.90485,-1.02075 1.79215,-1.94328 1.97178,-2.05008 0.39302,-0.23367 0.32691,-0.31321 2.35763,2.83636 1.33624,2.07246 1.51766,2.45623 1.71602,3.62993 l 0.22181,1.31245 1.4529,1.27365 1.45289,1.27365 1.89605,0.31073 c 1.04283,0.17091 2.75842,0.43575 3.81243,0.58855 1.054,0.15279 2.39769,0.36148 2.98597,0.46375 0.58828,0.10226 1.71136,0.22907 2.49574,0.28178 1.37645,0.0925 1.46482,0.12601 2.53648,0.96238 1.10978,0.86611 1.11104,0.86655 2.49573,0.86899 1.81576,0.003 1.97197,0.0629 2.81154,1.07399 l 0.71305,0.85877 2.02621,0.0129 2.02617,0.0128 0.84998,0.62394 c 0.73236,0.5376 0.9881,0.62393 1.84828,0.62393 0.54906,0 1.94217,0.19379 3.09579,0.43067 1.15361,0.23687 2.49857,0.48286 2.9888,0.54665 1.78516,0.23228 3.94108,0.83577 4.74732,1.32887 0.82454,0.5043 0.83012,0.505 5.02374,0.63604 l 4.19829,0.1312 0.98229,-0.61443 c 0.95542,-0.59762 1.01547,-0.61066 2.19607,-0.47697 4.75158,0.53807 4.55038,0.49588 5.58132,1.1703 0.53927,0.35277 1.10081,0.75765 1.24788,0.89973 0.44808,0.43285 3.79656,2.54382 4.03512,2.54382 0.59569,0 1.13078,-0.83934 1.59107,-2.49573 0.87177,-3.13702 1.17799,-4.36291 1.33595,-5.34801 0.26536,-1.65492 0.93668,-3.76053 1.25289,-3.92976 0.16338,-0.0874 1.12927,-0.24038 2.14659,-0.33996 2.15426,-0.21088 5.79053,-0.67796 6.30636,-0.81006 0.19602,-0.0502 1.33959,-1.3557 2.54114,-2.90107 2.92109,-3.75699 2.94859,-3.78475 3.74997,-3.78486 0.60841,-8e-5 0.8502,-0.18619 3.02333,-2.32671 2.23883,-2.20527 2.36203,-2.36334 2.36203,-3.03045 0,-0.3871 0.0802,-0.70382 0.17834,-0.70382 0.0981,0 0.17833,0.20055 0.17833,0.44566 0,0.55498 0.0901,0.55526 0.81477,0.003 0.31956,-0.24374 1.03091,-0.5817 1.58076,-0.75101 0.79883,-0.24599 1.149,-0.48487 1.74263,-1.18889 3.7127,-4.40305 4.16149,-4.80791 8.64259,-7.79647 l 4.24373,-2.83027 1.96095,-0.003 1.96093,-0.003 1.78525,1.88306 1.78524,1.88306 8.19772,-0.0303 c 4.50873,-0.0166 8.87957,-0.0814 9.71298,-0.14392 l 1.51525,-0.11363 0.0499,-2.3741 c 0.0448,-2.13418 0.0808,-2.36818 0.35653,-2.3156 0.25805,0.0492 0.32084,0.33848 0.39584,1.8235 0.0773,1.52816 0.12191,1.72526 0.33381,1.46883 0.28464,-0.34459 1.10322,-0.39223 1.41322,-0.0822 0.25948,0.25949 0.28205,0.9708 0.0356,1.12308 -0.43072,0.26621 -0.10401,0.44567 0.81104,0.44567 1.03272,0 1.76392,0.27912 2.63428,1.00555 0.39996,0.33383 0.71356,0.42059 1.52016,0.42059 0.5623,0 1.17334,-0.10776 1.36789,-0.24124 0.1935,-0.13269 0.72524,-0.44782 1.18187,-0.70031 l 0.83024,-0.45906 12.89633,-0.12892 12.89632,-0.12893 0.66494,-0.41863 c 0.88141,-0.55491 1.88551,-0.54423 3.03327,0.0323 0.88632,0.44518 0.93866,0.44971 4.12603,0.35715 4.41074,-0.1281 10.99839,-0.24368 21.67894,-0.38037 l 9.00249,-0.11521 0.67641,0.4677 c 0.87586,0.60561 1.8526,0.61997 2.77019,0.0407 0.64439,-0.40678 0.86139,-0.43197 4.58684,-0.53246 2.15074,-0.058 7.23959,-0.14715 11.30851,-0.19809 4.06896,-0.0509 9.70443,-0.14172 12.52327,-0.20177 l 5.12516,-0.10917 v 0.62525 0.62526 l -3.96643,0.1149 c -2.18154,0.0632 -9.48556,0.18444 -16.23114,0.26941 l -12.26471,0.15451 -0.7004,0.46349 c -0.97475,0.64506 -2.30432,0.64221 -3.46665,-0.007 l -0.84261,-0.47093 -7.24642,0.11848 c -3.98555,0.0652 -11.54869,0.20308 -16.80698,0.30647 l -9.56054,0.188 -0.90672,-0.45947 c -1.13106,-0.57315 -1.80716,-0.57963 -2.75864,-0.0264 l -0.74481,0.43303 -12.83522,0.1241 -12.83522,0.1241 -1.08674,0.6016 c -0.95353,0.52785 -1.24497,0.60159 -2.37763,0.60159 -1.14397,0 -1.41792,-0.071 -2.40661,-0.62393 -1.03448,-0.57851 -1.22758,-0.62393 -2.65215,-0.62393 -1.33656,0 -1.56042,0.0448 -1.72096,0.34481 -0.19539,0.36512 -0.2726,13.23425 -0.0806,13.42631 0.0573,0.0572 0.25775,-0.0498 0.44567,-0.23769 0.43557,-0.43557 0.78567,-0.43249 1.22897,0.0107 0.40963,0.40963 0.33153,0.76641 -0.32284,1.47474 l -0.4529,0.49024 h 1.99431 c 1.65386,0 1.99428,0.0456 1.99428,0.2674 0,0.22376 -0.37238,0.2674 -2.28181,0.2674 -1.53707,0 -2.35165,0.0698 -2.49573,0.21392 -0.14402,0.1441 -0.21392,0.95868 -0.21392,2.49574 0,2.16297 -0.019,2.28181 -0.35655,2.28181 -0.33429,0 -0.35653,-0.11883 -0.35653,-1.90515 v -1.90516 l -0.5,0.47902 c -0.54301,0.52026 -0.91318,0.59894 -1.24701,0.2651 -0.29883,-0.29882 -0.26708,-1.12445 0.0535,-1.39048 0.14718,-0.12206 0.2674,-0.29232 0.2674,-0.37836 0,-0.0877 -3.94542,-0.15644 -8.97511,-0.15644 -9.4856,0 -12.29514,-0.0987 -12.18471,-0.42821 0.047,-0.14029 3.1664,-0.17615 11.01383,-0.12665 l 10.94819,0.0691 0.35653,-0.39975 c 0.34074,-0.38204 0.35937,-0.70019 0.42043,-7.18334 l 0.0638,-6.78359 -0.48903,0.38467 c -0.54274,0.42692 -1.1486,0.49707 -1.47489,0.17076 -0.25951,-0.25948 -0.28208,-0.97079 -0.0356,-1.12308 0.64301,-0.3974 -0.43657,-0.45084 -8.86878,-0.43907 l -9.04705,0.0126 -1.69352,-1.78683 -1.69355,-1.78682 -1.72947,-0.04 -1.72948,-0.04 -3.35113,2.19691 c -1.84313,1.2083 -3.64189,2.39097 -3.99726,2.62816 -0.51779,0.34559 -4.29849,4.43903 -5.51001,5.9658 -0.15033,0.18943 -0.74468,0.46753 -1.32079,0.61797 -0.79866,0.20855 -1.2938,0.49275 -2.08456,1.19647 -0.95976,0.8541 -1.03741,0.98055 -1.04124,1.69543 -0.004,0.8158 -0.35268,0.97826 -0.53405,0.24911 -0.0827,-0.33248 -0.34088,-0.15347 -2.14002,1.48392 -1.7684,1.60942 -2.13116,1.8632 -2.67401,1.8707 -0.58933,0.008 -0.73726,0.14817 -2.4014,2.27291 -3.45048,4.40547 -3.36358,4.30833 -3.93117,4.39486 -0.29414,0.0448 -2.21215,0.32172 -4.26225,0.61529 -2.12563,0.30439 -3.78349,0.62443 -3.85783,0.74475 -0.0718,0.11603 -0.38409,1.25135 -0.69413,2.5229 -0.31004,1.27156 -0.87943,3.40683 -1.26531,4.74505 -0.38588,1.33823 -0.7025,2.56604 -0.7036,2.7285 -0.002,0.38878 -1.64304,1.75469 -2.10728,1.75469 -0.39022,0 -2.31485,-1.12954 -5.02543,-2.94938 l -1.69355,-1.137 -2.13179,-0.27428 c -2.87506,-0.36991 -3.09113,-0.3559 -4.01842,0.26052 l -0.8022,0.53328 -4.41364,7.6e-4 -4.41365,7.6e-4 -0.70427,-0.51016 c -0.97822,-0.70863 -1.34734,-0.83229 -4.28411,-1.43522 -1.42169,-0.29187 -3.28991,-0.69554 -4.15162,-0.89705 -0.8617,-0.2015 -2.18533,-0.36963 -2.9414,-0.37362 -1.26017,-0.007 -1.42609,-0.0512 -1.99188,-0.5348 -0.60376,-0.51607 -0.66044,-0.52755 -2.60358,-0.52755 h -1.98636 l -0.92729,-0.98047 -0.92729,-0.98047 h -1.60221 -1.6022 l -1.17742,-0.89134 c -0.82549,-0.62491 -1.34269,-0.89133 -1.73032,-0.89133 -0.49797,0 -3.7762,-0.52342 -10.08996,-1.61103 -2.42914,-0.41844 -2.51332,-0.46311 -4.63674,-2.46058 -0.8499,-0.7995 -0.89234,-0.88632 -1.12884,-2.30927 -0.22835,-1.37397 -0.3389,-1.61649 -1.56305,-3.42917 l -1.31732,-1.95064 -1.19718,1.28997 -1.19719,1.28997 -0.006,1.12589 c -0.003,0.61924 -0.0829,1.26941 -0.1768,1.44483 -0.0939,0.17541 -0.68107,0.65146 -1.30487,1.05788 -0.91965,0.59918 -1.29173,0.73894 -1.96719,0.73894 -0.80385,0 -0.89703,0.0589 -2.66157,1.6826 -2.04766,1.8842 -1.74393,1.77129 -5.3481,1.98818 l -1.915141,0.11526 -0.357767,1.20131 c -0.196782,0.66072 -0.357765,1.25843 -0.357765,1.32824 0,0.0698 -0.240661,0.47671 -0.534801,0.90423 -0.500334,0.72721 -0.53481,0.88439 -0.534925,2.43873 -1.1e-4,1.45896 -0.09593,1.97266 -0.78636,4.21559 -0.432428,1.40478 -0.830404,2.59833 -0.88439,2.65232 -0.107634,0.10759 -2.747887,0.76182 -3.083729,0.76405 -0.114835,7.8e-4 -1.514327,-1.36235 -3.109977,-3.02914 z m 117.320515,-2.85223 c 0,-1.30729 0.0693,-2.13921 0.17834,-2.13921 0.10885,0 0.17833,0.83192 0.17833,2.13921 0,1.30729 -0.0693,2.13919 -0.17833,2.13919 -0.10886,0 -0.17834,-0.8319 -0.17834,-2.13919 z m 25.23252,1.11464 c -0.13834,-0.36025 -0.0255,-0.44991 1.06185,-0.84389 1.97432,-0.71541 3.777,-1.78146 4.6781,-2.76649 0.92621,-1.01246 3.11561,-5.72476 2.80446,-6.03607 -0.0627,-0.0628 -0.43275,-0.23878 -0.82222,-0.39111 l -0.70817,-0.27696 1.63093,-1.50571 c 0.89703,-0.82813 1.69191,-1.52852 1.7664,-1.5564 0.0745,-0.0279 0.22984,0.69409 0.34518,1.6044 0.11538,0.91031 0.25316,1.92699 0.30629,2.2593 l 0.0966,0.6042 -0.59211,-0.13399 c -1.2128,-0.27448 -1.19867,-0.28482 -1.83085,1.34179 -1.756,4.51841 -3.43351,6.19675 -7.64029,7.64409 -0.88897,0.30585 -0.99843,0.31153 -1.09617,0.0568 z m 52.71471,-5.53001 c -0.3964,-0.0653 -0.4011,-0.0994 -0.4011,-2.90598 v -2.83987 h 0.88446 c 0.87217,0 0.88689,0.009 1.05906,0.6685 0.096,0.36768 0.31644,1.20999 0.48982,1.8718 0.17329,0.66182 0.36996,1.20331 0.43688,1.20331 0.067,0 0.17455,-0.22061 0.23908,-0.49024 0.0646,-0.26963 0.28262,-1.11194 0.48452,-1.8718 l 0.36712,-1.38157 h 0.87621 0.87623 l -0.0491,2.89684 -0.0491,2.89684 h -0.44567 c -0.4446,0 -0.44578,-0.005 -0.49625,-1.91637 -0.0278,-1.05401 -0.12023,-1.91637 -0.20508,-1.91637 -0.15138,0 -0.4131,0.98735 -0.63814,2.4066 -0.16591,1.04673 -0.5445,1.54839 -1.1179,1.48147 -0.50922,-0.0594 -0.55362,-0.16832 -1.14925,-2.81847 l -0.26043,-1.15874 -0.1337,1.91646 c -0.0735,1.05405 -0.18613,1.94058 -0.25025,1.97008 -0.064,0.0295 -0.29702,0.0239 -0.51764,-0.0124 z m 6.37304,-2.79315 v -2.9527 h 0.62835 0.62837 l -0.0491,2.89684 -0.0491,2.89684 -0.57937,0.0559 -0.57938,0.0559 z m -84.32027,0.6275 c 0,-1.81571 0.043,-2.15406 0.27304,-2.15406 0.23252,0 0.26561,0.30895 0.22285,2.08009 -0.0354,1.46853 -0.1158,2.10183 -0.27306,2.15406 -0.17013,0.0565 -0.22283,-0.43624 -0.22283,-2.08009 z m 72.01985,-0.44595 c 0,-1.41366 0.0486,-2.69718 0.10822,-2.85227 0.0882,-0.22963 0.42127,-0.28198 1.79441,-0.28198 0.92739,0 1.83862,0.0816 2.02493,0.18131 0.48048,0.25714 0.78285,1.48501 0.53838,2.18626 -0.34749,0.99683 -0.66477,1.19778 -1.89117,1.19778 h -1.11361 l -0.12422,1.0696 -0.12423,1.0696 h -0.60643 -0.60643 z m 3.29795,-1.35158 v -0.62394 l -0.9359,-0.0539 -0.9359,-0.0539 v 0.7317 0.7317 l 0.9359,-0.0539 0.9359,-0.0539 z m -5.90485,0.0446 c -1.28595,-4.01211 -4.23807,-7.4884 -8.08912,-9.52537 -2.07509,-1.09761 -5.41389,-2.09461 -7.93287,-2.36885 -0.58828,-0.064 -1.29021,-0.15793 -1.55985,-0.20863 -0.46397,-0.0873 -0.4909,-0.0556 -0.50275,0.59047 -0.0257,1.40236 -0.11559,1.42585 -1.64222,0.42926 -0.75651,-0.49385 -1.71648,-1.07192 -2.13327,-1.2846 -0.66968,-0.34173 -0.71633,-0.40328 -0.40126,-0.52938 2.48349,-0.99393 4.05059,-1.58709 4.19294,-1.58709 0.096,0 0.17455,0.34817 0.17455,0.7737 v 0.77369 l 2.36203,0.37609 c 2.57593,0.41013 5.29756,1.18092 7.03937,1.9936 2.28758,1.06733 5.83703,4.15199 7.28754,6.33327 0.55074,0.8282 1.85081,3.76104 1.85081,4.17526 0,0.45277 -0.50496,0.49856 -0.64597,0.0586 z m -69.41295,-4.85778 c 0,-1.78267 0.0446,-2.1392 0.2674,-2.1392 0.22283,0 0.2674,0.35653 0.2674,2.1392 0,1.78267 -0.0446,2.1392 -0.2674,2.1392 -0.22285,0 -0.2674,-0.35653 -0.2674,-2.1392 z m 0.17834,-13.19175 c 0,-1.30729 0.0693,-2.13921 0.17833,-2.13921 0.10886,0 0.17834,0.83192 0.17834,2.13921 0,1.30729 -0.0693,2.1392 -0.17834,2.1392 -0.10885,0 -0.17833,-0.83191 -0.17833,-2.1392 z m 0.0389,-6.57977 c 0.0661,-2.83879 0.40672,-2.90205 0.40672,-0.0755 0,1.53266 -0.06,2.09982 -0.22845,2.15593 -0.17918,0.0597 -0.21762,-0.38916 -0.17833,-2.0804 z m 93.10408,-0.93719 c 0.16591,-2.80191 0.13054,-2.72212 1.01054,-2.27313 0.39546,0.20175 0.73979,0.34116 0.76519,0.30981 0.0255,-0.0314 0.58775,-0.97954 1.24972,-2.10708 0.66198,-1.12753 1.3452,-2.21051 1.51829,-2.4066 0.17307,-0.19609 0.34497,-0.43816 0.38194,-0.53793 0.20339,-0.54845 2.89069,-4.89921 3.02611,-4.89921 0.0884,0 0.16086,-0.64951 0.16086,-1.44335 v -1.44334 l 1.67951,0.0618 c 1.48279,0.0545 1.73303,0.11209 2.13649,0.49138 0.59609,0.56041 0.74362,1.38555 0.39634,2.21671 -0.32339,0.774 -0.82623,1.00815 -2.16498,1.00815 h -0.95994 l -0.0535,1.02504 c -0.0505,0.97036 -0.0796,1.02804 -0.54369,1.08144 -0.47772,0.055 -0.49025,0.0333 -0.49025,-0.84676 0,-0.49675 -0.0802,-0.90318 -0.17833,-0.90318 -0.0981,0 -0.17834,0.0699 -0.17834,0.15539 0,0.0855 -0.4011,0.76982 -0.89133,1.52078 -0.49025,0.75096 -0.89135,1.38916 -0.89135,1.41821 0,0.0291 -0.76205,1.33015 -1.69346,2.89133 -0.9314,1.56117 -1.69349,2.94148 -1.69353,3.06734 -5e-5,0.12587 0.28058,0.39444 0.62361,0.59682 0.34301,0.20239 0.58337,0.43317 0.53413,0.51285 -0.0969,0.15663 -2.76368,1.93745 -3.44671,2.30154 l -0.41708,0.22234 z m 11.15205,-12.46555 c 0.10991,-0.20522 0.15117,-0.56621 0.092,-0.8022 -0.0975,-0.38795 -0.20129,-0.42906 -1.08476,-0.42906 h -0.97709 v 0.8022 0.8022 h 0.88508 c 0.71575,0 0.92327,-0.0714 1.08476,-0.37314 z m -104.29508,6.80561 c 0,-1.81571 0.0429,-2.15406 0.27306,-2.15406 0.23249,0 0.26559,0.30895 0.22283,2.08009 -0.0354,1.46853 -0.1158,2.10184 -0.27304,2.15406 -0.17013,0.0565 -0.22285,-0.43624 -0.22285,-2.08009 z m 113.19945,-2.03103 c 0,-0.13532 0.16044,-0.39124 0.35655,-0.5687 0.45654,-0.41318 0.45273,-0.62393 -0.0105,-0.62393 -0.30759,0 -0.35867,-0.0949 -0.31197,-0.57937 0.0465,-0.48276 0.1377,-0.58877 0.5461,-0.63578 0.47236,-0.0543 0.49023,-0.0263 0.49023,0.76936 0,0.93593 -0.2055,1.42205 -0.71716,1.69584 -0.27195,0.14555 -0.35244,0.13244 -0.35244,-0.0574 z m -5.99503,-1.27111 c -0.4074,-0.1773 -0.64216,-0.46349 -0.87036,-1.06098 -0.51027,-1.33611 -0.0811,-2.76783 0.94733,-3.15998 0.626,-0.23871 1.88124,-0.0465 2.22534,0.34084 0.3372,0.3795 0.66145,1.53213 0.50312,1.78834 -0.0651,0.10517 -0.67669,0.21535 -1.35928,0.24484 -1.04922,0.0453 -1.25099,0.10544 -1.30506,0.38879 -0.11854,0.62144 0.84787,0.87509 1.40684,0.36923 0.19855,-0.17964 0.46406,-0.23614 0.76034,-0.16178 0.40458,0.10154 0.43395,0.16111 0.26366,0.53486 -0.20277,0.44496 -1.1314,0.97731 -1.68444,0.9656 -0.18128,-0.004 -0.58066,-0.11622 -0.88749,-0.24976 z m 1.50687,-2.88839 c -0.10612,-0.53937 -0.61986,-0.70958 -1.02768,-0.34052 -0.53758,0.48651 -0.45429,0.63338 0.35918,0.63338 0.57805,0 0.71438,-0.0597 0.6685,-0.29286 z m 10.37449,2.92632 c -0.4628,-0.2448 -0.93675,-0.9953 -0.78433,-1.24194 0.16781,-0.27142 0.95942,-0.14332 1.31561,0.21288 0.40241,0.4024 0.89453,0.4603 1.21223,0.14261 0.36072,-0.36073 0.25492,-0.45643 -0.94666,-0.85629 -1.27158,-0.42316 -1.602,-0.79469 -1.42472,-1.60193 0.17055,-0.77677 0.52204,-0.96067 1.8127,-0.94852 1.21758,0.0114 1.52678,0.17119 1.74594,0.90209 0.10843,0.36185 0.06,0.4011 -0.49659,0.4011 -0.3839,0 -0.65563,-0.101 -0.71949,-0.2674 -0.15665,-0.40848 -1.18341,-0.35576 -1.18341,0.0608 0,0.24985 0.22338,0.37928 0.9359,0.54231 1.27028,0.29065 1.63115,0.59219 1.63115,1.36298 0,0.91514 -0.53803,1.37384 -1.70968,1.45758 -0.56594,0.0405 -1.12426,-0.0264 -1.38865,-0.16623 z m -8.16365,-2.85629 0.0491,-2.89684 h 0.5348 0.53481 l 0.049,2.89684 0.0491,2.89684 h -0.63277 -0.63277 z m 4.45543,0.8022 0.0503,-2.09464 0.57935,-0.0559 c 0.33596,-0.0324 0.57937,0.0264 0.57937,0.13998 0,0.13837 0.10128,0.14168 0.34482,0.0114 0.18971,-0.10149 0.51586,-0.18455 0.72491,-0.18455 0.30947,0 0.3696,0.0911 0.32368,0.49024 -0.0423,0.36804 -0.1676,0.5056 -0.50208,0.55188 -0.77925,0.1078 -0.89133,0.33814 -0.89133,1.83198 v 1.40431 H 322.41 321.78041 Z m 7.66549,0 0.0503,-2.09464 h 0.5348 0.5348 l 0.0503,2.09464 0.0501,2.09464 h -0.63526 -0.63523 z M 206.492,119.31007 c 0.0672,-2.87248 0.3911,-2.90365 0.45665,-0.0439 0.0432,1.88191 0.0105,2.18377 -0.22833,2.18377 -0.23963,0 -0.2714,-0.29774 -0.22832,-2.13983 z m 123.02962,-1.69291 c -0.18718,-0.48763 0.0808,-0.82963 0.60302,-0.76958 0.38613,0.0444 0.50332,0.16141 0.54765,0.54674 0.0507,0.44144 0.001,0.49024 -0.49583,0.49024 -0.32642,0 -0.5942,-0.10934 -0.65484,-0.2674 z m -122.94984,-2.88198 c -0.27273,-0.27274 -0.0261,-4.33784 0.26308,-4.33784 0.084,0 0.15286,1.00276 0.15286,2.22834 0,2.0379 -0.0802,2.44515 -0.41594,2.1095 z"
         id="path1" /><path
         style="fill:#00a88e;stroke-width:2.10552"
         d="m 222.16965,260.37595 c -0.79618,-0.39327 -1.15825,-0.9942 -1.15825,-1.92242 0,-1.02481 0.3208,-1.74418 0.94125,-2.11069 1.15233,-0.68071 2.50675,-0.16444 2.85464,1.0883 0.35194,1.26714 0.33652,1.28432 -1.15159,1.28432 -1.21019,0 -1.337,0.0333 -1.337,0.35027 0,0.54824 0.64437,0.80534 1.16441,0.46461 0.48315,-0.31657 1.33132,-0.37626 1.33132,-0.0937 0,0.31884 -0.85718,1.0615 -1.22518,1.0615 -0.19244,0 -0.4569,0.0385 -0.58748,0.0857 -0.13054,0.0472 -0.50503,-0.0463 -0.83212,-0.20802 z m 1.54368,-2.84467 c -0.0908,-0.46078 -0.62275,-0.72283 -0.99353,-0.48933 -0.1716,0.10802 -0.33792,0.32825 -0.3696,0.48933 -0.0461,0.23381 0.0914,0.29285 0.68155,0.29285 0.5902,0 0.7276,-0.059 0.68158,-0.29285 z m 2.93633,2.95553 c -0.57045,-0.17265 -1.12216,-0.75634 -1.12216,-1.18707 0,-0.3895 1.03166,-0.27517 1.25325,0.13896 0.15349,0.28682 0.33884,0.35472 0.85155,0.31198 0.44147,-0.0369 0.67372,-0.1516 0.71158,-0.35154 0.0434,-0.22853 -0.17097,-0.34775 -0.93024,-0.51768 -1.23583,-0.27656 -1.70788,-0.69461 -1.70788,-1.51246 0,-0.50774 0.10464,-0.68338 0.57937,-0.97285 0.32265,-0.19666 0.89535,-0.35324 1.29243,-0.35324 0.87436,0 1.8718,0.56786 1.8718,1.06564 0,0.27681 -0.11749,0.35916 -0.51296,0.35916 -0.28214,0 -0.61625,-0.12444 -0.74245,-0.27652 -0.29406,-0.35429 -1.32945,-0.27894 -1.32945,0.0969 0,0.1737 0.35539,0.35918 1.02478,0.5348 1.32321,0.34718 1.77693,0.73632 1.70452,1.462 -0.0996,0.99734 -1.59872,1.60948 -2.94414,1.20215 z m 4.003,0.0667 c -0.20739,-0.0541 -0.31195,-0.25626 -0.31195,-0.60325 0,-0.4774 0.0531,-0.52172 0.62393,-0.52172 0.59422,0 0.62393,0.0297 0.62393,0.62392 0,0.64067 -0.13181,0.7112 -0.93591,0.50105 z m 2.85454,-0.15623 c -1.42066,-0.77083 -1.32298,-3.62464 0.14317,-4.18205 1.50595,-0.57256 2.75145,0.32915 2.75145,1.99198 v 0.50819 h -1.33701 c -1.16862,0 -1.337,0.0404 -1.337,0.32088 0,0.6824 0.81888,0.99824 1.24788,0.48132 0.25255,-0.30429 1.24787,-0.36604 1.24787,-0.0775 0,0.42133 -0.37954,0.85275 -0.91417,1.03911 -0.74634,0.26018 -1.2104,0.23906 -1.80215,-0.0821 z m 1.82497,-2.49579 c 0,-0.64724 -0.93295,-1.03408 -1.39048,-0.57657 -0.44031,0.44032 -0.23441,0.67742 0.58828,0.67742 0.44121,0 0.8022,-0.0455 0.8022,-0.10085 z m -19.21257,-0.38939 0.0488,-2.98596 1.53992,0.004 c 2.18653,0.006 2.82762,0.45302 2.82762,1.9744 0,1.40308 -0.81063,2.02945 -2.62943,2.03183 l -0.75765,0.001 v 0.98045 c 0,0.97231 -0.004,0.98048 -0.5391,0.98048 h -0.53911 z m 3.07942,-1.02503 v -0.71308 l -0.9359,-0.0539 -0.9359,-0.0539 v 0.82084 0.82083 l 0.9359,-0.0539 0.9359,-0.0539 z m 18.0941,1.86052 v -2.15051 l 0.57936,0.0558 0.57937,0.0558 0.0543,1.51527 c 0.0299,0.83341 0.006,1.77599 -0.0526,2.09463 -0.092,0.49882 -0.18023,0.57938 -0.63361,0.57938 h -0.5268 z m -31.55325,-0.52352 c 0,-1.30729 0.0693,-2.1392 0.17834,-2.1392 0.10885,0 0.17833,0.83191 0.17833,2.1392 0,1.30729 -0.0693,2.1392 -0.17833,2.1392 -0.10886,0 -0.17834,-0.83191 -0.17834,-2.1392 z m 8.04995,-2.2729 c -0.38545,-0.66181 -0.87934,-1.52419 -1.09754,-1.91638 -0.21819,-0.39217 -0.70857,-1.24849 -1.08971,-1.9029 -0.38112,-0.65442 -0.69297,-1.24205 -0.69297,-1.30584 0,-0.19834 -1.47072,-2.65274 -1.83771,-3.0669 l -0.34811,-0.39282 -0.69328,0.35368 c -0.52446,0.26755 -0.71048,0.2981 -0.76398,0.12549 -0.10949,-0.35324 -0.27654,-4.41752 -0.18171,-4.41752 0.28883,0 3.64646,2.41941 3.64646,2.62754 0,0.14065 -0.24066,0.34654 -0.5348,0.45757 -0.29414,0.11096 -0.5348,0.30726 -0.5348,0.43609 0,0.42904 0.95247,2.17012 4.45811,8.14921 0.57289,0.97713 1.00275,1.83948 0.95525,1.91636 -0.2319,0.37524 -0.64766,0.0312 -1.28527,-1.06352 z m 23.53484,-0.34428 c 0.0489,-0.42668 0.13834,-0.5025 0.59239,-0.5025 0.45161,0 0.5348,0.0693 0.5348,0.44568 0,0.37457 -0.0945,0.45472 -0.59239,0.5025 -0.55539,0.0533 -0.5888,0.0255 -0.5348,-0.44568 z m -43.79608,-1.29676 c -0.61665,-0.9809 -1.00122,-1.42118 -1.24788,-1.42868 -0.19602,-0.006 -0.47494,-0.0857 -0.61967,-0.17728 -0.14465,-0.0916 -1.38813,-2.43181 -2.76314,-5.20063 l -2.5,-5.0342 -1.54505,-0.65945 c -1.30089,-0.55522 -1.93471,-0.99359 -4.01101,-2.7741 -1.35626,-1.16306 -2.49082,-2.16918 -2.5212,-2.23582 -0.0303,-0.0668 -0.48615,-0.48932 -1.01282,-0.93927 -0.86486,-0.73887 -1.08038,-0.83351 -2.22555,-0.9773 -1.89437,-0.23786 -3.51261,0.0451 -5.606,0.98016 -0.9994,0.44643 -2.03988,0.79016 -2.3918,0.79016 -0.38137,0 -1.07785,0.25064 -1.7964,0.64641 -1.16016,0.63907 -1.19103,0.6452 -2.70987,0.53842 -1.5553,-0.10927 -2.41534,-0.45215 -4.18782,-1.66929 -0.28336,-0.19455 -0.97473,-0.65865 -1.5364,-1.03126 l -1.02122,-0.67747 -2.72238,0.10528 c -2.15466,0.0834 -3.11276,0.2076 -4.59422,0.59575 -1.612,0.42241 -2.23056,0.49195 -4.45666,0.50109 -2.50318,0.0105 -2.63379,-0.008 -4.1327,-0.5763 -1.5404,-0.58411 -1.55204,-0.58554 -2.42366,-0.30046 -0.73076,0.23902 -1.61114,0.27717 -5.31545,0.23039 l -4.43962,-0.056 -0.71307,-0.55507 c -0.39219,-0.3053 -1.05905,-0.68773 -1.48192,-0.84981 -0.86119,-0.33015 -0.91328,-0.31667 -3.22874,0.83515 -1.07307,0.53379 -1.20802,0.67257 -2.1392,2.19993 -0.54664,0.89661 -2.27342,3.70432 -3.8373,6.23936 -1.56387,2.53502 -2.95758,4.83782 -3.09712,5.11733 -0.13953,0.27948 -0.90561,0.99011 -1.70239,1.57915 l -1.4487,1.07095 -5.34454,-0.12149 -5.34454,-0.12148 -1.730165,-0.97109 c -1.89201,-1.06189 -1.985634,-1.18572 -3.087858,-4.08346 -0.223766,-0.58828 -0.606641,-1.59103 -0.850833,-2.22835 -0.244189,-0.6373 -0.590176,-1.78562 -0.768856,-2.55184 l -0.324873,-1.39314 -2.998247,-2.92984 c -1.649036,-1.61142 -3.082458,-2.92985 -3.18538,-2.92985 -0.102917,0 -0.45007,0.20045 -0.771435,0.44566 -0.566641,0.4322 -0.669994,0.44567 -3.419744,0.44576 l -2.835445,8e-5 -0.767526,0.89126 c -0.422139,0.49019 -0.906475,0.89125 -1.076304,0.89125 -0.169831,0 -0.701713,-0.39893 -1.181966,-0.88653 l -0.873191,-0.88653 -2.418048,-0.0493 -2.418047,-0.0493 v -0.53481 -0.5348 l 2.674004,0.0665 2.674005,0.0665 0.820959,0.68615 0.820957,0.68614 0.569012,-0.70806 0.569011,-0.70806 h 2.959211 2.959211 l 0.761431,-0.62393 c 0.418787,-0.34318 0.856245,-0.62395 0.972131,-0.62395 0.323196,0 3.254764,2.60153 5.358176,4.75493 l 1.885272,1.93008 0.314773,1.6044 c 0.330534,1.68477 0.866247,3.17221 2.094815,5.81647 l 0.739794,1.59225 1.417037,0.7969 1.417037,0.79687 5.195082,-0.006 5.19508,-0.006 0.98047,-0.75422 c 0.79255,-0.60967 1.24475,-1.19768 2.35929,-3.06788 0.75834,-1.27251 1.72099,-2.83091 2.1392,-3.46309 0.41821,-0.63218 1.68292,-2.67009 2.81046,-4.52867 l 2.05007,-3.37927 2.12609,-0.95304 c 1.16934,-0.52414 2.18914,-0.95302 2.26621,-0.95302 0.42338,0 2.17477,0.79997 2.74703,1.25474 l 0.66431,0.52794 h 4.43789 c 3.49936,0 4.57039,-0.0554 5.06447,-0.26182 0.59504,-0.24862 0.71369,-0.23066 2.35631,0.35648 1.64982,0.58974 1.84091,0.61827 4.13633,0.61787 2.08368,-3.8e-4 2.69023,-0.072 4.52026,-0.53474 1.89943,-0.48018 2.39488,-0.53434 4.88831,-0.53434 2.12424,0 2.84062,0.0585 3.05608,0.24938 0.15475,0.13707 1.25025,0.8061 2.43433,1.48651 1.99418,1.14591 2.25172,1.24548 3.49313,1.35042 1.28873,0.10885 1.38409,0.0897 2.48203,-0.502 0.62801,-0.3384 1.3825,-0.61685 1.67664,-0.61881 0.47406,-0.002 1.55126,-0.37381 3.45408,-1.18863 1.05488,-0.45171 3.33265,-0.64226 5.00965,-0.4191 0.83267,0.11075 1.53722,0.22474 1.56566,0.25321 0.11054,0.11054 3.15124,-0.82587 12.16485,-3.7459 2.59825,-0.84172 5.44606,-1.7257 6.32848,-1.9644 0.88242,-0.23871 1.9654,-0.54801 2.40661,-0.68735 0.44121,-0.13938 2.0055,-0.63536 3.4762,-1.1023 l 2.67401,-0.84894 -0.89135,-0.12655 c -0.49023,-0.0695 -2.16148,-0.13348 -3.7139,-0.14212 -2.17338,-0.0126 -2.80549,-0.0669 -2.74835,-0.23845 0.0562,-0.16907 1.19814,-0.2343 4.7297,-0.27035 l 4.65553,-0.0476 0.0537,-0.93295 c 0.0693,-1.20135 0.39419,-1.21093 0.46363,-0.0147 l 0.0533,0.91929 0.92715,0.0695 c 2.35716,0.17665 10.78981,0.15833 10.90223,-0.0234 0.15433,-0.2498 4.41526,-0.25816 4.66428,-0.008 0.17687,0.17686 7.85751,0.14296 21.76571,-0.096 l 5.56485,-0.0956 0.0505,-1.89692 c 0.0352,-1.32161 0.11812,-1.91932 0.27338,-1.97082 0.16676,-0.0554 0.22285,0.3141 0.22285,1.46914 v 1.54305 l 0.4697,-0.36946 c 1.11239,-0.87501 2.20405,0.0358 1.40693,1.17393 -0.24765,0.35356 -0.23117,0.38117 0.28967,0.48535 0.30374,0.0608 1.10729,0.11054 1.78567,0.11054 1.07577,0 1.22669,0.0398 1.181,0.31195 -0.0787,0.46856 0.54127,0.47978 2.39983,0.0434 1.09013,-0.25592 1.88787,-0.34652 2.38921,-0.27136 0.54851,0.0823 0.96102,0.0211 1.52096,-0.22897 2.30533,-1.0257 2.0073,-0.99635 7.68088,-0.7562 3.21392,0.13602 5.48274,0.15918 5.92265,0.0602 0.42034,-0.0945 2.24995,-0.0956 4.45668,-0.002 3.66673,0.15433 3.76007,0.1678 4.5458,0.65805 1.15423,0.72026 3.30501,1.02583 4.94224,0.70217 0.66439,-0.13138 1.48875,-0.21676 1.8319,-0.18971 0.62766,0.0493 2.97347,-0.57697 3.28903,-0.87806 0.19076,-0.18192 7.58436,-0.17918 15.78555,0.006 l 5.43714,0.12275 1.30312,0.56485 c 1.21442,0.5264 1.45098,0.56615 3.47621,0.58415 2.36775,0.0211 5.06256,-0.35594 5.74631,-0.80395 0.35509,-0.23266 1.12474,-0.27921 4.66536,-0.2821 2.74534,-0.002 4.86856,-0.0945 6.02278,-0.26175 2.38043,-0.34489 7.09565,-0.3472 8.82422,-0.004 0.73535,0.14591 1.89854,0.46639 2.58485,0.71227 0.9821,0.35183 1.58958,0.44698 2.85228,0.44671 1.56231,-3.2e-4 5.60909,-0.46326 8.62474,-0.98667 2.14958,-0.3731 2.16041,-0.37126 2.16041,0.36461 0,0.34318 -0.0602,0.62427 -0.13371,0.62467 -0.0735,3.8e-4 -2.05769,0.28115 -4.40924,0.62392 -5.40694,0.78814 -7.53012,0.82701 -9.27599,0.16992 -0.66246,-0.24936 -1.81515,-0.57022 -2.56153,-0.71305 -1.77356,-0.33937 -6.0521,-0.33598 -8.32504,0.006 -1.19181,0.1796 -3.16366,0.26669 -6.05662,0.2674 -3.83282,9.5e-4 -4.36423,0.0368 -4.99148,0.33691 -0.38609,0.18465 -1.66462,0.47454 -2.84119,0.64405 -2.80039,0.40346 -5.10113,0.21283 -6.9543,-0.57626 l -1.24975,-0.53214 -10.0702,-0.0867 -10.07019,-0.0867 -1.24788,0.43759 c -0.68633,0.24066 -1.88964,0.50674 -2.674,0.59127 -0.78437,0.0844 -1.85157,0.20676 -2.37153,0.27174 -1.32066,0.16486 -3.48753,-0.22849 -4.67637,-0.84905 -0.63662,-0.33233 -1.26925,-0.51916 -1.78268,-0.52648 -0.43771,-0.006 -3.40299,-0.0242 -6.58952,-0.04 -3.18651,-0.0168 -6.99842,-0.0992 -8.47089,-0.18549 l -2.67723,-0.15665 -1.76791,0.66216 c -1.44698,0.54196 -1.9072,0.64128 -2.53519,0.54712 -0.55645,-0.0834 -1.23171,0.0105 -2.45752,0.34541 l -1.69026,0.46047 -1.56501,-0.43346 c -2.80293,-0.77632 -3.56896,-0.9047 -3.8763,-0.64964 -0.23737,0.19708 -0.27359,1.14475 -0.27359,7.15766 0,3.81183 0.0429,6.93058 0.0954,6.93058 0.0524,0 0.28919,-0.12696 0.52606,-0.28218 0.49922,-0.32709 1.07853,-0.20529 1.33901,0.28134 0.13812,0.25794 0.0785,0.44898 -0.26759,0.86044 -0.24475,0.29087 -0.44502,0.57466 -0.44502,0.6306 0,0.056 0.82131,0.12465 1.82514,0.15265 1.63146,0.0455 1.83205,0.0867 1.89023,0.39055 0.0621,0.32452 -0.0326,0.33423 -2.11607,0.21649 -2.70959,-0.15307 -2.84716,-0.0764 -2.84716,1.58571 0,1.42511 -0.18423,2.76039 -0.38078,2.76039 -0.0846,0 -0.15392,-0.68187 -0.15392,-1.51528 0,-0.83338 -0.0663,-1.51525 -0.14717,-1.51525 -0.0811,0 -0.3356,0.20044 -0.56588,0.44565 -0.50911,0.54192 -0.96308,0.56887 -1.30719,0.0777 -0.30492,-0.43534 -0.21312,-0.91759 0.25536,-1.34155 0.18634,-0.16866 0.33876,-0.36112 0.33876,-0.42778 0,-0.0668 -9.39993,-0.17518 -20.88872,-0.24129 l -20.88871,-0.12002 -0.4142,0.3891 c -0.38611,0.36276 -0.41417,0.52594 -0.41417,2.40812 0,1.67582 -0.0455,2.019 -0.2674,2.019 -0.21988,0 -0.2674,-0.31692 -0.2674,-1.78268 0,-0.98047 -0.0491,-1.78267 -0.10886,-1.78267 -0.06,0 -0.50115,0.32835 -0.98047,0.72966 -0.83747,0.70118 -0.87152,0.76582 -0.87152,1.65477 v 0.9251 l -2.1392,2.12021 -2.13921,2.12023 v 1.12736 c 0,1.26984 -0.002,1.27243 -1.72462,2.59806 -1.04634,0.80504 -1.15612,0.84675 -2.22827,0.84658 l -1.12771,-1.8e-4 z m 3.5509,-0.46743 c 0.5283,-0.35078 1.0073,-0.81205 1.06443,-1.02505 0.17475,-0.65117 0.12064,-1.46177 -0.11412,-1.71475 -0.12254,-0.13201 -0.13433,-0.19076 -0.0261,-0.13033 0.10822,0.0604 0.29109,-0.0973 0.40636,-0.35032 0.16402,-0.35981 0.16002,-0.52366 -0.019,-0.75204 -0.20339,-0.26033 -0.19433,-0.26547 0.0838,-0.0474 0.25018,0.19624 0.36493,0.20066 0.57938,0.0227 0.37775,-0.31351 0.33623,-0.52789 -0.22247,-1.14898 -0.47486,-0.52787 -0.47035,-0.52667 0.14675,0.0392 l 0.63654,0.58374 0.32939,-0.36396 c 0.32242,-0.35628 0.31838,-0.37617 -0.19118,-0.94028 l -0.52065,-0.57628 0.57293,0.51741 c 0.49101,0.44344 0.61384,0.48344 0.85916,0.27984 0.15749,-0.13054 0.25072,-0.37337 0.20739,-0.53937 -0.056,-0.21407 0.008,-0.27885 0.22304,-0.22287 0.19012,0.0497 0.54492,-0.18991 0.95786,-0.64704 0.73257,-0.81086 0.8861,-1.77954 0.37211,-2.34751 -0.26157,-0.28904 -0.25808,-0.30694 0.0446,-0.22834 0.18066,0.0469 0.48882,-0.0343 0.68491,-0.18065 0.34385,-0.2565 0.30576,-0.31867 -1.06961,-1.74663 l -1.42613,-1.48068 1.44839,1.39978 c 1.2994,1.25578 1.48738,1.37891 1.82725,1.19703 0.20845,-0.11159 0.37882,-0.27079 0.37882,-0.35396 0,-0.0832 0.17097,-0.19602 0.38009,-0.25059 0.26669,-0.0697 0.35373,-0.20024 0.29176,-0.43709 -0.0716,-0.27391 -0.0105,-0.32269 0.3268,-0.25832 l 0.41508,0.0794 0.002,-2.82198 0.002,-2.822 -0.48598,-0.53945 -0.48597,-0.53946 0.47142,0.41386 c 0.27726,0.2434 0.51703,0.34007 0.58216,0.23471 0.0609,-0.0985 0.0638,-1.08725 0.006,-2.19717 l -0.10401,-2.01803 -0.65637,-0.71285 -0.65638,-0.71282 0.66851,0.6141 0.6685,0.61409 v -0.71238 c 0,-0.39182 -0.10023,-0.81437 -0.22285,-0.93904 -0.17876,-0.1817 -0.16992,-0.21529 0.0446,-0.16928 0.42245,0.0905 0.47155,-1.10691 0.0585,-1.42952 -0.27026,-0.21114 -0.27507,-0.23723 -0.0282,-0.15265 0.2619,0.0897 0.29788,-0.0688 0.29788,-1.31302 0,-0.77833 -0.0596,-1.41514 -0.13243,-1.41514 -0.25846,0 -1.89215,0.58462 -2.05884,0.73676 -0.0931,0.0851 -0.39396,0.15455 -0.6685,0.15455 -0.30225,0 -0.49913,0.0958 -0.49913,0.24268 0,0.16655 -0.14865,0.21428 -0.47356,0.15223 -0.28801,-0.0552 -0.54991,0.006 -0.6685,0.15833 -0.17602,0.22479 -0.62685,0.32234 -1.60495,0.34727 -0.18718,0.004 -0.50808,0.1019 -0.71307,0.2159 -0.20508,0.1139 -0.43005,0.19097 -0.50019,0.17138 -0.0701,-0.0189 -0.3509,0.0558 -0.62393,0.1676 -0.27304,0.11181 -0.65056,0.23289 -0.83896,0.26888 -0.18844,0.036 -0.43645,0.14338 -0.5512,0.23862 -0.11475,0.0952 -0.25033,0.13159 -0.30124,0.0806 -0.051,-0.051 -0.31856,-0.006 -0.59476,0.0983 l -0.50221,0.19097 1.14597,1.19562 1.14599,1.19562 -1.16355,-1.11418 c -1.13532,-1.08714 -1.43609,-1.23412 -2.04635,-0.99993 -0.23658,0.0908 0.008,0.4281 1.18871,1.64361 0.81751,0.84115 1.40617,1.47074 1.30811,1.39907 -0.0981,-0.0716 -0.78877,-0.73992 -1.53492,-1.48498 -1.27784,-1.276 -1.3904,-1.34725 -1.93815,-1.22694 l -0.5815,0.1278 1.44792,1.45546 c 0.79635,0.80052 1.44792,1.5193 1.44792,1.59731 0,0.0781 -0.65049,-0.54537 -1.44554,-1.38528 -1.41318,-1.49292 -1.75621,-1.6952 -2.29602,-1.35391 -0.22036,0.13938 -0.16002,0.28237 0.35632,0.84403 l 0.62163,0.6763 -0.7147,-0.66299 c -0.54274,-0.50347 -0.81317,-0.63723 -1.12401,-0.55594 -0.25725,0.0672 -0.37349,0.20045 -0.3129,0.3583 0.071,0.18507 0.0223,0.20971 -0.18507,0.0937 -0.30132,-0.16865 -1.13896,-0.0743 -1.13896,0.12823 0,0.0669 0.10022,0.22851 0.22285,0.35888 0.14381,0.15307 0.0649,0.14023 -0.22285,-0.0362 -0.57453,-0.35223 -1.3474,-0.11265 -1.16679,0.36181 0.095,0.24921 0.0739,0.26664 -0.10612,0.088 -0.26595,-0.26399 -0.67393,-0.28273 -1.0445,-0.048 -0.21826,0.13833 -0.0708,0.37528 0.80214,1.28969 l 1.06956,1.12032 -1.19314,-1.14357 -1.19315,-1.14355 -1.56994,0.49648 c -0.86347,0.27307 -1.60145,0.52501 -1.63992,0.55988 -0.0385,0.035 0.0404,0.20571 0.17518,0.37969 0.2338,0.30159 0.22786,0.30155 -0.12802,-7.6e-4 -0.30146,-0.25618 -0.46715,-0.28127 -0.86307,-0.13075 -0.43156,0.16402 -0.46146,0.22312 -0.25083,0.4953 0.20066,0.25936 0.17687,0.25595 -0.14844,-0.0213 -0.35857,-0.30542 -0.42916,-0.30951 -0.94068,-0.0543 -0.30418,0.15181 -0.93055,0.33065 -1.39195,0.39757 -0.46141,0.0669 -0.99936,0.20844 -1.19545,0.31454 -0.19603,0.10612 -0.45681,0.17244 -0.57938,0.1476 -0.64355,-0.13055 -0.0211,0.67136 1.66989,2.14876 1.95636,1.71003 2.62473,2.17144 1.85089,1.27775 l -0.44567,-0.51469 0.48475,0.42702 c 0.2666,0.23485 0.44957,0.48391 0.4066,0.55345 -0.0429,0.0695 0.13938,0.31859 0.40531,0.55346 l 0.48347,0.427 -0.34891,-0.44566 c -0.19181,-0.24512 0.16971,0.0474 0.80349,0.64979 1.26428,1.20185 1.875,1.5697 2.93673,1.76888 0.38634,0.0724 0.78466,0.22201 0.88516,0.33227 0.10043,0.11033 0.94323,1.00046 1.87271,1.97816 1.48394,1.56094 1.52197,1.6152 0.31197,0.4451 -0.7579,-0.73291 -1.378,-1.28261 -1.378,-1.2216 0,0.33202 1.18895,2.46388 1.66867,2.99205 0.30782,0.3389 0.40771,0.49997 0.22198,0.35793 -0.31479,-0.24074 -0.3285,-0.22813 -0.20234,0.18613 0.16802,0.55142 0.80231,1.76895 1.13123,2.17115 0.13518,0.16549 0.20782,0.36596 0.16128,0.44567 -0.0465,0.0796 0.20929,0.7463 0.56843,1.48129 0.5567,1.13911 0.73087,1.34987 1.17985,1.42763 0.38895,0.0674 0.67726,0.32399 1.10223,0.98108 0.79882,1.23512 1.46306,1.87033 1.9558,1.87033 0.23028,0 0.85094,-0.287 1.37926,-0.63776 z m -3.19916,-2.05711 c -0.6837,-0.69781 -1.16285,-1.23928 -1.06482,-1.2033 0.19497,0.0716 2.51148,2.47205 2.38553,2.47205 -0.0427,0 -0.637,-0.57094 -1.32071,-1.26875 z m 1.23571,-0.38023 -0.33958,-0.4011 0.4011,0.3396 c 0.2206,0.18676 0.4011,0.36726 0.4011,0.4011 0,0.14275 -0.14338,0.0373 -0.46262,-0.3396 z m 1.09704,-0.58504 c -0.19034,-0.14402 -0.26031,-0.26174 -0.1556,-0.26174 0.10485,0 0.29037,0.12044 0.41243,0.2674 0.27759,0.33451 0.19033,0.33257 -0.25692,-0.006 z m -1.80365,-0.18234 c -0.33229,-0.26622 -0.33011,-0.26952 0.0552,-0.083 0.2206,0.10696 0.4011,0.23167 0.4011,0.27723 0,0.13644 -0.0924,0.0971 -0.45616,-0.19434 z m -2.23134,-0.74781 -0.43218,-0.49023 0.49025,0.43218 c 0.45818,0.40392 0.57198,0.5483 0.43215,0.5483 -0.032,0 -0.25253,-0.22062 -0.49022,-0.49025 z m 3.16779,0.0389 c -0.27509,-0.24201 -0.42947,-0.44003 -0.34303,-0.44003 0.0863,0 0.34553,0.20065 0.57581,0.44567 0.53276,0.56712 0.415,0.56426 -0.23278,-0.006 z m -2.43385,-0.87914 -0.97309,-1.07615 1.05383,1.01857 c 0.57961,0.56021 1.01749,1.04448 0.97309,1.07615 -0.0444,0.0316 -0.51863,-0.42669 -1.05383,-1.01857 z m 2.84489,-0.36309 c -0.73045,-0.73536 -1.28797,-1.33701 -1.23895,-1.33701 0.0491,0 0.68677,0.60165 1.41722,1.33701 0.73044,0.73535 1.28796,1.337 1.23895,1.337 -0.0491,0 -0.68678,-0.60165 -1.41722,-1.337 z m -1.8785,-0.31196 -0.88464,-0.9359 0.93591,0.88463 c 0.86966,0.82202 1.01765,0.98717 0.88463,0.98717 -0.0282,0 -0.44936,-0.42116 -0.9359,-0.9359 z m -0.53146,-3.56535 -1.7793,-1.82723 1.82722,1.77933 c 1.00499,0.97862 1.82723,1.80089 1.82723,1.82723 0,0.12886 -0.22249,-0.0821 -1.87515,-1.77933 z m 6.32832,0.0891 -1.69001,-1.7381 1.7381,1.69001 c 1.61432,1.56966 1.81919,1.7862 1.69001,1.7862 -0.0265,0 -0.8086,-0.78216 -1.7381,-1.73811 z m -4.27489,0.4011 c -0.43302,-0.44121 -0.74719,-0.8022 -0.69817,-0.8022 0.0491,0 0.44342,0.36099 0.87644,0.8022 0.433,0.44121 0.74719,0.8022 0.69817,0.8022 -0.0491,0 -0.44342,-0.36099 -0.87644,-0.8022 z m 5.73466,-0.51581 c -0.7029,-0.7249 -1.27798,-1.38003 -1.27798,-1.45583 0,-0.0758 0.0227,-0.10444 0.0505,-0.0636 0.0278,0.0408 0.64298,0.69598 1.36711,1.45584 0.72413,0.75986 1.27649,1.38157 1.22748,1.38157 -0.0491,0 -0.66423,-0.5931 -1.36714,-1.31801 z m -6.27237,-1.64356 c -1.12594,-1.13862 -1.96695,-2.04111 -1.8689,-2.0055 0.19961,0.0724 4.12631,4.07573 3.99783,4.07573 -0.0451,0 -1.00298,-0.93159 -2.12893,-2.07023 z m -0.81624,0.7778 -0.33958,-0.4011 0.4011,0.3396 c 0.37693,0.31913 0.48225,0.4626 0.33958,0.4626 -0.0339,0 -0.21432,-0.18044 -0.4011,-0.4011 z m 2.42721,-0.7539 c -0.431,-0.43915 -0.74853,-0.82442 -0.70562,-0.85615 0.0429,-0.0318 0.43031,0.32758 0.86086,0.79846 0.98675,1.0792 0.88457,1.11718 -0.15517,0.0577 z m 5.23827,0.39737 -0.3396,-0.4011 0.40111,0.3396 c 0.22061,0.18676 0.4011,0.36726 0.4011,0.4011 0,0.14254 -0.14339,0.0373 -0.46261,-0.3396 z m -11.58162,-0.5348 -0.5236,-0.57938 0.57938,0.52358 c 0.31865,0.28797 0.57937,0.5487 0.57937,0.57938 0,0.1377 -0.14717,0.0168 -0.63515,-0.52358 z m 2.84653,-0.17834 -0.33957,-0.4011 0.4011,0.3396 c 0.37693,0.31913 0.48225,0.4626 0.33958,0.4626 -0.0339,0 -0.21432,-0.18044 -0.40111,-0.4011 z m 6.23936,0 -0.3396,-0.4011 0.4011,0.3396 c 0.2206,0.18676 0.40111,0.36727 0.40111,0.4011 0,0.14275 -0.14339,0.0373 -0.46261,-0.3396 z m 1.54754,-0.20171 -0.43035,-0.55587 0.51002,0.48481 c 0.28052,0.26667 0.47416,0.51682 0.43034,0.55588 -0.0438,0.0392 -0.27333,-0.17918 -0.51001,-0.48482 z m -11.97272,-0.95697 -0.43216,-0.49025 0.49023,0.43218 c 0.26963,0.23769 0.49022,0.4583 0.49022,0.49024 0,0.13981 -0.14443,0.0259 -0.54829,-0.43217 z m 6.32503,0.0891 -0.33958,-0.4011 0.4011,0.3396 c 0.2206,0.18676 0.4011,0.36726 0.4011,0.4011 0,0.14254 -0.14338,0.0373 -0.46262,-0.3396 z m 4.67077,-0.10654 -0.33764,-0.47277 0.41687,0.39615 c 0.22929,0.21788 0.38122,0.43064 0.33766,0.47277 -0.0436,0.0421 -0.23119,-0.13622 -0.41689,-0.39615 z m -3.29025,0.0436 c -0.13244,-0.1497 -0.2055,-0.30765 -0.16233,-0.35084 0.0432,-0.0432 0.22415,0.0825 0.40215,0.27913 0.17792,0.19666 0.25104,0.35457 0.16234,0.35084 -0.0887,-0.004 -0.2697,-0.12928 -0.40216,-0.27913 z m 0.86476,-0.7942 c 0,-0.1038 0.0802,-0.13917 0.17834,-0.0785 0.0981,0.0606 0.17833,0.14549 0.17833,0.18886 0,0.0432 -0.0802,0.0785 -0.17833,0.0785 -0.0981,0 -0.17834,-0.0851 -0.17834,-0.18887 z m -11.40552,-0.43085 c -0.14064,-0.16949 -0.15412,-0.27169 -0.036,-0.27169 0.21546,0 0.46662,0.33821 0.34301,0.46182 -0.0448,0.0448 -0.18297,-0.0406 -0.30709,-0.19013 z m 13.71948,-2.0098 -1.69001,-1.7381 1.7381,1.69001 c 1.61432,1.56967 1.81919,1.7862 1.69001,1.7862 -0.0265,0 -0.8086,-0.78216 -1.7381,-1.73811 z m -6.50695,-0.2674 -1.60067,-1.64897 1.64895,1.60069 c 1.53153,1.48667 1.73012,1.69724 1.6007,1.69724 -0.0265,0 -0.7686,-0.74203 -1.64898,-1.64896 z m 7.31267,-0.49024 c -1.17349,-1.17657 -2.09352,-2.13921 -2.0445,-2.13921 0.0491,0 1.04926,0.96264 2.22277,2.13921 1.17349,1.17656 2.09351,2.1392 2.0445,2.1392 -0.0491,0 -1.04929,-0.96264 -2.22277,-2.1392 z m -6.41761,-0.17834 c -1.17351,-1.17656 -2.09352,-2.13921 -2.0445,-2.13921 0.0491,0 1.04926,0.96265 2.22277,2.13921 1.17349,1.17656 2.09351,2.1392 2.0445,2.1392 -0.0491,0 -1.04929,-0.96264 -2.22277,-2.1392 z m -6.59892,-0.4011 -1.9579,-2.00551 2.00551,1.9579 c 1.10301,1.07685 2.0055,1.97931 2.0055,2.00551 0,0.12843 -0.23453,-0.0952 -2.05311,-1.9579 z m 13.81582,-0.2674 -2.04717,-2.09465 2.09465,2.04717 c 1.94562,1.90151 2.17555,2.14211 2.04715,2.14211 -0.0261,0 -0.96868,-0.94258 -2.09463,-2.09463 z m -6.41761,-0.17834 -2.04717,-2.09463 2.09465,2.04715 c 1.94562,1.90153 2.17555,2.14211 2.04715,2.14211 -0.0261,0 -0.96868,-0.94258 -2.09463,-2.09463 z m -7.86357,1.6044 c -0.22175,-0.28275 -0.21544,-0.28904 0.0674,-0.0674 0.1716,0.13454 0.31198,0.27496 0.31198,0.31197 0,0.14675 -0.14633,0.0522 -0.37927,-0.24466 z m 1.53496,-1.69353 -1.9579,-2.0055 2.00551,1.9579 c 1.10301,1.07684 2.0055,1.97931 2.0055,2.0055 0,0.12844 -0.23453,-0.0952 -2.05311,-1.9579 z m 16.30096,0.62393 -0.43215,-0.49023 0.49022,0.43218 c 0.26964,0.23769 0.49023,0.45829 0.49023,0.49023 0,0.13981 -0.14444,0.0261 -0.5483,-0.43218 z m -22.18074,-0.15602 c -0.32054,-0.27275 -0.38609,-0.38122 -0.1636,-0.2707 0.32678,0.16233 0.9397,0.7491 0.76481,0.73221 -0.0364,-0.004 -0.30707,-0.2112 -0.60121,-0.46151 z m 3.27522,0.15602 c -0.22176,-0.28275 -0.21544,-0.28904 0.0674,-0.0674 0.1716,0.13455 0.31198,0.27496 0.31198,0.31198 0,0.14675 -0.14634,0.0522 -0.37927,-0.24466 z m 9.82347,-1.24787 -1.51132,-1.55983 1.55983,1.51134 c 0.85791,0.83123 1.55983,1.53315 1.55983,1.55982 0,0.1297 -0.20466,-0.0625 -1.60834,-1.51133 z m -6.32933,-0.0891 -1.24307,-1.29243 1.29242,1.24308 c 0.71085,0.6837 1.29245,1.26531 1.29245,1.29245 0,0.13075 -0.18718,-0.0427 -1.3418,-1.2431 z m 12.43147,-0.0446 c -0.74253,-0.73535 -1.30216,-1.337 -1.2436,-1.337 0.0585,0 0.714,0.60165 1.45655,1.337 0.74253,0.73536 1.30216,1.33701 1.2436,1.33701 -0.0585,0 -0.714,-0.60165 -1.45655,-1.33701 z m -21.44265,0.66851 -0.43218,-0.49023 0.5348,0.44567 c 0.29414,0.24511 0.56824,0.46572 0.60908,0.49023 0.0409,0.0244 -0.006,0.0446 -0.10254,0.0446 -0.0973,0 -0.37139,-0.22062 -0.60908,-0.49025 z m 0.66125,-1.02503 c -0.56573,-0.53927 -0.96022,-0.98048 -0.87665,-0.98048 0.0836,0 0.58767,0.44121 1.12022,0.98048 0.53257,0.53926 0.92706,0.98047 0.87665,0.98047 -0.0503,0 -0.55451,-0.44121 -1.12022,-0.98047 z m 2.01665,0.31197 -0.61433,-0.6685 0.6685,0.61433 c 0.62222,0.57181 0.75045,0.72267 0.61433,0.72267 -0.0299,0 -0.33061,-0.30083 -0.6685,-0.6685 z m -3.66181,-0.2674 -0.3396,-0.4011 0.44568,0.35463 c 0.2451,0.19497 0.47908,0.37554 0.51993,0.4011 0.0408,0.0255 -0.006,0.0465 -0.10612,0.0465 -0.0992,0 -0.33315,-0.18045 -0.51993,-0.40111 z m 19.0925,-1.38048 c -0.17813,-0.19665 -0.24083,-0.35762 -0.1396,-0.35762 0.22432,0 0.66894,0.50955 0.54916,0.62934 -0.0474,0.0472 -0.23156,-0.075 -0.40956,-0.27172 z m -3.86813,-0.6696 c -0.14739,-0.17159 -0.33562,-0.4323 -0.41839,-0.57937 -0.13117,-0.23319 -0.11054,-0.23506 0.16086,-0.0147 0.29907,0.24277 0.73331,0.906 0.59319,0.906 -0.0373,0 -0.18823,-0.14043 -0.33568,-0.31197 z m 4.65584,-0.17833 -0.43218,-0.49023 0.49023,0.43218 c 0.26963,0.23769 0.49025,0.45831 0.49025,0.49023 0,0.1398 -0.14444,0.0261 -0.5483,-0.43218 z m 1.42613,-0.17834 -0.43218,-0.49025 0.49025,0.43218 c 0.26961,0.23769 0.49023,0.45831 0.49023,0.49025 0,0.1398 -0.14444,0.0259 -0.5483,-0.43218 z m -0.2539,-1.82725 c -1.17349,-1.17656 -2.09352,-2.1392 -2.0445,-2.1392 0.0491,0 1.04926,0.96264 2.22277,2.1392 1.17349,1.17656 2.09351,2.1392 2.0445,2.1392 -0.0491,0 -1.04929,-0.96264 -2.22277,-2.1392 z m -11.41748,1.21353 -0.70467,-0.74739 0.65305,0.52457 c 0.54461,0.43748 0.9859,0.97024 0.80365,0.97024 -0.0261,0 -0.36446,-0.33633 -0.75203,-0.74742 z m 12.21677,-2.06028 -2.04717,-2.09466 2.09465,2.04718 c 1.94562,1.90151 2.17555,2.14211 2.04715,2.14211 -0.0261,0 -0.96868,-0.94258 -2.09463,-2.09463 z m -11.02307,1.63044 c -0.13243,-0.1497 -0.20549,-0.30765 -0.16233,-0.35084 0.0432,-0.0432 0.22413,0.0825 0.40215,0.27913 0.17792,0.19666 0.25104,0.35457 0.16234,0.35084 -0.0886,-0.004 -0.2697,-0.12928 -0.40216,-0.27913 z m 1.5551,-0.0261 c -0.22176,-0.28275 -0.21544,-0.28905 0.0674,-0.0674 0.29696,0.23289 0.3914,0.37927 0.24466,0.37927 -0.037,0 -0.17728,-0.14044 -0.31195,-0.31196 z m 1.52106,-0.0891 -0.3396,-0.4011 0.4011,0.3396 c 0.37693,0.31913 0.48225,0.4626 0.3396,0.4626 -0.0339,0 -0.21432,-0.18044 -0.4011,-0.4011 z m 6.23934,0 -0.3396,-0.4011 0.4011,0.3396 c 0.37695,0.31913 0.48227,0.4626 0.3396,0.4626 -0.0339,0 -0.21432,-0.18044 -0.4011,-0.4011 z m -1.1553,-1.15873 -0.43215,-0.49022 0.49022,0.43217 c 0.26964,0.2377 0.49023,0.45829 0.49023,0.49023 0,0.13981 -0.14444,0.0261 -0.5483,-0.43218 z m 3.66425,-1.15872 -1.60067,-1.64898 1.64897,1.6007 c 0.90693,0.88035 1.64896,1.6224 1.64896,1.64895 0,0.12949 -0.21057,-0.0691 -1.69726,-1.60067 z m 47.94499,11.95227 c 0.24293,-0.34682 0.27997,-1.3281 0.27997,-7.41742 v -7.01772 l -0.54849,0.46151 c -0.6333,0.53288 -0.91948,0.57249 -1.3106,0.18149 -0.34924,-0.34924 -0.3568,-0.77893 -0.0221,-1.25672 0.25797,-0.36829 0.2577,-0.36833 -4.06358,-0.48911 -4.31557,-0.12064 -4.32327,-0.12022 -5.55991,0.32838 -2.10298,0.76279 -4.90696,1.03659 -10.32681,1.00839 l -4.80704,-0.025 -0.72598,-0.71251 -0.726,-0.7125 -1.59765,0.006 -1.59766,0.006 -4.14985,4.04863 -4.14984,4.04865 8.8e-4,0.89133 c 0.001,1.49382 -0.25178,2.13767 -1.75427,4.45971 -0.79483,1.22838 -1.44514,2.27097 -1.44514,2.31689 0,0.0817 6.1281,0.12697 30.24827,0.22388 l 11.9759,0.048 z m -42.74182,-1.70193 c 0.35706,-0.56377 1.03794,-1.60817 1.51305,-2.32091 0.85479,-1.2823 0.86385,-1.31098 0.86385,-2.73656 v -1.44047 l 3.96645,-3.89781 3.96644,-3.89782 -5.57084,-0.006 -5.57086,-0.006 v 7.66549 c 0,4.216 0.0411,7.66546 0.0914,7.66546 0.0503,0 0.38348,-0.46125 0.74055,-1.02502 z m 25.92515,-13.77917 c 1.50288,-0.20044 2.76901,-0.40106 2.8136,-0.44567 0.0446,-0.0446 -2.70462,-0.0811 -6.10934,-0.0811 -6.10894,0 -7.86939,0.18802 -4.07857,0.43556 1.05608,0.0691 2.36137,0.18971 2.90064,0.26835 1.48333,0.21626 1.54267,0.2139 4.47367,-0.17707 z m -27.47011,25.48537 c 0,-1.64386 0.0529,-2.13655 0.22283,-2.0801 0.15728,0.0522 0.2376,0.68553 0.27306,2.15407 0.0427,1.77114 0.0105,2.08008 -0.22285,2.08008 -0.23015,0 -0.27304,-0.33834 -0.27304,-2.15405 z m -21.03551,-0.34168 c 0,-0.0981 0.0851,-0.17834 0.18887,-0.17834 0.1038,0 0.13917,0.0802 0.0785,0.17834 -0.0606,0.0981 -0.14549,0.17834 -0.18886,0.17834 -0.0432,0 -0.0785,-0.0802 -0.0785,-0.17834 z M 309.13472,237.8524 c 0,-0.10106 0.12043,-0.23005 0.2674,-0.28647 0.14696,-0.0564 0.2674,-0.25448 0.2674,-0.44008 0,-0.1857 -0.12044,-0.33747 -0.2674,-0.33747 -0.18676,0 -0.2674,-0.18823 -0.2674,-0.62393 0,-0.59838 0.0265,-0.62392 0.6466,-0.62392 h 0.64663 l -0.0859,0.89313 c -0.0486,0.5055 -0.22514,1.0471 -0.40685,1.24786 -0.34204,0.37798 -0.80056,0.47582 -0.80056,0.17097 z m -3.45812,-1.15782 c -0.78037,-0.26826 -1.12085,-0.66025 -1.28205,-1.47599 -0.3337,-1.68866 0.52857,-2.88687 2.07749,-2.88687 0.74104,0 0.97304,0.0819 1.33418,0.4717 0.61241,0.66079 0.57967,1.1327 -0.0785,1.1327 -0.30289,0 -0.55977,-0.11475 -0.62249,-0.27824 -0.0764,-0.19918 -0.29726,-0.2625 -0.7767,-0.22285 -0.66545,0.055 -0.67032,0.0611 -0.72485,0.91605 -0.0307,0.48157 0.0377,0.97228 0.1556,1.11415 0.31732,0.38234 1.18886,0.3189 1.41463,-0.10296 0.20992,-0.39217 1.07005,-0.49974 1.06895,-0.1337 -6.1e-4,0.20466 -0.64425,1.38158 -0.75552,1.38158 -0.0265,0 -0.29467,0.0707 -0.59572,0.15707 -0.36631,0.10507 -0.76813,0.0811 -1.21488,-0.0724 z m 6.70385,0.002 c -0.77112,-0.33501 -1.37277,-1.61281 -1.19801,-2.54431 0.17517,-0.93422 1.12731,-1.82165 1.95431,-1.82165 0.99433,0 1.65528,0.42504 1.87147,1.20358 0.35436,1.27596 0.33996,1.29215 -1.14944,1.29215 -1.16863,0 -1.33701,0.0404 -1.33701,0.32088 0,0.69585 0.97501,1.02492 1.42615,0.48132 0.12212,-0.14717 0.41264,-0.2674 0.64577,-0.2674 0.76716,0 0.4088,0.79229 -0.59235,1.30961 -0.68482,0.35385 -0.85943,0.35663 -1.62089,0.0259 z m 1.74573,-2.73974 c 0,-0.59001 -1.46155,-0.73466 -1.57137,-0.1556 -0.0493,0.26026 0.076,0.31195 0.75611,0.31195 0.44839,0 0.81526,-0.0703 0.81526,-0.15644 z m -18.62889,2.61743 c -0.57449,-0.32577 -0.61834,-0.49638 -0.62121,-2.41642 l -0.002,-1.82723 h 0.5348 0.5348 v 1.23625 c 0,1.58198 0.2076,2.15081 0.78506,2.15081 0.78637,0 0.99762,-0.42032 0.99762,-1.98495 v -1.4247 l 0.57937,0.0558 0.57935,0.0558 0.0522,1.69353 c 0.0682,2.20854 -0.008,2.49575 -0.66052,2.49575 -0.29435,0 -0.55666,-0.11559 -0.6165,-0.27144 -0.0882,-0.23001 -0.15917,-0.21638 -0.46475,0.0891 -0.39657,0.39658 -1.14388,0.46153 -1.69757,0.1476 z m 4.71669,-0.30172 c -0.30609,-0.30613 -0.5233,-0.65646 -0.48264,-0.77856 0.12696,-0.38146 0.68237,-0.36002 1.11129,0.0429 0.48431,0.45498 1.39377,0.43873 1.48192,-0.0265 0.0423,-0.22375 -0.19749,-0.36987 -0.97896,-0.59622 -0.56929,-0.16486 -1.13537,-0.38229 -1.25794,-0.48306 -0.35042,-0.28819 -0.26973,-1.34054 0.1337,-1.744 0.75205,-0.75205 3.20881,-0.26443 3.20881,0.63687 0,0.29456 -0.98378,0.35927 -1.15873,0.0762 -0.13896,-0.22493 -1.10299,-0.2344 -1.24034,-0.0126 -0.16023,0.25932 0.63665,0.72527 1.24034,0.72527 0.82063,0 1.337,0.44382 1.337,1.1491 0,0.98296 -0.4862,1.39661 -1.74896,1.48795 -1.0291,0.0745 -1.11951,0.0482 -1.64549,-0.47779 z m 15.87315,-1.62447 v -2.13921 h 0.5348 0.5348 v 2.13921 2.1392 h -0.5348 -0.5348 z m -33.69246,-0.96917 v -2.95269 h 1.53288 c 1.88404,0 2.6407,0.30092 2.92534,1.16342 0.14275,0.43252 0.14317,0.79452 0.002,1.31951 -0.24394,0.90594 -0.86694,1.26067 -2.21403,1.26067 h -0.98043 l -0.0535,1.02503 c -0.0528,1.01341 -0.06,1.02566 -0.63284,1.08089 l -0.57935,0.0558 z m 3.24885,-0.51566 c 0.18487,-0.2905 0.16992,-0.61856 -0.0463,-1.02263 -0.14444,-0.26982 -0.37701,-0.3448 -1.0696,-0.3448 h -0.88507 v 0.79035 c 0,0.72461 0.0408,0.79681 0.49024,0.86776 0.64882,0.10254 1.346,-0.0318 1.51075,-0.29068 z m 2.27741,1.31354 v -2.13221 l 0.93591,-0.006 c 0.51475,-0.002 1.16765,-0.008 1.45088,-0.0126 0.28324,-0.004 0.65278,0.11812 0.82122,0.27062 0.27422,0.24818 0.32981,0.24873 0.53187,0.004 0.13707,-0.16507 0.52124,-0.27188 0.97842,-0.27188 1.19081,0 1.41924,0.38459 1.49318,2.51403 l 0.0613,1.76438 h -0.64064 -0.64065 v -1.51909 c 0,-1.44253 -0.0221,-1.52922 -0.44038,-1.71977 -0.7717,-0.3516 -0.98574,0.0299 -0.98574,1.7567 v 1.50475 l -0.57938,-0.0558 -0.57937,-0.0558 -0.0891,-1.6026 c -0.0733,-1.31872 -0.14254,-1.61276 -0.39013,-1.65992 -0.16549,-0.0316 -0.46639,0.10801 -0.6685,0.31016 -0.30582,0.30581 -0.3675,0.59188 -0.3675,1.7045 0,1.30729 -0.0105,1.337 -0.44567,1.337 h -0.44567 z m -32.08805,1.3089 c -0.44121,-0.25439 -1.35128,-0.74407 -2.02237,-1.0882 l -1.22017,-0.62565 0.7745,-0.4489 c 1.01283,-0.58703 3.28346,-1.64887 3.52596,-1.64887 0.10654,0 0.18991,0.35499 0.18991,0.80781 0,0.48723 0.0895,0.84216 0.22569,0.8944 0.12402,0.0476 4.91626,0.14549 10.64917,0.21724 9.26636,0.11602 10.42944,0.16171 10.47726,0.41068 0.0484,0.25275 -0.98039,0.27216 -10.55545,0.19919 l -10.60923,-0.0809 -0.18276,0.48093 c -0.10065,0.26453 -0.18276,0.67627 -0.18276,0.91501 0,0.54108 -0.0785,0.53868 -1.0696,-0.0326 z m -81.77681,-4.78575 -1.82405,-1.29925 0.7099,-0.49196 c 0.39043,-0.27056 0.70987,-0.50991 0.70987,-0.53189 0,-0.12128 -3.64532,-6.99684 -3.82822,-7.22051 -0.12023,-0.14718 -0.48897,-0.76719 -0.8193,-1.37802 -0.44734,-0.82719 -0.54908,-1.16216 -0.39868,-1.31256 0.11117,-0.11117 0.28363,-0.15138 0.38346,-0.0897 0.17539,0.10843 1.05905,1.71269 3.1026,5.63278 0.53672,1.0296 1.18406,2.17879 1.43853,2.55378 0.25447,0.37499 0.51168,0.83618 0.57156,1.02486 0.13328,0.41961 0.25795,0.42477 1.05706,0.0438 0.34524,-0.16465 0.6889,-0.23821 0.76367,-0.1636 0.19033,0.19013 0.29588,4.56653 0.10969,4.54729 -0.0836,-0.008 -0.97285,-0.60039 -1.97609,-1.31496 z m 142.03106,0.43933 c 0,-0.47536 0.0594,-0.5348 0.5348,-0.5348 0.47538,0 0.5348,0.0594 0.5348,0.5348 0,0.47539 -0.0594,0.5348 -0.5348,0.5348 -0.47538,0 -0.5348,-0.0594 -0.5348,-0.5348 z m -15.45017,-9.63764 c 0.0644,-0.82721 0.11875,-1.7848 0.12086,-2.12798 0.006,-1.04467 0.21981,-1.19075 0.9387,-0.64243 l 0.6225,0.47479 1.54974,-2.54561 c 0.85235,-1.40008 1.98788,-3.22748 2.5234,-4.06089 0.53549,-0.8334 1.16957,-1.89064 1.40903,-2.34941 0.49789,-0.95389 0.75598,-1.17817 0.90598,-0.78734 0.06,0.15623 -0.24561,0.85 -0.71434,1.62203 -0.45047,0.742 -0.81906,1.38317 -0.81906,1.4248 0,0.0417 -0.92786,1.62209 -2.06194,3.51212 l -2.06195,3.43639 0.39693,0.32143 c 0.21833,0.17687 0.52381,0.39241 0.67891,0.4792 0.15517,0.0867 0.24251,0.19391 0.19434,0.23809 -0.088,0.0806 -2.25524,1.51824 -3.26159,2.16356 l -0.53851,0.34531 z m -94.59701,-1.35252 c -0.067,-0.0669 -0.12191,-1.11788 -0.12191,-2.33529 0,-1.69138 0.0526,-2.19603 0.22285,-2.13952 0.15749,0.0524 0.2376,0.69164 0.27331,2.1838 0.0465,1.9423 -0.0617,2.60375 -0.37434,2.29101 z m -46.82778,-2.0015 c 0,-0.0861 0.12023,-0.2563 0.2674,-0.37836 0.14718,-0.12212 0.2674,-0.33242 0.2674,-0.46749 0,-0.13496 -0.12022,-0.24556 -0.2674,-0.24556 -0.18676,0 -0.2674,-0.18824 -0.2674,-0.62395 0,-0.57441 0.0425,-0.62393 0.5348,-0.62393 0.5196,0 0.5348,0.0242 0.5348,0.85166 0,0.89449 -0.37036,1.64407 -0.81231,1.64407 -0.14149,0 -0.25729,-0.0703 -0.25729,-0.15644 z m -7.9427,-1.12074 c -0.81247,-0.21056 -1.35389,-0.88866 -1.45982,-1.82843 -0.17496,-1.55242 0.64737,-2.59893 2.04221,-2.59893 1.09009,0 1.83405,0.71756 1.83405,1.76895 v 0.72679 h -1.337 c -1.16865,0 -1.33701,0.0404 -1.33701,0.32088 0,0.69587 0.97498,1.02492 1.42613,0.48132 0.24014,-0.28934 1.24788,-0.37241 1.24788,-0.10275 0,0.29298 -1.04019,1.2144 -1.46199,1.29502 -0.22541,0.0432 -0.65492,0.0147 -0.95445,-0.0627 z m 1.25769,-2.99693 c 0,-0.39091 -0.89087,-0.65709 -1.2372,-0.36967 -0.54242,0.45016 -0.33568,0.74658 0.47957,0.6876 0.52436,-0.0379 0.75763,-0.1358 0.75763,-0.31793 z m 2.85221,2.95745 c -0.56707,-0.24713 -0.85528,-0.53756 -1.03557,-1.04356 -0.1815,-0.50962 0.69271,-0.62515 1.19069,-0.15728 0.43552,0.40912 1.4335,0.51414 1.64434,0.17307 0.17644,-0.28542 -0.36364,-0.63799 -1.1914,-0.77784 -1.37177,-0.23175 -1.90276,-1.27752 -1.071,-2.10928 0.3084,-0.3084 0.59591,-0.38377 1.46386,-0.38377 0.96393,0 1.12664,0.0541 1.51286,0.50313 0.23803,0.27673 0.3868,0.57756 0.33059,0.6685 -0.16002,0.25902 -0.96959,0.19371 -1.26536,-0.10212 -0.31085,-0.31083 -1.05781,-0.35545 -1.23202,-0.0735 -0.18907,0.30612 0.16044,0.53171 1.17252,0.75655 0.66754,0.14823 1.04305,0.34927 1.30277,0.69716 0.34789,0.46599 0.35124,0.51741 0.0718,1.10359 -0.42673,0.89486 -1.76196,1.2388 -2.89397,0.74543 z m 7.04697,0.0286 c -0.24217,-0.1278 -0.62323,-0.5038 -0.84677,-0.83553 -1.07693,-1.59804 0.20887,-3.81705 2.03955,-3.51996 0.76375,0.12402 1.10603,0.399 1.41436,1.13658 0.50098,1.19854 0.40904,1.29816 -1.19838,1.29816 -1.40964,0 -1.43566,0.008 -1.31298,0.4011 0.0688,0.22061 0.21464,0.46005 0.324,0.53208 0.33705,0.22205 0.94571,0.15034 1.18642,-0.13959 0.25377,-0.30579 0.90775,-0.28412 1.01224,0.0335 0.0368,0.11181 -0.11748,0.41755 -0.34286,0.67952 -0.48692,0.56609 -1.60288,0.76914 -2.27558,0.41407 z m 1.50991,-2.90121 c 0,-0.47766 -1.22895,-0.62784 -1.40402,-0.1716 -0.17813,0.46444 0.0497,0.64101 0.75209,0.58247 0.51497,-0.0429 0.65193,-0.12928 0.65193,-0.41087 z m 2.89909,2.84062 c -0.96663,-0.52449 -1.33814,-2.16805 -0.74805,-3.30918 0.2734,-0.52867 1.17041,-1.04671 1.81247,-1.04671 0.63927,0 1.53755,0.64426 1.76132,1.26328 0.43448,1.20181 0.40517,1.23245 -1.17902,1.23245 -1.25447,0 -1.42613,0.0385 -1.42613,0.32088 0,0.69587 0.97498,1.02492 1.42613,0.48132 0.24931,-0.30042 0.99136,-0.35996 1.15645,-0.0929 0.17266,0.27936 -0.23165,0.86855 -0.79634,1.16059 -0.65135,0.33681 -1.37451,0.33328 -2.00683,-0.0105 z m 1.82499,-2.6267 c 0,-0.61091 -1.00875,-0.89512 -1.41966,-0.4 -0.32848,0.39581 -0.0606,0.63174 0.71712,0.63174 0.45759,0 0.70254,-0.0809 0.70254,-0.23174 z m -23.58314,2.61615 c -0.0695,-0.0695 -0.12633,-1.39651 -0.12633,-2.94892 v -2.82255 h 1.70164 c 1.55616,0 1.73804,0.0364 2.12739,0.42573 0.51158,0.5116 0.74765,1.57571 0.47989,2.16334 -0.28667,0.62917 -0.92392,0.96716 -2.09857,1.11305 l -1.05162,0.13055 -0.0891,0.98047 c -0.0741,0.81568 -0.15034,0.98922 -0.453,1.03255 -0.20024,0.0286 -0.42075,-0.004 -0.49023,-0.0743 z m 2.92633,-3.52059 c 0.34318,-0.75321 -0.0547,-1.18128 -1.09804,-1.18128 h -0.88506 v 0.68334 c 0,0.37586 0.0535,0.73685 0.11875,0.80221 0.0655,0.0655 0.46821,0.11875 0.89516,0.11875 0.64406,0 0.80917,-0.072 0.96911,-0.42313 z m 58.03346,-0.0522 c -0.0653,-0.0653 -0.11875,-1.06813 -0.11875,-2.22833 0,-1.75627 0.0448,-2.10949 0.2674,-2.10949 0.22344,0 0.2674,0.36642 0.2674,2.22833 0,2.0379 -0.0802,2.44515 -0.41595,2.10949 z m 115.75468,-0.0404 c 0,-0.0876 0.12044,-0.20528 0.2674,-0.26182 0.14718,-0.0564 0.26741,-0.26556 0.26741,-0.46473 0,-0.20297 -0.11749,-0.36212 -0.26741,-0.36212 -0.18675,0 -0.2674,-0.18824 -0.2674,-0.62395 0,-0.59828 0.0265,-0.62393 0.64602,-0.62393 h 0.64601 l -0.0815,0.98372 c -0.0575,0.69343 -0.18234,1.05998 -0.42317,1.24219 -0.38655,0.29252 -0.78727,0.34882 -0.78727,0.11054 z m -5.64876,-1.11135 c -1.10238,-0.31039 -1.71732,-1.69747 -1.32824,-2.99604 0.27709,-0.92489 0.75643,-1.29671 1.80104,-1.39708 0.82946,-0.0798 0.93059,-0.0436 1.51706,0.54298 0.48625,0.48624 0.62837,0.7735 0.62837,1.27011 v 0.64176 h -1.43815 c -1.40966,0 -1.43567,0.008 -1.31298,0.4011 0.21517,0.68947 0.91089,0.90006 1.325,0.4011 0.12212,-0.14718 0.45833,-0.2674 0.74729,-0.2674 0.43639,0 0.51573,0.0649 0.4684,0.38322 -0.11496,0.773 -1.38082,1.3094 -2.40779,1.02025 z m 1.37036,-2.81501 c 0,-0.46688 -0.26014,-0.72767 -0.72586,-0.72767 -0.49326,0 -1.00412,0.52807 -0.75341,0.77877 0.17665,0.17665 1.47927,0.1316 1.47927,-0.0512 z m 7.54332,2.75502 c -0.71627,-0.31153 -1.12571,-1.09194 -1.12571,-2.14568 0,-1.57754 0.86033,-2.37507 2.34699,-2.17568 0.78197,0.10486 1.28332,0.49488 1.47913,1.15065 0.10233,0.3429 0.0535,0.4011 -0.33789,0.4011 -0.25174,0 -0.61812,-0.16044 -0.81423,-0.35653 -0.76072,-0.76072 -1.42613,-0.28003 -1.42613,1.03025 0,1.10702 0.97229,1.72364 1.46751,0.93068 0.13728,-0.21994 0.41573,-0.35653 0.72659,-0.35653 0.44018,0 0.48837,0.0507 0.38097,0.4011 -0.18002,0.58725 -0.45456,0.87255 -1.09864,1.14178 -0.70353,0.29408 -0.87918,0.29176 -1.59859,-0.0211 z m -15.16424,-0.032 c -0.16359,-0.0684 -0.22282,-0.77285 -0.22282,-2.64865 0,-1.40548 0.0486,-2.68232 0.10822,-2.83742 0.0874,-0.22771 0.41163,-0.28197 1.68515,-0.28197 0.86733,0 1.782,0.0935 2.03264,0.20761 0.63376,0.28875 0.93738,1.3347 0.65808,2.26696 -0.28414,0.94833 -0.518,1.09283 -1.96484,1.21413 l -1.25508,0.10527 -0.0526,0.99987 c -0.0448,0.84976 -0.10633,1.00492 -0.40925,1.03364 -0.19602,0.0189 -0.45681,-0.008 -0.57937,-0.0594 z m 3.07511,-3.98538 v -0.62393 l -0.9359,-0.0539 -0.9359,-0.0539 v 0.73169 0.7317 l 0.9359,-0.0539 0.9359,-0.0539 z m 6.68501,1.17058 v -2.95324 h 0.53922 0.53923 l -0.0491,2.89683 -0.0491,2.89683 -0.49023,0.0564 -0.49025,0.0564 z m 9.46147,1.72627 c -0.19434,-0.66183 -0.47317,-1.62447 -0.61946,-2.1392 l -0.26597,-0.93591 h 0.60746 c 0.65149,0 0.74874,0.18129 1.07552,2.00395 0.0657,0.3668 0.17749,0.63117 0.24815,0.58746 0.0708,-0.0438 0.23601,-0.64869 0.36729,-1.34439 l 0.23866,-1.26493 0.62515,0.0535 c 0.60851,0.052 0.63146,0.0819 0.86322,1.12312 0.37253,1.67344 0.43167,1.70046 0.78115,0.35653 0.17854,-0.68632 0.32888,-1.30803 0.3342,-1.38156 0.006,-0.0735 0.21034,-0.1337 0.45538,-0.1337 0.57791,0 0.56993,0.16192 -0.11938,2.42406 -0.53931,1.76986 -0.58748,1.85435 -1.0576,1.85435 -0.53381,0 -0.53731,-0.006 -0.89061,-1.6571 -0.1217,-0.56826 -0.27662,-1.06748 -0.34446,-1.1094 -0.0678,-0.0419 -0.26153,0.56339 -0.43043,1.34513 l -0.30709,1.42137 h -0.60386 c -0.59174,0 -0.61094,-0.0242 -0.95734,-1.2033 z m -123.11862,-4.37901 c -0.1935,-0.50427 0.008,-4.10316 0.23479,-4.17816 0.17033,-0.0566 0.22282,0.45414 0.22282,2.16927 0,1.42213 -0.0674,2.24319 -0.18381,2.24319 -0.10106,0 -0.22432,-0.10548 -0.27376,-0.2343 z m 0.21992,-6.30216 c -0.19181,-0.19182 -0.13728,-2.3769 0.0594,-2.3769 0.1019,0 0.17833,0.5348 0.17833,1.24788 0,1.25476 -0.019,1.34723 -0.23769,1.12902 z"
         id="path4" /><path
         style="fill:#6dcff6;stroke-width:2.10552"
         d="m 307.53031,275.39392 c 0,-1.37372 0.0688,-2.23886 0.17834,-2.23886 0.0981,0 0.17834,0.44121 0.17834,0.98048 v 0.98047 h 13.62811 13.6281 l 0.0539,-0.9219 c 0.0314,-0.53743 0.14676,-0.95251 0.27673,-0.99532 0.17034,-0.0562 0.22283,0.45785 0.22283,2.18462 0,1.72676 -0.0524,2.24078 -0.22283,2.1846 -0.12991,-0.0427 -0.24531,-0.45786 -0.27673,-0.99532 l -0.0539,-0.92188 h -13.6281 -13.62811 v 0.8808 c 0,0.48446 -0.0802,0.93041 -0.17834,0.99101 -0.11517,0.0712 -0.17834,-0.68152 -0.17834,-2.1287 z m 15.33096,-2.36531 c -0.42222,-0.15518 -0.89133,-0.61926 -0.89133,-0.88165 0,-0.34393 1.00469,-0.30951 1.13843,0.0389 0.0737,0.19203 0.28772,0.26138 0.68758,0.22285 0.851,-0.0819 0.72842,-0.51029 -0.22567,-0.78849 -0.7845,-0.22875 -1.60034,-0.80881 -1.60034,-1.13782 0,-0.0897 0.0933,-0.36769 0.20739,-0.61795 0.49499,-1.08636 3.17977,-0.84842 3.17977,0.2818 0,0.41976 -0.74369,0.46002 -1.0771,0.0583 -0.25552,-0.30788 -1.0864,-0.28312 -1.19088,0.0356 -0.0389,0.11896 0.39569,0.34313 1.03661,0.5348 1.22249,0.36558 1.51993,0.6685 1.34416,1.36884 -0.19391,0.77264 -1.60861,1.2525 -2.60854,0.88484 z m -3.38706,-1.74535 v -1.69353 h -0.62395 c -0.50509,0 -0.62393,-0.0678 -0.62393,-0.35653 0,-0.25866 0.11875,-0.35654 0.43294,-0.35654 0.43112,0 0.99319,-0.41073 0.99319,-0.7258 0,-0.091 0.16044,-0.16549 0.35655,-0.16549 0.33956,0 0.35653,0.11875 0.35653,2.49573 v 2.49575 h -0.44568 c -0.44409,0 -0.44565,-0.006 -0.44565,-1.69355 z m -89.1335,-9.49371 c 0,-0.0979 0.12044,-0.27805 0.2674,-0.40011 0.14718,-0.12212 0.2674,-0.33242 0.2674,-0.46748 0,-0.13518 0.17013,-0.24557 0.37828,-0.24557 0.34857,0 0.35804,0.0305 0.12064,0.38802 -0.31037,0.46745 -1.0337,0.97488 -1.0337,0.72514 z"
         id="path5" /><text
         xml:space="preserve"
         style="font-style:normal;font-variant:normal;font-weight:bold;font-stretch:normal;font-size:7.42777px;line-height:150%;font-family:sans-serif;-inkscape-font-specification:'sans-serif Bold';text-align:start;letter-spacing:0px;writing-mode:lr-tb;direction:ltr;text-anchor:start;fill:#00a88e;fill-opacity:1;fill-rule:evenodd;stroke-width:0;stroke-linecap:round;stroke-linejoin:round;stroke-miterlimit:2;stroke-opacity:0.680142;paint-order:stroke markers fill"
         x="68.638779"
         y="220.388"
         id="text5"><tspan
           sodipodi:role="line"
           id="tspan5"
           style="text-align:start;text-anchor:start;fill:#00a88e;stroke-width:0"
           x="68.638779"
           y="220.388">P<tspan
   style="font-size:4.82805px;baseline-shift:sub;fill:#00a88e;stroke-width:0"
   id="tspan8">es</tspan></tspan></text><text
         xml:space="preserve"
         style="font-style:normal;font-variant:normal;font-weight:bold;font-stretch:normal;font-size:7.42777px;line-height:150%;font-family:sans-serif;-inkscape-font-specification:'sans-serif Bold';text-align:start;letter-spacing:0px;writing-mode:lr-tb;direction:ltr;text-anchor:start;fill:#72bf44;fill-opacity:1;fill-rule:evenodd;stroke-width:0;stroke-linecap:round;stroke-linejoin:round;stroke-miterlimit:2;stroke-opacity:0.680142;paint-order:stroke markers fill"
         x="68.638779"
         y="145.79922"
         id="text6"><tspan
           sodipodi:role="line"
           id="tspan6"
           style="fill:#72bf44;stroke-width:0"
           x="68.638779"
           y="145.79922">P<tspan
   style="font-size:4.82805px;baseline-shift:sub;fill:#72bf44;stroke-width:0"
   id="tspan7">circ</tspan></tspan></text><text
         xml:space="preserve"
         style="font-style:normal;font-variant:normal;font-weight:bold;font-stretch:normal;font-size:7.42777px;line-height:150%;font-family:sans-serif;-inkscape-font-specification:'sans-serif Bold';text-align:start;letter-spacing:0px;writing-mode:lr-tb;direction:ltr;text-anchor:start;fill:#0067a5;fill-opacity:1;fill-rule:evenodd;stroke-width:0;stroke-linecap:round;stroke-linejoin:round;stroke-miterlimit:2;stroke-opacity:0.680142;paint-order:stroke markers fill"
         x="69.284348"
         y="64.806877"
         id="text9"><tspan
           sodipodi:role="line"
           id="tspan9"
           style="fill:#0067a5;stroke-width:0"
           x="69.284348"
           y="64.806877">V'</tspan></text></g></g><metadata
     id="metadata139"><rdf:RDF><cc:Work
         rdf:about=""><dc:creator><cc:Agent><dc:title>Nicolas Blais St-Laurent</dc:title></cc:Agent></dc:creator></cc:Work></rdf:RDF></metadata></svg>
