<?xml version="1.0" encoding="UTF-8" standalone="no"?>
<!-- Created with Inkscape (http://www.inkscape.org/) -->

<svg
   version="1.1"
   id="svg1"
   width="180"
   height="180"
   viewBox="0 0 180 179.99999"
   sodipodi:docname="Drager_V500.svg"
   inkscape:version="1.4 (e7c3feb100, 2024-10-09)"
   inkscape:export-filename="Drager_V500.png"
   inkscape:export-xdpi="480"
   inkscape:export-ydpi="480"
   xmlns:inkscape="http://www.inkscape.org/namespaces/inkscape"
   xmlns:sodipodi="http://sodipodi.sourceforge.net/DTD/sodipodi-0.dtd"
   xmlns="http://www.w3.org/2000/svg"
   xmlns:svg="http://www.w3.org/2000/svg">
  <sodipodi:namedview
     id="namedview1"
     pagecolor="#ffffff"
     bordercolor="#999999"
     borderopacity="1"
     inkscape:showpageshadow="0"
     inkscape:pageopacity="0"
     inkscape:pagecheckerboard="0"
     inkscape:deskcolor="#d1d1d1"
     inkscape:export-bgcolor="#ffffffff"
     inkscape:zoom="2.0244003"
     inkscape:cx="119.54158"
     inkscape:cy="94.101943"
     inkscape:window-width="1920"
     inkscape:window-height="997"
     inkscape:window-x="0"
     inkscape:window-y="0"
     inkscape:window-maximized="1"
     inkscape:current-layer="svg1">
    <inkscape:page
       x="0"
       y="0"
       width="180"
       height="179.99998"
       id="page2"
       margin="0"
       bleed="0" />
  </sodipodi:namedview>
  <defs
     id="defs1" />
  <g
     id="g1"
     transform="translate(-80.222649,-110.42969)">
    <g
       id="group-MC0">
      <g
         id="group-MC1">
        <path
           id="path718"
           d="M 0,0 H 2.729"
           style="fill:none;stroke:#231f20;stroke-width:0.674;stroke-linecap:square;stroke-linejoin:miter;stroke-miterlimit:1;stroke-dasharray:none;stroke-opacity:1"
           transform="matrix(1.3333333,0,0,-1.3333333,107.32533,260.32)" />
        <path
           id="path719"
           d="M 0,0 H 2.729"
           style="fill:none;stroke:#231f20;stroke-width:0.674;stroke-linecap:square;stroke-linejoin:miter;stroke-miterlimit:1;stroke-dasharray:none;stroke-opacity:1"
           transform="matrix(1.3333333,0,0,-1.3333333,107.32533,245.788)" />
        <path
           id="path720"
           d="M 0,0 H 2.729"
           style="fill:none;stroke:#231f20;stroke-width:0.674;stroke-linecap:square;stroke-linejoin:miter;stroke-miterlimit:1;stroke-dasharray:none;stroke-opacity:1"
           transform="matrix(1.3333333,0,0,-1.3333333,107.32533,231.256)" />
        <path
           id="path721"
           d="M 0,0 H 2.729"
           style="fill:none;stroke:#231f20;stroke-width:0.674;stroke-linecap:square;stroke-linejoin:miter;stroke-miterlimit:1;stroke-dasharray:none;stroke-opacity:1"
           transform="matrix(1.3333333,0,0,-1.3333333,107.32533,216.72533)" />
        <path
           id="path722"
           d="M 0,0 H 2.729"
           style="fill:none;stroke:#231f20;stroke-width:0.674;stroke-linecap:square;stroke-linejoin:miter;stroke-miterlimit:1;stroke-dasharray:none;stroke-opacity:1"
           transform="matrix(1.3333333,0,0,-1.3333333,107.32533,202.19333)" />
        <path
           id="path723"
           d="M 0,0 H 2.729"
           style="fill:none;stroke:#231f20;stroke-width:0.674;stroke-linecap:square;stroke-linejoin:miter;stroke-miterlimit:1;stroke-dasharray:none;stroke-opacity:1"
           transform="matrix(1.3333333,0,0,-1.3333333,107.32533,187.66133)" />
        <path
           id="path724"
           d="M 0,0 H 2.729"
           style="fill:none;stroke:#231f20;stroke-width:0.674;stroke-linecap:square;stroke-linejoin:miter;stroke-miterlimit:1;stroke-dasharray:none;stroke-opacity:1"
           transform="matrix(1.3333333,0,0,-1.3333333,107.32533,173.12933)" />
        <path
           id="path725"
           d="M 0,0 H 2.729"
           style="fill:none;stroke:#231f20;stroke-width:0.674;stroke-linecap:square;stroke-linejoin:miter;stroke-miterlimit:1;stroke-dasharray:none;stroke-opacity:1"
           transform="matrix(1.3333333,0,0,-1.3333333,107.32533,158.59733)" />
        <path
           id="path726"
           d="M 0,0 H 2.729"
           style="fill:none;stroke:#231f20;stroke-width:0.674;stroke-linecap:square;stroke-linejoin:miter;stroke-miterlimit:1;stroke-dasharray:none;stroke-opacity:1"
           transform="matrix(1.3333333,0,0,-1.3333333,107.32533,144.06533)" />
        <path
           id="path727"
           d="M 0,0 H 2.729"
           style="fill:none;stroke:#231f20;stroke-width:0.674;stroke-linecap:square;stroke-linejoin:miter;stroke-miterlimit:1;stroke-dasharray:none;stroke-opacity:1"
           transform="matrix(1.3333333,0,0,-1.3333333,107.32533,129.53333)" />
        <path
           id="path728"
           d="M 0,0 2.729,-0.02"
           style="fill:none;stroke:#231f20;stroke-width:0.674;stroke-linecap:square;stroke-linejoin:miter;stroke-miterlimit:1;stroke-dasharray:none;stroke-opacity:1"
           transform="matrix(1.3333333,0,0,-1.3333333,107.32533,115.11867)" />
        <path
           id="path729"
           d="M 0,0 H 2.729"
           style="fill:none;stroke:#918f90;stroke-width:0.886;stroke-linecap:butt;stroke-linejoin:miter;stroke-miterlimit:1;stroke-dasharray:none;stroke-opacity:1"
           transform="matrix(1.3333333,0,0,-1.3333333,107.00667,198.87867)" />
        <path
           id="path730"
           d="M 0,0 H 2.729"
           style="fill:none;stroke:#918f90;stroke-width:0.886;stroke-linecap:butt;stroke-linejoin:miter;stroke-miterlimit:1;stroke-dasharray:none;stroke-opacity:1"
           transform="matrix(1.3333333,0,0,-1.3333333,107.00667,168.58933)" />
        <path
           id="path731"
           d="M 0,0 H 0.921"
           style="fill:none;stroke:#918f90;stroke-width:0.886;stroke-linecap:butt;stroke-linejoin:miter;stroke-miterlimit:1;stroke-dasharray:none;stroke-opacity:1"
           transform="matrix(1.3333333,0,0,-1.3333333,110.64533,168.588)" />
        <path
           id="path732"
           d="M 0,0 H 0.887"
           style="fill:none;stroke:#918f90;stroke-width:0.886;stroke-linecap:butt;stroke-linejoin:miter;stroke-miterlimit:1;stroke-dasharray:none;stroke-opacity:1"
           transform="matrix(1.3333333,0,0,-1.3333333,113.10133,168.588)" />
        <path
           id="path733"
           d="M 0,0 H 0.921"
           style="fill:none;stroke:#918f90;stroke-width:0.886;stroke-linecap:butt;stroke-linejoin:miter;stroke-miterlimit:1;stroke-dasharray:none;stroke-opacity:1"
           transform="matrix(1.3333333,0,0,-1.3333333,115.512,168.588)" />
        <path
           id="path734"
           d="M 0,0 H 0.921"
           style="fill:none;stroke:#918f90;stroke-width:0.886;stroke-linecap:butt;stroke-linejoin:miter;stroke-miterlimit:1;stroke-dasharray:none;stroke-opacity:1"
           transform="matrix(1.3333333,0,0,-1.3333333,117.92267,168.588)" />
        <path
           id="path735"
           d="M 0,0 H 0.887"
           style="fill:none;stroke:#918f90;stroke-width:0.886;stroke-linecap:butt;stroke-linejoin:miter;stroke-miterlimit:1;stroke-dasharray:none;stroke-opacity:1"
           transform="matrix(1.3333333,0,0,-1.3333333,120.37867,168.588)" />
        <path
           id="path736"
           d="M 0,0 H 0.921"
           style="fill:none;stroke:#918f90;stroke-width:0.886;stroke-linecap:butt;stroke-linejoin:miter;stroke-miterlimit:1;stroke-dasharray:none;stroke-opacity:1"
           transform="matrix(1.3333333,0,0,-1.3333333,122.78933,168.588)" />
        <path
           id="path737"
           d="M 0,0 H 0.921"
           style="fill:none;stroke:#918f90;stroke-width:0.886;stroke-linecap:butt;stroke-linejoin:miter;stroke-miterlimit:1;stroke-dasharray:none;stroke-opacity:1"
           transform="matrix(1.3333333,0,0,-1.3333333,125.2,168.588)" />
        <path
           id="path738"
           d="M 0,0 H 0.887"
           style="fill:none;stroke:#918f90;stroke-width:0.886;stroke-linecap:butt;stroke-linejoin:miter;stroke-miterlimit:1;stroke-dasharray:none;stroke-opacity:1"
           transform="matrix(1.3333333,0,0,-1.3333333,127.656,168.588)" />
        <path
           id="path739"
           d="M 0,0 H 0.921"
           style="fill:none;stroke:#918f90;stroke-width:0.886;stroke-linecap:butt;stroke-linejoin:miter;stroke-miterlimit:1;stroke-dasharray:none;stroke-opacity:1"
           transform="matrix(1.3333333,0,0,-1.3333333,130.06667,168.588)" />
        <path
           id="path740"
           d="M 0,0 H 0.921"
           style="fill:none;stroke:#918f90;stroke-width:0.886;stroke-linecap:butt;stroke-linejoin:miter;stroke-miterlimit:1;stroke-dasharray:none;stroke-opacity:1"
           transform="matrix(1.3333333,0,0,-1.3333333,132.47733,168.588)" />
        <path
           id="path741"
           d="M 0,0 H 0.887"
           style="fill:none;stroke:#918f90;stroke-width:0.886;stroke-linecap:butt;stroke-linejoin:miter;stroke-miterlimit:1;stroke-dasharray:none;stroke-opacity:1"
           transform="matrix(1.3333333,0,0,-1.3333333,134.93333,168.588)" />
        <path
           id="path742"
           d="M 0,0 H 0.921"
           style="fill:none;stroke:#918f90;stroke-width:0.886;stroke-linecap:butt;stroke-linejoin:miter;stroke-miterlimit:1;stroke-dasharray:none;stroke-opacity:1"
           transform="matrix(1.3333333,0,0,-1.3333333,137.344,168.588)" />
        <path
           id="path743"
           d="M 0,0 H 0.921"
           style="fill:none;stroke:#918f90;stroke-width:0.886;stroke-linecap:butt;stroke-linejoin:miter;stroke-miterlimit:1;stroke-dasharray:none;stroke-opacity:1"
           transform="matrix(1.3333333,0,0,-1.3333333,139.75467,168.588)" />
        <path
           id="path744"
           d="M 0,0 H 0.887"
           style="fill:none;stroke:#918f90;stroke-width:0.886;stroke-linecap:butt;stroke-linejoin:miter;stroke-miterlimit:1;stroke-dasharray:none;stroke-opacity:1"
           transform="matrix(1.3333333,0,0,-1.3333333,142.21067,168.588)" />
        <path
           id="path745"
           d="M 0,0 H 0.921"
           style="fill:none;stroke:#918f90;stroke-width:0.886;stroke-linecap:butt;stroke-linejoin:miter;stroke-miterlimit:1;stroke-dasharray:none;stroke-opacity:1"
           transform="matrix(1.3333333,0,0,-1.3333333,144.62133,168.588)" />
        <path
           id="path746"
           d="M 0,0 H 0.921"
           style="fill:none;stroke:#918f90;stroke-width:0.886;stroke-linecap:butt;stroke-linejoin:miter;stroke-miterlimit:1;stroke-dasharray:none;stroke-opacity:1"
           transform="matrix(1.3333333,0,0,-1.3333333,147.032,168.588)" />
        <path
           id="path747"
           d="M 0,0 H 0.887"
           style="fill:none;stroke:#918f90;stroke-width:0.886;stroke-linecap:butt;stroke-linejoin:miter;stroke-miterlimit:1;stroke-dasharray:none;stroke-opacity:1"
           transform="matrix(1.3333333,0,0,-1.3333333,149.488,168.588)" />
        <path
           id="path748"
           d="M 0,0 H 0.921"
           style="fill:none;stroke:#918f90;stroke-width:0.886;stroke-linecap:butt;stroke-linejoin:miter;stroke-miterlimit:1;stroke-dasharray:none;stroke-opacity:1"
           transform="matrix(1.3333333,0,0,-1.3333333,151.89867,168.588)" />
        <path
           id="path749"
           d="M 0,0 H 0.921"
           style="fill:none;stroke:#918f90;stroke-width:0.886;stroke-linecap:butt;stroke-linejoin:miter;stroke-miterlimit:1;stroke-dasharray:none;stroke-opacity:1"
           transform="matrix(1.3333333,0,0,-1.3333333,154.30933,168.588)" />
        <path
           id="path750"
           d="M 0,0 H 0.887"
           style="fill:none;stroke:#918f90;stroke-width:0.886;stroke-linecap:butt;stroke-linejoin:miter;stroke-miterlimit:1;stroke-dasharray:none;stroke-opacity:1"
           transform="matrix(1.3333333,0,0,-1.3333333,156.76533,168.588)" />
        <path
           id="path751"
           d="M 0,0 H 0.921"
           style="fill:none;stroke:#918f90;stroke-width:0.886;stroke-linecap:butt;stroke-linejoin:miter;stroke-miterlimit:1;stroke-dasharray:none;stroke-opacity:1"
           transform="matrix(1.3333333,0,0,-1.3333333,159.176,168.588)" />
        <path
           id="path752"
           d="M 0,0 H 0.921"
           style="fill:none;stroke:#918f90;stroke-width:0.886;stroke-linecap:butt;stroke-linejoin:miter;stroke-miterlimit:1;stroke-dasharray:none;stroke-opacity:1"
           transform="matrix(1.3333333,0,0,-1.3333333,161.58667,168.588)" />
        <path
           id="path753"
           d="M 0,0 H 0.887"
           style="fill:none;stroke:#918f90;stroke-width:0.886;stroke-linecap:butt;stroke-linejoin:miter;stroke-miterlimit:1;stroke-dasharray:none;stroke-opacity:1"
           transform="matrix(1.3333333,0,0,-1.3333333,164.04267,168.588)" />
        <path
           id="path754"
           d="M 0,0 H 0.921"
           style="fill:none;stroke:#918f90;stroke-width:0.886;stroke-linecap:butt;stroke-linejoin:miter;stroke-miterlimit:1;stroke-dasharray:none;stroke-opacity:1"
           transform="matrix(1.3333333,0,0,-1.3333333,166.45333,168.588)" />
        <path
           id="path755"
           d="M 0,0 H 0.921"
           style="fill:none;stroke:#918f90;stroke-width:0.886;stroke-linecap:butt;stroke-linejoin:miter;stroke-miterlimit:1;stroke-dasharray:none;stroke-opacity:1"
           transform="matrix(1.3333333,0,0,-1.3333333,168.864,168.588)" />
        <path
           id="path756"
           d="M 0,0 H 0.887"
           style="fill:none;stroke:#918f90;stroke-width:0.886;stroke-linecap:butt;stroke-linejoin:miter;stroke-miterlimit:1;stroke-dasharray:none;stroke-opacity:1"
           transform="matrix(1.3333333,0,0,-1.3333333,171.32,168.588)" />
        <path
           id="path757"
           d="M 0,0 H 0.921"
           style="fill:none;stroke:#918f90;stroke-width:0.886;stroke-linecap:butt;stroke-linejoin:miter;stroke-miterlimit:1;stroke-dasharray:none;stroke-opacity:1"
           transform="matrix(1.3333333,0,0,-1.3333333,173.73067,168.588)" />
        <path
           id="path758"
           d="M 0,0 H 0.921"
           style="fill:none;stroke:#918f90;stroke-width:0.886;stroke-linecap:butt;stroke-linejoin:miter;stroke-miterlimit:1;stroke-dasharray:none;stroke-opacity:1"
           transform="matrix(1.3333333,0,0,-1.3333333,176.14133,168.588)" />
        <path
           id="path759"
           d="M 0,0 H 0.887"
           style="fill:none;stroke:#918f90;stroke-width:0.886;stroke-linecap:butt;stroke-linejoin:miter;stroke-miterlimit:1;stroke-dasharray:none;stroke-opacity:1"
           transform="matrix(1.3333333,0,0,-1.3333333,178.59733,168.588)" />
        <path
           id="path760"
           d="M 0,0 H 0.921"
           style="fill:none;stroke:#918f90;stroke-width:0.886;stroke-linecap:butt;stroke-linejoin:miter;stroke-miterlimit:1;stroke-dasharray:none;stroke-opacity:1"
           transform="matrix(1.3333333,0,0,-1.3333333,181.008,168.588)" />
        <path
           id="path761"
           d="M 0,0 H 0.921"
           style="fill:none;stroke:#918f90;stroke-width:0.886;stroke-linecap:butt;stroke-linejoin:miter;stroke-miterlimit:1;stroke-dasharray:none;stroke-opacity:1"
           transform="matrix(1.3333333,0,0,-1.3333333,183.41867,168.588)" />
        <path
           id="path762"
           d="M 0,0 H 0.887"
           style="fill:none;stroke:#918f90;stroke-width:0.886;stroke-linecap:butt;stroke-linejoin:miter;stroke-miterlimit:1;stroke-dasharray:none;stroke-opacity:1"
           transform="matrix(1.3333333,0,0,-1.3333333,185.87467,168.588)" />
        <path
           id="path763"
           d="M 0,0 H 0.921"
           style="fill:none;stroke:#918f90;stroke-width:0.886;stroke-linecap:butt;stroke-linejoin:miter;stroke-miterlimit:1;stroke-dasharray:none;stroke-opacity:1"
           transform="matrix(1.3333333,0,0,-1.3333333,188.28533,168.588)" />
        <path
           id="path764"
           d="M 0,0 H 0.921"
           style="fill:none;stroke:#918f90;stroke-width:0.886;stroke-linecap:butt;stroke-linejoin:miter;stroke-miterlimit:1;stroke-dasharray:none;stroke-opacity:1"
           transform="matrix(1.3333333,0,0,-1.3333333,190.696,168.588)" />
        <path
           id="path765"
           d="M 0,0 H 0.887"
           style="fill:none;stroke:#918f90;stroke-width:0.886;stroke-linecap:butt;stroke-linejoin:miter;stroke-miterlimit:1;stroke-dasharray:none;stroke-opacity:1"
           transform="matrix(1.3333333,0,0,-1.3333333,193.152,168.588)" />
        <path
           id="path766"
           d="M 0,0 H 0.921"
           style="fill:none;stroke:#918f90;stroke-width:0.886;stroke-linecap:butt;stroke-linejoin:miter;stroke-miterlimit:1;stroke-dasharray:none;stroke-opacity:1"
           transform="matrix(1.3333333,0,0,-1.3333333,195.56267,168.588)" />
        <path
           id="path767"
           d="M 0,0 H 0.921"
           style="fill:none;stroke:#918f90;stroke-width:0.886;stroke-linecap:butt;stroke-linejoin:miter;stroke-miterlimit:1;stroke-dasharray:none;stroke-opacity:1"
           transform="matrix(1.3333333,0,0,-1.3333333,197.97333,168.588)" />
        <path
           id="path768"
           d="M 0,0 H 0.887"
           style="fill:none;stroke:#918f90;stroke-width:0.886;stroke-linecap:butt;stroke-linejoin:miter;stroke-miterlimit:1;stroke-dasharray:none;stroke-opacity:1"
           transform="matrix(1.3333333,0,0,-1.3333333,200.42933,168.588)" />
        <path
           id="path769"
           d="M 0,0 H 0.921"
           style="fill:none;stroke:#918f90;stroke-width:0.886;stroke-linecap:butt;stroke-linejoin:miter;stroke-miterlimit:1;stroke-dasharray:none;stroke-opacity:1"
           transform="matrix(1.3333333,0,0,-1.3333333,202.84,168.588)" />
        <path
           id="path770"
           d="M 0,0 H 0.921"
           style="fill:none;stroke:#918f90;stroke-width:0.886;stroke-linecap:butt;stroke-linejoin:miter;stroke-miterlimit:1;stroke-dasharray:none;stroke-opacity:1"
           transform="matrix(1.3333333,0,0,-1.3333333,205.25067,168.588)" />
        <path
           id="path771"
           d="M 0,0 H 0.887"
           style="fill:none;stroke:#918f90;stroke-width:0.886;stroke-linecap:butt;stroke-linejoin:miter;stroke-miterlimit:1;stroke-dasharray:none;stroke-opacity:1"
           transform="matrix(1.3333333,0,0,-1.3333333,207.70667,168.588)" />
        <path
           id="path772"
           d="M 0,0 H 0.921"
           style="fill:none;stroke:#918f90;stroke-width:0.886;stroke-linecap:butt;stroke-linejoin:miter;stroke-miterlimit:1;stroke-dasharray:none;stroke-opacity:1"
           transform="matrix(1.3333333,0,0,-1.3333333,210.11733,168.588)" />
        <path
           id="path773"
           d="M 0,0 H 0.921"
           style="fill:none;stroke:#918f90;stroke-width:0.886;stroke-linecap:butt;stroke-linejoin:miter;stroke-miterlimit:1;stroke-dasharray:none;stroke-opacity:1"
           transform="matrix(1.3333333,0,0,-1.3333333,212.528,168.588)" />
        <path
           id="path774"
           d="M 0,0 H 0.886"
           style="fill:none;stroke:#918f90;stroke-width:0.886;stroke-linecap:butt;stroke-linejoin:miter;stroke-miterlimit:1;stroke-dasharray:none;stroke-opacity:1"
           transform="matrix(1.3333333,0,0,-1.3333333,214.984,168.588)" />
        <path
           id="path775"
           d="M 0,0 H 0.921"
           style="fill:none;stroke:#918f90;stroke-width:0.886;stroke-linecap:butt;stroke-linejoin:miter;stroke-miterlimit:1;stroke-dasharray:none;stroke-opacity:1"
           transform="matrix(1.3333333,0,0,-1.3333333,217.39333,168.588)" />
        <path
           id="path776"
           d="M 0,0 H 0.921"
           style="fill:none;stroke:#918f90;stroke-width:0.886;stroke-linecap:butt;stroke-linejoin:miter;stroke-miterlimit:1;stroke-dasharray:none;stroke-opacity:1"
           transform="matrix(1.3333333,0,0,-1.3333333,219.804,168.588)" />
        <path
           id="path777"
           d="M 0,0 H 0.887"
           style="fill:none;stroke:#918f90;stroke-width:0.886;stroke-linecap:butt;stroke-linejoin:miter;stroke-miterlimit:1;stroke-dasharray:none;stroke-opacity:1"
           transform="matrix(1.3333333,0,0,-1.3333333,222.26,168.588)" />
        <path
           id="path778"
           d="M 0,0 H 0.921"
           style="fill:none;stroke:#918f90;stroke-width:0.886;stroke-linecap:butt;stroke-linejoin:miter;stroke-miterlimit:1;stroke-dasharray:none;stroke-opacity:1"
           transform="matrix(1.3333333,0,0,-1.3333333,224.67067,168.588)" />
        <path
           id="path779"
           d="M 0,0 H 0.921"
           style="fill:none;stroke:#918f90;stroke-width:0.886;stroke-linecap:butt;stroke-linejoin:miter;stroke-miterlimit:1;stroke-dasharray:none;stroke-opacity:1"
           transform="matrix(1.3333333,0,0,-1.3333333,227.08133,168.588)" />
        <path
           id="path780"
           d="M 0,0 H 0.886"
           style="fill:none;stroke:#918f90;stroke-width:0.886;stroke-linecap:butt;stroke-linejoin:miter;stroke-miterlimit:1;stroke-dasharray:none;stroke-opacity:1"
           transform="matrix(1.3333333,0,0,-1.3333333,229.53733,168.588)" />
        <path
           id="path781"
           d="M 0,0 H 0.921"
           style="fill:none;stroke:#918f90;stroke-width:0.886;stroke-linecap:butt;stroke-linejoin:miter;stroke-miterlimit:1;stroke-dasharray:none;stroke-opacity:1"
           transform="matrix(1.3333333,0,0,-1.3333333,231.94667,168.588)" />
        <path
           id="path782"
           d="M 0,0 H 0.921"
           style="fill:none;stroke:#918f90;stroke-width:0.886;stroke-linecap:butt;stroke-linejoin:miter;stroke-miterlimit:1;stroke-dasharray:none;stroke-opacity:1"
           transform="matrix(1.3333333,0,0,-1.3333333,234.35733,168.588)" />
        <path
           id="path783"
           d="M 0,0 H 0.887"
           style="fill:none;stroke:#918f90;stroke-width:0.886;stroke-linecap:butt;stroke-linejoin:miter;stroke-miterlimit:1;stroke-dasharray:none;stroke-opacity:1"
           transform="matrix(1.3333333,0,0,-1.3333333,236.81333,168.588)" />
        <path
           id="path784"
           d="M 0,0 H 0.921"
           style="fill:none;stroke:#918f90;stroke-width:0.886;stroke-linecap:butt;stroke-linejoin:miter;stroke-miterlimit:1;stroke-dasharray:none;stroke-opacity:1"
           transform="matrix(1.3333333,0,0,-1.3333333,239.224,168.588)" />
        <path
           id="path785"
           d="M 0,0 H 0.921"
           style="fill:none;stroke:#918f90;stroke-width:0.886;stroke-linecap:butt;stroke-linejoin:miter;stroke-miterlimit:1;stroke-dasharray:none;stroke-opacity:1"
           transform="matrix(1.3333333,0,0,-1.3333333,241.63467,168.588)" />
        <path
           id="path786"
           d="M 0,0 H 0.886"
           style="fill:none;stroke:#918f90;stroke-width:0.886;stroke-linecap:butt;stroke-linejoin:miter;stroke-miterlimit:1;stroke-dasharray:none;stroke-opacity:1"
           transform="matrix(1.3333333,0,0,-1.3333333,244.09067,168.588)" />
        <path
           id="path787"
           d="M 0,0 H 0.921"
           style="fill:none;stroke:#918f90;stroke-width:0.886;stroke-linecap:butt;stroke-linejoin:miter;stroke-miterlimit:1;stroke-dasharray:none;stroke-opacity:1"
           transform="matrix(1.3333333,0,0,-1.3333333,246.5,168.588)" />
        <path
           id="path788"
           d="M 0,0 H 0.921"
           style="fill:none;stroke:#918f90;stroke-width:0.886;stroke-linecap:butt;stroke-linejoin:miter;stroke-miterlimit:1;stroke-dasharray:none;stroke-opacity:1"
           transform="matrix(1.3333333,0,0,-1.3333333,248.91067,168.588)" />
        <path
           id="path789"
           d="M 0,0 H 0.887"
           style="fill:none;stroke:#918f90;stroke-width:0.886;stroke-linecap:butt;stroke-linejoin:miter;stroke-miterlimit:1;stroke-dasharray:none;stroke-opacity:1"
           transform="matrix(1.3333333,0,0,-1.3333333,251.36667,168.588)" />
        <path
           id="path790"
           d="M 0,0 H 0.921"
           style="fill:none;stroke:#918f90;stroke-width:0.886;stroke-linecap:butt;stroke-linejoin:miter;stroke-miterlimit:1;stroke-dasharray:none;stroke-opacity:1"
           transform="matrix(1.3333333,0,0,-1.3333333,253.77733,168.588)" />
        <path
           id="path791"
           d="M 0,0 H 0.921"
           style="fill:none;stroke:#918f90;stroke-width:0.886;stroke-linecap:butt;stroke-linejoin:miter;stroke-miterlimit:1;stroke-dasharray:none;stroke-opacity:1"
           transform="matrix(1.3333333,0,0,-1.3333333,110.65467,198.87733)" />
        <path
           id="path792"
           d="M 0,0 H 0.887"
           style="fill:none;stroke:#918f90;stroke-width:0.886;stroke-linecap:butt;stroke-linejoin:miter;stroke-miterlimit:1;stroke-dasharray:none;stroke-opacity:1"
           transform="matrix(1.3333333,0,0,-1.3333333,113.11067,198.87733)" />
        <path
           id="path793"
           d="M 0,0 H 0.921"
           style="fill:none;stroke:#918f90;stroke-width:0.886;stroke-linecap:butt;stroke-linejoin:miter;stroke-miterlimit:1;stroke-dasharray:none;stroke-opacity:1"
           transform="matrix(1.3333333,0,0,-1.3333333,115.52133,198.87733)" />
        <path
           id="path794"
           d="M 0,0 H 0.921"
           style="fill:none;stroke:#918f90;stroke-width:0.886;stroke-linecap:butt;stroke-linejoin:miter;stroke-miterlimit:1;stroke-dasharray:none;stroke-opacity:1"
           transform="matrix(1.3333333,0,0,-1.3333333,117.932,198.87733)" />
        <path
           id="path795"
           d="M 0,0 H 0.887"
           style="fill:none;stroke:#918f90;stroke-width:0.886;stroke-linecap:butt;stroke-linejoin:miter;stroke-miterlimit:1;stroke-dasharray:none;stroke-opacity:1"
           transform="matrix(1.3333333,0,0,-1.3333333,120.388,198.87733)" />
        <path
           id="path796"
           d="M 0,0 H 0.921"
           style="fill:none;stroke:#918f90;stroke-width:0.886;stroke-linecap:butt;stroke-linejoin:miter;stroke-miterlimit:1;stroke-dasharray:none;stroke-opacity:1"
           transform="matrix(1.3333333,0,0,-1.3333333,122.79867,198.87733)" />
        <path
           id="path797"
           d="M 0,0 H 0.921"
           style="fill:none;stroke:#918f90;stroke-width:0.886;stroke-linecap:butt;stroke-linejoin:miter;stroke-miterlimit:1;stroke-dasharray:none;stroke-opacity:1"
           transform="matrix(1.3333333,0,0,-1.3333333,125.20933,198.87733)" />
        <path
           id="path798"
           d="M 0,0 H 0.887"
           style="fill:none;stroke:#918f90;stroke-width:0.886;stroke-linecap:butt;stroke-linejoin:miter;stroke-miterlimit:1;stroke-dasharray:none;stroke-opacity:1"
           transform="matrix(1.3333333,0,0,-1.3333333,127.66533,198.87733)" />
        <path
           id="path799"
           d="M 0,0 H 0.921"
           style="fill:none;stroke:#918f90;stroke-width:0.886;stroke-linecap:butt;stroke-linejoin:miter;stroke-miterlimit:1;stroke-dasharray:none;stroke-opacity:1"
           transform="matrix(1.3333333,0,0,-1.3333333,130.076,198.87733)" />
        <path
           id="path800"
           d="M 0,0 H 0.921"
           style="fill:none;stroke:#918f90;stroke-width:0.886;stroke-linecap:butt;stroke-linejoin:miter;stroke-miterlimit:1;stroke-dasharray:none;stroke-opacity:1"
           transform="matrix(1.3333333,0,0,-1.3333333,132.48667,198.87733)" />
        <path
           id="path801"
           d="M 0,0 H 0.887"
           style="fill:none;stroke:#918f90;stroke-width:0.886;stroke-linecap:butt;stroke-linejoin:miter;stroke-miterlimit:1;stroke-dasharray:none;stroke-opacity:1"
           transform="matrix(1.3333333,0,0,-1.3333333,134.94267,198.87733)" />
        <path
           id="path802"
           d="M 0,0 H 0.921"
           style="fill:none;stroke:#918f90;stroke-width:0.886;stroke-linecap:butt;stroke-linejoin:miter;stroke-miterlimit:1;stroke-dasharray:none;stroke-opacity:1"
           transform="matrix(1.3333333,0,0,-1.3333333,137.35333,198.87733)" />
        <path
           id="path803"
           d="M 0,0 H 0.921"
           style="fill:none;stroke:#918f90;stroke-width:0.886;stroke-linecap:butt;stroke-linejoin:miter;stroke-miterlimit:1;stroke-dasharray:none;stroke-opacity:1"
           transform="matrix(1.3333333,0,0,-1.3333333,139.764,198.87733)" />
        <path
           id="path804"
           d="M 0,0 H 0.887"
           style="fill:none;stroke:#918f90;stroke-width:0.886;stroke-linecap:butt;stroke-linejoin:miter;stroke-miterlimit:1;stroke-dasharray:none;stroke-opacity:1"
           transform="matrix(1.3333333,0,0,-1.3333333,142.22,198.87733)" />
        <path
           id="path805"
           d="M 0,0 H 0.921"
           style="fill:none;stroke:#918f90;stroke-width:0.886;stroke-linecap:butt;stroke-linejoin:miter;stroke-miterlimit:1;stroke-dasharray:none;stroke-opacity:1"
           transform="matrix(1.3333333,0,0,-1.3333333,144.63067,198.87733)" />
        <path
           id="path806"
           d="M 0,0 H 0.921"
           style="fill:none;stroke:#918f90;stroke-width:0.886;stroke-linecap:butt;stroke-linejoin:miter;stroke-miterlimit:1;stroke-dasharray:none;stroke-opacity:1"
           transform="matrix(1.3333333,0,0,-1.3333333,147.04133,198.87733)" />
        <path
           id="path807"
           d="M 0,0 H 0.887"
           style="fill:none;stroke:#918f90;stroke-width:0.886;stroke-linecap:butt;stroke-linejoin:miter;stroke-miterlimit:1;stroke-dasharray:none;stroke-opacity:1"
           transform="matrix(1.3333333,0,0,-1.3333333,149.49733,198.87733)" />
        <path
           id="path808"
           d="M 0,0 H 0.921"
           style="fill:none;stroke:#918f90;stroke-width:0.886;stroke-linecap:butt;stroke-linejoin:miter;stroke-miterlimit:1;stroke-dasharray:none;stroke-opacity:1"
           transform="matrix(1.3333333,0,0,-1.3333333,151.908,198.87733)" />
        <path
           id="path809"
           d="M 0,0 H 0.921"
           style="fill:none;stroke:#918f90;stroke-width:0.886;stroke-linecap:butt;stroke-linejoin:miter;stroke-miterlimit:1;stroke-dasharray:none;stroke-opacity:1"
           transform="matrix(1.3333333,0,0,-1.3333333,154.31867,198.87733)" />
        <path
           id="path810"
           d="M 0,0 H 0.887"
           style="fill:none;stroke:#918f90;stroke-width:0.886;stroke-linecap:butt;stroke-linejoin:miter;stroke-miterlimit:1;stroke-dasharray:none;stroke-opacity:1"
           transform="matrix(1.3333333,0,0,-1.3333333,156.77467,198.87733)" />
        <path
           id="path811"
           d="M 0,0 H 0.921"
           style="fill:none;stroke:#918f90;stroke-width:0.886;stroke-linecap:butt;stroke-linejoin:miter;stroke-miterlimit:1;stroke-dasharray:none;stroke-opacity:1"
           transform="matrix(1.3333333,0,0,-1.3333333,159.18533,198.87733)" />
        <path
           id="path812"
           d="M 0,0 H 0.921"
           style="fill:none;stroke:#918f90;stroke-width:0.886;stroke-linecap:butt;stroke-linejoin:miter;stroke-miterlimit:1;stroke-dasharray:none;stroke-opacity:1"
           transform="matrix(1.3333333,0,0,-1.3333333,161.596,198.87733)" />
        <path
           id="path813"
           d="M 0,0 H 0.887"
           style="fill:none;stroke:#918f90;stroke-width:0.886;stroke-linecap:butt;stroke-linejoin:miter;stroke-miterlimit:1;stroke-dasharray:none;stroke-opacity:1"
           transform="matrix(1.3333333,0,0,-1.3333333,164.052,198.87733)" />
        <path
           id="path814"
           d="M 0,0 H 0.921"
           style="fill:none;stroke:#918f90;stroke-width:0.886;stroke-linecap:butt;stroke-linejoin:miter;stroke-miterlimit:1;stroke-dasharray:none;stroke-opacity:1"
           transform="matrix(1.3333333,0,0,-1.3333333,166.46267,198.87733)" />
        <path
           id="path815"
           d="M 0,0 H 0.921"
           style="fill:none;stroke:#918f90;stroke-width:0.886;stroke-linecap:butt;stroke-linejoin:miter;stroke-miterlimit:1;stroke-dasharray:none;stroke-opacity:1"
           transform="matrix(1.3333333,0,0,-1.3333333,168.87333,198.87733)" />
        <path
           id="path816"
           d="M 0,0 H 0.887"
           style="fill:none;stroke:#918f90;stroke-width:0.886;stroke-linecap:butt;stroke-linejoin:miter;stroke-miterlimit:1;stroke-dasharray:none;stroke-opacity:1"
           transform="matrix(1.3333333,0,0,-1.3333333,171.32933,198.87733)" />
        <path
           id="path817"
           d="M 0,0 H 0.921"
           style="fill:none;stroke:#918f90;stroke-width:0.886;stroke-linecap:butt;stroke-linejoin:miter;stroke-miterlimit:1;stroke-dasharray:none;stroke-opacity:1"
           transform="matrix(1.3333333,0,0,-1.3333333,173.74,198.87733)" />
        <path
           id="path818"
           d="M 0,0 H 0.921"
           style="fill:none;stroke:#918f90;stroke-width:0.886;stroke-linecap:butt;stroke-linejoin:miter;stroke-miterlimit:1;stroke-dasharray:none;stroke-opacity:1"
           transform="matrix(1.3333333,0,0,-1.3333333,176.15067,198.87733)" />
        <path
           id="path819"
           d="M 0,0 H 0.887"
           style="fill:none;stroke:#918f90;stroke-width:0.886;stroke-linecap:butt;stroke-linejoin:miter;stroke-miterlimit:1;stroke-dasharray:none;stroke-opacity:1"
           transform="matrix(1.3333333,0,0,-1.3333333,178.60667,198.87733)" />
        <path
           id="path820"
           d="M 0,0 H 0.921"
           style="fill:none;stroke:#918f90;stroke-width:0.886;stroke-linecap:butt;stroke-linejoin:miter;stroke-miterlimit:1;stroke-dasharray:none;stroke-opacity:1"
           transform="matrix(1.3333333,0,0,-1.3333333,181.01733,198.87733)" />
        <path
           id="path821"
           d="M 0,0 H 0.921"
           style="fill:none;stroke:#918f90;stroke-width:0.886;stroke-linecap:butt;stroke-linejoin:miter;stroke-miterlimit:1;stroke-dasharray:none;stroke-opacity:1"
           transform="matrix(1.3333333,0,0,-1.3333333,183.428,198.87733)" />
        <path
           id="path822"
           d="M 0,0 H 0.887"
           style="fill:none;stroke:#918f90;stroke-width:0.886;stroke-linecap:butt;stroke-linejoin:miter;stroke-miterlimit:1;stroke-dasharray:none;stroke-opacity:1"
           transform="matrix(1.3333333,0,0,-1.3333333,185.884,198.87733)" />
        <path
           id="path823"
           d="M 0,0 H 0.921"
           style="fill:none;stroke:#918f90;stroke-width:0.886;stroke-linecap:butt;stroke-linejoin:miter;stroke-miterlimit:1;stroke-dasharray:none;stroke-opacity:1"
           transform="matrix(1.3333333,0,0,-1.3333333,188.29467,198.87733)" />
        <path
           id="path824"
           d="M 0,0 H 0.921"
           style="fill:none;stroke:#918f90;stroke-width:0.886;stroke-linecap:butt;stroke-linejoin:miter;stroke-miterlimit:1;stroke-dasharray:none;stroke-opacity:1"
           transform="matrix(1.3333333,0,0,-1.3333333,190.70533,198.87733)" />
        <path
           id="path825"
           d="M 0,0 H 0.887"
           style="fill:none;stroke:#918f90;stroke-width:0.886;stroke-linecap:butt;stroke-linejoin:miter;stroke-miterlimit:1;stroke-dasharray:none;stroke-opacity:1"
           transform="matrix(1.3333333,0,0,-1.3333333,193.16133,198.87733)" />
        <path
           id="path826"
           d="M 0,0 H 0.921"
           style="fill:none;stroke:#918f90;stroke-width:0.886;stroke-linecap:butt;stroke-linejoin:miter;stroke-miterlimit:1;stroke-dasharray:none;stroke-opacity:1"
           transform="matrix(1.3333333,0,0,-1.3333333,195.572,198.87733)" />
        <path
           id="path827"
           d="M 0,0 H 0.921"
           style="fill:none;stroke:#918f90;stroke-width:0.886;stroke-linecap:butt;stroke-linejoin:miter;stroke-miterlimit:1;stroke-dasharray:none;stroke-opacity:1"
           transform="matrix(1.3333333,0,0,-1.3333333,197.98267,198.87733)" />
        <path
           id="path828"
           d="M 0,0 H 0.887"
           style="fill:none;stroke:#918f90;stroke-width:0.886;stroke-linecap:butt;stroke-linejoin:miter;stroke-miterlimit:1;stroke-dasharray:none;stroke-opacity:1"
           transform="matrix(1.3333333,0,0,-1.3333333,200.43867,198.87733)" />
        <path
           id="path829"
           d="M 0,0 H 0.921"
           style="fill:none;stroke:#918f90;stroke-width:0.886;stroke-linecap:butt;stroke-linejoin:miter;stroke-miterlimit:1;stroke-dasharray:none;stroke-opacity:1"
           transform="matrix(1.3333333,0,0,-1.3333333,202.84933,198.87733)" />
        <path
           id="path830"
           d="M 0,0 H 0.921"
           style="fill:none;stroke:#918f90;stroke-width:0.886;stroke-linecap:butt;stroke-linejoin:miter;stroke-miterlimit:1;stroke-dasharray:none;stroke-opacity:1"
           transform="matrix(1.3333333,0,0,-1.3333333,205.26,198.87733)" />
        <path
           id="path831"
           d="M 0,0 H 0.887"
           style="fill:none;stroke:#918f90;stroke-width:0.886;stroke-linecap:butt;stroke-linejoin:miter;stroke-miterlimit:1;stroke-dasharray:none;stroke-opacity:1"
           transform="matrix(1.3333333,0,0,-1.3333333,207.716,198.87733)" />
        <path
           id="path832"
           d="M 0,0 H 0.921"
           style="fill:none;stroke:#918f90;stroke-width:0.886;stroke-linecap:butt;stroke-linejoin:miter;stroke-miterlimit:1;stroke-dasharray:none;stroke-opacity:1"
           transform="matrix(1.3333333,0,0,-1.3333333,210.12667,198.87733)" />
        <path
           id="path833"
           d="M 0,0 H 0.921"
           style="fill:none;stroke:#918f90;stroke-width:0.886;stroke-linecap:butt;stroke-linejoin:miter;stroke-miterlimit:1;stroke-dasharray:none;stroke-opacity:1"
           transform="matrix(1.3333333,0,0,-1.3333333,212.53733,198.87733)" />
        <path
           id="path834"
           d="M 0,0 H 0.886"
           style="fill:none;stroke:#918f90;stroke-width:0.886;stroke-linecap:butt;stroke-linejoin:miter;stroke-miterlimit:1;stroke-dasharray:none;stroke-opacity:1"
           transform="matrix(1.3333333,0,0,-1.3333333,214.99333,198.87733)" />
        <path
           id="path835"
           d="M 0,0 H 0.921"
           style="fill:none;stroke:#918f90;stroke-width:0.886;stroke-linecap:butt;stroke-linejoin:miter;stroke-miterlimit:1;stroke-dasharray:none;stroke-opacity:1"
           transform="matrix(1.3333333,0,0,-1.3333333,217.40267,198.87733)" />
        <path
           id="path836"
           d="M 0,0 H 0.921"
           style="fill:none;stroke:#918f90;stroke-width:0.886;stroke-linecap:butt;stroke-linejoin:miter;stroke-miterlimit:1;stroke-dasharray:none;stroke-opacity:1"
           transform="matrix(1.3333333,0,0,-1.3333333,219.81333,198.87733)" />
        <path
           id="path837"
           d="M 0,0 H 0.887"
           style="fill:none;stroke:#918f90;stroke-width:0.886;stroke-linecap:butt;stroke-linejoin:miter;stroke-miterlimit:1;stroke-dasharray:none;stroke-opacity:1"
           transform="matrix(1.3333333,0,0,-1.3333333,222.26933,198.87733)" />
        <path
           id="path838"
           d="M 0,0 H 0.921"
           style="fill:none;stroke:#918f90;stroke-width:0.886;stroke-linecap:butt;stroke-linejoin:miter;stroke-miterlimit:1;stroke-dasharray:none;stroke-opacity:1"
           transform="matrix(1.3333333,0,0,-1.3333333,224.68,198.87733)" />
        <path
           id="path839"
           d="M 0,0 H 0.921"
           style="fill:none;stroke:#918f90;stroke-width:0.886;stroke-linecap:butt;stroke-linejoin:miter;stroke-miterlimit:1;stroke-dasharray:none;stroke-opacity:1"
           transform="matrix(1.3333333,0,0,-1.3333333,227.09067,198.87733)" />
        <path
           id="path840"
           d="M 0,0 H 0.886"
           style="fill:none;stroke:#918f90;stroke-width:0.886;stroke-linecap:butt;stroke-linejoin:miter;stroke-miterlimit:1;stroke-dasharray:none;stroke-opacity:1"
           transform="matrix(1.3333333,0,0,-1.3333333,229.54667,198.87733)" />
        <path
           id="path841"
           d="M 0,0 H 0.921"
           style="fill:none;stroke:#918f90;stroke-width:0.886;stroke-linecap:butt;stroke-linejoin:miter;stroke-miterlimit:1;stroke-dasharray:none;stroke-opacity:1"
           transform="matrix(1.3333333,0,0,-1.3333333,231.956,198.87733)" />
        <path
           id="path842"
           d="M 0,0 H 0.921"
           style="fill:none;stroke:#918f90;stroke-width:0.886;stroke-linecap:butt;stroke-linejoin:miter;stroke-miterlimit:1;stroke-dasharray:none;stroke-opacity:1"
           transform="matrix(1.3333333,0,0,-1.3333333,234.36667,198.87733)" />
        <path
           id="path843"
           d="M 0,0 H 0.887"
           style="fill:none;stroke:#918f90;stroke-width:0.886;stroke-linecap:butt;stroke-linejoin:miter;stroke-miterlimit:1;stroke-dasharray:none;stroke-opacity:1"
           transform="matrix(1.3333333,0,0,-1.3333333,236.82267,198.87733)" />
        <path
           id="path844"
           d="M 0,0 H 0.921"
           style="fill:none;stroke:#918f90;stroke-width:0.886;stroke-linecap:butt;stroke-linejoin:miter;stroke-miterlimit:1;stroke-dasharray:none;stroke-opacity:1"
           transform="matrix(1.3333333,0,0,-1.3333333,239.23333,198.87733)" />
        <path
           id="path845"
           d="M 0,0 H 0.921"
           style="fill:none;stroke:#918f90;stroke-width:0.886;stroke-linecap:butt;stroke-linejoin:miter;stroke-miterlimit:1;stroke-dasharray:none;stroke-opacity:1"
           transform="matrix(1.3333333,0,0,-1.3333333,241.644,198.87733)" />
        <path
           id="path846"
           d="M 0,0 H 0.886"
           style="fill:none;stroke:#918f90;stroke-width:0.886;stroke-linecap:butt;stroke-linejoin:miter;stroke-miterlimit:1;stroke-dasharray:none;stroke-opacity:1"
           transform="matrix(1.3333333,0,0,-1.3333333,244.1,198.87733)" />
        <path
           id="path847"
           d="M 0,0 H 0.921"
           style="fill:none;stroke:#918f90;stroke-width:0.886;stroke-linecap:butt;stroke-linejoin:miter;stroke-miterlimit:1;stroke-dasharray:none;stroke-opacity:1"
           transform="matrix(1.3333333,0,0,-1.3333333,246.50933,198.87733)" />
        <path
           id="path848"
           d="M 0,0 H 0.921"
           style="fill:none;stroke:#918f90;stroke-width:0.886;stroke-linecap:butt;stroke-linejoin:miter;stroke-miterlimit:1;stroke-dasharray:none;stroke-opacity:1"
           transform="matrix(1.3333333,0,0,-1.3333333,248.92,198.87733)" />
        <path
           id="path849"
           d="M 0,0 H 0.887"
           style="fill:none;stroke:#918f90;stroke-width:0.886;stroke-linecap:butt;stroke-linejoin:miter;stroke-miterlimit:1;stroke-dasharray:none;stroke-opacity:1"
           transform="matrix(1.3333333,0,0,-1.3333333,251.376,198.87733)" />
        <path
           id="path850"
           d="M 0,0 H 0.921"
           style="fill:none;stroke:#918f90;stroke-width:0.886;stroke-linecap:butt;stroke-linejoin:miter;stroke-miterlimit:1;stroke-dasharray:none;stroke-opacity:1"
           transform="matrix(1.3333333,0,0,-1.3333333,253.78667,198.87733)" />
        <path
           id="path851"
           d="m 0,0 c 0,-0.954 -0.784,-1.703 -1.739,-1.703 -0.921,0 -1.706,0.749 -1.706,1.703 0,0.954 0.785,1.703 1.706,1.703 C -0.784,1.703 0,0.954 0,0 Z"
           style="fill:none;stroke:#231f20;stroke-width:0.477;stroke-linecap:butt;stroke-linejoin:miter;stroke-miterlimit:1;stroke-dasharray:none;stroke-opacity:1"
           transform="matrix(1.3333333,0,0,-1.3333333,117.64933,186.616)" />
        <path
           id="path852"
           d="m 0,0 c 0,-0.954 -0.784,-1.703 -1.74,-1.703 -0.92,0 -1.705,0.749 -1.705,1.703 0,0.954 0.785,1.703 1.705,1.703 C -0.784,1.703 0,0.954 0,0 Z"
           style="fill:none;stroke:#231f20;stroke-width:0.477;stroke-linecap:butt;stroke-linejoin:miter;stroke-miterlimit:1;stroke-dasharray:none;stroke-opacity:1"
           transform="matrix(1.3333333,0,0,-1.3333333,121.288,184.436)" />
        <path
           id="path853"
           d="m 0,0 c 0,-0.954 -0.75,-1.703 -1.705,-1.703 -0.955,0 -1.706,0.749 -1.706,1.703 0,0.954 0.751,1.703 1.706,1.703 C -0.75,1.703 0,0.954 0,0"
           style="fill:#231f20;fill-opacity:1;fill-rule:nonzero;stroke:none"
           transform="matrix(1.3333333,0,0,-1.3333333,121.788,195.33467)" />
        <path
           id="path854"
           d="m 0,0 c 0,-0.954 -0.785,-1.703 -1.705,-1.703 -0.955,0 -1.74,0.749 -1.74,1.703 0,0.954 0.785,1.703 1.74,1.703 C -0.785,1.703 0,0.954 0,0 Z"
           style="fill:none;stroke:#231f20;stroke-width:0.477;stroke-linecap:butt;stroke-linejoin:miter;stroke-miterlimit:1;stroke-dasharray:none;stroke-opacity:1"
           transform="matrix(1.3333333,0,0,-1.3333333,122.83467,182.256)" />
        <path
           id="path855"
           d="m 0,0 c 0,-0.954 -0.784,-1.703 -1.739,-1.703 -0.921,0 -1.706,0.749 -1.706,1.703 0,0.954 0.785,1.703 1.706,1.703 C -0.784,1.703 0,0.954 0,0 Z"
           style="fill:none;stroke:#231f20;stroke-width:0.477;stroke-linecap:butt;stroke-linejoin:miter;stroke-miterlimit:1;stroke-dasharray:none;stroke-opacity:1"
           transform="matrix(1.3333333,0,0,-1.3333333,123.88,185.16267)" />
        <path
           id="path856"
           d="m 0,0 c 0,-0.954 -0.75,-1.703 -1.705,-1.703 -0.955,0 -1.706,0.749 -1.706,1.703 0,0.954 0.751,1.703 1.706,1.703 C -0.75,1.703 0,0.954 0,0"
           style="fill:#231f20;fill-opacity:1;fill-rule:nonzero;stroke:none"
           transform="matrix(1.3333333,0,0,-1.3333333,125.92667,192.428)" />
        <path
           id="path857"
           d="m 0,0 c 0,-0.954 -0.785,-1.703 -1.739,-1.703 -0.921,0 -1.706,0.749 -1.706,1.703 0,0.954 0.785,1.703 1.706,1.703 C -0.785,1.703 0,0.954 0,0 Z"
           style="fill:none;stroke:#231f20;stroke-width:0.477;stroke-linecap:butt;stroke-linejoin:miter;stroke-miterlimit:1;stroke-dasharray:none;stroke-opacity:1"
           transform="matrix(1.3333333,0,0,-1.3333333,127.51867,181.52933)" />
        <path
           id="path858"
           d="m 0,0 c 0,-0.954 -0.75,-1.703 -1.705,-1.703 -0.956,0 -1.706,0.749 -1.706,1.703 0,0.954 0.75,1.703 1.706,1.703 C -0.75,1.703 0,0.954 0,0"
           style="fill:#231f20;fill-opacity:1;fill-rule:nonzero;stroke:none"
           transform="matrix(1.3333333,0,0,-1.3333333,128.01867,192.428)" />
        <path
           id="path859"
           d="m 0,0 c 0,-0.954 -0.75,-1.703 -1.705,-1.703 -0.956,0 -1.706,0.749 -1.706,1.703 0,0.954 0.75,1.703 1.706,1.703 C -0.75,1.703 0,0.954 0,0"
           style="fill:#231f20;fill-opacity:1;fill-rule:nonzero;stroke:#231f20;stroke-width:0.477;stroke-linecap:butt;stroke-linejoin:miter;stroke-miterlimit:1;stroke-dasharray:none;stroke-opacity:1"
           transform="matrix(1.3333333,0,0,-1.3333333,128.01867,190.97467)" />
        <path
           id="path860"
           d="m 0,0 c 0,-0.954 -0.75,-1.703 -1.705,-1.703 -0.955,0 -1.706,0.749 -1.706,1.703 0,0.954 0.751,1.703 1.706,1.703 C -0.75,1.703 0,0.954 0,0 Z"
           style="fill:none;stroke:#231f20;stroke-width:0.477;stroke-linecap:butt;stroke-linejoin:miter;stroke-miterlimit:1;stroke-dasharray:none;stroke-opacity:1"
           transform="matrix(1.3333333,0,0,-1.3333333,130.612,178.62267)" />
        <path
           id="path861"
           d="m 0,0 c 0,-0.954 -0.785,-1.703 -1.705,-1.703 -0.955,0 -1.74,0.749 -1.74,1.703 0,0.954 0.785,1.703 1.74,1.703 C -0.785,1.703 0,0.954 0,0"
           style="fill:#231f20;fill-opacity:1;fill-rule:nonzero;stroke:none"
           transform="matrix(1.3333333,0,0,-1.3333333,133.74933,190.248)" />
        <path
           id="path862"
           d="m 0,0 c 0,-0.954 -0.784,-1.703 -1.74,-1.703 -0.921,0 -1.705,0.749 -1.705,1.703 0,0.954 0.784,1.703 1.705,1.703 C -0.784,1.703 0,0.954 0,0 Z"
           style="fill:none;stroke:#231f20;stroke-width:0.477;stroke-linecap:butt;stroke-linejoin:miter;stroke-miterlimit:1;stroke-dasharray:none;stroke-opacity:1"
           transform="matrix(1.3333333,0,0,-1.3333333,134.796,177.16933)" />
        <path
           id="path863"
           d="m 0,0 c 0,-0.954 -0.785,-1.703 -1.705,-1.703 -0.956,0 -1.74,0.749 -1.74,1.703 0,0.954 0.784,1.703 1.74,1.703 C -0.785,1.703 0,0.954 0,0 Z"
           style="fill:none;stroke:#231f20;stroke-width:0.477;stroke-linecap:butt;stroke-linejoin:miter;stroke-miterlimit:1;stroke-dasharray:none;stroke-opacity:1"
           transform="matrix(1.3333333,0,0,-1.3333333,137.388,179.34933)" />
        <path
           id="path864"
           d="m 0,0 c 0,-0.954 -0.75,-1.703 -1.705,-1.703 -0.956,0 -1.706,0.749 -1.706,1.703 0,0.954 0.75,1.703 1.706,1.703 C -0.75,1.703 0,0.954 0,0"
           style="fill:#231f20;fill-opacity:1;fill-rule:nonzero;stroke:none"
           transform="matrix(1.3333333,0,0,-1.3333333,138.93467,188.79467)" />
        <path
           id="path865"
           d="m 0,0 c 0,-0.954 -0.75,-1.703 -1.705,-1.703 -0.955,0 -1.706,0.749 -1.706,1.703 0,0.954 0.751,1.703 1.706,1.703 C -0.75,1.703 0,0.954 0,0 Z"
           style="fill:none;stroke:#231f20;stroke-width:0.477;stroke-linecap:butt;stroke-linejoin:miter;stroke-miterlimit:1;stroke-dasharray:none;stroke-opacity:1"
           transform="matrix(1.3333333,0,0,-1.3333333,140.48,176.444)" />
        <path
           id="path866"
           d="m 0,0 c 0,-0.954 -0.75,-1.703 -1.705,-1.703 -0.955,0 -1.706,0.749 -1.706,1.703 0,0.954 0.751,1.703 1.706,1.703 C -0.75,1.703 0,0.954 0,0"
           style="fill:#231f20;fill-opacity:1;fill-rule:nonzero;stroke:none"
           transform="matrix(1.3333333,0,0,-1.3333333,142.572,193.88133)" />
        <path
           id="path867"
           d="m 0,0 c 0,-0.954 -0.784,-1.703 -1.74,-1.703 -0.92,0 -1.705,0.749 -1.705,1.703 0,0.954 0.785,1.703 1.705,1.703 C -0.784,1.703 0,0.954 0,0"
           style="fill:#231f20;fill-opacity:1;fill-rule:nonzero;stroke:#231f20;stroke-width:0.477;stroke-linecap:butt;stroke-linejoin:miter;stroke-miterlimit:1;stroke-dasharray:none;stroke-opacity:1"
           transform="matrix(1.3333333,0,0,-1.3333333,145.71067,185.16267)" />
        <path
           id="path868"
           d="m 0,0 c 0,-0.954 -0.75,-1.703 -1.705,-1.703 -0.956,0 -1.706,0.749 -1.706,1.703 0,0.954 0.75,1.703 1.706,1.703 C -0.75,1.703 0,0.954 0,0"
           style="fill:#231f20;fill-opacity:1;fill-rule:nonzero;stroke:none"
           transform="matrix(1.3333333,0,0,-1.3333333,149.84933,193.88133)" />
        <path
           id="path869"
           d="m 0,0 c 0,-0.954 -0.75,-1.703 -1.705,-1.703 -0.955,0 -1.706,0.749 -1.706,1.703 0,0.954 0.751,1.703 1.706,1.703 C -0.75,1.703 0,0.954 0,0"
           style="fill:#231f20;fill-opacity:1;fill-rule:nonzero;stroke:none"
           transform="matrix(1.3333333,0,0,-1.3333333,150.89467,196.78667)" />
        <path
           id="path870"
           d="m 0,0 c 0,-0.954 -0.785,-1.703 -1.74,-1.703 -0.92,0 -1.705,0.749 -1.705,1.703 0,0.954 0.785,1.703 1.705,1.703 C -0.785,1.703 0,0.954 0,0"
           style="fill:#231f20;fill-opacity:1;fill-rule:nonzero;stroke:none"
           transform="matrix(1.3333333,0,0,-1.3333333,152.98667,183.70933)" />
        <path
           id="path871"
           d="m 0,0 c 0,-0.954 -0.75,-1.703 -1.705,-1.703 -0.956,0 -1.706,0.749 -1.706,1.703 0,0.954 0.75,1.703 1.706,1.703 C -0.75,1.703 0,0.954 0,0 Z"
           style="fill:none;stroke:#231f20;stroke-width:0.477;stroke-linecap:butt;stroke-linejoin:miter;stroke-miterlimit:1;stroke-dasharray:none;stroke-opacity:1"
           transform="matrix(1.3333333,0,0,-1.3333333,153.488,177.16933)" />
        <path
           id="path872"
           d="m 0,0 c 0,-0.954 -0.75,-1.703 -1.706,-1.703 -0.955,0 -1.705,0.749 -1.705,1.703 0,0.954 0.75,1.703 1.705,1.703 C -0.75,1.703 0,0.954 0,0 Z"
           style="fill:none;stroke:#231f20;stroke-width:0.477;stroke-linecap:butt;stroke-linejoin:miter;stroke-miterlimit:1;stroke-dasharray:none;stroke-opacity:1"
           transform="matrix(1.3333333,0,0,-1.3333333,155.03467,177.896)" />
        <path
           id="path873"
           d="m 0,0 c 0,-0.954 -0.75,-1.703 -1.705,-1.703 -0.955,0 -1.706,0.749 -1.706,1.703 0,0.954 0.751,1.703 1.706,1.703 C -0.75,1.703 0,0.954 0,0 Z"
           style="fill:none;stroke:#231f20;stroke-width:0.477;stroke-linecap:butt;stroke-linejoin:miter;stroke-miterlimit:1;stroke-dasharray:none;stroke-opacity:1"
           transform="matrix(1.3333333,0,0,-1.3333333,158.17333,173.536)" />
        <path
           id="path874"
           d="m 0,0 c 0,-0.954 -0.75,-1.703 -1.705,-1.703 -0.956,0 -1.706,0.749 -1.706,1.703 0,0.954 0.75,1.703 1.706,1.703 C -0.75,1.703 0,0.954 0,0"
           style="fill:#231f20;fill-opacity:1;fill-rule:nonzero;stroke:none"
           transform="matrix(1.3333333,0,0,-1.3333333,158.672,188.79467)" />
        <path
           id="path875"
           d="m 0,0 c 0,-0.954 -0.785,-1.703 -1.74,-1.703 -0.921,0 -1.705,0.749 -1.705,1.703 0,0.954 0.784,1.703 1.705,1.703 C -0.785,1.703 0,0.954 0,0"
           style="fill:#231f20;fill-opacity:1;fill-rule:nonzero;stroke:none"
           transform="matrix(1.3333333,0,0,-1.3333333,163.90267,191.70133)" />
        <path
           id="path876"
           d="m 0,0 c 0,-0.954 -0.75,-1.703 -1.705,-1.703 -0.955,0 -1.706,0.749 -1.706,1.703 0,0.954 0.751,1.703 1.706,1.703 C -0.75,1.703 0,0.954 0,0 Z"
           style="fill:none;stroke:#231f20;stroke-width:0.477;stroke-linecap:butt;stroke-linejoin:miter;stroke-miterlimit:1;stroke-dasharray:none;stroke-opacity:1"
           transform="matrix(1.3333333,0,0,-1.3333333,165.448,176.44267)" />
        <path
           id="path877"
           d="m 0,0 c 0,-0.954 -0.785,-1.703 -1.705,-1.703 -0.956,0 -1.74,0.749 -1.74,1.703 0,0.954 0.784,1.703 1.74,1.703 C -0.785,1.703 0,0.954 0,0 Z"
           style="fill:none;stroke:#231f20;stroke-width:0.477;stroke-linecap:butt;stroke-linejoin:miter;stroke-miterlimit:1;stroke-dasharray:none;stroke-opacity:1"
           transform="matrix(1.3333333,0,0,-1.3333333,170.132,178.62267)" />
        <path
           id="path878"
           d="m 0,0 c 0,-0.954 -0.75,-1.703 -1.705,-1.703 -0.956,0 -1.706,0.749 -1.706,1.703 0,0.954 0.75,1.703 1.706,1.703 C -0.75,1.703 0,0.954 0,0"
           style="fill:#231f20;fill-opacity:1;fill-rule:nonzero;stroke:none"
           transform="matrix(1.3333333,0,0,-1.3333333,176.364,188.79467)" />
        <path
           id="path879"
           d="m 0,0 c 0,-0.954 -0.75,-1.703 -1.705,-1.703 -0.955,0 -1.706,0.749 -1.706,1.703 0,0.954 0.751,1.703 1.706,1.703 C -0.75,1.703 0,0.954 0,0"
           style="fill:#231f20;fill-opacity:1;fill-rule:nonzero;stroke:#231f20;stroke-width:0.477;stroke-linecap:butt;stroke-linejoin:miter;stroke-miterlimit:1;stroke-dasharray:none;stroke-opacity:1"
           transform="matrix(1.3333333,0,0,-1.3333333,180.50267,185.888)" />
        <path
           id="path880"
           d="m 0,0 c 0,-0.954 -0.785,-1.703 -1.74,-1.703 -0.92,0 -1.705,0.749 -1.705,1.703 0,0.954 0.785,1.703 1.705,1.703 C -0.785,1.703 0,0.954 0,0 Z"
           style="fill:none;stroke:#231f20;stroke-width:0.477;stroke-linecap:butt;stroke-linejoin:miter;stroke-miterlimit:1;stroke-dasharray:none;stroke-opacity:1"
           transform="matrix(1.3333333,0,0,-1.3333333,185.732,177.16933)" />
        <path
           id="path881"
           d="m 0,0 c 0,-0.954 -0.785,-1.703 -1.705,-1.703 -0.955,0 -1.74,0.749 -1.74,1.703 0,0.954 0.785,1.703 1.74,1.703 C -0.785,1.703 0,0.954 0,0"
           style="fill:#231f20;fill-opacity:1;fill-rule:nonzero;stroke:none"
           transform="matrix(1.3333333,0,0,-1.3333333,191.96267,188.79467)" />
        <path
           id="path882"
           d="m 0,0 c 0,-0.954 -0.75,-1.703 -1.706,-1.703 -0.954,0 -1.705,0.749 -1.705,1.703 0,0.954 0.751,1.703 1.705,1.703 C -0.75,1.703 0,0.954 0,0"
           style="fill:#231f20;fill-opacity:1;fill-rule:nonzero;stroke:none"
           transform="matrix(1.3333333,0,0,-1.3333333,196.10133,191.70133)" />
        <path
           id="path883"
           d="m 0,0 c 0,-0.954 -0.75,-1.703 -1.705,-1.703 -0.955,0 -1.706,0.749 -1.706,1.703 0,0.954 0.751,1.703 1.706,1.703 C -0.75,1.703 0,0.954 0,0 Z"
           style="fill:none;stroke:#231f20;stroke-width:0.477;stroke-linecap:butt;stroke-linejoin:miter;stroke-miterlimit:1;stroke-dasharray:none;stroke-opacity:1"
           transform="matrix(1.3333333,0,0,-1.3333333,198.19333,172.80933)" />
        <path
           id="path884"
           d="m 0,0 c 0,-0.954 -0.75,-1.703 -1.705,-1.703 -0.955,0 -1.706,0.749 -1.706,1.703 0,0.954 0.751,1.703 1.706,1.703 C -0.75,1.703 0,0.954 0,0 Z"
           style="fill:none;stroke:#231f20;stroke-width:0.477;stroke-linecap:butt;stroke-linejoin:miter;stroke-miterlimit:1;stroke-dasharray:none;stroke-opacity:1"
           transform="matrix(1.3333333,0,0,-1.3333333,209.608,171.356)" />
        <path
           id="path885"
           d="m 0,0 c 0,-0.954 -0.751,-1.703 -1.706,-1.703 -0.955,0 -1.705,0.749 -1.705,1.703 0,0.954 0.75,1.703 1.705,1.703 C -0.751,1.703 0,0.954 0,0"
           style="fill:#231f20;fill-opacity:1;fill-rule:nonzero;stroke:none"
           transform="matrix(1.3333333,0,0,-1.3333333,221.57067,190.97467)" />
        <path
           id="path886"
           d="m 0,0 c 0,-0.954 -0.785,-1.703 -1.74,-1.703 -0.921,0 -1.705,0.749 -1.705,1.703 0,0.954 0.784,1.703 1.705,1.703 C -0.785,1.703 0,0.954 0,0 Z"
           style="fill:none;stroke:#231f20;stroke-width:0.477;stroke-linecap:butt;stroke-linejoin:miter;stroke-miterlimit:1;stroke-dasharray:none;stroke-opacity:1"
           transform="matrix(1.3333333,0,0,-1.3333333,234.076,166.27067)" />
        <path
           id="path887"
           d="M 0,0 H 107.314"
           style="fill:none;stroke:#918f90;stroke-width:0.443;stroke-linecap:butt;stroke-linejoin:miter;stroke-miterlimit:1;stroke-dasharray:none;stroke-opacity:1"
           transform="matrix(1.3333333,0,0,-1.3333333,113.42133,183.98133)" />
        <path
           id="path888"
           d="M 0,0 V -2.725"
           style="fill:none;stroke:#231f20;stroke-width:0.674;stroke-linecap:square;stroke-linejoin:miter;stroke-miterlimit:1;stroke-dasharray:none;stroke-opacity:1"
           transform="matrix(1.3333333,0,0,-1.3333333,110.96533,260.316)" />
        <path
           id="path889"
           d="M 0,0 V -2.725"
           style="fill:none;stroke:#231f20;stroke-width:0.674;stroke-linecap:square;stroke-linejoin:miter;stroke-miterlimit:1;stroke-dasharray:none;stroke-opacity:1"
           transform="matrix(1.3333333,0,0,-1.3333333,131.568,260.316)" />
        <path
           id="path890"
           d="M 0,0 V -2.725"
           style="fill:none;stroke:#231f20;stroke-width:0.674;stroke-linecap:square;stroke-linejoin:miter;stroke-miterlimit:1;stroke-dasharray:none;stroke-opacity:1"
           transform="matrix(1.3333333,0,0,-1.3333333,152.80667,260.316)" />
        <path
           id="path891"
           d="M 0,0 V -2.725"
           style="fill:none;stroke:#231f20;stroke-width:0.674;stroke-linecap:square;stroke-linejoin:miter;stroke-miterlimit:1;stroke-dasharray:none;stroke-opacity:1"
           transform="matrix(1.3333333,0,0,-1.3333333,173.408,260.316)" />
        <path
           id="path892"
           d="M 0,0 V -2.725"
           style="fill:none;stroke:#231f20;stroke-width:0.674;stroke-linecap:square;stroke-linejoin:miter;stroke-miterlimit:1;stroke-dasharray:none;stroke-opacity:1"
           transform="matrix(1.3333333,0,0,-1.3333333,194.056,260.316)" />
        <path
           id="path893"
           d="M 0,0 V -2.725"
           style="fill:none;stroke:#231f20;stroke-width:0.674;stroke-linecap:square;stroke-linejoin:miter;stroke-miterlimit:1;stroke-dasharray:none;stroke-opacity:1"
           transform="matrix(1.3333333,0,0,-1.3333333,214.65733,260.316)" />
        <path
           id="path894"
           d="M 0,0 V -2.725"
           style="fill:none;stroke:#231f20;stroke-width:0.674;stroke-linecap:square;stroke-linejoin:miter;stroke-miterlimit:1;stroke-dasharray:none;stroke-opacity:1"
           transform="matrix(1.3333333,0,0,-1.3333333,235.89733,260.316)" />
        <path
           id="path895"
           d="M 0,0 V -2.725"
           style="fill:none;stroke:#231f20;stroke-width:0.674;stroke-linecap:square;stroke-linejoin:miter;stroke-miterlimit:1;stroke-dasharray:none;stroke-opacity:1"
           transform="matrix(1.3333333,0,0,-1.3333333,256.49867,260.316)" />
        <path
           id="path896"
           d="M 192.379,587.9 H 83.222 v 108.752 h 109.157 z"
           style="fill:none;stroke:#231f20;stroke-width:0.67;stroke-linecap:butt;stroke-linejoin:miter;stroke-miterlimit:10;stroke-dasharray:none;stroke-opacity:1"
           transform="matrix(1.3333333,0,0,-1.3333333,0,1043.9813)" />
        <path
           id="path898"
           d="M 2.6130172,-5.0499344 H 2.2145797 c -0.1054688,0.2226563 -0.2929688,0.4453125 -0.5507813,0.6796875 -0.2578125,0.234375 -0.5625,0.421875 -0.90234371,0.5859375 v 0.5976563 c 0.1875,-0.070312 0.39843751,-0.1875 0.64453121,-0.3164063 0.2460938,-0.140625 0.4453125,-0.28125 0.5859375,-0.421875 V 8.46875e-4 h 0.6210938 z m 2.0888672,4.61718753 c 0.2695312,0.33984375 0.6445312,0.515625 1.1367187,0.515625 0.3632813,0 0.6679688,-0.09375 0.9140625,-0.29296875 0.234375,-0.19921875 0.421875,-0.48046875 0.5390625,-0.84374998 0.1171875,-0.3515625 0.1757813,-0.8320313 0.1757813,-1.4179688 0,-0.5039062 -0.035156,-0.9023437 -0.1054688,-1.1953125 -0.082031,-0.2929687 -0.1875,-0.5390625 -0.3164062,-0.75 -0.1289063,-0.1992187 -0.2929688,-0.3515625 -0.5039063,-0.46875 -0.1992187,-0.1054687 -0.4453125,-0.1640625 -0.703125,-0.1640625 -0.3632812,0 -0.6679687,0.1054688 -0.9140625,0.2929688 -0.2460937,0.1992187 -0.421875,0.4804687 -0.5390625,0.84375 -0.1171875,0.3632812 -0.1875,0.84375 -0.1875,1.4414062 0,0.9375 0.1757813,1.61718753 0.5039063,2.03906253 z M 5.1471969,-4.1710281 c 0.1640625,-0.2460938 0.3984375,-0.3632813 0.6796875,-0.3632813 0.2929687,0 0.5273437,0.1289063 0.7265625,0.4101563 0.1875,0.2695312 0.28125,0.8203125 0.28125,1.6523437 0,0.8203125 -0.09375,1.3710938 -0.28125,1.64062503 -0.1992188,0.28125 -0.4335938,0.41015625 -0.7148438,0.41015625 -0.28125,0 -0.5273437,-0.12890625 -0.7148437,-0.41015625 C 4.9245406,-1.1007156 4.8307906,-1.6514969 4.8307906,-2.4718094 c 0,-0.8320312 0.1054688,-1.3945312 0.3164063,-1.6992187 z M 4.4440719,8.6404953 C 4.2800094,8.8514328 4.1979781,9.1326828 4.1979781,9.4608078 c 0,0.4335938 0.1523438,0.7968752 0.4453125,1.0898442 0.3046875,0.304687 0.703125,0.445312 1.2070313,0.445312 0.4921875,0 0.890625,-0.140625 1.1953125,-0.433594 0.3046875,-0.292968 0.4570312,-0.6562497 0.4570312,-1.0898434 0,-0.3046875 -0.082031,-0.5742188 -0.2460937,-0.796875 C 7.1042281,8.4529953 6.8698531,8.2889328 6.5534469,8.1951828 c 0.2460937,-0.1054687 0.4453125,-0.234375 0.5625,-0.4101562 0.1171875,-0.1757813 0.1757812,-0.375 0.1757812,-0.609375 0,-0.3632813 -0.1289062,-0.6679688 -0.3984375,-0.9257813 C 6.6237594,5.9920578 6.2721969,5.8631516 5.8386031,5.8631516 c -0.4335937,0 -0.7851562,0.1289062 -1.0546875,0.375 -0.2578125,0.2578125 -0.3867187,0.5625 -0.3867187,0.9257812 0,0.2460938 0.058594,0.4453125 0.1875,0.6210938 C 4.7018844,7.9608078 4.8893844,8.0897141 5.1589156,8.1951828 4.8425094,8.2654953 4.6081344,8.4178391 4.4440719,8.6404953 Z M 5.2643844,6.6014328 c 0.1523437,-0.1523437 0.3515625,-0.234375 0.5859375,-0.234375 0.234375,0 0.421875,0.082031 0.5859375,0.234375 0.1523437,0.1523438 0.2226562,0.3515625 0.2226562,0.5742188 0,0.2109375 -0.070312,0.3984375 -0.2226562,0.5507812 -0.1523438,0.1523438 -0.3398438,0.2226563 -0.5859375,0.2226563 -0.2460938,0 -0.4453125,-0.070312 -0.5976563,-0.2226563 C 5.1003219,7.5740891 5.0300094,7.3748703 5.0300094,7.1404953 c 0,-0.2109375 0.070312,-0.3867187 0.234375,-0.5390625 z M 5.1003219,8.7459641 c 0.1992187,-0.1875 0.4453125,-0.2929688 0.7265625,-0.2929688 0.3046875,0 0.5507812,0.1054688 0.75,0.2929688 0.1875,0.1992187 0.2929687,0.4453125 0.2929687,0.7382812 0,0.2929688 -0.1054687,0.5273437 -0.2929687,0.7265627 -0.1875,0.1875 -0.4335938,0.28125 -0.7265625,0.28125 -0.1875,0 -0.3632813,-0.04687 -0.5390625,-0.128906 C 5.1589156,10.269402 5.0300094,10.140495 4.9479781,9.9764328 4.8659469,9.8123703 4.8190719,9.6483078 4.8190719,9.4725266 c 0,-0.2929688 0.09375,-0.5390625 0.28125,-0.7265625 z M 6.9518844,17.107292 C 6.6940719,16.896355 6.3776656,16.779167 5.9792281,16.779167 c -0.5273437,0 -0.9492187,0.1875 -1.265625,0.574219 -0.3632812,0.445312 -0.5390625,1.148437 -0.5390625,2.121094 0,0.878906 0.1640625,1.488281 0.4804688,1.875 0.328125,0.375 0.75,0.5625 1.265625,0.5625 0.3046875,0 0.5625,-0.07031 0.8085937,-0.210938 0.234375,-0.140625 0.421875,-0.351562 0.5625,-0.621094 0.1289063,-0.269531 0.1992188,-0.574218 0.1992188,-0.890625 0,-0.46875 -0.140625,-0.867187 -0.4335938,-1.171875 -0.2929687,-0.292968 -0.6445312,-0.457031 -1.0546875,-0.457031 -0.234375,0 -0.4570312,0.05859 -0.6679687,0.164063 -0.2226563,0.117187 -0.4101563,0.28125 -0.5507813,0.503906 0,-0.492188 0.058594,-0.890625 0.1757813,-1.148438 0.1054687,-0.28125 0.2695312,-0.480468 0.4570312,-0.632812 0.1523438,-0.105469 0.328125,-0.164063 0.5273438,-0.164063 0.2460937,0 0.4570312,0.09375 0.6210937,0.269532 0.09375,0.105468 0.1757813,0.28125 0.234375,0.527343 l 0.609375,-0.04687 C 7.3620406,17.634636 7.2096969,17.341667 6.9518844,17.107292 Z m -1.78125,2.308594 c 0.1992187,-0.199219 0.4335937,-0.304688 0.7148437,-0.304688 0.28125,0 0.515625,0.105469 0.703125,0.304688 0.1757813,0.199219 0.2695313,0.46875 0.2695313,0.820312 0,0.363282 -0.09375,0.644532 -0.28125,0.855469 -0.1757813,0.210938 -0.4101563,0.316406 -0.6679688,0.316406 -0.1875,0 -0.3515625,-0.04687 -0.515625,-0.152343 -0.1640625,-0.105469 -0.2929687,-0.246094 -0.375,-0.445313 -0.09375,-0.199219 -0.140625,-0.398437 -0.140625,-0.609375 0,-0.328125 0.1054688,-0.585937 0.2929688,-0.785156 z M 6.7878219,32.743034 V 31.547722 H 7.4675094 V 30.973503 H 6.7878219 V 27.715691 H 6.2839156 l -2.296875,3.257812 v 0.574219 h 2.1796875 v 1.195312 z M 4.5964156,30.973503 6.1667281,28.711784 v 2.261719 z m 0.3632813,12.09961 c 0.070312,-0.117188 0.1640625,-0.222657 0.2695312,-0.339844 0.1054688,-0.105469 0.3515625,-0.328125 0.7148438,-0.632813 0.4453125,-0.375 0.7617187,-0.667968 0.9492187,-0.878906 0.1875,-0.222656 0.328125,-0.421875 0.4101563,-0.621094 0.082031,-0.1875 0.1289062,-0.386718 0.1289062,-0.585937 0,-0.398438 -0.140625,-0.738281 -0.421875,-1.007813 -0.28125,-0.257812 -0.6679687,-0.398437 -1.1484375,-0.398437 -0.4804687,0 -0.8671875,0.128906 -1.1484375,0.375 -0.28125,0.246094 -0.4453125,0.609375 -0.4804687,1.078125 l 0.6210937,0.07031 c 0,-0.316406 0.09375,-0.5625 0.28125,-0.738281 0.1757813,-0.175781 0.4101563,-0.269531 0.7148438,-0.269531 0.28125,0 0.515625,0.08203 0.6914062,0.257812 0.1757813,0.164063 0.2578125,0.363282 0.2578125,0.609375 0,0.234375 -0.1054687,0.492188 -0.2929687,0.75 -0.1992188,0.257813 -0.5625,0.621094 -1.1015625,1.066407 -0.3515625,0.28125 -0.6210938,0.527343 -0.8085938,0.761718 -0.1875,0.210938 -0.328125,0.433594 -0.421875,0.65625 -0.046875,0.140625 -0.070312,0.28125 -0.070312,0.433594 h 3.328125 V 43.073113 Z M 4.7018844,54.138542 c 0.2695312,0.339844 0.6445312,0.515625 1.1367187,0.515625 0.3632813,0 0.6679688,-0.09375 0.9140625,-0.292969 0.234375,-0.199218 0.421875,-0.480468 0.5390625,-0.84375 0.1171875,-0.351562 0.1757813,-0.832031 0.1757813,-1.417968 0,-0.503907 -0.035156,-0.902344 -0.1054688,-1.195313 -0.082031,-0.292969 -0.1875,-0.539062 -0.3164062,-0.75 -0.1289063,-0.199219 -0.2929688,-0.351562 -0.5039063,-0.46875 -0.1992187,-0.105469 -0.4453125,-0.164062 -0.703125,-0.164062 -0.3632812,0 -0.6679687,0.105468 -0.9140625,0.292968 -0.2460937,0.199219 -0.421875,0.480469 -0.5390625,0.84375 -0.1171875,0.363282 -0.1875,0.84375 -0.1875,1.441407 0,0.9375 0.1757813,1.617187 0.5039063,2.039062 z m 0.4453125,-3.738281 c 0.1640625,-0.246094 0.3984375,-0.363281 0.6796875,-0.363281 0.2929687,0 0.5273437,0.128906 0.7265625,0.410156 0.1875,0.269531 0.28125,0.820312 0.28125,1.652344 0,0.820312 -0.09375,1.371093 -0.28125,1.640625 -0.1992188,0.28125 -0.4335938,0.410156 -0.7148438,0.410156 -0.28125,0 -0.5273437,-0.128906 -0.7148437,-0.410156 -0.1992188,-0.269532 -0.2929688,-0.820313 -0.2929688,-1.640625 0,-0.832032 0.1054688,-1.394532 0.3164063,-1.699219 z M 3.8786422,63.917839 v -0.503906 h -3.89062501 v 0.503906 z m 1.0810547,0.984375 c 0.070312,-0.117187 0.1640625,-0.222656 0.2695312,-0.339844 0.1054688,-0.105468 0.3515625,-0.328125 0.7148438,-0.632812 0.4453125,-0.375 0.7617187,-0.667969 0.9492187,-0.878906 0.1875,-0.222657 0.328125,-0.421875 0.4101563,-0.621094 0.082031,-0.1875 0.1289062,-0.386719 0.1289062,-0.585938 0,-0.398437 -0.140625,-0.738281 -0.421875,-1.007812 -0.28125,-0.257813 -0.6679687,-0.398438 -1.1484375,-0.398438 -0.4804687,0 -0.8671875,0.128907 -1.1484375,0.375 -0.28125,0.246094 -0.4453125,0.609375 -0.4804687,1.078125 l 0.6210937,0.07031 c 0,-0.316406 0.09375,-0.5625 0.28125,-0.738281 0.1757813,-0.175782 0.4101563,-0.269532 0.7148438,-0.269532 0.28125,0 0.515625,0.08203 0.6914062,0.257813 0.1757813,0.164062 0.2578125,0.363281 0.2578125,0.609375 0,0.234375 -0.1054687,0.492187 -0.2929687,0.75 -0.1992188,0.257812 -0.5625,0.621094 -1.1015625,1.066406 -0.3515625,0.28125 -0.6210938,0.527344 -0.8085938,0.761719 -0.1875,0.210937 -0.328125,0.433594 -0.421875,0.65625 -0.046875,0.140625 -0.070312,0.28125 -0.070312,0.433594 h 3.328125 v -0.585938 z m -1.0810547,9.928711 v -0.503906 h -3.89062501 v 0.503906 z m 2.9091797,1.570313 V 75.205925 H 7.4675094 V 74.631706 H 6.7878219 V 71.373894 H 6.2839156 l -2.296875,3.257812 v 0.574219 h 2.1796875 v 1.195313 z M 4.5964156,74.631706 6.1667281,72.369988 v 2.261718 z M 3.8786422,85.746941 v -0.503907 h -3.89062501 v 0.503907 z M 6.9518844,82.594597 C 6.6940719,82.383659 6.3776656,82.266472 5.9792281,82.266472 c -0.5273437,0 -0.9492187,0.1875 -1.265625,0.574219 -0.3632812,0.445312 -0.5390625,1.148437 -0.5390625,2.121093 0,0.878907 0.1640625,1.488282 0.4804688,1.875 0.328125,0.375 0.75,0.5625 1.265625,0.5625 0.3046875,0 0.5625,-0.07031 0.8085937,-0.210937 0.234375,-0.140625 0.421875,-0.351563 0.5625,-0.621094 0.1289063,-0.269531 0.1992188,-0.574219 0.1992188,-0.890625 0,-0.46875 -0.140625,-0.867187 -0.4335938,-1.171875 -0.2929687,-0.292969 -0.6445312,-0.457031 -1.0546875,-0.457031 -0.234375,0 -0.4570312,0.05859 -0.6679687,0.164062 -0.2226563,0.117188 -0.4101563,0.28125 -0.5507813,0.503907 0,-0.492188 0.058594,-0.890625 0.1757813,-1.148438 0.1054687,-0.28125 0.2695312,-0.480469 0.4570312,-0.632812 0.1523438,-0.105469 0.328125,-0.164063 0.5273438,-0.164063 0.2460937,0 0.4570312,0.09375 0.6210937,0.269531 0.09375,0.105469 0.1757813,0.28125 0.234375,0.527344 l 0.609375,-0.04687 C 7.3620406,83.121941 7.2096969,82.828972 6.9518844,82.594597 Z m -1.78125,2.308594 c 0.1992187,-0.199219 0.4335937,-0.304688 0.7148437,-0.304688 0.28125,0 0.515625,0.105469 0.703125,0.304688 0.1757813,0.199218 0.2695313,0.46875 0.2695313,0.820312 0,0.363281 -0.09375,0.644531 -0.28125,0.855469 -0.1757813,0.210937 -0.4101563,0.316406 -0.6679688,0.316406 -0.1875,0 -0.3515625,-0.04687 -0.515625,-0.152344 -0.1640625,-0.105468 -0.2929687,-0.246093 -0.375,-0.445312 -0.09375,-0.199219 -0.140625,-0.398438 -0.140625,-0.609375 0,-0.328125 0.1054688,-0.585938 0.2929688,-0.785156 z M 3.8786422,96.660027 V 96.15612 h -3.89062501 v 0.503907 z m 0.5654297,-0.703125 c -0.1640625,0.210937 -0.2460938,0.492187 -0.2460938,0.820312 0,0.433594 0.1523438,0.796875 0.4453125,1.089844 0.3046875,0.304687 0.703125,0.445312 1.2070313,0.445312 0.4921875,0 0.890625,-0.140625 1.1953125,-0.433593 0.3046875,-0.292969 0.4570312,-0.65625 0.4570312,-1.089844 0,-0.304688 -0.082031,-0.574219 -0.2460937,-0.796875 -0.1523438,-0.222656 -0.3867188,-0.386719 -0.703125,-0.480469 0.2460937,-0.105469 0.4453125,-0.234375 0.5625,-0.410156 0.1171875,-0.175781 0.1757812,-0.375 0.1757812,-0.609375 0,-0.363281 -0.1289062,-0.667969 -0.3984375,-0.925781 -0.2695312,-0.257813 -0.6210937,-0.386719 -1.0546875,-0.386719 -0.4335937,0 -0.7851562,0.128906 -1.0546875,0.375 -0.2578125,0.257812 -0.3867187,0.5625 -0.3867187,0.925781 0,0.246094 0.058594,0.445313 0.1875,0.621094 0.1171875,0.175781 0.3046875,0.304687 0.5742187,0.410156 -0.3164062,0.07031 -0.5507812,0.222656 -0.7148437,0.445313 z m 0.8203125,-2.039063 c 0.1523437,-0.152344 0.3515625,-0.234375 0.5859375,-0.234375 0.234375,0 0.421875,0.08203 0.5859375,0.234375 0.1523437,0.152344 0.2226562,0.351563 0.2226562,0.574219 0,0.210937 -0.070312,0.398437 -0.2226562,0.550781 -0.1523438,0.152344 -0.3398438,0.222656 -0.5859375,0.222656 -0.2460938,0 -0.4453125,-0.07031 -0.5976563,-0.222656 -0.1523437,-0.152344 -0.2226562,-0.351562 -0.2226562,-0.585937 0,-0.210938 0.070312,-0.386719 0.234375,-0.539063 z M 5.1003219,96.06237 c 0.1992187,-0.1875 0.4453125,-0.292968 0.7265625,-0.292968 0.3046875,0 0.5507812,0.105468 0.75,0.292968 0.1875,0.199219 0.2929687,0.445313 0.2929687,0.738282 0,0.292968 -0.1054687,0.527343 -0.2929687,0.726562 -0.1875,0.1875 -0.4335938,0.28125 -0.7265625,0.28125 -0.1875,0 -0.3632813,-0.04687 -0.5390625,-0.128906 -0.1523438,-0.09375 -0.28125,-0.222656 -0.3632813,-0.386719 -0.082031,-0.164062 -0.1289062,-0.328125 -0.1289062,-0.503906 0,-0.292969 0.09375,-0.539063 0.28125,-0.726563 z m -5.12695315,11.51367 v -0.5039 H -3.9172562 v 0.5039 z M 2.6130172,104.09557 H 2.2145797 c -0.1054688,0.22266 -0.2929688,0.44532 -0.5507813,0.67969 -0.2578125,0.23438 -0.5625,0.42188 -0.90234371,0.58594 v 0.59765 c 0.1875,-0.0703 0.39843751,-0.1875 0.64453121,-0.3164 0.2460938,-0.14063 0.4453125,-0.28125 0.5859375,-0.42188 v 3.92578 h 0.6210938 z m 2.0888672,4.61719 c 0.2695312,0.33984 0.6445312,0.51563 1.1367187,0.51563 0.3632813,0 0.6679688,-0.0937 0.9140625,-0.29297 0.234375,-0.19922 0.421875,-0.48047 0.5390625,-0.84375 0.1171875,-0.35157 0.1757813,-0.83203 0.1757813,-1.41797 0,-0.50391 -0.035156,-0.90235 -0.1054688,-1.19531 -0.082031,-0.29297 -0.1875,-0.53907 -0.3164062,-0.75 -0.1289063,-0.19922 -0.2929688,-0.35157 -0.5039063,-0.46875 -0.1992187,-0.10547 -0.4453125,-0.16407 -0.703125,-0.16407 -0.3632812,0 -0.6679687,0.10547 -0.9140625,0.29297 -0.2460937,0.19922 -0.421875,0.48047 -0.5390625,0.84375 -0.1171875,0.36328 -0.1875,0.84375 -0.1875,1.44141 0,0.9375 0.1757813,1.61719 0.5039063,2.03906 z m 0.4453125,-3.73828 c 0.1640625,-0.24609 0.3984375,-0.36328 0.6796875,-0.36328 0.2929687,0 0.5273437,0.1289 0.7265625,0.41015 0.1875,0.26954 0.28125,0.82032 0.28125,1.65235 0,0.82031 -0.09375,1.37109 -0.28125,1.64062 -0.1992188,0.28125 -0.4335938,0.41016 -0.7148438,0.41016 -0.28125,0 -0.5273437,-0.12891 -0.7148437,-0.41016 -0.1992188,-0.26953 -0.2929688,-0.82031 -0.2929688,-1.64062 0,-0.83203 0.1054688,-1.39453 0.3164063,-1.69922 z m 6.3398441,12.17285 c 0.269531,0.33985 0.644531,0.51563 1.136718,0.51563 0.363282,0 0.667969,-0.0937 0.914063,-0.29297 0.234375,-0.19922 0.421875,-0.48047 0.539062,-0.84375 0.117188,-0.35156 0.175782,-0.83203 0.175782,-1.41797 0,-0.50391 -0.03516,-0.90234 -0.105469,-1.19531 -0.08203,-0.29297 -0.1875,-0.53907 -0.316406,-0.75 -0.128907,-0.19922 -0.292969,-0.35157 -0.503907,-0.46875 -0.199218,-0.10547 -0.445312,-0.16407 -0.703125,-0.16407 -0.363281,0 -0.667968,0.10547 -0.914062,0.29297 -0.246094,0.19922 -0.421875,0.48047 -0.539063,0.84375 -0.117187,0.36328 -0.1875,0.84375 -0.1875,1.44141 0,0.9375 0.175782,1.61719 0.503907,2.03906 z m 0.445312,-3.73828 c 0.164063,-0.24609 0.398438,-0.36328 0.679688,-0.36328 0.292968,0 0.527343,0.12891 0.726562,0.41016 0.1875,0.26953 0.28125,0.82031 0.28125,1.65234 0,0.82031 -0.09375,1.37109 -0.28125,1.64062 -0.199219,0.28125 -0.433594,0.41016 -0.714844,0.41016 -0.28125,0 -0.527343,-0.12891 -0.714843,-0.41016 -0.199219,-0.26953 -0.292969,-0.82031 -0.292969,-1.64062 0,-0.83203 0.105469,-1.39453 0.316406,-1.69922 z m 15.017578,3.58594 c 0.07031,-0.11719 0.164063,-0.22266 0.269532,-0.33985 0.105468,-0.10546 0.351562,-0.32812 0.714843,-0.63281 0.445313,-0.375 0.761719,-0.66797 0.949219,-0.8789 0.1875,-0.22266 0.328125,-0.42188 0.410156,-0.6211 0.08203,-0.1875 0.128907,-0.38672 0.128907,-0.58594 0,-0.39843 -0.140625,-0.73828 -0.421875,-1.00781 -0.28125,-0.25781 -0.667969,-0.39844 -1.148438,-0.39844 -0.480469,0 -0.867187,0.12891 -1.148437,0.375 -0.28125,0.2461 -0.445313,0.60938 -0.480469,1.07813 l 0.621094,0.0703 c 0,-0.3164 0.09375,-0.5625 0.28125,-0.73828 0.175781,-0.17578 0.410156,-0.26953 0.714843,-0.26953 0.28125,0 0.515625,0.082 0.691407,0.25781 0.175781,0.16406 0.257812,0.36328 0.257812,0.60938 0,0.23437 -0.105469,0.49218 -0.292969,0.75 -0.199218,0.25781 -0.5625,0.62109 -1.101562,1.0664 -0.351563,0.28125 -0.621094,0.52735 -0.808594,0.76172 -0.1875,0.21094 -0.328125,0.4336 -0.421875,0.65625 -0.04687,0.14063 -0.07031,0.28125 -0.07031,0.4336 h 3.328125 v -0.58594 z m 17.876953,0.58594 v -1.19532 h 0.679688 v -0.57422 h -0.679688 v -3.25781 h -0.503906 l -2.296875,3.25781 v 0.57422 h 2.179688 v 1.19532 z m -2.191406,-1.76954 1.570313,-2.26171 v 2.26171 z m 17.90918,-2.95312 c -0.257813,-0.21094 -0.574219,-0.32813 -0.972656,-0.32813 -0.527344,0 -0.949219,0.1875 -1.265625,0.57422 -0.363282,0.44532 -0.539063,1.14844 -0.539063,2.1211 0,0.8789 0.164063,1.48828 0.480469,1.875 0.328125,0.375 0.75,0.5625 1.265625,0.5625 0.304687,0 0.5625,-0.0703 0.808594,-0.21094 0.234375,-0.14063 0.421875,-0.35156 0.5625,-0.62109 0.128906,-0.26954 0.199218,-0.57422 0.199218,-0.89063 0,-0.46875 -0.140625,-0.86719 -0.433593,-1.17187 -0.292969,-0.29297 -0.644532,-0.45704 -1.054688,-0.45704 -0.234375,0 -0.457031,0.0586 -0.667969,0.16407 -0.222656,0.11718 -0.410156,0.28125 -0.550781,0.5039 0,-0.49218 0.05859,-0.89062 0.175781,-1.14843 0.105469,-0.28125 0.269532,-0.48047 0.457032,-0.63282 0.152343,-0.10547 0.328125,-0.16406 0.527343,-0.16406 0.246094,0 0.457032,0.0937 0.621094,0.26953 0.09375,0.10547 0.175781,0.28125 0.234375,0.52735 l 0.609375,-0.0469 c -0.04687,-0.39844 -0.199219,-0.69141 -0.457031,-0.92578 z m -1.78125,2.30859 c 0.199219,-0.19922 0.433594,-0.30468 0.714844,-0.30468 0.28125,0 0.515625,0.10546 0.703125,0.30468 0.175781,0.19922 0.269531,0.46875 0.269531,0.82032 0,0.36328 -0.09375,0.64453 -0.28125,0.85546 -0.175781,0.21094 -0.410156,0.31641 -0.667969,0.31641 -0.1875,0 -0.351562,-0.0469 -0.515625,-0.15234 -0.164062,-0.10547 -0.292969,-0.2461 -0.375,-0.44532 -0.09375,-0.19921 -0.140625,-0.39843 -0.140625,-0.60937 0,-0.32813 0.105469,-0.58594 0.292969,-0.78516 z m 14.90039,0.14063 c -0.164062,0.21094 -0.246093,0.49219 -0.246093,0.82031 0,0.43359 0.152343,0.79688 0.445312,1.08984 0.304688,0.30469 0.703125,0.44532 1.207031,0.44532 0.492188,0 0.890625,-0.14063 1.195313,-0.4336 0.304687,-0.29297 0.457031,-0.65625 0.457031,-1.08984 0,-0.30469 -0.08203,-0.57422 -0.246094,-0.79688 -0.152343,-0.22265 -0.386718,-0.38671 -0.703125,-0.48046 0.246094,-0.10547 0.445313,-0.23438 0.5625,-0.41016 0.117188,-0.17578 0.175782,-0.375 0.175782,-0.60938 0,-0.36328 -0.128907,-0.66796 -0.398438,-0.92578 -0.269531,-0.25781 -0.621094,-0.38672 -1.054687,-0.38672 -0.433594,0 -0.785157,0.12891 -1.054688,0.375 -0.257812,0.25782 -0.386719,0.5625 -0.386719,0.92579 0,0.24609 0.05859,0.44531 0.1875,0.62109 0.117188,0.17578 0.304688,0.30469 0.574219,0.41016 -0.316406,0.0703 -0.550781,0.22265 -0.714844,0.44531 z m 0.820313,-2.03906 c 0.152344,-0.15235 0.351562,-0.23438 0.585937,-0.23438 0.234375,0 0.421875,0.082 0.585938,0.23438 0.152344,0.15234 0.222656,0.35156 0.222656,0.57421 0,0.21094 -0.07031,0.39844 -0.222656,0.55079 -0.152344,0.15234 -0.339844,0.22265 -0.585938,0.22265 -0.246093,0 -0.445312,-0.0703 -0.597656,-0.22265 -0.152344,-0.15235 -0.222656,-0.35157 -0.222656,-0.58594 0,-0.21094 0.07031,-0.38672 0.234375,-0.53906 z m -0.164063,2.14453 c 0.199219,-0.1875 0.445313,-0.29297 0.726563,-0.29297 0.304687,0 0.550781,0.10547 0.75,0.29297 0.1875,0.19922 0.292969,0.44531 0.292969,0.73828 0,0.29297 -0.105469,0.52734 -0.292969,0.72656 -0.1875,0.1875 -0.433594,0.28125 -0.726563,0.28125 -0.1875,0 -0.363281,-0.0469 -0.539062,-0.12891 -0.152344,-0.0937 -0.28125,-0.22265 -0.363281,-0.38671 -0.08203,-0.16407 -0.128907,-0.32813 -0.128907,-0.50391 0,-0.29297 0.09375,-0.53906 0.28125,-0.72656 z m 13.942383,-2.88282 h -0.398437 c -0.105469,0.22266 -0.292969,0.44532 -0.550781,0.67969 -0.257813,0.23438 -0.5625,0.42188 -0.902344,0.58594 v 0.59766 c 0.1875,-0.0703 0.398437,-0.1875 0.644531,-0.31641 0.246094,-0.14063 0.445313,-0.28125 0.585938,-0.42188 v 3.92579 h 0.621093 z m 2.827149,4.61719 c 0.269531,0.33985 0.644531,0.51563 1.136718,0.51563 0.363282,0 0.667969,-0.0937 0.914063,-0.29297 0.234375,-0.19922 0.421875,-0.48047 0.539062,-0.84375 0.117188,-0.35156 0.175782,-0.83203 0.175782,-1.41797 0,-0.50391 -0.03516,-0.90234 -0.105469,-1.19531 -0.08203,-0.29297 -0.1875,-0.53907 -0.316406,-0.75 -0.128907,-0.19922 -0.292969,-0.35157 -0.503907,-0.46875 -0.199218,-0.10547 -0.445312,-0.16407 -0.703125,-0.16407 -0.363281,0 -0.667968,0.10547 -0.914062,0.29297 -0.246094,0.19922 -0.421875,0.48047 -0.539063,0.84375 -0.117187,0.36328 -0.1875,0.84375 -0.1875,1.44141 0,0.9375 0.175782,1.61719 0.503907,2.03906 z m 0.445312,-3.73828 c 0.164063,-0.24609 0.398438,-0.36328 0.679688,-0.36328 0.292968,0 0.527343,0.12891 0.726562,0.41016 0.1875,0.26953 0.28125,0.82031 0.28125,1.65234 0,0.82031 -0.09375,1.37109 -0.28125,1.64062 -0.199219,0.28125 -0.433594,0.41016 -0.714844,0.41016 -0.28125,0 -0.527343,-0.12891 -0.714843,-0.41016 -0.199219,-0.26953 -0.292969,-0.82031 -0.292969,-1.64062 0,-0.83203 0.105469,-1.39453 0.316406,-1.69922 z m 12.544918,-0.87891 h -0.39843 c -0.10547,0.22266 -0.29297,0.44532 -0.55078,0.67969 -0.25782,0.23438 -0.5625,0.42188 -0.90235,0.58594 v 0.59766 c 0.1875,-0.0703 0.39844,-0.1875 0.64453,-0.31641 0.2461,-0.14063 0.44532,-0.28125 0.58594,-0.42188 v 3.92579 h 0.62109 z m 3.08497,4.46485 c 0.0703,-0.11719 0.16406,-0.22266 0.26953,-0.33985 0.10547,-0.10546 0.35156,-0.32812 0.71484,-0.63281 0.44531,-0.375 0.76172,-0.66797 0.94922,-0.8789 0.1875,-0.22266 0.32812,-0.42188 0.41016,-0.6211 0.082,-0.1875 0.1289,-0.38672 0.1289,-0.58594 0,-0.39843 -0.14062,-0.73828 -0.42187,-1.00781 -0.28125,-0.25781 -0.66797,-0.39844 -1.14844,-0.39844 -0.48047,0 -0.86719,0.12891 -1.14844,0.375 -0.28125,0.2461 -0.44531,0.60938 -0.48047,1.07813 l 0.6211,0.0703 c 0,-0.3164 0.0937,-0.5625 0.28125,-0.73828 0.17578,-0.17578 0.41015,-0.26953 0.71484,-0.26953 0.28125,0 0.51563,0.082 0.69141,0.25781 0.17578,0.16406 0.25781,0.36328 0.25781,0.60938 0,0.23437 -0.10547,0.49218 -0.29297,0.75 -0.19922,0.25781 -0.5625,0.62109 -1.10156,1.0664 -0.35156,0.28125 -0.6211,0.52735 -0.8086,0.76172 -0.1875,0.21094 -0.32812,0.4336 -0.42187,0.65625 -0.0469,0.14063 -0.0703,0.28125 -0.0703,0.4336 h 3.32812 v -0.58594 z m 12.52734,-4.46485 h -0.39844 c -0.10547,0.22266 -0.29297,0.44532 -0.55078,0.67969 -0.25781,0.23438 -0.5625,0.42188 -0.90234,0.58594 v 0.59766 c 0.1875,-0.0703 0.39843,-0.1875 0.64453,-0.31641 0.24609,-0.14063 0.44531,-0.28125 0.58594,-0.42188 v 3.92579 h 0.62109 z m 4.91308,5.05079 v -1.19532 h 0.67969 v -0.57422 h -0.67969 v -3.25781 h -0.5039 l -2.29688,3.25781 v 0.57422 h 2.17969 v 1.19532 z m -2.1914,-1.76954 1.57031,-2.26171 v 2.26171 z m 0,0"
           style="fill:#231f20;fill-opacity:1;fill-rule:nonzero;stroke:none"
           aria-label="10&#10;8&#10;6&#10;4&#10;2&#10;0&#10;2&#10;4&#10;6&#10;8&#10;10&#10;02468101214"
           transform="matrix(1.3333333,0,0,1.3333333,93.176133,117.16293)" />
      </g>
    </g>
  </g>
  <text
     xml:space="preserve"
     style="font-style:normal;font-variant:normal;font-weight:normal;font-stretch:normal;font-size:8px;line-height:150%;font-family:sans-serif;-inkscape-font-specification:sans-serif;text-align:end;letter-spacing:0px;writing-mode:lr-tb;direction:ltr;text-anchor:end;fill:#000000;fill-opacity:0.873329;fill-rule:evenodd;stroke-width:0;stroke-linecap:round;stroke-linejoin:round;stroke-miterlimit:2;stroke-opacity:0.680142;paint-order:stroke markers fill"
     x="139.12489"
     y="178.28671"
     id="text1"><tspan
       sodipodi:role="line"
       id="tspan1"
       x="139.12489"
       y="178.28671">P<tspan
   style="font-size:8px;baseline-shift:sub"
   id="tspan3">0.1</tspan> rf. (cmH<tspan
   style="font-size:8px;baseline-shift:sub"
   id="tspan4">2</tspan>O)</tspan></text>
  <text
     xml:space="preserve"
     style="font-style:normal;font-variant:normal;font-weight:normal;font-stretch:normal;font-size:8px;line-height:150%;font-family:sans-serif;-inkscape-font-specification:sans-serif;text-align:end;letter-spacing:0px;writing-mode:lr-tb;direction:ltr;text-anchor:end;fill:#000000;fill-opacity:0.873329;fill-rule:evenodd;stroke-width:0;stroke-linecap:round;stroke-linejoin:round;stroke-miterlimit:2;stroke-opacity:0.680142;paint-order:stroke markers fill"
     x="-43.734375"
     y="6.3984375"
     id="text7"
     transform="rotate(-90)"><tspan
       sodipodi:role="line"
       id="tspan7"
       x="-43.734375"
       y="6.3984375">Drive (cmH<tspan
   style="font-size:8px;baseline-shift:sub"
   id="tspan6">2</tspan>O)</tspan></text>
  <text
     xml:space="preserve"
     style="font-style:normal;font-variant:normal;font-weight:normal;font-stretch:normal;font-size:10.6667px;line-height:150%;font-family:sans-serif;-inkscape-font-specification:sans-serif;text-align:end;letter-spacing:0px;writing-mode:lr-tb;direction:ltr;text-anchor:end;fill:#000000;fill-opacity:0.873329;fill-rule:evenodd;stroke-width:0;stroke-linecap:round;stroke-linejoin:round;stroke-miterlimit:2;stroke-opacity:0.680142;paint-order:stroke markers fill"
     x="172.52917"
     y="17.743195"
     id="text8"><tspan
       sodipodi:role="line"
       id="tspan8"
       x="172.52917"
       y="17.743195">Biais: 0,5 cmH<tspan
   style="font-size:10.6667px;baseline-shift:sub"
   id="tspan9">2</tspan>O</tspan></text>
</svg>
