<?xml version="1.0" encoding="UTF-8" standalone="no"?>
<!-- Created with Inkscape (http://www.inkscape.org/) -->

<svg
   version="1.1"
   id="svg1"
   width="180"
   height="180"
   viewBox="0 0 180 180"
   sodipodi:docname="Hamilton-G5.svg"
   inkscape:version="1.4 (e7c3feb100, 2024-10-09)"
   inkscape:export-filename="Hamilton-G5.png"
   inkscape:export-xdpi="480"
   inkscape:export-ydpi="480"
   xmlns:inkscape="http://www.inkscape.org/namespaces/inkscape"
   xmlns:sodipodi="http://sodipodi.sourceforge.net/DTD/sodipodi-0.dtd"
   xmlns="http://www.w3.org/2000/svg"
   xmlns:svg="http://www.w3.org/2000/svg">
  <sodipodi:namedview
     id="namedview1"
     pagecolor="#ffffff"
     bordercolor="#999999"
     borderopacity="1"
     inkscape:showpageshadow="0"
     inkscape:pageopacity="0"
     inkscape:pagecheckerboard="0"
     inkscape:deskcolor="#d1d1d1"
     inkscape:zoom="4.5260855"
     inkscape:cx="109.91838"
     inkscape:cy="78.765635"
     inkscape:window-width="1920"
     inkscape:window-height="997"
     inkscape:window-x="0"
     inkscape:window-y="0"
     inkscape:window-maximized="1"
     inkscape:current-layer="svg1"
     inkscape:export-bgcolor="#ffffffff" />
  <defs
     id="defs1" />
  <g
     id="g1"
     transform="translate(-81.261716,-325.85938)">
    <g
       id="group-MC0">
      <g
         id="group-MC1">
        <path
           id="path198"
           d="M 0,0 H 2.729"
           style="fill:none;stroke:#231f20;stroke-width:0.674;stroke-linecap:square;stroke-linejoin:miter;stroke-miterlimit:1;stroke-dasharray:none;stroke-opacity:1"
           transform="matrix(1.3333333,0,0,-1.3333333,107.32533,461.15067)" />
        <path
           id="path199"
           d="M 0,0 H 2.729"
           style="fill:none;stroke:#231f20;stroke-width:0.674;stroke-linecap:square;stroke-linejoin:miter;stroke-miterlimit:1;stroke-dasharray:none;stroke-opacity:1"
           transform="matrix(1.3333333,0,0,-1.3333333,107.32533,446.62)" />
        <path
           id="path200"
           d="M 0,0 H 2.729"
           style="fill:none;stroke:#231f20;stroke-width:0.674;stroke-linecap:square;stroke-linejoin:miter;stroke-miterlimit:1;stroke-dasharray:none;stroke-opacity:1"
           transform="matrix(1.3333333,0,0,-1.3333333,107.32533,432.088)" />
        <path
           id="path201"
           d="M 0,0 H 2.729"
           style="fill:none;stroke:#231f20;stroke-width:0.674;stroke-linecap:square;stroke-linejoin:miter;stroke-miterlimit:1;stroke-dasharray:none;stroke-opacity:1"
           transform="matrix(1.3333333,0,0,-1.3333333,107.32533,417.556)" />
        <path
           id="path202"
           d="M 0,0 H 2.729"
           style="fill:none;stroke:#231f20;stroke-width:0.674;stroke-linecap:square;stroke-linejoin:miter;stroke-miterlimit:1;stroke-dasharray:none;stroke-opacity:1"
           transform="matrix(1.3333333,0,0,-1.3333333,107.32533,403.02533)" />
        <path
           id="path203"
           d="M 0,0 H 2.729"
           style="fill:none;stroke:#231f20;stroke-width:0.674;stroke-linecap:square;stroke-linejoin:miter;stroke-miterlimit:1;stroke-dasharray:none;stroke-opacity:1"
           transform="matrix(1.3333333,0,0,-1.3333333,107.32533,388.49333)" />
        <path
           id="path204"
           d="M 0,0 H 2.729"
           style="fill:none;stroke:#231f20;stroke-width:0.674;stroke-linecap:square;stroke-linejoin:miter;stroke-miterlimit:1;stroke-dasharray:none;stroke-opacity:1"
           transform="matrix(1.3333333,0,0,-1.3333333,107.32533,373.96133)" />
        <path
           id="path205"
           d="M 0,0 H 2.729"
           style="fill:none;stroke:#231f20;stroke-width:0.674;stroke-linecap:square;stroke-linejoin:miter;stroke-miterlimit:1;stroke-dasharray:none;stroke-opacity:1"
           transform="matrix(1.3333333,0,0,-1.3333333,107.32533,359.42933)" />
        <path
           id="path206"
           d="M 0,0 H 2.729"
           style="fill:none;stroke:#231f20;stroke-width:0.674;stroke-linecap:square;stroke-linejoin:miter;stroke-miterlimit:1;stroke-dasharray:none;stroke-opacity:1"
           transform="matrix(1.3333333,0,0,-1.3333333,107.32533,344.89867)" />
        <path
           id="path207"
           d="M 0,0 H 2.729"
           style="fill:none;stroke:#231f20;stroke-width:0.674;stroke-linecap:square;stroke-linejoin:miter;stroke-miterlimit:1;stroke-dasharray:none;stroke-opacity:1"
           transform="matrix(1.3333333,0,0,-1.3333333,107.32533,330.36667)" />
        <path
           id="path208"
           d="M 0,0 H 2.729"
           style="fill:none;stroke:#918f90;stroke-width:0.886;stroke-linecap:butt;stroke-linejoin:miter;stroke-miterlimit:1;stroke-dasharray:none;stroke-opacity:1"
           transform="matrix(1.3333333,0,0,-1.3333333,107.00667,420.28133)" />
        <path
           id="path209"
           d="M 0,0 H 2.729"
           style="fill:none;stroke:#918f90;stroke-width:0.886;stroke-linecap:butt;stroke-linejoin:miter;stroke-miterlimit:1;stroke-dasharray:none;stroke-opacity:1"
           transform="matrix(1.3333333,0,0,-1.3333333,107.00667,361.564)" />
        <path
           id="path210"
           d="M 0,0 H 0.921"
           style="fill:none;stroke:#918f90;stroke-width:0.886;stroke-linecap:butt;stroke-linejoin:miter;stroke-miterlimit:1;stroke-dasharray:none;stroke-opacity:1"
           transform="matrix(1.3333333,0,0,-1.3333333,110.64533,361.564)" />
        <path
           id="path211"
           d="M 0,0 H 0.887"
           style="fill:none;stroke:#918f90;stroke-width:0.886;stroke-linecap:butt;stroke-linejoin:miter;stroke-miterlimit:1;stroke-dasharray:none;stroke-opacity:1"
           transform="matrix(1.3333333,0,0,-1.3333333,113.10133,361.564)" />
        <path
           id="path212"
           d="M 0,0 H 0.921"
           style="fill:none;stroke:#918f90;stroke-width:0.886;stroke-linecap:butt;stroke-linejoin:miter;stroke-miterlimit:1;stroke-dasharray:none;stroke-opacity:1"
           transform="matrix(1.3333333,0,0,-1.3333333,115.512,361.564)" />
        <path
           id="path213"
           d="M 0,0 H 0.921"
           style="fill:none;stroke:#918f90;stroke-width:0.886;stroke-linecap:butt;stroke-linejoin:miter;stroke-miterlimit:1;stroke-dasharray:none;stroke-opacity:1"
           transform="matrix(1.3333333,0,0,-1.3333333,117.92267,361.564)" />
        <path
           id="path214"
           d="M 0,0 H 0.887"
           style="fill:none;stroke:#918f90;stroke-width:0.886;stroke-linecap:butt;stroke-linejoin:miter;stroke-miterlimit:1;stroke-dasharray:none;stroke-opacity:1"
           transform="matrix(1.3333333,0,0,-1.3333333,120.37867,361.564)" />
        <path
           id="path215"
           d="M 0,0 H 0.921"
           style="fill:none;stroke:#918f90;stroke-width:0.886;stroke-linecap:butt;stroke-linejoin:miter;stroke-miterlimit:1;stroke-dasharray:none;stroke-opacity:1"
           transform="matrix(1.3333333,0,0,-1.3333333,122.78933,361.564)" />
        <path
           id="path216"
           d="M 0,0 H 0.921"
           style="fill:none;stroke:#918f90;stroke-width:0.886;stroke-linecap:butt;stroke-linejoin:miter;stroke-miterlimit:1;stroke-dasharray:none;stroke-opacity:1"
           transform="matrix(1.3333333,0,0,-1.3333333,125.2,361.564)" />
        <path
           id="path217"
           d="M 0,0 H 0.887"
           style="fill:none;stroke:#918f90;stroke-width:0.886;stroke-linecap:butt;stroke-linejoin:miter;stroke-miterlimit:1;stroke-dasharray:none;stroke-opacity:1"
           transform="matrix(1.3333333,0,0,-1.3333333,127.656,361.564)" />
        <path
           id="path218"
           d="M 0,0 H 0.921"
           style="fill:none;stroke:#918f90;stroke-width:0.886;stroke-linecap:butt;stroke-linejoin:miter;stroke-miterlimit:1;stroke-dasharray:none;stroke-opacity:1"
           transform="matrix(1.3333333,0,0,-1.3333333,130.06667,361.564)" />
        <path
           id="path219"
           d="M 0,0 H 0.921"
           style="fill:none;stroke:#918f90;stroke-width:0.886;stroke-linecap:butt;stroke-linejoin:miter;stroke-miterlimit:1;stroke-dasharray:none;stroke-opacity:1"
           transform="matrix(1.3333333,0,0,-1.3333333,132.47733,361.564)" />
        <path
           id="path220"
           d="M 0,0 H 0.887"
           style="fill:none;stroke:#918f90;stroke-width:0.886;stroke-linecap:butt;stroke-linejoin:miter;stroke-miterlimit:1;stroke-dasharray:none;stroke-opacity:1"
           transform="matrix(1.3333333,0,0,-1.3333333,134.93333,361.564)" />
        <path
           id="path221"
           d="M 0,0 H 0.921"
           style="fill:none;stroke:#918f90;stroke-width:0.886;stroke-linecap:butt;stroke-linejoin:miter;stroke-miterlimit:1;stroke-dasharray:none;stroke-opacity:1"
           transform="matrix(1.3333333,0,0,-1.3333333,137.344,361.564)" />
        <path
           id="path222"
           d="M 0,0 H 0.921"
           style="fill:none;stroke:#918f90;stroke-width:0.886;stroke-linecap:butt;stroke-linejoin:miter;stroke-miterlimit:1;stroke-dasharray:none;stroke-opacity:1"
           transform="matrix(1.3333333,0,0,-1.3333333,139.75467,361.564)" />
        <path
           id="path223"
           d="M 0,0 H 0.887"
           style="fill:none;stroke:#918f90;stroke-width:0.886;stroke-linecap:butt;stroke-linejoin:miter;stroke-miterlimit:1;stroke-dasharray:none;stroke-opacity:1"
           transform="matrix(1.3333333,0,0,-1.3333333,142.21067,361.564)" />
        <path
           id="path224"
           d="M 0,0 H 0.921"
           style="fill:none;stroke:#918f90;stroke-width:0.886;stroke-linecap:butt;stroke-linejoin:miter;stroke-miterlimit:1;stroke-dasharray:none;stroke-opacity:1"
           transform="matrix(1.3333333,0,0,-1.3333333,144.62133,361.564)" />
        <path
           id="path225"
           d="M 0,0 H 0.921"
           style="fill:none;stroke:#918f90;stroke-width:0.886;stroke-linecap:butt;stroke-linejoin:miter;stroke-miterlimit:1;stroke-dasharray:none;stroke-opacity:1"
           transform="matrix(1.3333333,0,0,-1.3333333,147.032,361.564)" />
        <path
           id="path226"
           d="M 0,0 H 0.887"
           style="fill:none;stroke:#918f90;stroke-width:0.886;stroke-linecap:butt;stroke-linejoin:miter;stroke-miterlimit:1;stroke-dasharray:none;stroke-opacity:1"
           transform="matrix(1.3333333,0,0,-1.3333333,149.488,361.564)" />
        <path
           id="path227"
           d="M 0,0 H 0.921"
           style="fill:none;stroke:#918f90;stroke-width:0.886;stroke-linecap:butt;stroke-linejoin:miter;stroke-miterlimit:1;stroke-dasharray:none;stroke-opacity:1"
           transform="matrix(1.3333333,0,0,-1.3333333,151.89867,361.564)" />
        <path
           id="path228"
           d="M 0,0 H 0.921"
           style="fill:none;stroke:#918f90;stroke-width:0.886;stroke-linecap:butt;stroke-linejoin:miter;stroke-miterlimit:1;stroke-dasharray:none;stroke-opacity:1"
           transform="matrix(1.3333333,0,0,-1.3333333,154.30933,361.564)" />
        <path
           id="path229"
           d="M 0,0 H 0.887"
           style="fill:none;stroke:#918f90;stroke-width:0.886;stroke-linecap:butt;stroke-linejoin:miter;stroke-miterlimit:1;stroke-dasharray:none;stroke-opacity:1"
           transform="matrix(1.3333333,0,0,-1.3333333,156.76533,361.564)" />
        <path
           id="path230"
           d="M 0,0 H 0.921"
           style="fill:none;stroke:#918f90;stroke-width:0.886;stroke-linecap:butt;stroke-linejoin:miter;stroke-miterlimit:1;stroke-dasharray:none;stroke-opacity:1"
           transform="matrix(1.3333333,0,0,-1.3333333,159.176,361.564)" />
        <path
           id="path231"
           d="M 0,0 H 0.921"
           style="fill:none;stroke:#918f90;stroke-width:0.886;stroke-linecap:butt;stroke-linejoin:miter;stroke-miterlimit:1;stroke-dasharray:none;stroke-opacity:1"
           transform="matrix(1.3333333,0,0,-1.3333333,161.58667,361.564)" />
        <path
           id="path232"
           d="M 0,0 H 0.887"
           style="fill:none;stroke:#918f90;stroke-width:0.886;stroke-linecap:butt;stroke-linejoin:miter;stroke-miterlimit:1;stroke-dasharray:none;stroke-opacity:1"
           transform="matrix(1.3333333,0,0,-1.3333333,164.04267,361.564)" />
        <path
           id="path233"
           d="M 0,0 H 0.921"
           style="fill:none;stroke:#918f90;stroke-width:0.886;stroke-linecap:butt;stroke-linejoin:miter;stroke-miterlimit:1;stroke-dasharray:none;stroke-opacity:1"
           transform="matrix(1.3333333,0,0,-1.3333333,166.45333,361.564)" />
        <path
           id="path234"
           d="M 0,0 H 0.921"
           style="fill:none;stroke:#918f90;stroke-width:0.886;stroke-linecap:butt;stroke-linejoin:miter;stroke-miterlimit:1;stroke-dasharray:none;stroke-opacity:1"
           transform="matrix(1.3333333,0,0,-1.3333333,168.864,361.564)" />
        <path
           id="path235"
           d="M 0,0 H 0.887"
           style="fill:none;stroke:#918f90;stroke-width:0.886;stroke-linecap:butt;stroke-linejoin:miter;stroke-miterlimit:1;stroke-dasharray:none;stroke-opacity:1"
           transform="matrix(1.3333333,0,0,-1.3333333,171.32,361.564)" />
        <path
           id="path236"
           d="M 0,0 H 0.921"
           style="fill:none;stroke:#918f90;stroke-width:0.886;stroke-linecap:butt;stroke-linejoin:miter;stroke-miterlimit:1;stroke-dasharray:none;stroke-opacity:1"
           transform="matrix(1.3333333,0,0,-1.3333333,173.73067,361.564)" />
        <path
           id="path237"
           d="M 0,0 H 0.921"
           style="fill:none;stroke:#918f90;stroke-width:0.886;stroke-linecap:butt;stroke-linejoin:miter;stroke-miterlimit:1;stroke-dasharray:none;stroke-opacity:1"
           transform="matrix(1.3333333,0,0,-1.3333333,176.14133,361.564)" />
        <path
           id="path238"
           d="M 0,0 H 0.887"
           style="fill:none;stroke:#918f90;stroke-width:0.886;stroke-linecap:butt;stroke-linejoin:miter;stroke-miterlimit:1;stroke-dasharray:none;stroke-opacity:1"
           transform="matrix(1.3333333,0,0,-1.3333333,178.59733,361.564)" />
        <path
           id="path239"
           d="M 0,0 H 0.921"
           style="fill:none;stroke:#918f90;stroke-width:0.886;stroke-linecap:butt;stroke-linejoin:miter;stroke-miterlimit:1;stroke-dasharray:none;stroke-opacity:1"
           transform="matrix(1.3333333,0,0,-1.3333333,181.008,361.564)" />
        <path
           id="path240"
           d="M 0,0 H 0.921"
           style="fill:none;stroke:#918f90;stroke-width:0.886;stroke-linecap:butt;stroke-linejoin:miter;stroke-miterlimit:1;stroke-dasharray:none;stroke-opacity:1"
           transform="matrix(1.3333333,0,0,-1.3333333,183.41867,361.564)" />
        <path
           id="path241"
           d="M 0,0 H 0.887"
           style="fill:none;stroke:#918f90;stroke-width:0.886;stroke-linecap:butt;stroke-linejoin:miter;stroke-miterlimit:1;stroke-dasharray:none;stroke-opacity:1"
           transform="matrix(1.3333333,0,0,-1.3333333,185.87467,361.564)" />
        <path
           id="path242"
           d="M 0,0 H 0.921"
           style="fill:none;stroke:#918f90;stroke-width:0.886;stroke-linecap:butt;stroke-linejoin:miter;stroke-miterlimit:1;stroke-dasharray:none;stroke-opacity:1"
           transform="matrix(1.3333333,0,0,-1.3333333,188.28533,361.564)" />
        <path
           id="path243"
           d="M 0,0 H 0.921"
           style="fill:none;stroke:#918f90;stroke-width:0.886;stroke-linecap:butt;stroke-linejoin:miter;stroke-miterlimit:1;stroke-dasharray:none;stroke-opacity:1"
           transform="matrix(1.3333333,0,0,-1.3333333,190.696,361.564)" />
        <path
           id="path244"
           d="M 0,0 H 0.887"
           style="fill:none;stroke:#918f90;stroke-width:0.886;stroke-linecap:butt;stroke-linejoin:miter;stroke-miterlimit:1;stroke-dasharray:none;stroke-opacity:1"
           transform="matrix(1.3333333,0,0,-1.3333333,193.152,361.564)" />
        <path
           id="path245"
           d="M 0,0 H 0.921"
           style="fill:none;stroke:#918f90;stroke-width:0.886;stroke-linecap:butt;stroke-linejoin:miter;stroke-miterlimit:1;stroke-dasharray:none;stroke-opacity:1"
           transform="matrix(1.3333333,0,0,-1.3333333,195.56267,361.564)" />
        <path
           id="path246"
           d="M 0,0 H 0.921"
           style="fill:none;stroke:#918f90;stroke-width:0.886;stroke-linecap:butt;stroke-linejoin:miter;stroke-miterlimit:1;stroke-dasharray:none;stroke-opacity:1"
           transform="matrix(1.3333333,0,0,-1.3333333,197.97333,361.564)" />
        <path
           id="path247"
           d="M 0,0 H 0.887"
           style="fill:none;stroke:#918f90;stroke-width:0.886;stroke-linecap:butt;stroke-linejoin:miter;stroke-miterlimit:1;stroke-dasharray:none;stroke-opacity:1"
           transform="matrix(1.3333333,0,0,-1.3333333,200.42933,361.564)" />
        <path
           id="path248"
           d="M 0,0 H 0.921"
           style="fill:none;stroke:#918f90;stroke-width:0.886;stroke-linecap:butt;stroke-linejoin:miter;stroke-miterlimit:1;stroke-dasharray:none;stroke-opacity:1"
           transform="matrix(1.3333333,0,0,-1.3333333,202.84,361.564)" />
        <path
           id="path249"
           d="M 0,0 H 0.921"
           style="fill:none;stroke:#918f90;stroke-width:0.886;stroke-linecap:butt;stroke-linejoin:miter;stroke-miterlimit:1;stroke-dasharray:none;stroke-opacity:1"
           transform="matrix(1.3333333,0,0,-1.3333333,205.25067,361.564)" />
        <path
           id="path250"
           d="M 0,0 H 0.887"
           style="fill:none;stroke:#918f90;stroke-width:0.886;stroke-linecap:butt;stroke-linejoin:miter;stroke-miterlimit:1;stroke-dasharray:none;stroke-opacity:1"
           transform="matrix(1.3333333,0,0,-1.3333333,207.70667,361.564)" />
        <path
           id="path251"
           d="M 0,0 H 0.921"
           style="fill:none;stroke:#918f90;stroke-width:0.886;stroke-linecap:butt;stroke-linejoin:miter;stroke-miterlimit:1;stroke-dasharray:none;stroke-opacity:1"
           transform="matrix(1.3333333,0,0,-1.3333333,210.11733,361.564)" />
        <path
           id="path252"
           d="M 0,0 H 0.921"
           style="fill:none;stroke:#918f90;stroke-width:0.886;stroke-linecap:butt;stroke-linejoin:miter;stroke-miterlimit:1;stroke-dasharray:none;stroke-opacity:1"
           transform="matrix(1.3333333,0,0,-1.3333333,212.528,361.564)" />
        <path
           id="path253"
           d="M 0,0 H 0.886"
           style="fill:none;stroke:#918f90;stroke-width:0.886;stroke-linecap:butt;stroke-linejoin:miter;stroke-miterlimit:1;stroke-dasharray:none;stroke-opacity:1"
           transform="matrix(1.3333333,0,0,-1.3333333,214.984,361.564)" />
        <path
           id="path254"
           d="M 0,0 H 0.921"
           style="fill:none;stroke:#918f90;stroke-width:0.886;stroke-linecap:butt;stroke-linejoin:miter;stroke-miterlimit:1;stroke-dasharray:none;stroke-opacity:1"
           transform="matrix(1.3333333,0,0,-1.3333333,217.39333,361.564)" />
        <path
           id="path255"
           d="M 0,0 H 0.921"
           style="fill:none;stroke:#918f90;stroke-width:0.886;stroke-linecap:butt;stroke-linejoin:miter;stroke-miterlimit:1;stroke-dasharray:none;stroke-opacity:1"
           transform="matrix(1.3333333,0,0,-1.3333333,219.804,361.564)" />
        <path
           id="path256"
           d="M 0,0 H 0.887"
           style="fill:none;stroke:#918f90;stroke-width:0.886;stroke-linecap:butt;stroke-linejoin:miter;stroke-miterlimit:1;stroke-dasharray:none;stroke-opacity:1"
           transform="matrix(1.3333333,0,0,-1.3333333,222.26,361.564)" />
        <path
           id="path257"
           d="M 0,0 H 0.921"
           style="fill:none;stroke:#918f90;stroke-width:0.886;stroke-linecap:butt;stroke-linejoin:miter;stroke-miterlimit:1;stroke-dasharray:none;stroke-opacity:1"
           transform="matrix(1.3333333,0,0,-1.3333333,224.67067,361.564)" />
        <path
           id="path258"
           d="M 0,0 H 0.921"
           style="fill:none;stroke:#918f90;stroke-width:0.886;stroke-linecap:butt;stroke-linejoin:miter;stroke-miterlimit:1;stroke-dasharray:none;stroke-opacity:1"
           transform="matrix(1.3333333,0,0,-1.3333333,227.08133,361.564)" />
        <path
           id="path259"
           d="M 0,0 H 0.886"
           style="fill:none;stroke:#918f90;stroke-width:0.886;stroke-linecap:butt;stroke-linejoin:miter;stroke-miterlimit:1;stroke-dasharray:none;stroke-opacity:1"
           transform="matrix(1.3333333,0,0,-1.3333333,229.53733,361.564)" />
        <path
           id="path260"
           d="M 0,0 H 0.921"
           style="fill:none;stroke:#918f90;stroke-width:0.886;stroke-linecap:butt;stroke-linejoin:miter;stroke-miterlimit:1;stroke-dasharray:none;stroke-opacity:1"
           transform="matrix(1.3333333,0,0,-1.3333333,231.94667,361.564)" />
        <path
           id="path261"
           d="M 0,0 H 0.921"
           style="fill:none;stroke:#918f90;stroke-width:0.886;stroke-linecap:butt;stroke-linejoin:miter;stroke-miterlimit:1;stroke-dasharray:none;stroke-opacity:1"
           transform="matrix(1.3333333,0,0,-1.3333333,234.35733,361.564)" />
        <path
           id="path262"
           d="M 0,0 H 0.887"
           style="fill:none;stroke:#918f90;stroke-width:0.886;stroke-linecap:butt;stroke-linejoin:miter;stroke-miterlimit:1;stroke-dasharray:none;stroke-opacity:1"
           transform="matrix(1.3333333,0,0,-1.3333333,236.81333,361.564)" />
        <path
           id="path263"
           d="M 0,0 H 0.921"
           style="fill:none;stroke:#918f90;stroke-width:0.886;stroke-linecap:butt;stroke-linejoin:miter;stroke-miterlimit:1;stroke-dasharray:none;stroke-opacity:1"
           transform="matrix(1.3333333,0,0,-1.3333333,239.224,361.564)" />
        <path
           id="path264"
           d="M 0,0 H 0.921"
           style="fill:none;stroke:#918f90;stroke-width:0.886;stroke-linecap:butt;stroke-linejoin:miter;stroke-miterlimit:1;stroke-dasharray:none;stroke-opacity:1"
           transform="matrix(1.3333333,0,0,-1.3333333,241.63467,361.564)" />
        <path
           id="path265"
           d="M 0,0 H 0.886"
           style="fill:none;stroke:#918f90;stroke-width:0.886;stroke-linecap:butt;stroke-linejoin:miter;stroke-miterlimit:1;stroke-dasharray:none;stroke-opacity:1"
           transform="matrix(1.3333333,0,0,-1.3333333,244.09067,361.564)" />
        <path
           id="path266"
           d="M 0,0 H 0.921"
           style="fill:none;stroke:#918f90;stroke-width:0.886;stroke-linecap:butt;stroke-linejoin:miter;stroke-miterlimit:1;stroke-dasharray:none;stroke-opacity:1"
           transform="matrix(1.3333333,0,0,-1.3333333,246.5,361.564)" />
        <path
           id="path267"
           d="M 0,0 H 0.921"
           style="fill:none;stroke:#918f90;stroke-width:0.886;stroke-linecap:butt;stroke-linejoin:miter;stroke-miterlimit:1;stroke-dasharray:none;stroke-opacity:1"
           transform="matrix(1.3333333,0,0,-1.3333333,248.91067,361.564)" />
        <path
           id="path268"
           d="M 0,0 H 0.887"
           style="fill:none;stroke:#918f90;stroke-width:0.886;stroke-linecap:butt;stroke-linejoin:miter;stroke-miterlimit:1;stroke-dasharray:none;stroke-opacity:1"
           transform="matrix(1.3333333,0,0,-1.3333333,251.36667,361.564)" />
        <path
           id="path269"
           d="M 0,0 H 0.921"
           style="fill:none;stroke:#918f90;stroke-width:0.886;stroke-linecap:butt;stroke-linejoin:miter;stroke-miterlimit:1;stroke-dasharray:none;stroke-opacity:1"
           transform="matrix(1.3333333,0,0,-1.3333333,253.77733,361.564)" />
        <path
           id="path270"
           d="M 0,0 H 0.921"
           style="fill:none;stroke:#918f90;stroke-width:0.886;stroke-linecap:butt;stroke-linejoin:miter;stroke-miterlimit:1;stroke-dasharray:none;stroke-opacity:1"
           transform="matrix(1.3333333,0,0,-1.3333333,110.65467,420.28)" />
        <path
           id="path271"
           d="M 0,0 H 0.887"
           style="fill:none;stroke:#918f90;stroke-width:0.886;stroke-linecap:butt;stroke-linejoin:miter;stroke-miterlimit:1;stroke-dasharray:none;stroke-opacity:1"
           transform="matrix(1.3333333,0,0,-1.3333333,113.11067,420.28)" />
        <path
           id="path272"
           d="M 0,0 H 0.921"
           style="fill:none;stroke:#918f90;stroke-width:0.886;stroke-linecap:butt;stroke-linejoin:miter;stroke-miterlimit:1;stroke-dasharray:none;stroke-opacity:1"
           transform="matrix(1.3333333,0,0,-1.3333333,115.52133,420.28)" />
        <path
           id="path273"
           d="M 0,0 H 0.921"
           style="fill:none;stroke:#918f90;stroke-width:0.886;stroke-linecap:butt;stroke-linejoin:miter;stroke-miterlimit:1;stroke-dasharray:none;stroke-opacity:1"
           transform="matrix(1.3333333,0,0,-1.3333333,117.932,420.28)" />
        <path
           id="path274"
           d="M 0,0 H 0.887"
           style="fill:none;stroke:#918f90;stroke-width:0.886;stroke-linecap:butt;stroke-linejoin:miter;stroke-miterlimit:1;stroke-dasharray:none;stroke-opacity:1"
           transform="matrix(1.3333333,0,0,-1.3333333,120.388,420.28)" />
        <path
           id="path275"
           d="M 0,0 H 0.921"
           style="fill:none;stroke:#918f90;stroke-width:0.886;stroke-linecap:butt;stroke-linejoin:miter;stroke-miterlimit:1;stroke-dasharray:none;stroke-opacity:1"
           transform="matrix(1.3333333,0,0,-1.3333333,122.79867,420.28)" />
        <path
           id="path276"
           d="M 0,0 H 0.921"
           style="fill:none;stroke:#918f90;stroke-width:0.886;stroke-linecap:butt;stroke-linejoin:miter;stroke-miterlimit:1;stroke-dasharray:none;stroke-opacity:1"
           transform="matrix(1.3333333,0,0,-1.3333333,125.20933,420.28)" />
        <path
           id="path277"
           d="M 0,0 H 0.887"
           style="fill:none;stroke:#918f90;stroke-width:0.886;stroke-linecap:butt;stroke-linejoin:miter;stroke-miterlimit:1;stroke-dasharray:none;stroke-opacity:1"
           transform="matrix(1.3333333,0,0,-1.3333333,127.66533,420.28)" />
        <path
           id="path278"
           d="M 0,0 H 0.921"
           style="fill:none;stroke:#918f90;stroke-width:0.886;stroke-linecap:butt;stroke-linejoin:miter;stroke-miterlimit:1;stroke-dasharray:none;stroke-opacity:1"
           transform="matrix(1.3333333,0,0,-1.3333333,130.076,420.28)" />
        <path
           id="path279"
           d="M 0,0 H 0.921"
           style="fill:none;stroke:#918f90;stroke-width:0.886;stroke-linecap:butt;stroke-linejoin:miter;stroke-miterlimit:1;stroke-dasharray:none;stroke-opacity:1"
           transform="matrix(1.3333333,0,0,-1.3333333,132.48667,420.28)" />
        <path
           id="path280"
           d="M 0,0 H 0.887"
           style="fill:none;stroke:#918f90;stroke-width:0.886;stroke-linecap:butt;stroke-linejoin:miter;stroke-miterlimit:1;stroke-dasharray:none;stroke-opacity:1"
           transform="matrix(1.3333333,0,0,-1.3333333,134.94267,420.28)" />
        <path
           id="path281"
           d="M 0,0 H 0.921"
           style="fill:none;stroke:#918f90;stroke-width:0.886;stroke-linecap:butt;stroke-linejoin:miter;stroke-miterlimit:1;stroke-dasharray:none;stroke-opacity:1"
           transform="matrix(1.3333333,0,0,-1.3333333,137.35333,420.28)" />
        <path
           id="path282"
           d="M 0,0 H 0.921"
           style="fill:none;stroke:#918f90;stroke-width:0.886;stroke-linecap:butt;stroke-linejoin:miter;stroke-miterlimit:1;stroke-dasharray:none;stroke-opacity:1"
           transform="matrix(1.3333333,0,0,-1.3333333,139.764,420.28)" />
        <path
           id="path283"
           d="M 0,0 H 0.887"
           style="fill:none;stroke:#918f90;stroke-width:0.886;stroke-linecap:butt;stroke-linejoin:miter;stroke-miterlimit:1;stroke-dasharray:none;stroke-opacity:1"
           transform="matrix(1.3333333,0,0,-1.3333333,142.22,420.28)" />
        <path
           id="path284"
           d="M 0,0 H 0.921"
           style="fill:none;stroke:#918f90;stroke-width:0.886;stroke-linecap:butt;stroke-linejoin:miter;stroke-miterlimit:1;stroke-dasharray:none;stroke-opacity:1"
           transform="matrix(1.3333333,0,0,-1.3333333,144.63067,420.28)" />
        <path
           id="path285"
           d="M 0,0 H 0.921"
           style="fill:none;stroke:#918f90;stroke-width:0.886;stroke-linecap:butt;stroke-linejoin:miter;stroke-miterlimit:1;stroke-dasharray:none;stroke-opacity:1"
           transform="matrix(1.3333333,0,0,-1.3333333,147.04133,420.28)" />
        <path
           id="path286"
           d="M 0,0 H 0.887"
           style="fill:none;stroke:#918f90;stroke-width:0.886;stroke-linecap:butt;stroke-linejoin:miter;stroke-miterlimit:1;stroke-dasharray:none;stroke-opacity:1"
           transform="matrix(1.3333333,0,0,-1.3333333,149.49733,420.28)" />
        <path
           id="path287"
           d="M 0,0 H 0.921"
           style="fill:none;stroke:#918f90;stroke-width:0.886;stroke-linecap:butt;stroke-linejoin:miter;stroke-miterlimit:1;stroke-dasharray:none;stroke-opacity:1"
           transform="matrix(1.3333333,0,0,-1.3333333,151.908,420.28)" />
        <path
           id="path288"
           d="M 0,0 H 0.921"
           style="fill:none;stroke:#918f90;stroke-width:0.886;stroke-linecap:butt;stroke-linejoin:miter;stroke-miterlimit:1;stroke-dasharray:none;stroke-opacity:1"
           transform="matrix(1.3333333,0,0,-1.3333333,154.31867,420.28)" />
        <path
           id="path289"
           d="M 0,0 H 0.887"
           style="fill:none;stroke:#918f90;stroke-width:0.886;stroke-linecap:butt;stroke-linejoin:miter;stroke-miterlimit:1;stroke-dasharray:none;stroke-opacity:1"
           transform="matrix(1.3333333,0,0,-1.3333333,156.77467,420.28)" />
        <path
           id="path290"
           d="M 0,0 H 0.921"
           style="fill:none;stroke:#918f90;stroke-width:0.886;stroke-linecap:butt;stroke-linejoin:miter;stroke-miterlimit:1;stroke-dasharray:none;stroke-opacity:1"
           transform="matrix(1.3333333,0,0,-1.3333333,159.18533,420.28)" />
        <path
           id="path291"
           d="M 0,0 H 0.921"
           style="fill:none;stroke:#918f90;stroke-width:0.886;stroke-linecap:butt;stroke-linejoin:miter;stroke-miterlimit:1;stroke-dasharray:none;stroke-opacity:1"
           transform="matrix(1.3333333,0,0,-1.3333333,161.596,420.28)" />
        <path
           id="path292"
           d="M 0,0 H 0.887"
           style="fill:none;stroke:#918f90;stroke-width:0.886;stroke-linecap:butt;stroke-linejoin:miter;stroke-miterlimit:1;stroke-dasharray:none;stroke-opacity:1"
           transform="matrix(1.3333333,0,0,-1.3333333,164.052,420.28)" />
        <path
           id="path293"
           d="M 0,0 H 0.921"
           style="fill:none;stroke:#918f90;stroke-width:0.886;stroke-linecap:butt;stroke-linejoin:miter;stroke-miterlimit:1;stroke-dasharray:none;stroke-opacity:1"
           transform="matrix(1.3333333,0,0,-1.3333333,166.46267,420.28)" />
        <path
           id="path294"
           d="M 0,0 H 0.921"
           style="fill:none;stroke:#918f90;stroke-width:0.886;stroke-linecap:butt;stroke-linejoin:miter;stroke-miterlimit:1;stroke-dasharray:none;stroke-opacity:1"
           transform="matrix(1.3333333,0,0,-1.3333333,168.87333,420.28)" />
        <path
           id="path295"
           d="M 0,0 H 0.887"
           style="fill:none;stroke:#918f90;stroke-width:0.886;stroke-linecap:butt;stroke-linejoin:miter;stroke-miterlimit:1;stroke-dasharray:none;stroke-opacity:1"
           transform="matrix(1.3333333,0,0,-1.3333333,171.32933,420.28)" />
        <path
           id="path296"
           d="M 0,0 H 0.921"
           style="fill:none;stroke:#918f90;stroke-width:0.886;stroke-linecap:butt;stroke-linejoin:miter;stroke-miterlimit:1;stroke-dasharray:none;stroke-opacity:1"
           transform="matrix(1.3333333,0,0,-1.3333333,173.74,420.28)" />
        <path
           id="path297"
           d="M 0,0 H 0.921"
           style="fill:none;stroke:#918f90;stroke-width:0.886;stroke-linecap:butt;stroke-linejoin:miter;stroke-miterlimit:1;stroke-dasharray:none;stroke-opacity:1"
           transform="matrix(1.3333333,0,0,-1.3333333,176.15067,420.28)" />
        <path
           id="path298"
           d="M 0,0 H 0.887"
           style="fill:none;stroke:#918f90;stroke-width:0.886;stroke-linecap:butt;stroke-linejoin:miter;stroke-miterlimit:1;stroke-dasharray:none;stroke-opacity:1"
           transform="matrix(1.3333333,0,0,-1.3333333,178.60667,420.28)" />
        <path
           id="path299"
           d="M 0,0 H 0.921"
           style="fill:none;stroke:#918f90;stroke-width:0.886;stroke-linecap:butt;stroke-linejoin:miter;stroke-miterlimit:1;stroke-dasharray:none;stroke-opacity:1"
           transform="matrix(1.3333333,0,0,-1.3333333,181.01733,420.28)" />
        <path
           id="path300"
           d="M 0,0 H 0.921"
           style="fill:none;stroke:#918f90;stroke-width:0.886;stroke-linecap:butt;stroke-linejoin:miter;stroke-miterlimit:1;stroke-dasharray:none;stroke-opacity:1"
           transform="matrix(1.3333333,0,0,-1.3333333,183.428,420.28)" />
        <path
           id="path301"
           d="M 0,0 H 0.887"
           style="fill:none;stroke:#918f90;stroke-width:0.886;stroke-linecap:butt;stroke-linejoin:miter;stroke-miterlimit:1;stroke-dasharray:none;stroke-opacity:1"
           transform="matrix(1.3333333,0,0,-1.3333333,185.884,420.28)" />
        <path
           id="path302"
           d="M 0,0 H 0.921"
           style="fill:none;stroke:#918f90;stroke-width:0.886;stroke-linecap:butt;stroke-linejoin:miter;stroke-miterlimit:1;stroke-dasharray:none;stroke-opacity:1"
           transform="matrix(1.3333333,0,0,-1.3333333,188.29467,420.28)" />
        <path
           id="path303"
           d="M 0,0 H 0.921"
           style="fill:none;stroke:#918f90;stroke-width:0.886;stroke-linecap:butt;stroke-linejoin:miter;stroke-miterlimit:1;stroke-dasharray:none;stroke-opacity:1"
           transform="matrix(1.3333333,0,0,-1.3333333,190.70533,420.28)" />
        <path
           id="path304"
           d="M 0,0 H 0.887"
           style="fill:none;stroke:#918f90;stroke-width:0.886;stroke-linecap:butt;stroke-linejoin:miter;stroke-miterlimit:1;stroke-dasharray:none;stroke-opacity:1"
           transform="matrix(1.3333333,0,0,-1.3333333,193.16133,420.28)" />
        <path
           id="path305"
           d="M 0,0 H 0.921"
           style="fill:none;stroke:#918f90;stroke-width:0.886;stroke-linecap:butt;stroke-linejoin:miter;stroke-miterlimit:1;stroke-dasharray:none;stroke-opacity:1"
           transform="matrix(1.3333333,0,0,-1.3333333,195.572,420.28)" />
        <path
           id="path306"
           d="M 0,0 H 0.921"
           style="fill:none;stroke:#918f90;stroke-width:0.886;stroke-linecap:butt;stroke-linejoin:miter;stroke-miterlimit:1;stroke-dasharray:none;stroke-opacity:1"
           transform="matrix(1.3333333,0,0,-1.3333333,197.98267,420.28)" />
        <path
           id="path307"
           d="M 0,0 H 0.887"
           style="fill:none;stroke:#918f90;stroke-width:0.886;stroke-linecap:butt;stroke-linejoin:miter;stroke-miterlimit:1;stroke-dasharray:none;stroke-opacity:1"
           transform="matrix(1.3333333,0,0,-1.3333333,200.43867,420.28)" />
        <path
           id="path308"
           d="M 0,0 H 0.921"
           style="fill:none;stroke:#918f90;stroke-width:0.886;stroke-linecap:butt;stroke-linejoin:miter;stroke-miterlimit:1;stroke-dasharray:none;stroke-opacity:1"
           transform="matrix(1.3333333,0,0,-1.3333333,202.84933,420.28)" />
        <path
           id="path309"
           d="M 0,0 H 0.921"
           style="fill:none;stroke:#918f90;stroke-width:0.886;stroke-linecap:butt;stroke-linejoin:miter;stroke-miterlimit:1;stroke-dasharray:none;stroke-opacity:1"
           transform="matrix(1.3333333,0,0,-1.3333333,205.26,420.28)" />
        <path
           id="path310"
           d="M 0,0 H 0.887"
           style="fill:none;stroke:#918f90;stroke-width:0.886;stroke-linecap:butt;stroke-linejoin:miter;stroke-miterlimit:1;stroke-dasharray:none;stroke-opacity:1"
           transform="matrix(1.3333333,0,0,-1.3333333,207.716,420.28)" />
        <path
           id="path311"
           d="M 0,0 H 0.921"
           style="fill:none;stroke:#918f90;stroke-width:0.886;stroke-linecap:butt;stroke-linejoin:miter;stroke-miterlimit:1;stroke-dasharray:none;stroke-opacity:1"
           transform="matrix(1.3333333,0,0,-1.3333333,210.12667,420.28)" />
        <path
           id="path312"
           d="M 0,0 H 0.921"
           style="fill:none;stroke:#918f90;stroke-width:0.886;stroke-linecap:butt;stroke-linejoin:miter;stroke-miterlimit:1;stroke-dasharray:none;stroke-opacity:1"
           transform="matrix(1.3333333,0,0,-1.3333333,212.53733,420.28)" />
        <path
           id="path313"
           d="M 0,0 H 0.886"
           style="fill:none;stroke:#918f90;stroke-width:0.886;stroke-linecap:butt;stroke-linejoin:miter;stroke-miterlimit:1;stroke-dasharray:none;stroke-opacity:1"
           transform="matrix(1.3333333,0,0,-1.3333333,214.99333,420.28)" />
        <path
           id="path314"
           d="M 0,0 H 0.921"
           style="fill:none;stroke:#918f90;stroke-width:0.886;stroke-linecap:butt;stroke-linejoin:miter;stroke-miterlimit:1;stroke-dasharray:none;stroke-opacity:1"
           transform="matrix(1.3333333,0,0,-1.3333333,217.40267,420.28)" />
        <path
           id="path315"
           d="M 0,0 H 0.921"
           style="fill:none;stroke:#918f90;stroke-width:0.886;stroke-linecap:butt;stroke-linejoin:miter;stroke-miterlimit:1;stroke-dasharray:none;stroke-opacity:1"
           transform="matrix(1.3333333,0,0,-1.3333333,219.81333,420.28)" />
        <path
           id="path316"
           d="M 0,0 H 0.887"
           style="fill:none;stroke:#918f90;stroke-width:0.886;stroke-linecap:butt;stroke-linejoin:miter;stroke-miterlimit:1;stroke-dasharray:none;stroke-opacity:1"
           transform="matrix(1.3333333,0,0,-1.3333333,222.26933,420.28)" />
        <path
           id="path317"
           d="M 0,0 H 0.921"
           style="fill:none;stroke:#918f90;stroke-width:0.886;stroke-linecap:butt;stroke-linejoin:miter;stroke-miterlimit:1;stroke-dasharray:none;stroke-opacity:1"
           transform="matrix(1.3333333,0,0,-1.3333333,224.68,420.28)" />
        <path
           id="path318"
           d="M 0,0 H 0.921"
           style="fill:none;stroke:#918f90;stroke-width:0.886;stroke-linecap:butt;stroke-linejoin:miter;stroke-miterlimit:1;stroke-dasharray:none;stroke-opacity:1"
           transform="matrix(1.3333333,0,0,-1.3333333,227.09067,420.28)" />
        <path
           id="path319"
           d="M 0,0 H 0.886"
           style="fill:none;stroke:#918f90;stroke-width:0.886;stroke-linecap:butt;stroke-linejoin:miter;stroke-miterlimit:1;stroke-dasharray:none;stroke-opacity:1"
           transform="matrix(1.3333333,0,0,-1.3333333,229.54667,420.28)" />
        <path
           id="path320"
           d="M 0,0 H 0.921"
           style="fill:none;stroke:#918f90;stroke-width:0.886;stroke-linecap:butt;stroke-linejoin:miter;stroke-miterlimit:1;stroke-dasharray:none;stroke-opacity:1"
           transform="matrix(1.3333333,0,0,-1.3333333,231.956,420.28)" />
        <path
           id="path321"
           d="M 0,0 H 0.921"
           style="fill:none;stroke:#918f90;stroke-width:0.886;stroke-linecap:butt;stroke-linejoin:miter;stroke-miterlimit:1;stroke-dasharray:none;stroke-opacity:1"
           transform="matrix(1.3333333,0,0,-1.3333333,234.36667,420.28)" />
        <path
           id="path322"
           d="M 0,0 H 0.887"
           style="fill:none;stroke:#918f90;stroke-width:0.886;stroke-linecap:butt;stroke-linejoin:miter;stroke-miterlimit:1;stroke-dasharray:none;stroke-opacity:1"
           transform="matrix(1.3333333,0,0,-1.3333333,236.82267,420.28)" />
        <path
           id="path323"
           d="M 0,0 H 0.921"
           style="fill:none;stroke:#918f90;stroke-width:0.886;stroke-linecap:butt;stroke-linejoin:miter;stroke-miterlimit:1;stroke-dasharray:none;stroke-opacity:1"
           transform="matrix(1.3333333,0,0,-1.3333333,239.23333,420.28)" />
        <path
           id="path324"
           d="M 0,0 H 0.921"
           style="fill:none;stroke:#918f90;stroke-width:0.886;stroke-linecap:butt;stroke-linejoin:miter;stroke-miterlimit:1;stroke-dasharray:none;stroke-opacity:1"
           transform="matrix(1.3333333,0,0,-1.3333333,241.644,420.28)" />
        <path
           id="path325"
           d="M 0,0 H 0.886"
           style="fill:none;stroke:#918f90;stroke-width:0.886;stroke-linecap:butt;stroke-linejoin:miter;stroke-miterlimit:1;stroke-dasharray:none;stroke-opacity:1"
           transform="matrix(1.3333333,0,0,-1.3333333,244.1,420.28)" />
        <path
           id="path326"
           d="M 0,0 H 0.921"
           style="fill:none;stroke:#918f90;stroke-width:0.886;stroke-linecap:butt;stroke-linejoin:miter;stroke-miterlimit:1;stroke-dasharray:none;stroke-opacity:1"
           transform="matrix(1.3333333,0,0,-1.3333333,246.50933,420.28)" />
        <path
           id="path327"
           d="M 0,0 H 0.921"
           style="fill:none;stroke:#918f90;stroke-width:0.886;stroke-linecap:butt;stroke-linejoin:miter;stroke-miterlimit:1;stroke-dasharray:none;stroke-opacity:1"
           transform="matrix(1.3333333,0,0,-1.3333333,248.92,420.28)" />
        <path
           id="path328"
           d="M 0,0 H 0.887"
           style="fill:none;stroke:#918f90;stroke-width:0.886;stroke-linecap:butt;stroke-linejoin:miter;stroke-miterlimit:1;stroke-dasharray:none;stroke-opacity:1"
           transform="matrix(1.3333333,0,0,-1.3333333,251.376,420.28)" />
        <path
           id="path329"
           d="M 0,0 H 0.921"
           style="fill:none;stroke:#918f90;stroke-width:0.886;stroke-linecap:butt;stroke-linejoin:miter;stroke-miterlimit:1;stroke-dasharray:none;stroke-opacity:1"
           transform="matrix(1.3333333,0,0,-1.3333333,253.78667,420.28)" />
        <path
           id="path330"
           d="m 0,0 c 0,-0.953 -0.75,-1.703 -1.705,-1.703 -0.956,0 -1.706,0.75 -1.706,1.703 0,0.954 0.75,1.703 1.706,1.703 C -0.75,1.703 0,0.954 0,0 Z"
           style="fill:none;stroke:#231f20;stroke-width:0.477;stroke-linecap:butt;stroke-linejoin:miter;stroke-miterlimit:1;stroke-dasharray:none;stroke-opacity:1"
           transform="matrix(1.3333333,0,0,-1.3333333,117.104,401.25333)" />
        <path
           id="path331"
           d="m 0,0 c 0,-0.954 -0.75,-1.703 -1.705,-1.703 -0.955,0 -1.706,0.749 -1.706,1.703 0,0.953 0.751,1.703 1.706,1.703 C -0.75,1.703 0,0.953 0,0"
           style="fill:#231f20;fill-opacity:1;fill-rule:nonzero;stroke:none"
           transform="matrix(1.3333333,0,0,-1.3333333,120.74267,406.33867)" />
        <path
           id="path332"
           d="m 0,0 c 0,-0.953 -0.785,-1.703 -1.705,-1.703 -0.955,0 -1.74,0.75 -1.74,1.703 0,0.954 0.785,1.703 1.74,1.703 C -0.785,1.703 0,0.954 0,0 Z"
           style="fill:none;stroke:#231f20;stroke-width:0.477;stroke-linecap:butt;stroke-linejoin:miter;stroke-miterlimit:1;stroke-dasharray:none;stroke-opacity:1"
           transform="matrix(1.3333333,0,0,-1.3333333,122.83467,400.52667)" />
        <path
           id="path333"
           d="m 0,0 c 0,-0.953 -0.75,-1.703 -1.705,-1.703 -0.956,0 -1.706,0.75 -1.706,1.703 0,0.954 0.75,1.703 1.706,1.703 C -0.75,1.703 0,0.954 0,0 Z"
           style="fill:none;stroke:#231f20;stroke-width:0.477;stroke-linecap:butt;stroke-linejoin:miter;stroke-miterlimit:1;stroke-dasharray:none;stroke-opacity:1"
           transform="matrix(1.3333333,0,0,-1.3333333,123.33467,401.25333)" />
        <path
           id="path334"
           d="m 0,0 c 0,-0.92 -0.785,-1.703 -1.74,-1.703 -0.92,0 -1.705,0.783 -1.705,1.703 0,0.953 0.785,1.737 1.705,1.737 C -0.785,1.737 0,0.953 0,0 Z"
           style="fill:none;stroke:#231f20;stroke-width:0.477;stroke-linecap:butt;stroke-linejoin:miter;stroke-miterlimit:1;stroke-dasharray:none;stroke-opacity:1"
           transform="matrix(1.3333333,0,0,-1.3333333,125.65467,400.11733)" />
        <path
           id="path335"
           d="m 0,0 c 0,-0.954 -0.75,-1.703 -1.705,-1.703 -0.955,0 -1.706,0.749 -1.706,1.703 0,0.953 0.751,1.703 1.706,1.703 C -0.75,1.703 0,0.953 0,0"
           style="fill:#231f20;fill-opacity:1;fill-rule:nonzero;stroke:none"
           transform="matrix(1.3333333,0,0,-1.3333333,125.92667,406.33867)" />
        <path
           id="path336"
           d="m 0,0 c 0,-0.954 -0.785,-1.703 -1.705,-1.703 -0.955,0 -1.74,0.749 -1.74,1.703 0,0.953 0.785,1.702 1.74,1.702 C -0.785,1.702 0,0.953 0,0"
           style="fill:#231f20;fill-opacity:1;fill-rule:nonzero;stroke:none"
           transform="matrix(1.3333333,0,0,-1.3333333,126.47333,402.70533)" />
        <path
           id="path337"
           d="m 0,0 c 0,-0.953 -0.75,-1.702 -1.705,-1.702 -0.955,0 -1.706,0.749 -1.706,1.702 0,0.954 0.751,1.703 1.706,1.703 C -0.75,1.703 0,0.954 0,0 Z"
           style="fill:none;stroke:#231f20;stroke-width:0.477;stroke-linecap:butt;stroke-linejoin:miter;stroke-miterlimit:1;stroke-dasharray:none;stroke-opacity:1"
           transform="matrix(1.3333333,0,0,-1.3333333,126.97333,401.98)" />
        <path
           id="path338"
           d="m 0,0 c 0,-0.954 -0.784,-1.703 -1.74,-1.703 -0.92,0 -1.705,0.749 -1.705,1.703 0,0.954 0.785,1.703 1.705,1.703 C -0.784,1.703 0,0.954 0,0"
           style="fill:#231f20;fill-opacity:1;fill-rule:nonzero;stroke:none"
           transform="matrix(1.3333333,0,0,-1.3333333,132.20267,406.33867)" />
        <path
           id="path339"
           d="m 0,0 c 0,-0.954 -0.75,-1.703 -1.705,-1.703 -0.955,0 -1.706,0.749 -1.706,1.703 0,0.953 0.751,1.703 1.706,1.703 C -0.75,1.703 0,0.953 0,0"
           style="fill:#231f20;fill-opacity:1;fill-rule:nonzero;stroke:none"
           transform="matrix(1.3333333,0,0,-1.3333333,133.204,404.88533)" />
        <path
           id="path340"
           d="m 0,0 c 0,-0.954 -0.784,-1.703 -1.705,-1.703 -0.955,0 -1.74,0.749 -1.74,1.703 0,0.953 0.785,1.703 1.74,1.703 C -0.784,1.703 0,0.953 0,0"
           style="fill:#231f20;fill-opacity:1;fill-rule:nonzero;stroke:none"
           transform="matrix(1.3333333,0,0,-1.3333333,137.388,404.88533)" />
        <path
           id="path341"
           d="m 0,0 c 0,-0.953 -0.75,-1.702 -1.705,-1.702 -0.956,0 -1.706,0.749 -1.706,1.702 0,0.954 0.75,1.703 1.706,1.703 C -0.75,1.703 0,0.954 0,0"
           style="fill:#231f20;fill-opacity:1;fill-rule:nonzero;stroke:none"
           transform="matrix(1.3333333,0,0,-1.3333333,138.93467,401.25333)" />
        <path
           id="path342"
           d="m 0,0 c 0,-0.953 -0.785,-1.703 -1.74,-1.703 -0.92,0 -1.705,0.75 -1.705,1.703 0,0.954 0.785,1.703 1.705,1.703 C -0.785,1.703 0,0.954 0,0 Z"
           style="fill:none;stroke:#231f20;stroke-width:0.477;stroke-linecap:butt;stroke-linejoin:miter;stroke-miterlimit:1;stroke-dasharray:none;stroke-opacity:1"
           transform="matrix(1.3333333,0,0,-1.3333333,139.48,388.90133)" />
        <path
           id="path343"
           d="m 0,0 c 0,-0.954 -0.75,-1.703 -1.706,-1.703 -0.955,0 -1.705,0.749 -1.705,1.703 0,0.953 0.75,1.703 1.705,1.703 C -0.75,1.703 0,0.953 0,0 Z"
           style="fill:none;stroke:#231f20;stroke-width:0.477;stroke-linecap:butt;stroke-linejoin:miter;stroke-miterlimit:1;stroke-dasharray:none;stroke-opacity:1"
           transform="matrix(1.3333333,0,0,-1.3333333,145.16533,392.53333)" />
        <path
           id="path344"
           d="m 0,0 c 0,-0.954 -0.75,-1.703 -1.705,-1.703 -0.955,0 -1.706,0.749 -1.706,1.703 0,0.953 0.751,1.703 1.706,1.703 C -0.75,1.703 0,0.953 0,0"
           style="fill:#231f20;fill-opacity:1;fill-rule:nonzero;stroke:none"
           transform="matrix(1.3333333,0,0,-1.3333333,147.25733,402.70533)" />
        <path
           id="path345"
           d="m 0,0 c 0,-0.953 -0.785,-1.703 -1.74,-1.703 -0.921,0 -1.705,0.75 -1.705,1.703 0,0.954 0.784,1.703 1.705,1.703 C -0.785,1.703 0,0.954 0,0 Z"
           style="fill:none;stroke:#231f20;stroke-width:0.477;stroke-linecap:butt;stroke-linejoin:miter;stroke-miterlimit:1;stroke-dasharray:none;stroke-opacity:1"
           transform="matrix(1.3333333,0,0,-1.3333333,149.34933,376.55067)" />
        <path
           id="path346"
           d="m 0,0 c 0,-0.953 -0.785,-1.703 -1.74,-1.703 -0.921,0 -1.705,0.75 -1.705,1.703 0,0.954 0.784,1.703 1.705,1.703 C -0.785,1.703 0,0.954 0,0"
           style="fill:#231f20;fill-opacity:1;fill-rule:nonzero;stroke:none"
           transform="matrix(1.3333333,0,0,-1.3333333,150.39467,399.8)" />
        <path
           id="path347"
           d="m 0,0 c 0,-0.954 -0.75,-1.703 -1.705,-1.703 -0.955,0 -1.706,0.749 -1.706,1.703 0,0.953 0.751,1.702 1.706,1.702 C -0.75,1.702 0,0.953 0,0 Z"
           style="fill:none;stroke:#231f20;stroke-width:0.477;stroke-linecap:butt;stroke-linejoin:miter;stroke-miterlimit:1;stroke-dasharray:none;stroke-opacity:1"
           transform="matrix(1.3333333,0,0,-1.3333333,152.44133,379.456)" />
        <path
           id="path348"
           d="m 0,0 c 0,-0.954 -0.785,-1.703 -1.74,-1.703 -0.92,0 -1.705,0.749 -1.705,1.703 0,0.954 0.785,1.703 1.705,1.703 C -0.785,1.703 0,0.954 0,0 Z"
           style="fill:none;stroke:#231f20;stroke-width:0.477;stroke-linecap:butt;stroke-linejoin:miter;stroke-miterlimit:1;stroke-dasharray:none;stroke-opacity:1"
           transform="matrix(1.3333333,0,0,-1.3333333,152.98667,383.08933)" />
        <path
           id="path349"
           d="m 0,0 c 0,-0.954 -0.75,-1.703 -1.705,-1.703 -0.955,0 -1.706,0.749 -1.706,1.703 0,0.954 0.751,1.703 1.706,1.703 C -0.75,1.703 0,0.954 0,0"
           style="fill:#231f20;fill-opacity:1;fill-rule:nonzero;stroke:none"
           transform="matrix(1.3333333,0,0,-1.3333333,158.172,396.16667)" />
        <path
           id="path350"
           d="m 0,0 c 0,-0.954 -0.75,-1.703 -1.705,-1.703 -0.956,0 -1.706,0.749 -1.706,1.703 0,0.953 0.75,1.703 1.706,1.703 C -0.75,1.703 0,0.953 0,0"
           style="fill:#231f20;fill-opacity:1;fill-rule:nonzero;stroke:none"
           transform="matrix(1.3333333,0,0,-1.3333333,160.764,414.33067)" />
        <path
           id="path351"
           d="m 0,0 c 0,-0.954 -0.75,-1.703 -1.705,-1.703 -0.955,0 -1.706,0.749 -1.706,1.703 0,0.954 0.751,1.703 1.706,1.703 C -0.75,1.703 0,0.954 0,0 Z"
           style="fill:none;stroke:#231f20;stroke-width:0.477;stroke-linecap:butt;stroke-linejoin:miter;stroke-miterlimit:1;stroke-dasharray:none;stroke-opacity:1"
           transform="matrix(1.3333333,0,0,-1.3333333,163.356,383.08933)" />
        <path
           id="path352"
           d="m 0,0 c 0,-0.953 -0.75,-1.703 -1.705,-1.703 -0.955,0 -1.706,0.75 -1.706,1.703 0,0.954 0.751,1.703 1.706,1.703 C -0.75,1.703 0,0.954 0,0 Z"
           style="fill:none;stroke:#231f20;stroke-width:0.477;stroke-linecap:butt;stroke-linejoin:miter;stroke-miterlimit:1;stroke-dasharray:none;stroke-opacity:1"
           transform="matrix(1.3333333,0,0,-1.3333333,164.40133,375.824)" />
        <path
           id="path353"
           d="m 0,0 c 0,-0.953 -0.75,-1.703 -1.706,-1.703 -0.954,0 -1.705,0.75 -1.705,1.703 0,0.954 0.751,1.703 1.705,1.703 C -0.75,1.703 0,0.954 0,0"
           style="fill:#231f20;fill-opacity:1;fill-rule:nonzero;stroke:none"
           transform="matrix(1.3333333,0,0,-1.3333333,168.04133,398.34667)" />
        <path
           id="path354"
           d="m 0,0 c 0,-0.954 -0.75,-1.703 -1.705,-1.703 -0.955,0 -1.706,0.749 -1.706,1.703 0,0.953 0.751,1.703 1.706,1.703 C -0.75,1.703 0,0.953 0,0 Z"
           style="fill:none;stroke:#231f20;stroke-width:0.477;stroke-linecap:butt;stroke-linejoin:miter;stroke-miterlimit:1;stroke-dasharray:none;stroke-opacity:1"
           transform="matrix(1.3333333,0,0,-1.3333333,169.08667,379.456)" />
        <path
           id="path355"
           d="m 0,0 c 0,-0.954 -0.75,-1.703 -1.705,-1.703 -0.955,0 -1.706,0.749 -1.706,1.703 0,0.954 0.751,1.703 1.706,1.703 C -0.75,1.703 0,0.954 0,0 Z"
           style="fill:none;stroke:#231f20;stroke-width:0.477;stroke-linecap:butt;stroke-linejoin:miter;stroke-miterlimit:1;stroke-dasharray:none;stroke-opacity:1"
           transform="matrix(1.3333333,0,0,-1.3333333,174.27067,373.644)" />
        <path
           id="path356"
           d="m 0,0 c 0,-0.953 -0.785,-1.703 -1.74,-1.703 -0.921,0 -1.705,0.75 -1.705,1.703 0,0.954 0.784,1.703 1.705,1.703 C -0.785,1.703 0,0.954 0,0"
           style="fill:#231f20;fill-opacity:1;fill-rule:nonzero;stroke:none"
           transform="matrix(1.3333333,0,0,-1.3333333,175.864,397.62)" />
        <path
           id="path357"
           d="m 0,0 c 0,-0.953 -0.785,-1.703 -1.74,-1.703 -0.92,0 -1.705,0.75 -1.705,1.703 0,0.954 0.785,1.703 1.705,1.703 C -0.785,1.703 0,0.954 0,0 Z"
           style="fill:none;stroke:#231f20;stroke-width:0.477;stroke-linecap:butt;stroke-linejoin:miter;stroke-miterlimit:1;stroke-dasharray:none;stroke-opacity:1"
           transform="matrix(1.3333333,0,0,-1.3333333,178.456,373.644)" />
        <path
           id="path358"
           d="m 0,0 c 0,-0.954 -0.784,-1.703 -1.74,-1.703 -0.92,0 -1.705,0.749 -1.705,1.703 0,0.953 0.785,1.703 1.705,1.703 C -0.784,1.703 0,0.953 0,0"
           style="fill:#231f20;fill-opacity:1;fill-rule:nonzero;stroke:none"
           transform="matrix(1.3333333,0,0,-1.3333333,179.50133,401.252)" />
        <path
           id="path359"
           d="m 0,0 c 0,-0.953 -0.751,-1.703 -1.706,-1.703 -0.955,0 -1.705,0.75 -1.705,1.703 0,0.954 0.75,1.703 1.705,1.703 C -0.751,1.703 0,0.954 0,0 Z"
           style="fill:none;stroke:#231f20;stroke-width:0.477;stroke-linecap:butt;stroke-linejoin:miter;stroke-miterlimit:1;stroke-dasharray:none;stroke-opacity:1"
           transform="matrix(1.3333333,0,0,-1.3333333,182.59467,376.55067)" />
        <path
           id="path360"
           d="m 0,0 c 0,-0.954 -0.75,-1.703 -1.706,-1.703 -0.954,0 -1.705,0.749 -1.705,1.703 0,0.954 0.751,1.703 1.705,1.703 C -0.75,1.703 0,0.954 0,0 Z"
           style="fill:none;stroke:#231f20;stroke-width:0.477;stroke-linecap:butt;stroke-linejoin:miter;stroke-miterlimit:1;stroke-dasharray:none;stroke-opacity:1"
           transform="matrix(1.3333333,0,0,-1.3333333,199.74,372.91733)" />
        <path
           id="path361"
           d="m 0,0 c 0,-0.953 -0.784,-1.703 -1.739,-1.703 -0.921,0 -1.706,0.75 -1.706,1.703 0,0.954 0.785,1.703 1.706,1.703 C -0.784,1.703 0,0.954 0,0 Z"
           style="fill:none;stroke:#231f20;stroke-width:0.477;stroke-linecap:butt;stroke-linejoin:miter;stroke-miterlimit:1;stroke-dasharray:none;stroke-opacity:1"
           transform="matrix(1.3333333,0,0,-1.3333333,200.28533,364.92533)" />
        <path
           id="path362"
           d="m 0,0 c 0,-0.954 -0.785,-1.703 -1.74,-1.703 -0.921,0 -1.705,0.749 -1.705,1.703 0,0.953 0.784,1.703 1.705,1.703 C -0.785,1.703 0,0.953 0,0"
           style="fill:#231f20;fill-opacity:1;fill-rule:nonzero;stroke:none"
           transform="matrix(1.3333333,0,0,-1.3333333,201.332,402.70533)" />
        <path
           id="path363"
           d="m 0,0 c 0,-0.954 -0.75,-1.703 -1.705,-1.703 -0.955,0 -1.706,0.749 -1.706,1.703 0,0.953 0.751,1.703 1.706,1.703 C -0.75,1.703 0,0.953 0,0"
           style="fill:#231f20;fill-opacity:1;fill-rule:nonzero;stroke:none"
           transform="matrix(1.3333333,0,0,-1.3333333,204.424,379.456)" />
        <path
           id="path364"
           d="m 0,0 c 0,-0.954 -0.75,-1.703 -1.705,-1.703 -0.956,0 -1.706,0.749 -1.706,1.703 0,0.954 0.75,1.703 1.706,1.703 C -0.75,1.703 0,0.954 0,0"
           style="fill:#231f20;fill-opacity:1;fill-rule:nonzero;stroke:none"
           transform="matrix(1.3333333,0,0,-1.3333333,217.932,405.612)" />
        <path
           id="path365"
           d="m 0,0 c 0,-0.953 -0.75,-1.703 -1.705,-1.703 -0.955,0 -1.706,0.75 -1.706,1.703 0,0.954 0.751,1.703 1.706,1.703 C -0.75,1.703 0,0.954 0,0 Z"
           style="fill:none;stroke:#231f20;stroke-width:0.477;stroke-linecap:butt;stroke-linejoin:miter;stroke-miterlimit:1;stroke-dasharray:none;stroke-opacity:1"
           transform="matrix(1.3333333,0,0,-1.3333333,220.024,375.09733)" />
        <path
           id="path366"
           d="m 0,0 c 0,-0.954 -0.75,-1.703 -1.705,-1.703 -0.955,0 -1.706,0.749 -1.706,1.703 0,0.953 0.751,1.703 1.706,1.703 C -0.75,1.703 0,0.953 0,0 Z"
           style="fill:none;stroke:#231f20;stroke-width:0.477;stroke-linecap:butt;stroke-linejoin:miter;stroke-miterlimit:1;stroke-dasharray:none;stroke-opacity:1"
           transform="matrix(1.3333333,0,0,-1.3333333,222.616,355.47867)" />
        <path
           id="path367"
           d="m 0,0 c 0,-0.954 -0.75,-1.703 -1.705,-1.703 -0.955,0 -1.706,0.749 -1.706,1.703 0,0.954 0.751,1.703 1.706,1.703 C -0.75,1.703 0,0.954 0,0 Z"
           style="fill:none;stroke:#231f20;stroke-width:0.477;stroke-linecap:butt;stroke-linejoin:miter;stroke-miterlimit:1;stroke-dasharray:none;stroke-opacity:1"
           transform="matrix(1.3333333,0,0,-1.3333333,247.03867,360.56533)" />
        <path
           id="path368"
           d="M 0,0 H 103.624"
           style="fill:none;stroke:#918f90;stroke-width:0.443;stroke-linecap:butt;stroke-linejoin:miter;stroke-miterlimit:1;stroke-dasharray:none;stroke-opacity:1"
           transform="matrix(1.3333333,0,0,-1.3333333,118.332,391.26133)" />
        <path
           id="path369"
           d="M 0,0 V -2.694"
           style="fill:none;stroke:#231f20;stroke-width:0.67;stroke-linecap:square;stroke-linejoin:round;stroke-miterlimit:1;stroke-dasharray:none;stroke-opacity:1"
           transform="matrix(1.3333333,0,0,-1.3333333,131.56667,475.72133)" />
        <path
           id="path370"
           d="M 0,0 V -2.694"
           style="fill:none;stroke:#231f20;stroke-width:0.67;stroke-linecap:square;stroke-linejoin:round;stroke-miterlimit:1;stroke-dasharray:none;stroke-opacity:1"
           transform="matrix(1.3333333,0,0,-1.3333333,152.80533,475.72133)" />
        <path
           id="path371"
           d="M 0,0 V -2.694"
           style="fill:none;stroke:#231f20;stroke-width:0.67;stroke-linecap:square;stroke-linejoin:round;stroke-miterlimit:1;stroke-dasharray:none;stroke-opacity:1"
           transform="matrix(1.3333333,0,0,-1.3333333,173.40667,475.72133)" />
        <path
           id="path372"
           d="M 0,0 V -2.694"
           style="fill:none;stroke:#231f20;stroke-width:0.67;stroke-linecap:square;stroke-linejoin:round;stroke-miterlimit:1;stroke-dasharray:none;stroke-opacity:1"
           transform="matrix(1.3333333,0,0,-1.3333333,194.05467,475.72133)" />
        <path
           id="path373"
           d="M 0,0 V -2.694"
           style="fill:none;stroke:#231f20;stroke-width:0.67;stroke-linecap:square;stroke-linejoin:round;stroke-miterlimit:1;stroke-dasharray:none;stroke-opacity:1"
           transform="matrix(1.3333333,0,0,-1.3333333,214.65733,475.72133)" />
        <path
           id="path374"
           d="M 0,0 V -2.694"
           style="fill:none;stroke:#231f20;stroke-width:0.67;stroke-linecap:square;stroke-linejoin:round;stroke-miterlimit:1;stroke-dasharray:none;stroke-opacity:1"
           transform="matrix(1.3333333,0,0,-1.3333333,235.896,475.72133)" />
        <path
           id="path942"
           d="M 192.563,426.195 H 83.407 V 535.21 h 109.156 z"
           style="fill:none;stroke:#231f20;stroke-width:0.674;stroke-linecap:butt;stroke-linejoin:miter;stroke-miterlimit:10;stroke-dasharray:none;stroke-opacity:1"
           transform="matrix(1.3333333,0,0,-1.3333333,0,1043.9813)" />
        <path
           id="path943"
           d="M 0,0 V -2.724"
           style="fill:none;stroke:#231f20;stroke-width:0.674;stroke-linecap:square;stroke-linejoin:miter;stroke-miterlimit:1;stroke-dasharray:none;stroke-opacity:1"
           transform="matrix(1.3333333,0,0,-1.3333333,256.75067,475.68133)" />
        <path
           id="path944"
           d="M 0,0 V -2.725"
           style="fill:none;stroke:#231f20;stroke-width:0.674;stroke-linecap:square;stroke-linejoin:miter;stroke-miterlimit:1;stroke-dasharray:none;stroke-opacity:1"
           transform="matrix(1.3333333,0,0,-1.3333333,111.20933,476.03733)" />
        <path
           id="path945"
           d="M 0,0 H 2.729"
           style="fill:none;stroke:#231f20;stroke-width:0.674;stroke-linecap:square;stroke-linejoin:miter;stroke-miterlimit:1;stroke-dasharray:none;stroke-opacity:1"
           transform="matrix(1.3333333,0,0,-1.3333333,107.55067,475.72133)" />
        <path
           id="path946"
           d="M 2.6119594,-5.0521687 H 2.2135219 c -0.1054688,0.2226562 -0.2929688,0.4453125 -0.5507813,0.6796875 -0.2578125,0.234375 -0.5625,0.421875 -0.90234373,0.5859375 v 0.5976562 c 0.1875,-0.070312 0.39843753,-0.1875 0.64453123,-0.3164062 0.2460938,-0.140625 0.4453125,-0.28125 0.5859375,-0.421875 v 3.9257812 h 0.6210938 z m 2.0917969,4.61718745 c 0.2695312,0.33984375 0.6445312,0.515625 1.1367187,0.515625 0.3632813,0 0.6679688,-0.09375 0.9140625,-0.29296875 0.234375,-0.19921875 0.421875,-0.48046875 0.5390625,-0.84375 0.1171875,-0.3515625 0.1757813,-0.8320312 0.1757813,-1.4179687 0,-0.5039063 -0.035156,-0.9023438 -0.1054688,-1.1953125 -0.082031,-0.2929688 -0.1875,-0.5390625 -0.3164062,-0.75 C 6.9186,-4.618575 6.7545375,-4.7709187 6.5436,-4.8881062 6.3443813,-4.993575 6.0982875,-5.0521687 5.840475,-5.0521687 c -0.3632812,0 -0.6679687,0.1054687 -0.9140625,0.2929687 -0.2460937,0.1992188 -0.421875,0.4804688 -0.5390625,0.84375 -0.1171875,0.3632813 -0.1875,0.84375 -0.1875,1.4414063 0,0.9375 0.1757813,1.61718745 0.5039063,2.03906245 z M 5.1490688,-4.1732625 c 0.1640625,-0.2460937 0.3984375,-0.3632812 0.6796875,-0.3632812 0.2929687,0 0.5273437,0.1289062 0.7265625,0.4101562 0.1875,0.2695313 0.28125,0.8203125 0.28125,1.6523438 0,0.8203125 -0.09375,1.3710937 -0.28125,1.64062495 -0.1992188,0.28125 -0.4335938,0.41015625 -0.7148438,0.41015625 -0.28125,0 -0.5273437,-0.12890625 -0.7148437,-0.41015625 C 4.9264125,-1.10295 4.8326625,-1.6537312 4.8326625,-2.4740437 c 0,-0.8320313 0.1054688,-1.3945313 0.3164063,-1.6992188 z M 4.4430141,8.6411906 C 4.2789516,8.8521281 4.1969203,9.1333781 4.1969203,9.4615031 c 0,0.4335938 0.1523438,0.7968749 0.4453125,1.0898439 0.3046875,0.304687 0.703125,0.445312 1.2070313,0.445312 0.4921875,0 0.890625,-0.140625 1.1953125,-0.433593 0.3046875,-0.292969 0.4570312,-0.6562504 0.4570312,-1.0898441 0,-0.3046875 -0.082031,-0.5742188 -0.2460937,-0.796875 C 7.1031703,8.4536906 6.8687953,8.2896281 6.5523891,8.1958781 c 0.2460937,-0.1054687 0.4453125,-0.234375 0.5625,-0.4101562 0.1171875,-0.1757813 0.1757812,-0.375 0.1757812,-0.609375 0,-0.3632813 -0.1289062,-0.6679688 -0.3984375,-0.9257813 C 6.6227016,5.9927531 6.2711391,5.8638469 5.8375453,5.8638469 c -0.4335937,0 -0.7851562,0.1289062 -1.0546875,0.375 -0.2578125,0.2578125 -0.3867187,0.5625 -0.3867187,0.9257812 0,0.2460938 0.058594,0.4453125 0.1875,0.6210938 C 4.7008266,7.9615031 4.8883266,8.0904094 5.1578578,8.1958781 4.8414516,8.2661906 4.6070766,8.4185344 4.4430141,8.6411906 Z M 5.2633266,6.6021281 c 0.1523437,-0.1523437 0.3515625,-0.234375 0.5859375,-0.234375 0.234375,0 0.421875,0.082031 0.5859375,0.234375 0.1523437,0.1523438 0.2226562,0.3515625 0.2226562,0.5742188 0,0.2109375 -0.070312,0.3984375 -0.2226562,0.5507812 -0.1523438,0.1523438 -0.3398438,0.2226563 -0.5859375,0.2226563 -0.2460938,0 -0.4453125,-0.070312 -0.5976563,-0.2226563 C 5.0992641,7.5747844 5.0289516,7.3755656 5.0289516,7.1411906 c 0,-0.2109375 0.070312,-0.3867187 0.234375,-0.5390625 z M 5.0992641,8.7466594 c 0.1992187,-0.1875 0.4453125,-0.2929688 0.7265625,-0.2929688 0.3046875,0 0.5507812,0.1054688 0.75,0.2929688 0.1875,0.1992187 0.2929687,0.4453125 0.2929687,0.7382812 0,0.2929688 -0.1054687,0.5273434 -0.2929687,0.7265624 -0.1875,0.1875 -0.4335938,0.28125 -0.7265625,0.28125 -0.1875,0 -0.3632813,-0.04687 -0.5390625,-0.128906 C 5.1578578,10.270097 5.0289516,10.141191 4.9469203,9.9771281 4.8648891,9.8130656 4.8180141,9.6490031 4.8180141,9.4732219 c 0,-0.2929688 0.09375,-0.5390625 0.28125,-0.7265625 z M 6.9508266,17.105058 C 6.6930141,16.89412 6.3766078,16.776933 5.9781703,16.776933 c -0.5273437,0 -0.9492187,0.1875 -1.265625,0.574219 -0.3632812,0.445312 -0.5390625,1.148437 -0.5390625,2.121093 0,0.878907 0.1640625,1.488282 0.4804688,1.875 0.328125,0.375 0.75,0.5625 1.265625,0.5625 0.3046875,0 0.5625,-0.07031 0.8085937,-0.210937 0.234375,-0.140625 0.421875,-0.351563 0.5625,-0.621094 0.1289063,-0.269531 0.1992188,-0.574219 0.1992188,-0.890625 0,-0.46875 -0.140625,-0.867187 -0.4335938,-1.171875 -0.2929687,-0.292969 -0.6445312,-0.457031 -1.0546875,-0.457031 -0.234375,0 -0.4570312,0.05859 -0.6679687,0.164062 -0.2226563,0.117188 -0.4101563,0.28125 -0.5507813,0.503907 0,-0.492188 0.058594,-0.890625 0.1757813,-1.148438 0.1054687,-0.28125 0.2695312,-0.480469 0.4570312,-0.632812 0.1523438,-0.105469 0.328125,-0.164063 0.5273438,-0.164063 0.2460937,0 0.4570312,0.09375 0.6210937,0.269531 0.09375,0.105469 0.1757813,0.28125 0.234375,0.527344 l 0.609375,-0.04687 C 7.3609828,17.632402 7.2086391,17.339433 6.9508266,17.105058 Z m -1.78125,2.308594 c 0.1992187,-0.199219 0.4335937,-0.304688 0.7148437,-0.304688 0.28125,0 0.515625,0.105469 0.703125,0.304688 0.1757813,0.199218 0.2695313,0.46875 0.2695313,0.820312 0,0.363281 -0.09375,0.644531 -0.28125,0.855469 -0.1757813,0.210937 -0.4101563,0.316406 -0.6679688,0.316406 -0.1875,0 -0.3515625,-0.04687 -0.515625,-0.152344 -0.1640625,-0.105468 -0.2929687,-0.246093 -0.375,-0.445312 -0.09375,-0.199219 -0.140625,-0.398438 -0.140625,-0.609375 0,-0.328125 0.1054688,-0.585938 0.2929688,-0.785156 z M 6.7867641,32.74373 V 31.548417 H 7.4664516 V 30.974198 H 6.7867641 V 27.716386 H 6.2828578 l -2.296875,3.257812 v 0.574219 H 6.1656703 V 32.74373 Z M 4.5953578,30.974198 6.1656703,28.71248 v 2.261718 z m 0.3632813,12.09668 c 0.070312,-0.117187 0.1640625,-0.222656 0.2695312,-0.339844 0.1054688,-0.105468 0.3515625,-0.328125 0.7148438,-0.632812 0.4453125,-0.375 0.7617187,-0.667969 0.9492187,-0.878906 0.1875,-0.222657 0.328125,-0.421875 0.4101563,-0.621094 0.082031,-0.1875 0.1289062,-0.386719 0.1289062,-0.585938 0,-0.398437 -0.140625,-0.738281 -0.421875,-1.007812 -0.28125,-0.257813 -0.6679687,-0.398438 -1.1484375,-0.398438 -0.4804687,0 -0.8671875,0.128907 -1.1484375,0.375 -0.28125,0.246094 -0.4453125,0.609375 -0.4804687,1.078125 l 0.6210937,0.07031 c 0,-0.316406 0.09375,-0.5625 0.28125,-0.738281 0.1757813,-0.175782 0.4101563,-0.269532 0.7148438,-0.269532 0.28125,0 0.515625,0.08203 0.6914062,0.257813 0.1757813,0.164062 0.2578125,0.363281 0.2578125,0.609375 0,0.234375 -0.1054687,0.492187 -0.2929687,0.75 -0.1992188,0.257812 -0.5625,0.621094 -1.1015625,1.066406 -0.3515625,0.28125 -0.6210938,0.527344 -0.8085938,0.761719 -0.1875,0.210937 -0.328125,0.433594 -0.421875,0.65625 -0.046875,0.140625 -0.070312,0.28125 -0.070312,0.433594 h 3.328125 v -0.585938 z m -0.2578125,11.06836 c 0.2695312,0.339843 0.6445312,0.515625 1.1367187,0.515625 0.3632813,0 0.6679688,-0.09375 0.9140625,-0.292969 0.234375,-0.199219 0.421875,-0.480469 0.5390625,-0.84375 0.1171875,-0.351563 0.1757813,-0.832031 0.1757813,-1.417969 0,-0.503906 -0.035156,-0.902344 -0.1054688,-1.195312 -0.082031,-0.292969 -0.1875,-0.539063 -0.3164062,-0.75 C 6.9156703,49.955644 6.7516078,49.8033 6.5406703,49.686113 6.3414516,49.580644 6.0953578,49.52205 5.8375453,49.52205 c -0.3632812,0 -0.6679687,0.105469 -0.9140625,0.292969 -0.2460937,0.199219 -0.421875,0.480469 -0.5390625,0.84375 -0.1171875,0.363281 -0.1875,0.84375 -0.1875,1.441406 0,0.9375 0.1757813,1.617188 0.5039063,2.039063 z m 0.4453125,-3.738282 c 0.1640625,-0.246093 0.3984375,-0.363281 0.6796875,-0.363281 0.2929687,0 0.5273437,0.128906 0.7265625,0.410156 0.1875,0.269532 0.28125,0.820313 0.28125,1.652344 0,0.820313 -0.09375,1.371094 -0.28125,1.640625 -0.1992188,0.28125 -0.4335938,0.410156 -0.7148438,0.410156 -0.28125,0 -0.5273437,-0.128906 -0.7148437,-0.410156 -0.1992188,-0.269531 -0.2929688,-0.820312 -0.2929688,-1.640625 0,-0.832031 0.1054688,-1.394531 0.3164063,-1.699219 z M 3.8775844,63.915605 v -0.503907 h -3.89062503 v 0.503907 z m 1.0839844,0.984375 c 0.070312,-0.117188 0.1640625,-0.222657 0.2695312,-0.339844 0.1054688,-0.105469 0.3515625,-0.328125 0.7148438,-0.632813 0.4453125,-0.375 0.7617187,-0.667968 0.9492187,-0.878906 0.1875,-0.222656 0.328125,-0.421875 0.4101563,-0.621094 0.082031,-0.1875 0.1289062,-0.386718 0.1289062,-0.585937 0,-0.398438 -0.140625,-0.738281 -0.421875,-1.007813 -0.28125,-0.257812 -0.6679687,-0.398437 -1.1484375,-0.398437 -0.4804687,0 -0.8671875,0.128906 -1.1484375,0.375 -0.28125,0.246094 -0.4453125,0.609375 -0.4804687,1.078125 L 4.8561,61.958573 c 0,-0.316406 0.09375,-0.5625 0.28125,-0.738281 0.1757813,-0.175781 0.4101563,-0.269531 0.7148438,-0.269531 0.28125,0 0.515625,0.08203 0.6914062,0.257812 0.1757813,0.164063 0.2578125,0.363282 0.2578125,0.609375 0,0.234375 -0.1054687,0.492188 -0.2929687,0.75 -0.1992188,0.257813 -0.5625,0.621094 -1.1015625,1.066407 -0.3515625,0.28125 -0.6210938,0.527343 -0.8085938,0.761718 -0.1875,0.210938 -0.328125,0.433594 -0.421875,0.65625 C 4.1295375,65.192948 4.1061,65.333573 4.1061,65.485917 H 7.434225 V 64.89998 Z m -1.0839844,9.93164 v -0.503906 h -3.89062503 v 0.503906 z m 2.9121094,1.570313 V 75.20662 H 7.4693813 V 74.632402 H 6.7896938 V 71.374589 H 6.2857875 l -2.296875,3.257813 V 75.20662 H 6.1686 v 1.195313 z M 4.5982875,74.632402 6.1686,72.370683 v 2.261719 z M 3.8775844,85.744706 V 85.2408 h -3.89062503 v 0.503906 z M 6.9537563,82.592363 C 6.6959438,82.381425 6.3795375,82.264238 5.9811,82.264238 c -0.5273437,0 -0.9492187,0.1875 -1.265625,0.574218 -0.3632812,0.445313 -0.5390625,1.148438 -0.5390625,2.121094 0,0.878906 0.1640625,1.488281 0.4804688,1.875 0.328125,0.375 0.75,0.5625 1.265625,0.5625 0.3046875,0 0.5625,-0.07031 0.8085937,-0.210937 0.234375,-0.140625 0.421875,-0.351563 0.5625,-0.621094 0.1289063,-0.269531 0.1992188,-0.574219 0.1992188,-0.890625 0,-0.46875 -0.140625,-0.867188 -0.4335938,-1.171875 -0.2929687,-0.292969 -0.6445312,-0.457031 -1.0546875,-0.457031 -0.234375,0 -0.4570312,0.05859 -0.6679687,0.164062 -0.2226563,0.117188 -0.4101563,0.28125 -0.5507813,0.503906 0,-0.492187 0.058594,-0.890625 0.1757813,-1.148437 C 5.0670375,83.283769 5.2311,83.08455 5.4186,82.932206 c 0.1523438,-0.105468 0.328125,-0.164062 0.5273438,-0.164062 0.2460937,0 0.4570312,0.09375 0.6210937,0.269531 0.09375,0.105469 0.1757813,0.28125 0.234375,0.527344 l 0.609375,-0.04687 C 7.3639125,83.119706 7.2115688,82.826738 6.9537563,82.592363 Z m -1.78125,2.308593 C 5.371725,84.701738 5.6061,84.596269 5.88735,84.596269 c 0.28125,0 0.515625,0.105469 0.703125,0.304687 0.1757813,0.199219 0.2695313,0.46875 0.2695313,0.820313 0,0.363281 -0.09375,0.644531 -0.28125,0.855469 -0.1757813,0.210937 -0.4101563,0.316406 -0.6679688,0.316406 -0.1875,0 -0.3515625,-0.04687 -0.515625,-0.152344 -0.1640625,-0.105469 -0.2929687,-0.246094 -0.375,-0.445312 -0.09375,-0.199219 -0.140625,-0.398438 -0.140625,-0.609375 0,-0.328125 0.1054688,-0.585938 0.2929688,-0.785157 z M 3.8775844,96.660722 v -0.503906 h -3.89062503 v 0.503906 z M 4.4459438,95.957597 C 4.2818813,96.168534 4.19985,96.449784 4.19985,96.777909 c 0,0.433594 0.1523438,0.796875 0.4453125,1.089844 0.3046875,0.304688 0.703125,0.445313 1.2070313,0.445313 0.4921875,0 0.890625,-0.140625 1.1953125,-0.433594 0.3046875,-0.292969 0.4570312,-0.65625 0.4570312,-1.089844 0,-0.304687 -0.082031,-0.574219 -0.2460937,-0.796875 C 7.1061,95.770097 6.871725,95.606034 6.5553188,95.512284 6.8014125,95.406816 7.0006313,95.277909 7.1178188,95.102128 7.2350063,94.926347 7.2936,94.727128 7.2936,94.492753 7.2936,94.129472 7.1646938,93.824784 6.8951625,93.566972 6.6256313,93.309159 6.2740688,93.180253 5.840475,93.180253 c -0.4335937,0 -0.7851562,0.128906 -1.0546875,0.375 -0.2578125,0.257813 -0.3867187,0.5625 -0.3867187,0.925781 0,0.246094 0.058594,0.445313 0.1875,0.621094 0.1171875,0.175781 0.3046875,0.304688 0.5742187,0.410156 -0.3164062,0.07031 -0.5507812,0.222657 -0.7148437,0.445313 z M 5.2662563,93.918534 C 5.4186,93.766191 5.6178188,93.684159 5.8521938,93.684159 c 0.234375,0 0.421875,0.08203 0.5859375,0.234375 0.1523437,0.152344 0.2226562,0.351563 0.2226562,0.574219 0,0.210938 -0.070312,0.398438 -0.2226562,0.550781 -0.1523438,0.152344 -0.3398438,0.222657 -0.5859375,0.222657 -0.2460938,0 -0.4453125,-0.07031 -0.5976563,-0.222657 -0.1523437,-0.152343 -0.2226562,-0.351562 -0.2226562,-0.585937 0,-0.210938 0.070312,-0.386719 0.234375,-0.539063 z m -0.1640625,2.144532 c 0.1992187,-0.1875 0.4453125,-0.292969 0.7265625,-0.292969 0.3046875,0 0.5507812,0.105469 0.75,0.292969 0.1875,0.199218 0.2929687,0.445312 0.2929687,0.738281 0,0.292969 -0.1054687,0.527344 -0.2929687,0.726562 -0.1875,0.1875 -0.4335938,0.28125 -0.7265625,0.28125 -0.1875,0 -0.3632813,-0.04687 -0.5390625,-0.128906 C 5.1607875,97.586503 5.0318813,97.457597 4.94985,97.293534 4.867819,97.129472 4.8209438,96.965409 4.8209438,96.789628 c 0,-0.292969 0.09375,-0.539062 0.28125,-0.726562 z M -0.02475938,107.57381 V 107.0699 H -3.9153844 v 0.50391 z M 2.6119594,104.09334 H 2.2135219 c -0.1054688,0.22266 -0.2929688,0.44531 -0.5507813,0.67969 -0.2578125,0.23437 -0.5625,0.42187 -0.90234373,0.58593 v 0.59766 c 0.1875,-0.0703 0.39843753,-0.1875 0.64453123,-0.31641 0.2460938,-0.14062 0.4453125,-0.28125 0.5859375,-0.42187 v 3.92578 h 0.6210938 z m 2.0888672,4.61719 c 0.2695312,0.33984 0.6445312,0.51562 1.1367187,0.51562 0.3632813,0 0.6679688,-0.0937 0.9140625,-0.29297 0.234375,-0.19922 0.421875,-0.48047 0.5390625,-0.84375 0.1171875,-0.35156 0.1757813,-0.83203 0.1757813,-1.41797 0,-0.5039 -0.035156,-0.90234 -0.1054688,-1.19531 -0.082031,-0.29297 -0.1875,-0.53906 -0.3164062,-0.75 -0.1289063,-0.19922 -0.2929688,-0.35156 -0.5039063,-0.46875 -0.1992187,-0.10547 -0.4453125,-0.16406 -0.703125,-0.16406 -0.3632812,0 -0.6679687,0.10547 -0.9140625,0.29297 -0.2460937,0.19922 -0.421875,0.48047 -0.5390625,0.84375 -0.1171875,0.36328 -0.1875,0.84375 -0.1875,1.4414 0,0.9375 0.1757813,1.61719 0.5039063,2.03907 z m 0.4453125,-3.73828 c 0.1640625,-0.2461 0.3984375,-0.36329 0.6796875,-0.36329 0.2929687,0 0.5273437,0.12891 0.7265625,0.41016 0.1875,0.26953 0.28125,0.82031 0.28125,1.65234 0,0.82032 -0.09375,1.3711 -0.28125,1.64063 -0.1992188,0.28125 -0.4335938,0.41016 -0.7148438,0.41016 -0.28125,0 -0.5273437,-0.12891 -0.7148437,-0.41016 -0.1992188,-0.26953 -0.2929688,-0.82031 -0.2929688,-1.64063 0,-0.83203 0.1054688,-1.39453 0.3164063,-1.69921 z m 6.8173829,12.27246 c 0.269531,0.33984 0.644531,0.51562 1.136719,0.51562 0.363281,0 0.667968,-0.0937 0.914062,-0.29297 0.234375,-0.19922 0.421875,-0.48047 0.539063,-0.84375 0.117187,-0.35156 0.175781,-0.83203 0.175781,-1.41797 0,-0.5039 -0.03516,-0.90234 -0.105469,-1.19531 -0.08203,-0.29297 -0.1875,-0.53906 -0.316406,-0.75 -0.128906,-0.19922 -0.292969,-0.35156 -0.503906,-0.46875 -0.199219,-0.10547 -0.445313,-0.16406 -0.703125,-0.16406 -0.363282,0 -0.667969,0.10547 -0.914063,0.29297 -0.246094,0.19922 -0.421875,0.48047 -0.539062,0.84375 -0.117188,0.36328 -0.1875,0.84375 -0.1875,1.4414 0,0.9375 0.175781,1.61719 0.503906,2.03907 z m 0.445312,-3.73828 c 0.164063,-0.2461 0.398438,-0.36329 0.679688,-0.36329 0.292969,0 0.527344,0.12891 0.726562,0.41016 0.1875,0.26953 0.28125,0.82031 0.28125,1.65234 0,0.82032 -0.09375,1.3711 -0.28125,1.64063 -0.199218,0.28125 -0.433593,0.41016 -0.714843,0.41016 -0.28125,0 -0.527344,-0.12891 -0.714844,-0.41016 -0.199219,-0.26953 -0.292969,-0.82031 -0.292969,-1.64063 0,-0.83203 0.105469,-1.39453 0.316406,-1.69921 z m 14.81543,3.58593 c 0.07031,-0.11718 0.164063,-0.22265 0.269531,-0.33984 0.105469,-0.10547 0.351563,-0.32813 0.714844,-0.63281 0.445313,-0.375 0.761719,-0.66797 0.949219,-0.87891 0.1875,-0.22266 0.328125,-0.42187 0.410156,-0.62109 0.08203,-0.1875 0.128906,-0.38672 0.128906,-0.58594 0,-0.39844 -0.140625,-0.73828 -0.421875,-1.00781 -0.28125,-0.25782 -0.667968,-0.39844 -1.148437,-0.39844 -0.480469,0 -0.867188,0.12891 -1.148438,0.375 -0.28125,0.24609 -0.445312,0.60937 -0.480468,1.07812 l 0.621093,0.0703 c 0,-0.31641 0.09375,-0.5625 0.28125,-0.73828 0.175782,-0.17579 0.410157,-0.26954 0.714844,-0.26954 0.28125,0 0.515625,0.082 0.691406,0.25782 0.175782,0.16406 0.257813,0.36328 0.257813,0.60937 0,0.23438 -0.105469,0.49219 -0.292969,0.75 -0.199219,0.25781 -0.5625,0.6211 -1.101562,1.06641 -0.351563,0.28125 -0.621094,0.52734 -0.808594,0.76172 -0.1875,0.21093 -0.328125,0.43359 -0.421875,0.65625 -0.04687,0.14062 -0.07031,0.28125 -0.07031,0.43359 h 3.328125 v -0.58594 z m 17.742188,0.58594 v -1.19531 h 0.679687 v -0.57422 h -0.679687 v -3.25781 h -0.503907 l -2.296875,3.25781 v 0.57422 h 2.179688 v 1.19531 z m -2.191407,-1.76953 1.570313,-2.26172 v 2.26172 z m 18.583008,-2.95313 c -0.257812,-0.21093 -0.574219,-0.32812 -0.972656,-0.32812 -0.527344,0 -0.949219,0.1875 -1.265625,0.57422 -0.363281,0.44531 -0.539063,1.14844 -0.539063,2.12109 0,0.87891 0.164063,1.48828 0.480469,1.875 0.328125,0.375 0.75,0.5625 1.265625,0.5625 0.304688,0 0.5625,-0.0703 0.808594,-0.21094 0.234375,-0.14062 0.421875,-0.35156 0.5625,-0.62109 0.128906,-0.26953 0.199219,-0.57422 0.199219,-0.89062 0,-0.46875 -0.140625,-0.86719 -0.433594,-1.17188 -0.292969,-0.29297 -0.644531,-0.45703 -1.054688,-0.45703 -0.234375,0 -0.457031,0.0586 -0.667968,0.16406 -0.222657,0.11719 -0.410157,0.28125 -0.550782,0.50391 0,-0.49219 0.05859,-0.89063 0.175782,-1.14844 0.105468,-0.28125 0.269531,-0.48047 0.457031,-0.63281 0.152344,-0.10547 0.328125,-0.16406 0.527344,-0.16406 0.246093,0 0.457031,0.0937 0.621093,0.26953 0.09375,0.10547 0.175782,0.28125 0.234375,0.52734 l 0.609375,-0.0469 c -0.04687,-0.39844 -0.199218,-0.69141 -0.457031,-0.92579 z m -1.78125,2.3086 c 0.199219,-0.19922 0.433594,-0.30469 0.714844,-0.30469 0.28125,0 0.515625,0.10547 0.703125,0.30469 0.175781,0.19922 0.269531,0.46875 0.269531,0.82031 0,0.36328 -0.09375,0.64453 -0.28125,0.85547 -0.175781,0.21094 -0.410156,0.31641 -0.667969,0.31641 -0.1875,0 -0.351562,-0.0469 -0.515625,-0.15235 -0.164062,-0.10547 -0.292968,-0.24609 -0.375,-0.44531 -0.09375,-0.19922 -0.140625,-0.39844 -0.140625,-0.60938 0,-0.32812 0.105469,-0.58593 0.292969,-0.78515 z m 14.226563,0.14062 c -0.164063,0.21094 -0.246094,0.49219 -0.246094,0.82032 0,0.43359 0.152344,0.79687 0.445312,1.08984 0.304688,0.30469 0.703125,0.44531 1.207032,0.44531 0.492187,0 0.890625,-0.14062 1.195312,-0.43359 0.304688,-0.29297 0.457031,-0.65625 0.457031,-1.08985 0,-0.30468 -0.08203,-0.57421 -0.246093,-0.79687 -0.152344,-0.22266 -0.386719,-0.38672 -0.703125,-0.48047 0.246093,-0.10547 0.445312,-0.23437 0.5625,-0.41016 0.117187,-0.17578 0.175781,-0.375 0.175781,-0.60937 0,-0.36328 -0.128906,-0.66797 -0.398438,-0.92578 -0.269531,-0.25781 -0.621093,-0.38672 -1.054687,-0.38672 -0.433594,0 -0.785156,0.12891 -1.054688,0.375 -0.257812,0.25781 -0.386718,0.5625 -0.386718,0.92578 0,0.24609 0.05859,0.44531 0.1875,0.62109 0.117187,0.17579 0.304687,0.30469 0.574218,0.41016 -0.316406,0.0703 -0.550781,0.22266 -0.714843,0.44531 z m 0.820312,-2.03906 c 0.152344,-0.15234 0.351563,-0.23437 0.585938,-0.23437 0.234375,0 0.421875,0.082 0.585937,0.23437 0.152344,0.15234 0.222656,0.35156 0.222656,0.57422 0,0.21094 -0.07031,0.39844 -0.222656,0.55078 -0.152344,0.15234 -0.339844,0.22266 -0.585937,0.22266 -0.246094,0 -0.445313,-0.0703 -0.597657,-0.22266 -0.152343,-0.15234 -0.222656,-0.35156 -0.222656,-0.58594 0,-0.21093 0.07031,-0.38672 0.234375,-0.53906 z m -0.164062,2.14453 c 0.199218,-0.1875 0.445312,-0.29297 0.726562,-0.29297 0.304688,0 0.550781,0.10547 0.75,0.29297 0.1875,0.19922 0.292969,0.44531 0.292969,0.73828 0,0.29297 -0.105469,0.52735 -0.292969,0.72657 -0.1875,0.1875 -0.433594,0.28125 -0.726562,0.28125 -0.1875,0 -0.363282,-0.0469 -0.539063,-0.12891 -0.152344,-0.0937 -0.28125,-0.22266 -0.363281,-0.38672 -0.08203,-0.16406 -0.128906,-0.32812 -0.128906,-0.50391 0,-0.29296 0.09375,-0.53906 0.28125,-0.72656 z m 13.942382,-2.88281 h -0.398437 c -0.105469,0.22266 -0.292969,0.44531 -0.550781,0.67969 -0.257813,0.23437 -0.5625,0.42187 -0.902344,0.58593 v 0.59766 c 0.1875,-0.0703 0.398437,-0.1875 0.644531,-0.31641 0.246094,-0.14062 0.445313,-0.28125 0.585938,-0.42187 v 3.92578 h 0.621093 z m 2.827149,4.61719 c 0.269531,0.33984 0.644531,0.51562 1.136719,0.51562 0.363281,0 0.667968,-0.0937 0.914062,-0.29297 0.234375,-0.19922 0.421875,-0.48047 0.539063,-0.84375 0.117187,-0.35156 0.175781,-0.83203 0.175781,-1.41797 0,-0.5039 -0.03516,-0.90234 -0.105469,-1.19531 -0.08203,-0.29297 -0.1875,-0.53906 -0.316406,-0.75 -0.128906,-0.19922 -0.292969,-0.35156 -0.503906,-0.46875 -0.199219,-0.10547 -0.445313,-0.16406 -0.703125,-0.16406 -0.363282,0 -0.667969,0.10547 -0.914063,0.29297 -0.246094,0.19922 -0.421875,0.48047 -0.539062,0.84375 -0.117188,0.36328 -0.1875,0.84375 -0.1875,1.4414 0,0.9375 0.175781,1.61719 0.503906,2.03907 z m 0.445312,-3.73828 c 0.164063,-0.2461 0.398438,-0.36329 0.679688,-0.36329 0.292969,0 0.527344,0.12891 0.726562,0.41016 0.1875,0.26953 0.28125,0.82031 0.28125,1.65234 0,0.82032 -0.09375,1.3711 -0.28125,1.64063 -0.199218,0.28125 -0.433593,0.41016 -0.714843,0.41016 -0.28125,0 -0.527344,-0.12891 -0.714844,-0.41016 -0.199219,-0.26953 -0.292969,-0.82031 -0.292969,-1.64063 0,-0.83203 0.105469,-1.39453 0.316406,-1.69921 z m 12.544921,-0.87891 h -0.39844 c -0.10546,0.22266 -0.29296,0.44531 -0.55078,0.67969 -0.25781,0.23437 -0.5625,0.42187 -0.90234,0.58593 v 0.59766 c 0.1875,-0.0703 0.39844,-0.1875 0.64453,-0.31641 0.24609,-0.14062 0.44531,-0.28125 0.58594,-0.42187 v 3.92578 h 0.62109 z m 3.08496,4.46484 c 0.0703,-0.11718 0.16406,-0.22265 0.26953,-0.33984 0.10547,-0.10547 0.35157,-0.32813 0.71485,-0.63281 0.44531,-0.375 0.76172,-0.66797 0.94922,-0.87891 0.1875,-0.22266 0.32812,-0.42187 0.41015,-0.62109 0.082,-0.1875 0.12891,-0.38672 0.12891,-0.58594 0,-0.39844 -0.14063,-0.73828 -0.42188,-1.00781 -0.28125,-0.25782 -0.66797,-0.39844 -1.14843,-0.39844 -0.48047,0 -0.86719,0.12891 -1.14844,0.375 -0.28125,0.24609 -0.44531,0.60937 -0.48047,1.07812 l 0.62109,0.0703 c 0,-0.31641 0.0937,-0.5625 0.28125,-0.73828 0.17578,-0.17579 0.41016,-0.26954 0.71485,-0.26954 0.28125,0 0.51562,0.082 0.6914,0.25782 0.17578,0.16406 0.25782,0.36328 0.25782,0.60937 0,0.23438 -0.10547,0.49219 -0.29297,0.75 -0.19922,0.25781 -0.5625,0.6211 -1.10157,1.06641 -0.35156,0.28125 -0.62109,0.52734 -0.80859,0.76172 -0.1875,0.21093 -0.32812,0.43359 -0.42187,0.65625 -0.0469,0.14062 -0.0703,0.28125 -0.0703,0.43359 h 3.32813 v -0.58594 z m 12.53028,-4.46484 h -0.39844 c -0.10547,0.22266 -0.29297,0.44531 -0.55078,0.67969 -0.25782,0.23437 -0.5625,0.42187 -0.90235,0.58593 v 0.59766 c 0.1875,-0.0703 0.39844,-0.1875 0.64453,-0.31641 0.2461,-0.14062 0.44532,-0.28125 0.58594,-0.42187 v 3.92578 h 0.6211 z m 4.91308,5.05078 v -1.19531 h 0.67969 v -0.57422 h -0.67969 v -3.25781 h -0.5039 l -2.29688,3.25781 v 0.57422 h 2.17969 v 1.19531 z m -2.1914,-1.76953 1.57031,-2.26172 v 2.26172 z m 0,0"
           style="fill:#231f20;fill-opacity:1;fill-rule:nonzero;stroke:none"
           aria-label="10&#10;8&#10;6&#10;4&#10;2&#10;0&#10;2&#10;4&#10;6&#10;8&#10;10&#10;02468101214"
           transform="matrix(1.3333333,0,0,1.3333333,94.0252,332.5956)" />
      </g>
    </g>
  </g>
  <text
     xml:space="preserve"
     style="font-style:normal;font-variant:normal;font-weight:normal;font-stretch:normal;font-size:8px;line-height:150%;font-family:sans-serif;-inkscape-font-specification:sans-serif;text-align:end;letter-spacing:0px;writing-mode:lr-tb;direction:ltr;text-anchor:end;fill:#000000;fill-opacity:0.873329;fill-rule:evenodd;stroke-width:0;stroke-linecap:round;stroke-linejoin:round;stroke-miterlimit:2;stroke-opacity:0.680142;paint-order:stroke markers fill"
     x="139.12488"
     y="178.28671"
     id="text1-6"><tspan
       sodipodi:role="line"
       id="tspan1-9"
       x="139.12488"
       y="178.28671">P<tspan
   style="font-size:8px;baseline-shift:sub"
   id="tspan3">0.1</tspan> rf. (cmH<tspan
   style="font-size:8px;baseline-shift:sub"
   id="tspan4">2</tspan>O)</tspan></text>
  <text
     xml:space="preserve"
     style="font-style:normal;font-variant:normal;font-weight:normal;font-stretch:normal;font-size:8px;line-height:150%;font-family:sans-serif;-inkscape-font-specification:sans-serif;text-align:end;letter-spacing:0px;writing-mode:lr-tb;direction:ltr;text-anchor:end;fill:#000000;fill-opacity:0.873329;fill-rule:evenodd;stroke-width:0;stroke-linecap:round;stroke-linejoin:round;stroke-miterlimit:2;stroke-opacity:0.680142;paint-order:stroke markers fill"
     x="-43.734398"
     y="6.3984375"
     id="text7"
     transform="rotate(-90)"><tspan
       sodipodi:role="line"
       id="tspan7"
       x="-43.734398"
       y="6.3984375">Drive (cmH<tspan
   style="font-size:8px;baseline-shift:sub"
   id="tspan6">2</tspan>O)</tspan></text>
  <text
     xml:space="preserve"
     style="font-style:normal;font-variant:normal;font-weight:normal;font-stretch:normal;font-size:10.6667px;line-height:150%;font-family:sans-serif;-inkscape-font-specification:sans-serif;text-align:end;letter-spacing:0px;writing-mode:lr-tb;direction:ltr;text-anchor:end;fill:#000000;fill-opacity:0.873329;fill-rule:evenodd;stroke-width:0;stroke-linecap:round;stroke-linejoin:round;stroke-miterlimit:2;stroke-opacity:0.680142;paint-order:stroke markers fill"
     x="172.52917"
     y="17.743208"
     id="text8"><tspan
       sodipodi:role="line"
       id="tspan8"
       x="172.52917"
       y="17.743208">Biais: 1,6 cmH<tspan
   style="font-size:10.6667px;baseline-shift:sub"
   id="tspan9">2</tspan>O</tspan></text>
</svg>
