<?xml version="1.0" encoding="UTF-8" standalone="no"?>
<!-- Created with Inkscape (http://www.inkscape.org/) -->

<svg
   version="1.1"
   id="svg1"
   width="180"
   height="180"
   viewBox="0 0 180 180"
   sodipodi:docname="Hamilton-C6.svg"
   inkscape:version="1.4 (e7c3feb100, 2024-10-09)"
   inkscape:export-filename="Hamilton-C6.png"
   inkscape:export-xdpi="480"
   inkscape:export-ydpi="480"
   xmlns:inkscape="http://www.inkscape.org/namespaces/inkscape"
   xmlns:sodipodi="http://sodipodi.sourceforge.net/DTD/sodipodi-0.dtd"
   xmlns="http://www.w3.org/2000/svg"
   xmlns:svg="http://www.w3.org/2000/svg">
  <sodipodi:namedview
     id="namedview1"
     pagecolor="#ffffff"
     bordercolor="#999999"
     borderopacity="1"
     inkscape:showpageshadow="0"
     inkscape:pageopacity="0"
     inkscape:pagecheckerboard="0"
     inkscape:deskcolor="#d1d1d1"
     inkscape:zoom="2.1103936"
     inkscape:cx="76.999854"
     inkscape:cy="80.316771"
     inkscape:window-width="1920"
     inkscape:window-height="997"
     inkscape:window-x="0"
     inkscape:window-y="0"
     inkscape:window-maximized="1"
     inkscape:current-layer="group-MC0"
     inkscape:export-bgcolor="#ffffffff" />
  <defs
     id="defs1" />
  <g
     id="g1"
     transform="translate(-293.73437,-325.84766)">
    <g
       id="group-MC0">
      <text
         xml:space="preserve"
         style="font-style:normal;font-variant:normal;font-weight:normal;font-stretch:normal;font-size:8px;line-height:150%;font-family:sans-serif;-inkscape-font-specification:sans-serif;text-align:end;letter-spacing:0px;writing-mode:lr-tb;direction:ltr;text-anchor:end;fill:#000000;fill-opacity:0.873329;fill-rule:evenodd;stroke-width:0;stroke-linecap:round;stroke-linejoin:round;stroke-miterlimit:2;stroke-opacity:0.680142;paint-order:stroke markers fill"
         x="432.85925"
         y="504.13437"
         id="text1"><tspan
           sodipodi:role="line"
           id="tspan1"
           x="432.85925"
           y="504.13437">P<tspan
   style="font-size:8px;baseline-shift:sub"
   id="tspan3">0.1</tspan> réf. (cmH<tspan
   style="font-size:8px;baseline-shift:sub"
   id="tspan4">2</tspan>O)</tspan></text>
      <g
         id="g4"
         transform="translate(2.16797)">
        <path
           id="path19"
           d="m 318.976,461.19467 h 3.63867"
           style="fill:none;stroke:#231f20;stroke-width:0.898667;stroke-linecap:square;stroke-linejoin:miter;stroke-miterlimit:1;stroke-dasharray:none;stroke-opacity:1" />
        <path
           id="path20"
           d="m 318.976,446.664 h 3.63867"
           style="fill:none;stroke:#231f20;stroke-width:0.898667;stroke-linecap:square;stroke-linejoin:miter;stroke-miterlimit:1;stroke-dasharray:none;stroke-opacity:1" />
        <path
           id="path21"
           d="m 318.976,432.132 h 3.63867"
           style="fill:none;stroke:#231f20;stroke-width:0.898667;stroke-linecap:square;stroke-linejoin:miter;stroke-miterlimit:1;stroke-dasharray:none;stroke-opacity:1" />
        <path
           id="path22"
           d="m 318.976,417.60133 h 3.63867"
           style="fill:none;stroke:#231f20;stroke-width:0.898667;stroke-linecap:square;stroke-linejoin:miter;stroke-miterlimit:1;stroke-dasharray:none;stroke-opacity:1" />
        <path
           id="path23"
           d="m 318.976,403.06933 h 3.63867"
           style="fill:none;stroke:#231f20;stroke-width:0.898667;stroke-linecap:square;stroke-linejoin:miter;stroke-miterlimit:1;stroke-dasharray:none;stroke-opacity:1" />
        <path
           id="path24"
           d="m 318.976,388.53867 h 3.63867"
           style="fill:none;stroke:#231f20;stroke-width:0.898667;stroke-linecap:square;stroke-linejoin:miter;stroke-miterlimit:1;stroke-dasharray:none;stroke-opacity:1" />
        <path
           id="path25"
           d="m 318.976,374.00667 h 3.63867"
           style="fill:none;stroke:#231f20;stroke-width:0.898667;stroke-linecap:square;stroke-linejoin:miter;stroke-miterlimit:1;stroke-dasharray:none;stroke-opacity:1" />
        <path
           id="path26"
           d="m 318.976,359.476 h 3.63867"
           style="fill:none;stroke:#231f20;stroke-width:0.898667;stroke-linecap:square;stroke-linejoin:miter;stroke-miterlimit:1;stroke-dasharray:none;stroke-opacity:1" />
        <path
           id="path27"
           d="m 318.976,344.944 h 3.63867"
           style="fill:none;stroke:#231f20;stroke-width:0.898667;stroke-linecap:square;stroke-linejoin:miter;stroke-miterlimit:1;stroke-dasharray:none;stroke-opacity:1" />
        <path
           id="path28"
           d="M 318.65733,445.16533 H 322.296"
           style="fill:none;stroke:#918f90;stroke-width:1.18133;stroke-linecap:butt;stroke-linejoin:miter;stroke-miterlimit:1;stroke-dasharray:none;stroke-opacity:1" />
        <path
           id="path29"
           d="M 318.65733,391.26267 H 322.296"
           style="fill:none;stroke:#918f90;stroke-width:1.18133;stroke-linecap:butt;stroke-linejoin:miter;stroke-miterlimit:1;stroke-dasharray:none;stroke-opacity:1" />
        <path
           id="path30"
           d="m 322.296,391.26133 h 1.228"
           style="fill:none;stroke:#918f90;stroke-width:1.18133;stroke-linecap:butt;stroke-linejoin:miter;stroke-miterlimit:1;stroke-dasharray:none;stroke-opacity:1" />
        <path
           id="path31"
           d="m 324.752,391.26133 h 1.18267"
           style="fill:none;stroke:#918f90;stroke-width:1.18133;stroke-linecap:butt;stroke-linejoin:miter;stroke-miterlimit:1;stroke-dasharray:none;stroke-opacity:1" />
        <path
           id="path32"
           d="m 327.16267,391.26133 h 1.228"
           style="fill:none;stroke:#918f90;stroke-width:1.18133;stroke-linecap:butt;stroke-linejoin:miter;stroke-miterlimit:1;stroke-dasharray:none;stroke-opacity:1" />
        <path
           id="path33"
           d="m 329.57333,391.26133 h 1.228"
           style="fill:none;stroke:#918f90;stroke-width:1.18133;stroke-linecap:butt;stroke-linejoin:miter;stroke-miterlimit:1;stroke-dasharray:none;stroke-opacity:1" />
        <path
           id="path34"
           d="m 332.02933,391.26133 h 1.18133"
           style="fill:none;stroke:#918f90;stroke-width:1.18133;stroke-linecap:butt;stroke-linejoin:miter;stroke-miterlimit:1;stroke-dasharray:none;stroke-opacity:1" />
        <path
           id="path35"
           d="m 334.43867,391.26133 h 1.228"
           style="fill:none;stroke:#918f90;stroke-width:1.18133;stroke-linecap:butt;stroke-linejoin:miter;stroke-miterlimit:1;stroke-dasharray:none;stroke-opacity:1" />
        <path
           id="path36"
           d="m 336.84933,391.26133 h 1.228"
           style="fill:none;stroke:#918f90;stroke-width:1.18133;stroke-linecap:butt;stroke-linejoin:miter;stroke-miterlimit:1;stroke-dasharray:none;stroke-opacity:1" />
        <path
           id="path37"
           d="M 339.30533,391.26133 H 340.488"
           style="fill:none;stroke:#918f90;stroke-width:1.18133;stroke-linecap:butt;stroke-linejoin:miter;stroke-miterlimit:1;stroke-dasharray:none;stroke-opacity:1" />
        <path
           id="path38"
           d="m 341.716,391.26133 h 1.228"
           style="fill:none;stroke:#918f90;stroke-width:1.18133;stroke-linecap:butt;stroke-linejoin:miter;stroke-miterlimit:1;stroke-dasharray:none;stroke-opacity:1" />
        <path
           id="path39"
           d="m 344.12667,391.26133 h 1.228"
           style="fill:none;stroke:#918f90;stroke-width:1.18133;stroke-linecap:butt;stroke-linejoin:miter;stroke-miterlimit:1;stroke-dasharray:none;stroke-opacity:1" />
        <path
           id="path40"
           d="M 346.58267,391.26133 H 347.764"
           style="fill:none;stroke:#918f90;stroke-width:1.18133;stroke-linecap:butt;stroke-linejoin:miter;stroke-miterlimit:1;stroke-dasharray:none;stroke-opacity:1" />
        <path
           id="path41"
           d="m 348.992,391.26133 h 1.228"
           style="fill:none;stroke:#918f90;stroke-width:1.18133;stroke-linecap:butt;stroke-linejoin:miter;stroke-miterlimit:1;stroke-dasharray:none;stroke-opacity:1" />
        <path
           id="path42"
           d="m 351.40267,391.26133 h 1.228"
           style="fill:none;stroke:#918f90;stroke-width:1.18133;stroke-linecap:butt;stroke-linejoin:miter;stroke-miterlimit:1;stroke-dasharray:none;stroke-opacity:1" />
        <path
           id="path43"
           d="m 353.85867,391.26133 h 1.18267"
           style="fill:none;stroke:#918f90;stroke-width:1.18133;stroke-linecap:butt;stroke-linejoin:miter;stroke-miterlimit:1;stroke-dasharray:none;stroke-opacity:1" />
        <path
           id="path44"
           d="m 356.26933,391.26133 h 1.228"
           style="fill:none;stroke:#918f90;stroke-width:1.18133;stroke-linecap:butt;stroke-linejoin:miter;stroke-miterlimit:1;stroke-dasharray:none;stroke-opacity:1" />
        <path
           id="path45"
           d="m 358.68,391.26133 h 1.228"
           style="fill:none;stroke:#918f90;stroke-width:1.18133;stroke-linecap:butt;stroke-linejoin:miter;stroke-miterlimit:1;stroke-dasharray:none;stroke-opacity:1" />
        <path
           id="path46"
           d="m 361.136,391.26133 h 1.18133"
           style="fill:none;stroke:#918f90;stroke-width:1.18133;stroke-linecap:butt;stroke-linejoin:miter;stroke-miterlimit:1;stroke-dasharray:none;stroke-opacity:1" />
        <path
           id="path47"
           d="m 363.54533,391.26133 h 1.228"
           style="fill:none;stroke:#918f90;stroke-width:1.18133;stroke-linecap:butt;stroke-linejoin:miter;stroke-miterlimit:1;stroke-dasharray:none;stroke-opacity:1" />
        <path
           id="path48"
           d="m 365.956,391.26133 h 1.228"
           style="fill:none;stroke:#918f90;stroke-width:1.18133;stroke-linecap:butt;stroke-linejoin:miter;stroke-miterlimit:1;stroke-dasharray:none;stroke-opacity:1" />
        <path
           id="path49"
           d="m 368.412,391.26133 h 1.18267"
           style="fill:none;stroke:#918f90;stroke-width:1.18133;stroke-linecap:butt;stroke-linejoin:miter;stroke-miterlimit:1;stroke-dasharray:none;stroke-opacity:1" />
        <path
           id="path50"
           d="m 370.82267,391.26133 h 1.228"
           style="fill:none;stroke:#918f90;stroke-width:1.18133;stroke-linecap:butt;stroke-linejoin:miter;stroke-miterlimit:1;stroke-dasharray:none;stroke-opacity:1" />
        <path
           id="path51"
           d="m 373.23333,391.26133 h 1.228"
           style="fill:none;stroke:#918f90;stroke-width:1.18133;stroke-linecap:butt;stroke-linejoin:miter;stroke-miterlimit:1;stroke-dasharray:none;stroke-opacity:1" />
        <path
           id="path52"
           d="m 375.68933,391.26133 h 1.18133"
           style="fill:none;stroke:#918f90;stroke-width:1.18133;stroke-linecap:butt;stroke-linejoin:miter;stroke-miterlimit:1;stroke-dasharray:none;stroke-opacity:1" />
        <path
           id="path53"
           d="m 378.09867,391.26133 h 1.228"
           style="fill:none;stroke:#918f90;stroke-width:1.18133;stroke-linecap:butt;stroke-linejoin:miter;stroke-miterlimit:1;stroke-dasharray:none;stroke-opacity:1" />
        <path
           id="path54"
           d="m 380.50933,391.26133 h 1.228"
           style="fill:none;stroke:#918f90;stroke-width:1.18133;stroke-linecap:butt;stroke-linejoin:miter;stroke-miterlimit:1;stroke-dasharray:none;stroke-opacity:1" />
        <path
           id="path55"
           d="M 382.96533,391.26133 H 384.148"
           style="fill:none;stroke:#918f90;stroke-width:1.18133;stroke-linecap:butt;stroke-linejoin:miter;stroke-miterlimit:1;stroke-dasharray:none;stroke-opacity:1" />
        <path
           id="path56"
           d="m 385.376,391.26133 h 1.228"
           style="fill:none;stroke:#918f90;stroke-width:1.18133;stroke-linecap:butt;stroke-linejoin:miter;stroke-miterlimit:1;stroke-dasharray:none;stroke-opacity:1" />
        <path
           id="path57"
           d="m 387.78667,391.26133 h 1.228"
           style="fill:none;stroke:#918f90;stroke-width:1.18133;stroke-linecap:butt;stroke-linejoin:miter;stroke-miterlimit:1;stroke-dasharray:none;stroke-opacity:1" />
        <path
           id="path58"
           d="M 390.24267,391.26133 H 391.424"
           style="fill:none;stroke:#918f90;stroke-width:1.18133;stroke-linecap:butt;stroke-linejoin:miter;stroke-miterlimit:1;stroke-dasharray:none;stroke-opacity:1" />
        <path
           id="path59"
           d="m 392.652,391.26133 h 1.228"
           style="fill:none;stroke:#918f90;stroke-width:1.18133;stroke-linecap:butt;stroke-linejoin:miter;stroke-miterlimit:1;stroke-dasharray:none;stroke-opacity:1" />
        <path
           id="path60"
           d="m 395.06267,391.26133 h 1.228"
           style="fill:none;stroke:#918f90;stroke-width:1.18133;stroke-linecap:butt;stroke-linejoin:miter;stroke-miterlimit:1;stroke-dasharray:none;stroke-opacity:1" />
        <path
           id="path61"
           d="m 397.51867,391.26133 h 1.18267"
           style="fill:none;stroke:#918f90;stroke-width:1.18133;stroke-linecap:butt;stroke-linejoin:miter;stroke-miterlimit:1;stroke-dasharray:none;stroke-opacity:1" />
        <path
           id="path62"
           d="m 399.92933,391.26133 h 1.228"
           style="fill:none;stroke:#918f90;stroke-width:1.18133;stroke-linecap:butt;stroke-linejoin:miter;stroke-miterlimit:1;stroke-dasharray:none;stroke-opacity:1" />
        <path
           id="path63"
           d="m 402.34,391.26133 h 1.228"
           style="fill:none;stroke:#918f90;stroke-width:1.18133;stroke-linecap:butt;stroke-linejoin:miter;stroke-miterlimit:1;stroke-dasharray:none;stroke-opacity:1" />
        <path
           id="path64"
           d="m 404.796,391.26133 h 1.18133"
           style="fill:none;stroke:#918f90;stroke-width:1.18133;stroke-linecap:butt;stroke-linejoin:miter;stroke-miterlimit:1;stroke-dasharray:none;stroke-opacity:1" />
        <path
           id="path65"
           d="m 407.20533,391.26133 h 1.228"
           style="fill:none;stroke:#918f90;stroke-width:1.18133;stroke-linecap:butt;stroke-linejoin:miter;stroke-miterlimit:1;stroke-dasharray:none;stroke-opacity:1" />
        <path
           id="path66"
           d="m 409.616,391.26133 h 1.228"
           style="fill:none;stroke:#918f90;stroke-width:1.18133;stroke-linecap:butt;stroke-linejoin:miter;stroke-miterlimit:1;stroke-dasharray:none;stroke-opacity:1" />
        <path
           id="path67"
           d="m 412.072,391.26133 h 1.18267"
           style="fill:none;stroke:#918f90;stroke-width:1.18133;stroke-linecap:butt;stroke-linejoin:miter;stroke-miterlimit:1;stroke-dasharray:none;stroke-opacity:1" />
        <path
           id="path68"
           d="m 414.48267,391.26133 h 1.228"
           style="fill:none;stroke:#918f90;stroke-width:1.18133;stroke-linecap:butt;stroke-linejoin:miter;stroke-miterlimit:1;stroke-dasharray:none;stroke-opacity:1" />
        <path
           id="path69"
           d="m 416.89333,391.26133 h 1.228"
           style="fill:none;stroke:#918f90;stroke-width:1.18133;stroke-linecap:butt;stroke-linejoin:miter;stroke-miterlimit:1;stroke-dasharray:none;stroke-opacity:1" />
        <path
           id="path70"
           d="m 419.34933,391.26133 h 1.18133"
           style="fill:none;stroke:#918f90;stroke-width:1.18133;stroke-linecap:butt;stroke-linejoin:miter;stroke-miterlimit:1;stroke-dasharray:none;stroke-opacity:1" />
        <path
           id="path71"
           d="m 421.75867,391.26133 h 1.228"
           style="fill:none;stroke:#918f90;stroke-width:1.18133;stroke-linecap:butt;stroke-linejoin:miter;stroke-miterlimit:1;stroke-dasharray:none;stroke-opacity:1" />
        <path
           id="path72"
           d="m 424.16933,391.26133 h 1.228"
           style="fill:none;stroke:#918f90;stroke-width:1.18133;stroke-linecap:butt;stroke-linejoin:miter;stroke-miterlimit:1;stroke-dasharray:none;stroke-opacity:1" />
        <path
           id="path73"
           d="M 426.62533,391.26133 H 427.808"
           style="fill:none;stroke:#918f90;stroke-width:1.18133;stroke-linecap:butt;stroke-linejoin:miter;stroke-miterlimit:1;stroke-dasharray:none;stroke-opacity:1" />
        <path
           id="path74"
           d="m 429.036,391.26133 h 1.228"
           style="fill:none;stroke:#918f90;stroke-width:1.18133;stroke-linecap:butt;stroke-linejoin:miter;stroke-miterlimit:1;stroke-dasharray:none;stroke-opacity:1" />
        <path
           id="path75"
           d="m 431.44667,391.26133 h 1.228"
           style="fill:none;stroke:#918f90;stroke-width:1.18133;stroke-linecap:butt;stroke-linejoin:miter;stroke-miterlimit:1;stroke-dasharray:none;stroke-opacity:1" />
        <path
           id="path76"
           d="M 433.90267,391.26133 H 435.084"
           style="fill:none;stroke:#918f90;stroke-width:1.18133;stroke-linecap:butt;stroke-linejoin:miter;stroke-miterlimit:1;stroke-dasharray:none;stroke-opacity:1" />
        <path
           id="path77"
           d="m 436.312,391.26133 h 1.228"
           style="fill:none;stroke:#918f90;stroke-width:1.18133;stroke-linecap:butt;stroke-linejoin:miter;stroke-miterlimit:1;stroke-dasharray:none;stroke-opacity:1" />
        <path
           id="path78"
           d="m 438.72267,391.26133 h 1.228"
           style="fill:none;stroke:#918f90;stroke-width:1.18133;stroke-linecap:butt;stroke-linejoin:miter;stroke-miterlimit:1;stroke-dasharray:none;stroke-opacity:1" />
        <path
           id="path79"
           d="m 441.17867,391.26133 h 1.18267"
           style="fill:none;stroke:#918f90;stroke-width:1.18133;stroke-linecap:butt;stroke-linejoin:miter;stroke-miterlimit:1;stroke-dasharray:none;stroke-opacity:1" />
        <path
           id="path80"
           d="m 443.58933,391.26133 h 1.228"
           style="fill:none;stroke:#918f90;stroke-width:1.18133;stroke-linecap:butt;stroke-linejoin:miter;stroke-miterlimit:1;stroke-dasharray:none;stroke-opacity:1" />
        <path
           id="path81"
           d="m 446,391.26133 h 1.228"
           style="fill:none;stroke:#918f90;stroke-width:1.18133;stroke-linecap:butt;stroke-linejoin:miter;stroke-miterlimit:1;stroke-dasharray:none;stroke-opacity:1" />
        <path
           id="path82"
           d="m 448.456,391.26133 h 1.18133"
           style="fill:none;stroke:#918f90;stroke-width:1.18133;stroke-linecap:butt;stroke-linejoin:miter;stroke-miterlimit:1;stroke-dasharray:none;stroke-opacity:1" />
        <path
           id="path83"
           d="m 450.86533,391.26133 h 1.228"
           style="fill:none;stroke:#918f90;stroke-width:1.18133;stroke-linecap:butt;stroke-linejoin:miter;stroke-miterlimit:1;stroke-dasharray:none;stroke-opacity:1" />
        <path
           id="path84"
           d="m 453.276,391.26133 h 1.228"
           style="fill:none;stroke:#918f90;stroke-width:1.18133;stroke-linecap:butt;stroke-linejoin:miter;stroke-miterlimit:1;stroke-dasharray:none;stroke-opacity:1" />
        <path
           id="path85"
           d="m 455.732,391.26133 h 1.18267"
           style="fill:none;stroke:#918f90;stroke-width:1.18133;stroke-linecap:butt;stroke-linejoin:miter;stroke-miterlimit:1;stroke-dasharray:none;stroke-opacity:1" />
        <path
           id="path86"
           d="m 458.14267,391.26133 h 1.228"
           style="fill:none;stroke:#918f90;stroke-width:1.18133;stroke-linecap:butt;stroke-linejoin:miter;stroke-miterlimit:1;stroke-dasharray:none;stroke-opacity:1" />
        <path
           id="path87"
           d="m 460.55333,391.26133 h 1.228"
           style="fill:none;stroke:#918f90;stroke-width:1.18133;stroke-linecap:butt;stroke-linejoin:miter;stroke-miterlimit:1;stroke-dasharray:none;stroke-opacity:1" />
        <path
           id="path88"
           d="m 463.00933,391.26133 h 1.18133"
           style="fill:none;stroke:#918f90;stroke-width:1.18133;stroke-linecap:butt;stroke-linejoin:miter;stroke-miterlimit:1;stroke-dasharray:none;stroke-opacity:1" />
        <path
           id="path89"
           d="m 465.41867,391.26133 h 1.228"
           style="fill:none;stroke:#918f90;stroke-width:1.18133;stroke-linecap:butt;stroke-linejoin:miter;stroke-miterlimit:1;stroke-dasharray:none;stroke-opacity:1" />
        <path
           id="path90"
           d="m 322.29733,445.164 h 1.228"
           style="fill:none;stroke:#918f90;stroke-width:1.18133;stroke-linecap:butt;stroke-linejoin:miter;stroke-miterlimit:1;stroke-dasharray:none;stroke-opacity:1" />
        <path
           id="path91"
           d="M 324.75333,445.164 H 325.936"
           style="fill:none;stroke:#918f90;stroke-width:1.18133;stroke-linecap:butt;stroke-linejoin:miter;stroke-miterlimit:1;stroke-dasharray:none;stroke-opacity:1" />
        <path
           id="path92"
           d="m 327.164,445.164 h 1.228"
           style="fill:none;stroke:#918f90;stroke-width:1.18133;stroke-linecap:butt;stroke-linejoin:miter;stroke-miterlimit:1;stroke-dasharray:none;stroke-opacity:1" />
        <path
           id="path93"
           d="m 329.57467,445.164 h 1.228"
           style="fill:none;stroke:#918f90;stroke-width:1.18133;stroke-linecap:butt;stroke-linejoin:miter;stroke-miterlimit:1;stroke-dasharray:none;stroke-opacity:1" />
        <path
           id="path94"
           d="M 332.03067,445.164 H 333.212"
           style="fill:none;stroke:#918f90;stroke-width:1.18133;stroke-linecap:butt;stroke-linejoin:miter;stroke-miterlimit:1;stroke-dasharray:none;stroke-opacity:1" />
        <path
           id="path95"
           d="m 334.44,445.164 h 1.228"
           style="fill:none;stroke:#918f90;stroke-width:1.18133;stroke-linecap:butt;stroke-linejoin:miter;stroke-miterlimit:1;stroke-dasharray:none;stroke-opacity:1" />
        <path
           id="path96"
           d="m 336.85067,445.164 h 1.228"
           style="fill:none;stroke:#918f90;stroke-width:1.18133;stroke-linecap:butt;stroke-linejoin:miter;stroke-miterlimit:1;stroke-dasharray:none;stroke-opacity:1" />
        <path
           id="path97"
           d="m 339.30667,445.164 h 1.18267"
           style="fill:none;stroke:#918f90;stroke-width:1.18133;stroke-linecap:butt;stroke-linejoin:miter;stroke-miterlimit:1;stroke-dasharray:none;stroke-opacity:1" />
        <path
           id="path98"
           d="m 341.71733,445.164 h 1.228"
           style="fill:none;stroke:#918f90;stroke-width:1.18133;stroke-linecap:butt;stroke-linejoin:miter;stroke-miterlimit:1;stroke-dasharray:none;stroke-opacity:1" />
        <path
           id="path99"
           d="m 344.128,445.164 h 1.228"
           style="fill:none;stroke:#918f90;stroke-width:1.18133;stroke-linecap:butt;stroke-linejoin:miter;stroke-miterlimit:1;stroke-dasharray:none;stroke-opacity:1" />
        <path
           id="path100"
           d="m 346.584,445.164 h 1.18133"
           style="fill:none;stroke:#918f90;stroke-width:1.18133;stroke-linecap:butt;stroke-linejoin:miter;stroke-miterlimit:1;stroke-dasharray:none;stroke-opacity:1" />
        <path
           id="path101"
           d="m 348.99333,445.164 h 1.228"
           style="fill:none;stroke:#918f90;stroke-width:1.18133;stroke-linecap:butt;stroke-linejoin:miter;stroke-miterlimit:1;stroke-dasharray:none;stroke-opacity:1" />
        <path
           id="path102"
           d="m 351.404,445.164 h 1.228"
           style="fill:none;stroke:#918f90;stroke-width:1.18133;stroke-linecap:butt;stroke-linejoin:miter;stroke-miterlimit:1;stroke-dasharray:none;stroke-opacity:1" />
        <path
           id="path103"
           d="m 353.86,445.164 h 1.18267"
           style="fill:none;stroke:#918f90;stroke-width:1.18133;stroke-linecap:butt;stroke-linejoin:miter;stroke-miterlimit:1;stroke-dasharray:none;stroke-opacity:1" />
        <path
           id="path104"
           d="m 356.27067,445.164 h 1.228"
           style="fill:none;stroke:#918f90;stroke-width:1.18133;stroke-linecap:butt;stroke-linejoin:miter;stroke-miterlimit:1;stroke-dasharray:none;stroke-opacity:1" />
        <path
           id="path105"
           d="m 358.68133,445.164 h 1.228"
           style="fill:none;stroke:#918f90;stroke-width:1.18133;stroke-linecap:butt;stroke-linejoin:miter;stroke-miterlimit:1;stroke-dasharray:none;stroke-opacity:1" />
        <path
           id="path106"
           d="m 361.13733,445.164 h 1.18133"
           style="fill:none;stroke:#918f90;stroke-width:1.18133;stroke-linecap:butt;stroke-linejoin:miter;stroke-miterlimit:1;stroke-dasharray:none;stroke-opacity:1" />
        <path
           id="path107"
           d="m 363.54667,445.164 h 1.228"
           style="fill:none;stroke:#918f90;stroke-width:1.18133;stroke-linecap:butt;stroke-linejoin:miter;stroke-miterlimit:1;stroke-dasharray:none;stroke-opacity:1" />
        <path
           id="path108"
           d="m 365.95733,445.164 h 1.228"
           style="fill:none;stroke:#918f90;stroke-width:1.18133;stroke-linecap:butt;stroke-linejoin:miter;stroke-miterlimit:1;stroke-dasharray:none;stroke-opacity:1" />
        <path
           id="path109"
           d="M 368.41333,445.164 H 369.596"
           style="fill:none;stroke:#918f90;stroke-width:1.18133;stroke-linecap:butt;stroke-linejoin:miter;stroke-miterlimit:1;stroke-dasharray:none;stroke-opacity:1" />
        <path
           id="path110"
           d="m 370.824,445.164 h 1.228"
           style="fill:none;stroke:#918f90;stroke-width:1.18133;stroke-linecap:butt;stroke-linejoin:miter;stroke-miterlimit:1;stroke-dasharray:none;stroke-opacity:1" />
        <path
           id="path111"
           d="m 373.23467,445.164 h 1.228"
           style="fill:none;stroke:#918f90;stroke-width:1.18133;stroke-linecap:butt;stroke-linejoin:miter;stroke-miterlimit:1;stroke-dasharray:none;stroke-opacity:1" />
        <path
           id="path112"
           d="M 375.69067,445.164 H 376.872"
           style="fill:none;stroke:#918f90;stroke-width:1.18133;stroke-linecap:butt;stroke-linejoin:miter;stroke-miterlimit:1;stroke-dasharray:none;stroke-opacity:1" />
        <path
           id="path113"
           d="m 378.1,445.164 h 1.228"
           style="fill:none;stroke:#918f90;stroke-width:1.18133;stroke-linecap:butt;stroke-linejoin:miter;stroke-miterlimit:1;stroke-dasharray:none;stroke-opacity:1" />
        <path
           id="path114"
           d="m 380.51067,445.164 h 1.228"
           style="fill:none;stroke:#918f90;stroke-width:1.18133;stroke-linecap:butt;stroke-linejoin:miter;stroke-miterlimit:1;stroke-dasharray:none;stroke-opacity:1" />
        <path
           id="path115"
           d="m 382.96667,445.164 h 1.18267"
           style="fill:none;stroke:#918f90;stroke-width:1.18133;stroke-linecap:butt;stroke-linejoin:miter;stroke-miterlimit:1;stroke-dasharray:none;stroke-opacity:1" />
        <path
           id="path116"
           d="m 385.37733,445.164 h 1.228"
           style="fill:none;stroke:#918f90;stroke-width:1.18133;stroke-linecap:butt;stroke-linejoin:miter;stroke-miterlimit:1;stroke-dasharray:none;stroke-opacity:1" />
        <path
           id="path117"
           d="m 387.788,445.164 h 1.228"
           style="fill:none;stroke:#918f90;stroke-width:1.18133;stroke-linecap:butt;stroke-linejoin:miter;stroke-miterlimit:1;stroke-dasharray:none;stroke-opacity:1" />
        <path
           id="path118"
           d="m 390.244,445.164 h 1.18133"
           style="fill:none;stroke:#918f90;stroke-width:1.18133;stroke-linecap:butt;stroke-linejoin:miter;stroke-miterlimit:1;stroke-dasharray:none;stroke-opacity:1" />
        <path
           id="path119"
           d="m 392.65333,445.164 h 1.228"
           style="fill:none;stroke:#918f90;stroke-width:1.18133;stroke-linecap:butt;stroke-linejoin:miter;stroke-miterlimit:1;stroke-dasharray:none;stroke-opacity:1" />
        <path
           id="path120"
           d="m 395.064,445.164 h 1.228"
           style="fill:none;stroke:#918f90;stroke-width:1.18133;stroke-linecap:butt;stroke-linejoin:miter;stroke-miterlimit:1;stroke-dasharray:none;stroke-opacity:1" />
        <path
           id="path121"
           d="m 397.52,445.164 h 1.18267"
           style="fill:none;stroke:#918f90;stroke-width:1.18133;stroke-linecap:butt;stroke-linejoin:miter;stroke-miterlimit:1;stroke-dasharray:none;stroke-opacity:1" />
        <path
           id="path122"
           d="m 399.93067,445.164 h 1.228"
           style="fill:none;stroke:#918f90;stroke-width:1.18133;stroke-linecap:butt;stroke-linejoin:miter;stroke-miterlimit:1;stroke-dasharray:none;stroke-opacity:1" />
        <path
           id="path123"
           d="m 402.34133,445.164 h 1.228"
           style="fill:none;stroke:#918f90;stroke-width:1.18133;stroke-linecap:butt;stroke-linejoin:miter;stroke-miterlimit:1;stroke-dasharray:none;stroke-opacity:1" />
        <path
           id="path124"
           d="m 404.79733,445.164 h 1.18133"
           style="fill:none;stroke:#918f90;stroke-width:1.18133;stroke-linecap:butt;stroke-linejoin:miter;stroke-miterlimit:1;stroke-dasharray:none;stroke-opacity:1" />
        <path
           id="path125"
           d="m 407.20667,445.164 h 1.228"
           style="fill:none;stroke:#918f90;stroke-width:1.18133;stroke-linecap:butt;stroke-linejoin:miter;stroke-miterlimit:1;stroke-dasharray:none;stroke-opacity:1" />
        <path
           id="path126"
           d="m 409.61733,445.164 h 1.228"
           style="fill:none;stroke:#918f90;stroke-width:1.18133;stroke-linecap:butt;stroke-linejoin:miter;stroke-miterlimit:1;stroke-dasharray:none;stroke-opacity:1" />
        <path
           id="path127"
           d="M 412.07333,445.164 H 413.256"
           style="fill:none;stroke:#918f90;stroke-width:1.18133;stroke-linecap:butt;stroke-linejoin:miter;stroke-miterlimit:1;stroke-dasharray:none;stroke-opacity:1" />
        <path
           id="path128"
           d="m 414.484,445.164 h 1.228"
           style="fill:none;stroke:#918f90;stroke-width:1.18133;stroke-linecap:butt;stroke-linejoin:miter;stroke-miterlimit:1;stroke-dasharray:none;stroke-opacity:1" />
        <path
           id="path129"
           d="m 416.89467,445.164 h 1.228"
           style="fill:none;stroke:#918f90;stroke-width:1.18133;stroke-linecap:butt;stroke-linejoin:miter;stroke-miterlimit:1;stroke-dasharray:none;stroke-opacity:1" />
        <path
           id="path130"
           d="M 419.35067,445.164 H 420.532"
           style="fill:none;stroke:#918f90;stroke-width:1.18133;stroke-linecap:butt;stroke-linejoin:miter;stroke-miterlimit:1;stroke-dasharray:none;stroke-opacity:1" />
        <path
           id="path131"
           d="m 421.76,445.164 h 1.228"
           style="fill:none;stroke:#918f90;stroke-width:1.18133;stroke-linecap:butt;stroke-linejoin:miter;stroke-miterlimit:1;stroke-dasharray:none;stroke-opacity:1" />
        <path
           id="path132"
           d="m 424.17067,445.164 h 1.228"
           style="fill:none;stroke:#918f90;stroke-width:1.18133;stroke-linecap:butt;stroke-linejoin:miter;stroke-miterlimit:1;stroke-dasharray:none;stroke-opacity:1" />
        <path
           id="path133"
           d="m 426.62667,445.164 h 1.18267"
           style="fill:none;stroke:#918f90;stroke-width:1.18133;stroke-linecap:butt;stroke-linejoin:miter;stroke-miterlimit:1;stroke-dasharray:none;stroke-opacity:1" />
        <path
           id="path134"
           d="m 429.03733,445.164 h 1.228"
           style="fill:none;stroke:#918f90;stroke-width:1.18133;stroke-linecap:butt;stroke-linejoin:miter;stroke-miterlimit:1;stroke-dasharray:none;stroke-opacity:1" />
        <path
           id="path135"
           d="m 431.448,445.164 h 1.228"
           style="fill:none;stroke:#918f90;stroke-width:1.18133;stroke-linecap:butt;stroke-linejoin:miter;stroke-miterlimit:1;stroke-dasharray:none;stroke-opacity:1" />
        <path
           id="path136"
           d="m 433.904,445.164 h 1.18133"
           style="fill:none;stroke:#918f90;stroke-width:1.18133;stroke-linecap:butt;stroke-linejoin:miter;stroke-miterlimit:1;stroke-dasharray:none;stroke-opacity:1" />
        <path
           id="path137"
           d="m 436.31333,445.164 h 1.228"
           style="fill:none;stroke:#918f90;stroke-width:1.18133;stroke-linecap:butt;stroke-linejoin:miter;stroke-miterlimit:1;stroke-dasharray:none;stroke-opacity:1" />
        <path
           id="path138"
           d="m 438.724,445.164 h 1.228"
           style="fill:none;stroke:#918f90;stroke-width:1.18133;stroke-linecap:butt;stroke-linejoin:miter;stroke-miterlimit:1;stroke-dasharray:none;stroke-opacity:1" />
        <path
           id="path139"
           d="m 441.18,445.164 h 1.18267"
           style="fill:none;stroke:#918f90;stroke-width:1.18133;stroke-linecap:butt;stroke-linejoin:miter;stroke-miterlimit:1;stroke-dasharray:none;stroke-opacity:1" />
        <path
           id="path140"
           d="m 443.59067,445.164 h 1.228"
           style="fill:none;stroke:#918f90;stroke-width:1.18133;stroke-linecap:butt;stroke-linejoin:miter;stroke-miterlimit:1;stroke-dasharray:none;stroke-opacity:1" />
        <path
           id="path141"
           d="m 446.00133,445.164 h 1.228"
           style="fill:none;stroke:#918f90;stroke-width:1.18133;stroke-linecap:butt;stroke-linejoin:miter;stroke-miterlimit:1;stroke-dasharray:none;stroke-opacity:1" />
        <path
           id="path142"
           d="m 448.45733,445.164 h 1.18133"
           style="fill:none;stroke:#918f90;stroke-width:1.18133;stroke-linecap:butt;stroke-linejoin:miter;stroke-miterlimit:1;stroke-dasharray:none;stroke-opacity:1" />
        <path
           id="path143"
           d="m 450.86667,445.164 h 1.228"
           style="fill:none;stroke:#918f90;stroke-width:1.18133;stroke-linecap:butt;stroke-linejoin:miter;stroke-miterlimit:1;stroke-dasharray:none;stroke-opacity:1" />
        <path
           id="path144"
           d="m 453.27733,445.164 h 1.228"
           style="fill:none;stroke:#918f90;stroke-width:1.18133;stroke-linecap:butt;stroke-linejoin:miter;stroke-miterlimit:1;stroke-dasharray:none;stroke-opacity:1" />
        <path
           id="path145"
           d="M 455.73333,445.164 H 456.916"
           style="fill:none;stroke:#918f90;stroke-width:1.18133;stroke-linecap:butt;stroke-linejoin:miter;stroke-miterlimit:1;stroke-dasharray:none;stroke-opacity:1" />
        <path
           id="path146"
           d="m 458.144,445.164 h 1.228"
           style="fill:none;stroke:#918f90;stroke-width:1.18133;stroke-linecap:butt;stroke-linejoin:miter;stroke-miterlimit:1;stroke-dasharray:none;stroke-opacity:1" />
        <path
           id="path147"
           d="m 460.55467,445.164 h 1.228"
           style="fill:none;stroke:#918f90;stroke-width:1.18133;stroke-linecap:butt;stroke-linejoin:miter;stroke-miterlimit:1;stroke-dasharray:none;stroke-opacity:1" />
        <path
           id="path148"
           d="M 463.01067,445.164 H 464.192"
           style="fill:none;stroke:#918f90;stroke-width:1.18133;stroke-linecap:butt;stroke-linejoin:miter;stroke-miterlimit:1;stroke-dasharray:none;stroke-opacity:1" />
        <path
           id="path149"
           d="m 465.42,445.164 h 1.228"
           style="fill:none;stroke:#918f90;stroke-width:1.18133;stroke-linecap:butt;stroke-linejoin:miter;stroke-miterlimit:1;stroke-dasharray:none;stroke-opacity:1" />
        <path
           id="path150"
           d="m 326.16133,402.024 c 0,1.27067 -1,2.27067 -2.27333,2.27067 -1.27334,0 -2.27467,-1 -2.27467,-2.27067 0,-1.272 1.00133,-2.27067 2.27467,-2.27067 1.27333,0 2.27333,0.99867 2.27333,2.27067 z"
           style="fill:none;stroke:#231f20;stroke-width:0.636;stroke-linecap:butt;stroke-linejoin:miter;stroke-miterlimit:1;stroke-dasharray:none;stroke-opacity:1" />
        <path
           id="path151"
           d="m 327.708,401.29733 c 0,1.27067 -1,2.27067 -2.27333,2.27067 -1.27334,0 -2.27467,-1 -2.27467,-2.27067 0,-1.272 1.00133,-2.27067 2.27467,-2.27067 1.27333,0 2.27333,0.99867 2.27333,2.27067 z"
           style="fill:none;stroke:#231f20;stroke-width:0.636;stroke-linecap:butt;stroke-linejoin:miter;stroke-miterlimit:1;stroke-dasharray:none;stroke-opacity:1" />
        <path
           id="path152"
           d="m 328.25333,402.024 c 0,1.27067 -1.04533,2.27067 -2.31867,2.27067 -1.228,0 -2.27466,-1 -2.27466,-2.27067 0,-1.272 1.04666,-2.27067 2.27466,-2.27067 1.27334,0 2.31867,0.99867 2.31867,2.27067 z"
           style="fill:none;stroke:#231f20;stroke-width:0.636;stroke-linecap:butt;stroke-linejoin:miter;stroke-miterlimit:1;stroke-dasharray:none;stroke-opacity:1" />
        <path
           id="path153"
           d="m 329.3,403.476 c 0,1.272 -1.04667,2.27067 -2.32,2.27067 -1.228,0 -2.27333,-0.99867 -2.27333,-2.27067 0,-1.27067 1.04533,-2.26933 2.27333,-2.26933 1.27333,0 2.32,0.99866 2.32,2.26933"
           style="fill:#231f20;fill-opacity:1;fill-rule:nonzero;stroke:none;stroke-width:1.33333" />
        <path
           id="path154"
           d="m 329.8,402.75067 c 0,1.27067 -1,2.26933 -2.27333,2.26933 -1.27334,0 -2.27467,-0.99866 -2.27467,-2.26933 0,-1.272 1.00133,-2.27067 2.27467,-2.27067 1.27333,0 2.27333,0.99867 2.27333,2.27067 z"
           style="fill:none;stroke:#231f20;stroke-width:0.636;stroke-linecap:butt;stroke-linejoin:miter;stroke-miterlimit:1;stroke-dasharray:none;stroke-opacity:1" />
        <path
           id="path155"
           d="m 329.8,401.29733 c 0,1.27067 -1,2.27067 -2.27333,2.27067 -1.27334,0 -2.27467,-1 -2.27467,-2.27067 0,-1.272 1.00133,-2.27067 2.27467,-2.27067 1.27333,0 2.27333,0.99867 2.27333,2.27067 z"
           style="fill:none;stroke:#231f20;stroke-width:0.636;stroke-linecap:butt;stroke-linejoin:miter;stroke-miterlimit:1;stroke-dasharray:none;stroke-opacity:1" />
        <path
           id="path156"
           d="m 330.84667,401.29733 c 0,1.27067 -1.04667,2.27067 -2.27467,2.27067 -1.27333,0 -2.31866,-1 -2.31866,-2.27067 0,-1.272 1.04533,-2.27067 2.31866,-2.27067 1.228,0 2.27467,0.99867 2.27467,2.27067"
           style="fill:#231f20;fill-opacity:1;fill-rule:nonzero;stroke:none;stroke-width:1.33333" />
        <path
           id="path157"
           d="m 331.34667,404.92933 c 0,1.272 -1.00133,2.27067 -2.27467,2.27067 -1.27333,0 -2.27333,-0.99867 -2.27333,-2.27067 0,-1.27067 1,-2.27067 2.27333,-2.27067 1.27334,0 2.27467,1 2.27467,2.27067 z"
           style="fill:none;stroke:#231f20;stroke-width:0.636;stroke-linecap:butt;stroke-linejoin:miter;stroke-miterlimit:1;stroke-dasharray:none;stroke-opacity:1" />
        <path
           id="path158"
           d="m 331.892,404.20267 c 0,1.272 -1.04533,2.27067 -2.31867,2.27067 -1.228,0 -2.27466,-0.99867 -2.27466,-2.27067 0,-1.27067 1.04666,-2.27067 2.27466,-2.27067 1.27334,0 2.31867,1 2.31867,2.27067"
           style="fill:#231f20;fill-opacity:1;fill-rule:nonzero;stroke:none;stroke-width:1.33333" />
        <path
           id="path159"
           d="m 333.93867,407.10933 c 0,1.272 -1,2.27067 -2.27333,2.27067 -1.27334,0 -2.27467,-0.99867 -2.27467,-2.27067 0,-1.272 1.00133,-2.27067 2.27467,-2.27067 1.27333,0 2.27333,0.99867 2.27333,2.27067"
           style="fill:#231f20;fill-opacity:1;fill-rule:nonzero;stroke:none;stroke-width:1.33333" />
        <path
           id="path160"
           d="m 334.98533,405.656 c 0,1.272 -1.00133,2.27067 -2.27467,2.27067 -1.27333,0 -2.27333,-0.99867 -2.27333,-2.27067 0,-1.272 1,-2.27067 2.27333,-2.27067 1.27334,0 2.27467,0.99867 2.27467,2.27067"
           style="fill:#231f20;fill-opacity:1;fill-rule:nonzero;stroke:none;stroke-width:1.33333" />
        <path
           id="path161"
           d="m 335.53067,409.28933 c 0,1.27067 -1.04667,2.27067 -2.32,2.27067 -1.228,0 -2.27333,-1 -2.27333,-2.27067 0,-1.272 1.04533,-2.27067 2.27333,-2.27067 1.27333,0 2.32,0.99867 2.32,2.27067"
           style="fill:#231f20;fill-opacity:1;fill-rule:nonzero;stroke:none;stroke-width:1.33333" />
        <path
           id="path162"
           d="m 336.03067,407.10933 c 0,1.272 -1,2.27067 -2.27333,2.27067 -1.27334,0 -2.27467,-0.99867 -2.27467,-2.27067 0,-1.272 1.00133,-2.27067 2.27467,-2.27067 1.27333,0 2.27333,0.99867 2.27333,2.27067"
           style="fill:#231f20;fill-opacity:1;fill-rule:nonzero;stroke:none;stroke-width:1.33333" />
        <path
           id="path163"
           d="m 336.576,412.19467 c 0,1.272 -1.04533,2.27067 -2.31867,2.27067 -1.228,0 -2.27466,-0.99867 -2.27466,-2.27067 0,-1.27067 1.04666,-2.27067 2.27466,-2.27067 1.27334,0 2.31867,1 2.31867,2.27067 z"
           style="fill:none;stroke:#231f20;stroke-width:0.636;stroke-linecap:butt;stroke-linejoin:miter;stroke-miterlimit:1;stroke-dasharray:none;stroke-opacity:1" />
        <path
           id="path164"
           d="m 340.21467,414.37467 c 0,1.272 -1.04533,2.27067 -2.31867,2.27067 -1.228,0 -2.27466,-0.99867 -2.27466,-2.27067 0,-1.27067 1.04666,-2.27067 2.27466,-2.27067 1.27334,0 2.31867,1 2.31867,2.27067"
           style="fill:#231f20;fill-opacity:1;fill-rule:nonzero;stroke:none;stroke-width:1.33333" />
        <path
           id="path165"
           d="m 340.71467,413.648 c 0,1.272 -1,2.27067 -2.27333,2.27067 -1.27334,0 -2.27467,-0.99867 -2.27467,-2.27067 0,-1.27067 1.00133,-2.27067 2.27467,-2.27067 1.27333,0 2.27333,1 2.27333,2.27067 z"
           style="fill:none;stroke:#231f20;stroke-width:0.636;stroke-linecap:butt;stroke-linejoin:miter;stroke-miterlimit:1;stroke-dasharray:none;stroke-opacity:1" />
        <path
           id="path166"
           d="m 341.216,414.37467 c 0,1.272 -1.00133,2.27067 -2.27467,2.27067 -1.27333,0 -2.27333,-0.99867 -2.27333,-2.27067 0,-1.272 1,-2.27067 2.27333,-2.27067 1.27334,0 2.27467,0.99867 2.27467,2.27067 z"
           style="fill:none;stroke:#231f20;stroke-width:0.636;stroke-linecap:butt;stroke-linejoin:miter;stroke-miterlimit:1;stroke-dasharray:none;stroke-opacity:1" />
        <path
           id="path167"
           d="m 345.4,420.18667 c 0,1.272 -1.04667,2.27067 -2.27467,2.27067 -1.27333,0 -2.31866,-0.99867 -2.31866,-2.27067 0,-1.27067 1.04533,-2.26933 2.31866,-2.26933 1.228,0 2.27467,0.99866 2.27467,2.26933 z"
           style="fill:none;stroke:#231f20;stroke-width:0.636;stroke-linecap:butt;stroke-linejoin:miter;stroke-miterlimit:1;stroke-dasharray:none;stroke-opacity:1" />
        <path
           id="path168"
           d="m 345.4,415.828 c 0,1.272 -1.04667,2.27067 -2.27467,2.27067 -1.27333,0 -2.31866,-0.99867 -2.31866,-2.27067 0,-1.272 1.04533,-2.27067 2.31866,-2.27067 1.228,0 2.27467,0.99867 2.27467,2.27067"
           style="fill:#231f20;fill-opacity:1;fill-rule:nonzero;stroke:none;stroke-width:1.33333" />
        <path
           id="path169"
           d="m 345.4,414.37467 c 0,1.272 -1.04667,2.27067 -2.27467,2.27067 -1.27333,0 -2.31866,-0.99867 -2.31866,-2.27067 0,-1.272 1.04533,-2.27067 2.31866,-2.27067 1.228,0 2.27467,0.99867 2.27467,2.27067"
           style="fill:#231f20;fill-opacity:1;fill-rule:nonzero;stroke:none;stroke-width:1.33333" />
        <path
           id="path170"
           d="m 347.492,421.64 c 0,1.272 -1.04667,2.27067 -2.32,2.27067 -1.228,0 -2.27333,-0.99867 -2.27333,-2.27067 0,-1.27067 1.04533,-2.27067 2.27333,-2.27067 1.27333,0 2.32,1 2.32,2.27067 z"
           style="fill:none;stroke:#231f20;stroke-width:0.636;stroke-linecap:butt;stroke-linejoin:miter;stroke-miterlimit:1;stroke-dasharray:none;stroke-opacity:1" />
        <path
           id="path171"
           d="m 348.492,418.73467 c 0,1.27067 -1,2.26933 -2.27333,2.26933 -1.27334,0 -2.27467,-0.99866 -2.27467,-2.26933 0,-1.272 1.00133,-2.27067 2.27467,-2.27067 1.27333,0 2.27333,0.99867 2.27333,2.27067"
           style="fill:#231f20;fill-opacity:1;fill-rule:nonzero;stroke:none;stroke-width:1.33333" />
        <path
           id="path172"
           d="m 349.53867,421.64 c 0,1.272 -1.00133,2.27067 -2.27467,2.27067 -1.27333,0 -2.27333,-0.99867 -2.27333,-2.27067 0,-1.27067 1,-2.27067 2.27333,-2.27067 1.27334,0 2.27467,1 2.27467,2.27067 z"
           style="fill:none;stroke:#231f20;stroke-width:0.636;stroke-linecap:butt;stroke-linejoin:miter;stroke-miterlimit:1;stroke-dasharray:none;stroke-opacity:1" />
        <path
           id="path173"
           d="m 349.53867,417.28133 c 0,1.27067 -1.00133,2.27067 -2.27467,2.27067 -1.27333,0 -2.27333,-1 -2.27333,-2.27067 0,-1.272 1,-2.27067 2.27333,-2.27067 1.27334,0 2.27467,0.99867 2.27467,2.27067"
           style="fill:#231f20;fill-opacity:1;fill-rule:nonzero;stroke:none;stroke-width:1.33333" />
        <path
           id="path174"
           d="m 352.13067,423.82 c 0,1.272 -1,2.27067 -2.27467,2.27067 -1.27333,0 -2.27333,-0.99867 -2.27333,-2.27067 0,-1.272 1,-2.27067 2.27333,-2.27067 1.27467,0 2.27467,0.99867 2.27467,2.27067 z"
           style="fill:none;stroke:#231f20;stroke-width:0.636;stroke-linecap:butt;stroke-linejoin:miter;stroke-miterlimit:1;stroke-dasharray:none;stroke-opacity:1" />
        <path
           id="path175"
           d="m 353.176,425.27333 c 0,1.27067 -1,2.27067 -2.27333,2.27067 -1.27334,0 -2.27467,-1 -2.27467,-2.27067 0,-1.272 1.00133,-2.27067 2.27467,-2.27067 1.27333,0 2.27333,0.99867 2.27333,2.27067 z"
           style="fill:none;stroke:#231f20;stroke-width:0.636;stroke-linecap:butt;stroke-linejoin:miter;stroke-miterlimit:1;stroke-dasharray:none;stroke-opacity:1" />
        <path
           id="path176"
           d="m 358.90667,427.45333 c 0,1.27067 -1,2.26933 -2.27333,2.26933 -1.27334,0 -2.27467,-0.99866 -2.27467,-2.26933 0,-1.272 1.00133,-2.27067 2.27467,-2.27067 1.27333,0 2.27333,0.99867 2.27333,2.27067 z"
           style="fill:none;stroke:#231f20;stroke-width:0.636;stroke-linecap:butt;stroke-linejoin:miter;stroke-miterlimit:1;stroke-dasharray:none;stroke-opacity:1" />
        <path
           id="path177"
           d="m 360.45333,425.27333 c 0,1.27067 -1.00133,2.27067 -2.27467,2.27067 -1.27333,0 -2.27333,-1 -2.27333,-2.27067 0,-1.272 1,-2.27067 2.27333,-2.27067 1.27334,0 2.27467,0.99867 2.27467,2.27067"
           style="fill:#231f20;fill-opacity:1;fill-rule:nonzero;stroke:none;stroke-width:1.33333" />
        <path
           id="path178"
           d="m 362.04533,431.812 c 0,1.272 -1.04667,2.27067 -2.32,2.27067 -1.228,0 -2.27333,-0.99867 -2.27333,-2.27067 0,-1.272 1.04533,-2.27067 2.27333,-2.27067 1.27333,0 2.32,0.99867 2.32,2.27067 z"
           style="fill:none;stroke:#231f20;stroke-width:0.636;stroke-linecap:butt;stroke-linejoin:miter;stroke-miterlimit:1;stroke-dasharray:none;stroke-opacity:1" />
        <path
           id="path179"
           d="m 364.63733,432.53867 c 0,1.272 -1.04667,2.27067 -2.32,2.27067 -1.228,0 -2.27333,-0.99867 -2.27333,-2.27067 0,-1.272 1.04533,-2.27067 2.27333,-2.27067 1.27333,0 2.32,0.99867 2.32,2.27067"
           style="fill:#231f20;fill-opacity:1;fill-rule:nonzero;stroke:none;stroke-width:1.33333" />
        <path
           id="path180"
           d="m 366.684,431.08533 c 0,1.272 -1.00133,2.27067 -2.27467,2.27067 -1.27333,0 -2.27333,-0.99867 -2.27333,-2.27067 0,-1.272 1,-2.27067 2.27333,-2.27067 1.27334,0 2.27467,0.99867 2.27467,2.27067 z"
           style="fill:none;stroke:#231f20;stroke-width:0.636;stroke-linecap:butt;stroke-linejoin:miter;stroke-miterlimit:1;stroke-dasharray:none;stroke-opacity:1" />
        <path
           id="path181"
           d="m 368.776,439.804 c 0,1.272 -1,2.27067 -2.27467,2.27067 -1.27333,0 -2.27333,-0.99867 -2.27333,-2.27067 0,-1.27067 1,-2.27067 2.27333,-2.27067 1.27467,0 2.27467,1 2.27467,2.27067 z"
           style="fill:none;stroke:#231f20;stroke-width:0.636;stroke-linecap:butt;stroke-linejoin:miter;stroke-miterlimit:1;stroke-dasharray:none;stroke-opacity:1" />
        <path
           id="path182"
           d="m 377.09867,438.35067 c 0,1.272 -1,2.27067 -2.27467,2.27067 -1.27333,0 -2.27333,-0.99867 -2.27333,-2.27067 0,-1.27067 1,-2.27067 2.27333,-2.27067 1.27467,0 2.27467,1 2.27467,2.27067"
           style="fill:#231f20;fill-opacity:1;fill-rule:nonzero;stroke:none;stroke-width:1.33333" />
        <path
           id="path183"
           d="m 378.144,442.71067 c 0,1.27067 -1.04533,2.27067 -2.27333,2.27067 -1.27334,0 -2.32,-1 -2.32,-2.27067 0,-1.272 1.04666,-2.27067 2.32,-2.27067 1.228,0 2.27333,0.99867 2.27333,2.27067 z"
           style="fill:none;stroke:#231f20;stroke-width:0.636;stroke-linecap:butt;stroke-linejoin:miter;stroke-miterlimit:1;stroke-dasharray:none;stroke-opacity:1" />
        <path
           id="path184"
           d="m 383.87467,437.624 c 0,1.272 -1.04533,2.27067 -2.31867,2.27067 -1.228,0 -2.27466,-0.99867 -2.27466,-2.27067 0,-1.27067 1.04666,-2.27067 2.27466,-2.27067 1.27334,0 2.31867,1 2.31867,2.27067"
           style="fill:#231f20;fill-opacity:1;fill-rule:nonzero;stroke:none;stroke-width:1.33333" />
        <path
           id="path185"
           d="m 393.19867,450.70267 c 0,1.272 -1.00133,2.27067 -2.27467,2.27067 -1.27333,0 -2.27333,-0.99867 -2.27333,-2.27067 0,-1.272 1,-2.27067 2.27333,-2.27067 1.27334,0 2.27467,0.99867 2.27467,2.27067 z"
           style="fill:none;stroke:#231f20;stroke-width:0.636;stroke-linecap:butt;stroke-linejoin:miter;stroke-miterlimit:1;stroke-dasharray:none;stroke-opacity:1" />
        <path
           id="path186"
           d="m 404.11333,442.71067 c 0,1.27067 -1.00133,2.27067 -2.27467,2.27067 -1.27333,0 -2.27333,-1 -2.27333,-2.27067 0,-1.272 1,-2.27067 2.27333,-2.27067 1.27334,0 2.27467,0.99867 2.27467,2.27067"
           style="fill:#231f20;fill-opacity:1;fill-rule:nonzero;stroke:none;stroke-width:1.33333" />
        <path
           id="path187"
           d="M 322.296,402.74933 368.048,330.092"
           style="fill:none;stroke:#8b8989;stroke-width:1.18133;stroke-linecap:butt;stroke-linejoin:miter;stroke-miterlimit:1;stroke-dasharray:none;stroke-opacity:1" />
        <path
           id="path188"
           d="m 390.924,330.092 45.752,72.65733 -45.752,72.65467"
           style="fill:none;stroke:#8b8989;stroke-width:1.18133;stroke-linecap:butt;stroke-linejoin:miter;stroke-miterlimit:1;stroke-dasharray:none;stroke-opacity:1" />
        <path
           id="path189"
           d="m 368.048,475.404 -45.752,-72.656 h 114.38"
           style="fill:none;stroke:#8b8989;stroke-width:1.18133;stroke-linecap:butt;stroke-linejoin:miter;stroke-miterlimit:1;stroke-dasharray:none;stroke-opacity:1" />
        <path
           id="path190"
           d="M 323.16,418.50667 H 467.32133"
           style="fill:none;stroke:#7b7979;stroke-width:0.590667;stroke-linecap:butt;stroke-linejoin:miter;stroke-miterlimit:1;stroke-dasharray:none;stroke-opacity:1" />
        <path
           id="path191"
           d="M 343.216,475.72267 V 478.996"
           style="fill:none;stroke:#231f20;stroke-width:0.898667;stroke-linecap:square;stroke-linejoin:miter;stroke-miterlimit:1;stroke-dasharray:none;stroke-opacity:1" />
        <path
           id="path192"
           d="M 364.456,475.72267 V 478.996"
           style="fill:none;stroke:#231f20;stroke-width:0.898667;stroke-linecap:square;stroke-linejoin:miter;stroke-miterlimit:1;stroke-dasharray:none;stroke-opacity:1" />
        <path
           id="path193"
           d="M 385.05733,475.72267 V 478.996"
           style="fill:none;stroke:#231f20;stroke-width:0.898667;stroke-linecap:square;stroke-linejoin:miter;stroke-miterlimit:1;stroke-dasharray:none;stroke-opacity:1" />
        <path
           id="path194"
           d="M 405.70533,475.72267 V 478.996"
           style="fill:none;stroke:#231f20;stroke-width:0.898667;stroke-linecap:square;stroke-linejoin:miter;stroke-miterlimit:1;stroke-dasharray:none;stroke-opacity:1" />
        <path
           id="path195"
           d="M 426.30667,475.72267 V 478.996"
           style="fill:none;stroke:#231f20;stroke-width:0.898667;stroke-linecap:square;stroke-linejoin:miter;stroke-miterlimit:1;stroke-dasharray:none;stroke-opacity:1" />
        <path
           id="path196"
           d="M 447.54533,475.72267 V 478.996"
           style="fill:none;stroke:#231f20;stroke-width:0.898667;stroke-linecap:square;stroke-linejoin:miter;stroke-miterlimit:1;stroke-dasharray:none;stroke-opacity:1" />
        <path
           id="path197"
           d="m 467.61333,475.28933 v 3.63333"
           style="fill:none;stroke:#231f20;stroke-width:0.898667;stroke-linecap:square;stroke-linejoin:miter;stroke-miterlimit:1;stroke-dasharray:none;stroke-opacity:1" />
        <path
           id="path947"
           d="M 467.61332,475.31198 H 323.16533 V 330.09332 h 144.44799 z"
           style="fill:none;stroke:#231f20;stroke-width:0.898667;stroke-linecap:butt;stroke-linejoin:miter;stroke-miterlimit:10;stroke-dasharray:none;stroke-opacity:1" />
        <path
           id="path948"
           d="m 322.852,330.09333 h -4.636"
           style="fill:none;stroke:#231f20;stroke-width:0.898667;stroke-linecap:square;stroke-linejoin:miter;stroke-miterlimit:1;stroke-dasharray:none;stroke-opacity:1" />
        <path
           id="path949"
           d="M 323.164,478.96667 V 475.312 h -4.188"
           style="fill:none;stroke:#231f20;stroke-width:0.898667;stroke-linecap:square;stroke-linejoin:miter;stroke-miterlimit:1;stroke-dasharray:none;stroke-opacity:1" />
        <path
           id="path950"
           d="m 309.37891,325.84765 h -0.53125 c -0.14063,0.29688 -0.39063,0.59375 -0.73438,0.90625 -0.34375,0.3125 -0.75,0.5625 -1.20312,0.78125 v 0.79688 c 0.25,-0.0937 0.53125,-0.25 0.85937,-0.42188 0.32813,-0.1875 0.59375,-0.375 0.78125,-0.5625 v 5.23438 h 0.82813 z m 2.78515,6.15625 c 0.35938,0.45313 0.85938,0.6875 1.51563,0.6875 0.48437,0 0.89062,-0.125 1.21875,-0.39062 0.3125,-0.26563 0.5625,-0.64063 0.71875,-1.125 0.15625,-0.46875 0.23437,-1.10938 0.23437,-1.89063 0,-0.67187 -0.0469,-1.20312 -0.14062,-1.59375 -0.10938,-0.39062 -0.25,-0.71875 -0.42188,-1 -0.17187,-0.26562 -0.39062,-0.46875 -0.67187,-0.625 -0.26563,-0.14062 -0.59375,-0.21875 -0.9375,-0.21875 -0.48438,0 -0.89063,0.14063 -1.21875,0.39063 -0.32813,0.26562 -0.5625,0.64062 -0.71875,1.125 -0.15625,0.48437 -0.25,1.125 -0.25,1.92187 0,1.25 0.23437,2.15625 0.67187,2.71875 z m 0.59375,-4.98437 c 0.21875,-0.32813 0.53125,-0.48438 0.90625,-0.48438 0.39063,0 0.70313,0.17188 0.96875,0.54688 0.25,0.35937 0.375,1.09375 0.375,2.20312 0,1.09375 -0.125,1.82813 -0.375,2.1875 -0.26562,0.375 -0.57812,0.54688 -0.95312,0.54688 -0.375,0 -0.70313,-0.17188 -0.95313,-0.54688 -0.26562,-0.35937 -0.39062,-1.09375 -0.39062,-2.1875 0,-1.10937 0.14062,-1.85937 0.42187,-2.26562 z m -0.9375,17.08203 c -0.21875,0.28125 -0.32812,0.65625 -0.32812,1.09375 0,0.57812 0.20312,1.0625 0.59375,1.45312 0.40625,0.40625 0.9375,0.59375 1.60937,0.59375 0.65625,0 1.1875,-0.1875 1.59375,-0.57812 0.40625,-0.39063 0.60938,-0.875 0.60938,-1.45313 0,-0.40625 -0.10938,-0.76562 -0.32813,-1.0625 -0.20312,-0.29687 -0.51562,-0.51562 -0.9375,-0.64062 0.32813,-0.14063 0.59375,-0.3125 0.75,-0.54688 0.15625,-0.23437 0.23438,-0.5 0.23438,-0.8125 0,-0.48437 -0.17188,-0.89062 -0.53125,-1.23437 -0.35938,-0.34375 -0.82813,-0.51563 -1.40625,-0.51563 -0.57813,0 -1.04688,0.17188 -1.40625,0.5 -0.34375,0.34375 -0.51563,0.75 -0.51563,1.23438 0,0.32812 0.0781,0.59375 0.25,0.82812 0.15625,0.23438 0.40625,0.40625 0.76563,0.54688 -0.42188,0.0937 -0.73438,0.29687 -0.95313,0.59375 z m 1.09375,-2.71875 c 0.20313,-0.20313 0.46875,-0.3125 0.78125,-0.3125 0.3125,0 0.5625,0.10937 0.78125,0.3125 0.20313,0.20312 0.29688,0.46875 0.29688,0.76562 0,0.28125 -0.0937,0.53125 -0.29688,0.73438 -0.20312,0.20312 -0.45312,0.29687 -0.78125,0.29687 -0.32812,0 -0.59375,-0.0937 -0.79687,-0.29687 -0.20313,-0.20313 -0.29688,-0.46875 -0.29688,-0.78125 0,-0.28125 0.0937,-0.51563 0.3125,-0.71875 z m -0.21875,2.85937 c 0.26563,-0.25 0.59375,-0.39062 0.96875,-0.39062 0.40625,0 0.73438,0.14062 1,0.39062 0.25,0.26563 0.39063,0.59375 0.39063,0.98438 0,0.39062 -0.14063,0.70312 -0.39063,0.96875 -0.25,0.25 -0.57812,0.375 -0.96875,0.375 -0.25,0 -0.48437,-0.0625 -0.71875,-0.17188 -0.20312,-0.125 -0.375,-0.29687 -0.48437,-0.51562 -0.10938,-0.21875 -0.17188,-0.4375 -0.17188,-0.67188 0,-0.39062 0.125,-0.71875 0.375,-0.96875 z m 2.46875,11.14844 c -0.34375,-0.28125 -0.76562,-0.4375 -1.29687,-0.4375 -0.70313,0 -1.26563,0.25 -1.6875,0.76563 -0.48438,0.59375 -0.71875,1.53125 -0.71875,2.82812 0,1.17188 0.21875,1.98438 0.64062,2.5 0.4375,0.5 1,0.75 1.6875,0.75 0.40625,0 0.75,-0.0937 1.07813,-0.28125 0.3125,-0.1875 0.5625,-0.46875 0.75,-0.82812 0.17187,-0.35938 0.26562,-0.76563 0.26562,-1.1875 0,-0.625 -0.1875,-1.15625 -0.57812,-1.5625 -0.39063,-0.39063 -0.85938,-0.60938 -1.40625,-0.60938 -0.3125,0 -0.60938,0.0781 -0.89063,0.21875 -0.29687,0.15625 -0.54687,0.375 -0.73437,0.67188 0,-0.65625 0.0781,-1.1875 0.23437,-1.53125 0.14063,-0.375 0.35938,-0.64063 0.60938,-0.84375 0.20312,-0.14063 0.4375,-0.21875 0.70312,-0.21875 0.32813,0 0.60938,0.125 0.82813,0.35937 0.125,0.14063 0.23437,0.375 0.3125,0.70313 l 0.8125,-0.0625 c -0.0625,-0.53125 -0.26563,-0.92188 -0.60938,-1.23438 z m -2.375,3.07813 c 0.26563,-0.26563 0.57813,-0.40625 0.95313,-0.40625 0.375,0 0.6875,0.14062 0.9375,0.40625 0.23437,0.26562 0.35937,0.625 0.35937,1.09375 0,0.48437 -0.125,0.85937 -0.375,1.14062 -0.23437,0.28125 -0.54687,0.42188 -0.89062,0.42188 -0.25,0 -0.46875,-0.0625 -0.6875,-0.20313 -0.21875,-0.14062 -0.39063,-0.32812 -0.5,-0.59375 -0.125,-0.26562 -0.1875,-0.53125 -0.1875,-0.8125 0,-0.4375 0.14062,-0.78125 0.39062,-1.04687 z m 2.15625,17.76953 v -1.59375 h 0.90625 v -0.76563 h -0.90625 v -4.34375 h -0.67187 l -3.0625,4.34375 v 0.76563 h 2.90625 v 1.59375 z m -2.92187,-2.35938 2.09375,-3.01562 v 3.01562 z m 0.48437,16.13281 c 0.0937,-0.15625 0.21875,-0.29687 0.35938,-0.45312 0.14062,-0.14063 0.46875,-0.4375 0.95312,-0.84375 0.59375,-0.5 1.01563,-0.89063 1.26563,-1.17188 0.25,-0.29687 0.4375,-0.5625 0.54687,-0.82812 0.10938,-0.25 0.17188,-0.51563 0.17188,-0.78125 0,-0.53125 -0.1875,-0.98438 -0.5625,-1.34375 -0.375,-0.34375 -0.89063,-0.53125 -1.53125,-0.53125 -0.64063,0 -1.15625,0.17187 -1.53125,0.5 -0.375,0.32812 -0.59375,0.8125 -0.64063,1.4375 l 0.82813,0.0937 c 0,-0.42188 0.125,-0.75 0.375,-0.98438 0.23437,-0.23438 0.54687,-0.35938 0.95312,-0.35938 0.375,0 0.6875,0.10938 0.92188,0.34376 0.23437,0.21874 0.34375,0.48437 0.34375,0.8125 0,0.3125 -0.14063,0.65624 -0.39063,1 -0.26562,0.34374 -0.75,0.82812 -1.46875,1.42187 -0.46875,0.375 -0.82812,0.70313 -1.07812,1.01563 -0.25,0.28124 -0.4375,0.57812 -0.5625,0.875 -0.0625,0.1875 -0.0937,0.375 -0.0937,0.57812 h 4.4375 v -0.78125 z m -0.34375,14.75391 c 0.35938,0.45313 0.85938,0.6875 1.51563,0.6875 0.48437,0 0.89062,-0.125 1.21875,-0.39063 0.3125,-0.26562 0.5625,-0.64062 0.71875,-1.125 0.15625,-0.46874 0.23437,-1.10937 0.23437,-1.89062 0,-0.67188 -0.0469,-1.20312 -0.14062,-1.59375 -0.10938,-0.39063 -0.25,-0.71875 -0.42188,-1 -0.17187,-0.26562 -0.39062,-0.46875 -0.67187,-0.625 -0.26563,-0.14062 -0.59375,-0.21875 -0.9375,-0.21875 -0.48438,0 -0.89063,0.14063 -1.21875,0.39063 -0.32813,0.26562 -0.5625,0.64062 -0.71875,1.12499 -0.15625,0.48438 -0.25,1.125 -0.25,1.92188 0,1.25 0.23437,2.15625 0.67187,2.71875 z m 0.59375,-4.98437 c 0.21875,-0.32813 0.53125,-0.48438 0.90625,-0.48438 0.39063,0 0.70313,0.17188 0.96875,0.54688 0.25,0.35937 0.375,1.09374 0.375,2.20312 0,1.09375 -0.125,1.82812 -0.375,2.1875 -0.26562,0.375 -0.57812,0.54688 -0.95312,0.54688 -0.375,0 -0.70313,-0.17188 -0.95313,-0.54688 -0.26562,-0.35938 -0.39062,-1.09375 -0.39062,-2.1875 0,-1.10938 0.14062,-1.85938 0.42187,-2.26562 z m -1.6914,18.02343 v -0.67187 h -5.1875 v 0.67187 z m 1.4414,1.3125 c 0.0937,-0.15625 0.21875,-0.29687 0.35938,-0.45312 0.14062,-0.14063 0.46875,-0.4375 0.95312,-0.84375 0.59375,-0.5 1.01563,-0.89063 1.26563,-1.17188 0.25,-0.29687 0.4375,-0.5625 0.54687,-0.82812 0.10938,-0.25 0.17188,-0.51563 0.17188,-0.78125 0,-0.53125 -0.1875,-0.98438 -0.5625,-1.34375 -0.375,-0.34375 -0.89063,-0.53125 -1.53125,-0.53125 -0.64063,0 -1.15625,0.17187 -1.53125,0.5 -0.375,0.32812 -0.59375,0.8125 -0.64063,1.4375 l 0.82813,0.0937 c 0,-0.42187 0.125,-0.75 0.375,-0.98437 0.23437,-0.23438 0.54687,-0.35938 0.95312,-0.35938 0.375,0 0.6875,0.10938 0.92188,0.34375 0.23437,0.21875 0.34375,0.48438 0.34375,0.8125 0,0.3125 -0.14063,0.65625 -0.39063,1 -0.26562,0.34375 -0.75,0.82813 -1.46875,1.42188 -0.46875,0.375 -0.82812,0.70312 -1.07812,1.01562 -0.25,0.28125 -0.4375,0.57813 -0.5625,0.875 -0.0625,0.1875 -0.0937,0.375 -0.0937,0.57813 h 4.4375 v -0.78125 z m -1.4414,13.23828 v -0.67187 h -5.1875 v 0.67187 z m 3.8789,2.09375 v -1.59375 h 0.90625 v -0.76562 h -0.90625 v -4.34375 h -0.67187 l -3.0625,4.34375 v 0.76562 h 2.90625 v 1.59375 z m -2.92187,-2.35937 2.09375,-3.01563 v 3.01563 z m -0.95703,14.82031 v -0.67187 h -5.1875 v 0.67187 z m 4.09765,-4.20313 c -0.34375,-0.28124 -0.76562,-0.4375 -1.29687,-0.4375 -0.70313,0 -1.26563,0.25 -1.6875,0.76563 -0.48438,0.59375 -0.71875,1.53125 -0.71875,2.82813 0,1.17187 0.21875,1.98437 0.64062,2.5 0.4375,0.5 1,0.75 1.6875,0.75 0.40625,0 0.75,-0.0937 1.07813,-0.28126 0.3125,-0.1875 0.5625,-0.46874 0.75,-0.82812 0.17187,-0.35938 0.26562,-0.76562 0.26562,-1.1875 0,-0.625 -0.1875,-1.15625 -0.57812,-1.5625 -0.39063,-0.39062 -0.85938,-0.60938 -1.40625,-0.60938 -0.3125,0 -0.60938,0.0781 -0.89063,0.21876 -0.29687,0.15624 -0.54687,0.375 -0.73437,0.67187 0,-0.65625 0.0781,-1.1875 0.23437,-1.53125 0.14063,-0.375 0.35938,-0.64062 0.60938,-0.84375 0.20312,-0.14063 0.4375,-0.21875 0.70312,-0.21875 0.32813,0 0.60938,0.125 0.82813,0.35938 0.125,0.14062 0.23437,0.375 0.3125,0.70312 l 0.8125,-0.0625 c -0.0625,-0.53126 -0.26563,-0.92189 -0.60938,-1.23439 z m -2.375,3.07813 c 0.26563,-0.26563 0.57813,-0.40625 0.95313,-0.40625 0.375,0 0.6875,0.14062 0.9375,0.40625 0.23437,0.26563 0.35937,0.625 0.35937,1.09375 0,0.48438 -0.125,0.85938 -0.375,1.14062 -0.23437,0.28126 -0.54687,0.42188 -0.89062,0.42188 -0.25,0 -0.46875,-0.0625 -0.6875,-0.20312 -0.21875,-0.14063 -0.39063,-0.32813 -0.5,-0.59376 -0.125,-0.26562 -0.1875,-0.53124 -0.1875,-0.8125 0,-0.4375 0.14062,-0.78124 0.39062,-1.04687 z m -1.72265,15.67578 v -0.67187 h -5.1875 v 0.67187 z m 0.7539,-0.9375 c -0.21875,0.28125 -0.32812,0.65625 -0.32812,1.09375 0,0.57813 0.20312,1.0625 0.59375,1.45313 0.40625,0.40625 0.9375,0.59375 1.60937,0.59375 0.65625,0 1.1875,-0.1875 1.59375,-0.57813 0.40625,-0.39062 0.60938,-0.875 0.60938,-1.45312 0,-0.40625 -0.10938,-0.76563 -0.32813,-1.0625 -0.20312,-0.29688 -0.51562,-0.51563 -0.9375,-0.64063 0.32813,-0.14062 0.59375,-0.3125 0.75,-0.54687 0.15625,-0.23438 0.23438,-0.5 0.23438,-0.8125 0,-0.48438 -0.17188,-0.89063 -0.53125,-1.23438 -0.35938,-0.34375 -0.82813,-0.51562 -1.40625,-0.51562 -0.57813,0 -1.04688,0.17187 -1.40625,0.5 -0.34375,0.34375 -0.51563,0.75 -0.51563,1.23437 0,0.32813 0.0781,0.59375 0.25,0.82813 0.15625,0.23437 0.40625,0.40625 0.76563,0.54687 -0.42188,0.0937 -0.73438,0.29688 -0.95313,0.59375 z m 1.09375,-2.71875 c 0.20313,-0.20312 0.46875,-0.3125 0.78125,-0.3125 0.3125,0 0.5625,0.10937 0.78125,0.3125 0.20313,0.20313 0.29688,0.46875 0.29688,0.76563 0,0.28125 -0.0937,0.53125 -0.29688,0.73437 -0.20312,0.20313 -0.45312,0.29688 -0.78125,0.29688 -0.32812,0 -0.59375,-0.0937 -0.79687,-0.29688 -0.20313,-0.20312 -0.29688,-0.46875 -0.29688,-0.78125 0,-0.28125 0.0937,-0.51562 0.3125,-0.71875 z m -0.21875,2.85938 c 0.26563,-0.25 0.59375,-0.39063 0.96875,-0.39063 0.40625,0 0.73438,0.14063 1,0.39063 0.25,0.26562 0.39063,0.59375 0.39063,0.98437 0,0.39063 -0.14063,0.70313 -0.39063,0.96875 -0.25,0.25 -0.57812,0.375 -0.96875,0.375 -0.25,0 -0.48437,-0.0625 -0.71875,-0.17187 -0.20312,-0.125 -0.375,-0.29688 -0.48437,-0.51563 -0.10938,-0.21875 -0.17188,-0.4375 -0.17188,-0.67187 0,-0.39063 0.125,-0.71875 0.375,-0.96875 z m -6.83593,15.35156 v -0.67188 h -5.1875 v 0.67188 z m 3.51953,-4.64063 h -0.53125 c -0.14063,0.29688 -0.39063,0.59375 -0.73438,0.90626 -0.34375,0.31249 -0.75,0.56249 -1.20312,0.78125 v 0.79687 c 0.25,-0.0937 0.53125,-0.25 0.85937,-0.42187 0.32813,-0.18751 0.59375,-0.375 0.78125,-0.56251 v 5.23438 h 0.82813 z m 2.78515,6.15626 c 0.35938,0.45312 0.85938,0.68749 1.51563,0.68749 0.48437,0 0.89062,-0.12493 1.21875,-0.39063 0.3125,-0.26561 0.5625,-0.64061 0.71875,-1.125 0.15625,-0.46874 0.23437,-1.10937 0.23437,-1.89061 0,-0.67188 -0.0469,-1.20313 -0.14062,-1.59376 -0.10938,-0.39063 -0.25,-0.71875 -0.42188,-1 -0.17187,-0.26563 -0.39062,-0.46875 -0.67187,-0.625 -0.26563,-0.14063 -0.59375,-0.21875 -0.9375,-0.21875 -0.48438,0 -0.89063,0.14063 -1.21875,0.39063 -0.32813,0.26563 -0.5625,0.64063 -0.71875,1.125 -0.15625,0.48437 -0.25,1.125 -0.25,1.92188 0,1.25 0.23437,2.15624 0.67187,2.71875 z m 0.59375,-4.98438 c 0.21875,-0.32813 0.53125,-0.48437 0.90625,-0.48437 0.39063,0 0.70313,0.17187 0.96875,0.54687 0.25,0.35937 0.375,1.09374 0.375,2.20313 0,1.09375 -0.125,1.82812 -0.375,2.18749 -0.26562,0.375 -0.57812,0.54688 -0.95312,0.54688 -0.375,0 -0.70313,-0.17188 -0.95313,-0.54688 -0.26562,-0.35937 -0.39062,-1.09374 -0.39062,-2.18749 0,-1.10939 0.14062,-1.85939 0.42187,-2.26563 z m 7.52344,16.39063 c 0.35937,0.45312 0.85937,0.68749 1.51562,0.68749 0.48438,0 0.89063,-0.12493 1.21875,-0.39062 0.3125,-0.26563 0.5625,-0.64063 0.71875,-1.125 0.15625,-0.46875 0.23438,-1.10938 0.23438,-1.89063 0,-0.67187 -0.0469,-1.20312 -0.14063,-1.59375 -0.10937,-0.39062 -0.25,-0.71874 -0.42187,-1 -0.17188,-0.26562 -0.39063,-0.46874 -0.67188,-0.625 -0.26562,-0.14062 -0.59375,-0.21874 -0.9375,-0.21874 -0.48437,0 -0.89062,0.14062 -1.21875,0.39062 -0.32812,0.26563 -0.5625,0.64063 -0.71875,1.125 -0.15625,0.48438 -0.25,1.125 -0.25,1.92187 0,1.25 0.23438,2.15625 0.67188,2.71876 z m 0.59375,-4.98439 c 0.21875,-0.32812 0.53125,-0.48437 0.90625,-0.48437 0.39062,0 0.70312,0.17188 0.96875,0.54688 0.25,0.35937 0.375,1.09375 0.375,2.20312 0,1.09376 -0.125,1.82813 -0.375,2.18751 -0.26563,0.375 -0.57813,0.54686 -0.95313,0.54686 -0.375,0 -0.70312,-0.17186 -0.95312,-0.54686 -0.26563,-0.35938 -0.39063,-1.09375 -0.39063,-2.18751 0,-1.10937 0.14063,-1.85937 0.42188,-2.26563 z m 19.75781,4.78126 c 0.0937,-0.15626 0.21875,-0.29687 0.35938,-0.45312 0.14062,-0.14063 0.46875,-0.43751 0.95312,-0.84375 0.59375,-0.5 1.01563,-0.89063 1.26563,-1.17188 0.25,-0.29688 0.4375,-0.56251 0.54687,-0.82812 0.10937,-0.25 0.17188,-0.51563 0.17188,-0.78125 0,-0.53126 -0.1875,-0.98438 -0.5625,-1.34375 -0.375,-0.34376 -0.89063,-0.53125 -1.53125,-0.53125 -0.64063,0 -1.15625,0.17186 -1.53125,0.5 -0.375,0.32812 -0.59375,0.81249 -0.64063,1.43749 l 0.82813,0.0937 c 0,-0.42188 0.125,-0.75 0.375,-0.98438 0.23437,-0.23438 0.54687,-0.35938 0.95312,-0.35938 0.375,0 0.6875,0.10934 0.92188,0.34376 0.23437,0.21875 0.34375,0.48438 0.34375,0.8125 0,0.3125 -0.14063,0.65625 -0.39063,1 -0.26562,0.34374 -0.75,0.82812 -1.46875,1.42188 -0.46875,0.375 -0.82812,0.70312 -1.07812,1.01562 -0.25,0.28124 -0.4375,0.57812 -0.5625,0.875 -0.0625,0.1875 -0.0937,0.375 -0.0937,0.57812 h 4.4375 v -0.78125 z m 23.65625,0.78125 v -1.59375 h 0.90625 v -0.76562 h -0.90625 v -4.34375 h -0.67187 l -3.0625,4.34375 v 0.76562 h 2.90625 v 1.59375 z m -2.92187,-2.35937 2.09375,-3.01563 v 3.01563 z m 24.77343,-3.93751 c -0.34375,-0.28124 -0.76562,-0.43749 -1.29687,-0.43749 -0.70313,0 -1.26563,0.25 -1.6875,0.76562 -0.48438,0.59375 -0.71875,1.53124 -0.71875,2.82812 0,1.17188 0.21875,1.98438 0.64062,2.5 0.4375,0.5 1,0.75 1.6875,0.75 0.40625,0 0.75,-0.0937 1.07813,-0.28125 0.3125,-0.18749 0.5625,-0.46875 0.75,-0.82812 0.17187,-0.35937 0.26562,-0.76563 0.26562,-1.18751 0,-0.625 -0.1875,-1.15624 -0.57812,-1.56249 -0.39063,-0.39063 -0.85938,-0.60937 -1.40625,-0.60937 -0.3125,0 -0.60938,0.0781 -0.89063,0.21874 -0.29687,0.15626 -0.54687,0.375 -0.73437,0.67188 0,-0.65625 0.0781,-1.1875 0.23437,-1.53125 0.14063,-0.375 0.35938,-0.64063 0.60938,-0.84375 0.20312,-0.14062 0.4375,-0.21876 0.70312,-0.21876 0.32813,0 0.60938,0.12494 0.82813,0.35939 0.125,0.14061 0.23437,0.375 0.3125,0.70312 l 0.8125,-0.0625 c -0.0625,-0.53124 -0.26563,-0.92187 -0.60938,-1.23438 z m -2.375,3.07813 c 0.26563,-0.26562 0.57813,-0.40625 0.95313,-0.40625 0.375,0 0.6875,0.14063 0.9375,0.40625 0.23437,0.26563 0.35937,0.625 0.35937,1.09375 0,0.48437 -0.125,0.85937 -0.375,1.14063 -0.23437,0.28125 -0.54687,0.42186 -0.89062,0.42186 -0.25,0 -0.46875,-0.0625 -0.6875,-0.20312 -0.21875,-0.14062 -0.39063,-0.32812 -0.5,-0.59374 -0.125,-0.26563 -0.1875,-0.53126 -0.1875,-0.81251 0,-0.43749 0.14062,-0.78124 0.39062,-1.04687 z m 18.97266,0.1875 c -0.21875,0.28125 -0.32813,0.65625 -0.32813,1.09374 0,0.57814 0.20313,1.06251 0.59375,1.45314 0.40625,0.40625 0.9375,0.59374 1.60938,0.59374 0.65625,0 1.1875,-0.18749 1.59375,-0.57812 0.40625,-0.39062 0.60937,-0.875 0.60937,-1.45313 0,-0.40624 -0.10937,-0.76563 -0.32812,-1.06249 -0.20313,-0.29688 -0.51563,-0.51563 -0.9375,-0.64063 0.32812,-0.14063 0.59375,-0.31251 0.75,-0.54688 0.15625,-0.23437 0.23437,-0.5 0.23437,-0.81249 0,-0.48438 -0.17187,-0.89063 -0.53125,-1.23438 -0.35937,-0.34376 -0.82812,-0.51562 -1.40625,-0.51562 -0.57812,0 -1.04687,0.17186 -1.40625,0.5 -0.34375,0.34374 -0.51562,0.75 -0.51562,1.23437 0,0.32812 0.0781,0.59375 0.25,0.82812 0.15625,0.23437 0.40625,0.40625 0.76562,0.54688 -0.42187,0.0937 -0.73437,0.29688 -0.95312,0.59375 z m 1.09375,-2.71875 c 0.20312,-0.20312 0.46875,-0.31251 0.78125,-0.31251 0.3125,0 0.5625,0.10934 0.78125,0.31251 0.20312,0.20312 0.29687,0.46875 0.29687,0.76563 0,0.28125 -0.0937,0.53125 -0.29687,0.73437 -0.20313,0.20312 -0.45313,0.29688 -0.78125,0.29688 -0.32813,0 -0.59375,-0.0937 -0.79688,-0.29688 -0.20312,-0.20312 -0.29687,-0.46875 -0.29687,-0.78125 0,-0.28126 0.0937,-0.51563 0.3125,-0.71875 z m -0.21875,2.85937 c 0.26562,-0.25 0.59375,-0.39062 0.96875,-0.39062 0.40625,0 0.73437,0.14062 1,0.39062 0.25,0.26563 0.39062,0.59375 0.39062,0.98438 0,0.39062 -0.14062,0.70313 -0.39062,0.96874 -0.25,0.25 -0.57813,0.375 -0.96875,0.375 -0.25,0 -0.48438,-0.0625 -0.71875,-0.17186 -0.20313,-0.12494 -0.375,-0.29688 -0.48438,-0.51563 -0.10937,-0.21875 -0.17187,-0.43751 -0.17187,-0.67188 0,-0.39063 0.125,-0.71875 0.375,-0.96875 z m 18.58984,-3.84374 h -0.53125 c -0.14062,0.29686 -0.39062,0.59374 -0.73437,0.90625 -0.34375,0.31249 -0.75,0.56249 -1.20313,0.78124 v 0.79688 c 0.25,-0.0937 0.53125,-0.25 0.85938,-0.42188 0.32812,-0.18749 0.59375,-0.375 0.78125,-0.56249 v 5.23437 h 0.82812 z m 3.76953,6.15625 c 0.35938,0.45312 0.85938,0.68749 1.51563,0.68749 0.48437,0 0.89062,-0.12493 1.21875,-0.39062 0.3125,-0.26563 0.5625,-0.64063 0.71875,-1.125 0.15625,-0.46875 0.23437,-1.10938 0.23437,-1.89063 0,-0.67187 -0.0469,-1.20312 -0.14062,-1.59375 -0.10938,-0.39062 -0.25,-0.71874 -0.42188,-1 -0.17187,-0.26562 -0.39062,-0.46874 -0.67187,-0.625 -0.26563,-0.14062 -0.59375,-0.21874 -0.9375,-0.21874 -0.48438,0 -0.89063,0.14062 -1.21875,0.39062 -0.32813,0.26563 -0.5625,0.64063 -0.71875,1.125 -0.15625,0.48438 -0.25,1.125 -0.25,1.92187 0,1.25 0.23437,2.15625 0.67187,2.71876 z m 0.59375,-4.98439 c 0.21875,-0.32812 0.53125,-0.48437 0.90625,-0.48437 0.39063,0 0.70313,0.17188 0.96875,0.54688 0.25,0.35937 0.375,1.09375 0.375,2.20312 0,1.09376 -0.125,1.82813 -0.375,2.18751 -0.26562,0.375 -0.57812,0.54686 -0.95312,0.54686 -0.375,0 -0.70313,-0.17186 -0.95313,-0.54686 -0.26562,-0.35938 -0.39062,-1.09375 -0.39062,-2.18751 0,-1.10937 0.14062,-1.85937 0.42187,-2.26563 z m 16.72657,-1.17186 h -0.53125 c -0.14063,0.29686 -0.39063,0.59374 -0.73438,0.90625 -0.34374,0.31249 -0.75,0.56249 -1.20313,0.78124 v 0.79688 c 0.25,-0.0937 0.53125,-0.25 0.85939,-0.42188 0.32812,-0.18749 0.59374,-0.375 0.78124,-0.56249 v 5.23437 h 0.82813 z m 4.11328,5.95312 c 0.0937,-0.15626 0.21875,-0.29687 0.35937,-0.45312 0.14063,-0.14063 0.46875,-0.43751 0.95312,-0.84375 0.59376,-0.5 1.01563,-0.89063 1.26563,-1.17188 0.25,-0.29688 0.43751,-0.56251 0.54688,-0.82812 0.10933,-0.25 0.17187,-0.51563 0.17187,-0.78125 0,-0.53126 -0.1875,-0.98438 -0.5625,-1.34375 -0.375,-0.34376 -0.89062,-0.53125 -1.53125,-0.53125 -0.64063,0 -1.15625,0.17186 -1.53125,0.5 -0.375,0.32812 -0.59375,0.81249 -0.64062,1.43749 l 0.82812,0.0937 c 0,-0.42188 0.12494,-0.75 0.375,-0.98438 0.23438,-0.23438 0.54688,-0.35938 0.95312,-0.35938 0.375,0 0.68751,0.10934 0.92188,0.34376 0.23438,0.21875 0.34375,0.48438 0.34375,0.8125 0,0.3125 -0.14063,0.65625 -0.39063,1 -0.26562,0.34374 -0.75,0.82812 -1.46874,1.42188 -0.46875,0.375 -0.82812,0.70312 -1.07812,1.01562 -0.25,0.28124 -0.43751,0.57812 -0.56251,0.875 -0.0625,0.1875 -0.0937,0.375 -0.0937,0.57812 h 4.43749 v -0.78125 z m 16.70312,-5.95312 h -0.53125 c -0.14062,0.29686 -0.39062,0.59374 -0.73438,0.90625 -0.34374,0.31249 -0.75,0.56249 -1.20312,0.78124 v 0.79688 c 0.25,-0.0937 0.53126,-0.25 0.85938,-0.42188 0.32812,-0.18749 0.59374,-0.375 0.78125,-0.56249 v 5.23437 h 0.82812 z m 6.55079,6.73437 v -1.59375 h 0.90624 v -0.76562 h -0.90624 v -4.34375 h -0.67188 l -3.0625,4.34375 v 0.76562 h 2.90624 v 1.59375 z m -2.92188,-2.35937 2.09374,-3.01563 v 3.01563 z m 0,0"
           style="fill:#231f20;fill-opacity:1;fill-rule:nonzero;stroke:none;stroke-width:1.33333"
           aria-label="10&#10;8&#10;6&#10;4&#10;2&#10;0&#10;–2&#10;–4&#10;–6&#10;–8&#10;–10&#10;02468101214" />
        <text
           xml:space="preserve"
           style="font-style:normal;font-variant:normal;font-weight:normal;font-stretch:normal;font-size:13.3333px;line-height:150%;font-family:sans-serif;-inkscape-font-specification:sans-serif;text-align:end;letter-spacing:0px;writing-mode:lr-tb;direction:ltr;text-anchor:end;fill:#000000;fill-opacity:0.873329;fill-rule:evenodd;stroke-width:0;stroke-linecap:round;stroke-linejoin:round;stroke-miterlimit:2;stroke-opacity:0.680142;paint-order:stroke markers fill"
           x="381.68185"
           y="362.5704"
           id="text2"><tspan
             sodipodi:role="line"
             id="tspan2"
             x="385.92014"
             y="362.5704"> </tspan></text>
      </g>
      <text
         xml:space="preserve"
         style="font-style:normal;font-variant:normal;font-weight:normal;font-stretch:normal;font-size:8px;line-height:150%;font-family:sans-serif;-inkscape-font-specification:sans-serif;text-align:end;letter-spacing:0px;writing-mode:lr-tb;direction:ltr;text-anchor:end;fill:#000000;fill-opacity:0.873329;fill-rule:evenodd;stroke-width:0;stroke-linecap:round;stroke-linejoin:round;stroke-miterlimit:2;stroke-opacity:0.680142;paint-order:stroke markers fill"
         x="-369.58203"
         y="300.13281"
         id="text7"
         transform="rotate(-90)"><tspan
           sodipodi:role="line"
           id="tspan7"
           x="-369.58203"
           y="300.13281">Dérive (cmH<tspan
   style="font-size:8px;baseline-shift:sub"
   id="tspan6">2</tspan>O)</tspan></text>
      <text
         xml:space="preserve"
         style="font-style:normal;font-variant:normal;font-weight:normal;font-stretch:normal;font-size:10.6667px;line-height:150%;font-family:sans-serif;-inkscape-font-specification:sans-serif;text-align:end;letter-spacing:0px;writing-mode:lr-tb;direction:ltr;text-anchor:end;fill:#000000;fill-opacity:0.873329;fill-rule:evenodd;stroke-width:0;stroke-linecap:round;stroke-linejoin:round;stroke-miterlimit:2;stroke-opacity:0.680142;paint-order:stroke markers fill"
         x="466.26355"
         y="341.59085"
         id="text8"><tspan
           sodipodi:role="line"
           id="tspan8"
           x="466.26355"
           y="341.59085">Biais: -2,1 cmH<tspan
   style="font-size:10.6667px;baseline-shift:sub"
   id="tspan9">2</tspan>O</tspan></text>
    </g>
  </g>
</svg>
