<?xml version="1.0" encoding="UTF-8" standalone="no"?>
<!-- Created with Inkscape (http://www.inkscape.org/) -->

<svg
   version="1.1"
   id="svg1"
   width="180"
   height="180"
   viewBox="0 0 180 180"
   sodipodi:docname="PB980.svg"
   inkscape:export-filename="PB980.png"
   inkscape:export-xdpi="480"
   inkscape:export-ydpi="480"
   inkscape:version="1.4 (e7c3feb100, 2024-10-09)"
   xmlns:inkscape="http://www.inkscape.org/namespaces/inkscape"
   xmlns:sodipodi="http://sodipodi.sourceforge.net/DTD/sodipodi-0.dtd"
   xmlns="http://www.w3.org/2000/svg"
   xmlns:svg="http://www.w3.org/2000/svg">
  <sodipodi:namedview
     id="namedview1"
     pagecolor="#ffffff"
     bordercolor="#999999"
     borderopacity="1"
     inkscape:showpageshadow="0"
     inkscape:pageopacity="0"
     inkscape:pagecheckerboard="0"
     inkscape:deskcolor="#d1d1d1"
     inkscape:export-bgcolor="#ffffffff"
     inkscape:zoom="2.0831377"
     inkscape:cx="76.087146"
     inkscape:cy="70.80665"
     inkscape:window-width="1920"
     inkscape:window-height="997"
     inkscape:window-x="0"
     inkscape:window-y="0"
     inkscape:window-maximized="1"
     inkscape:current-layer="group-MC1" />
  <defs
     id="defs1" />
  <g
     id="g1"
     transform="translate(-299.14454,-110.73828)">
    <g
       id="group-MC0">
      <g
         id="group-MC1"
         transform="translate(2.5664272)">
        <path
           id="path375"
           d="M 0,0 H 2.73"
           style="fill:none;stroke:#231f20;stroke-width:0.674;stroke-linecap:square;stroke-linejoin:miter;stroke-miterlimit:1;stroke-dasharray:none;stroke-opacity:1"
           transform="matrix(1.3333333,0,0,-1.3333333,323.61467,260.28667)" />
        <path
           id="path376"
           d="M 0,0 H 2.73"
           style="fill:none;stroke:#231f20;stroke-width:0.674;stroke-linecap:square;stroke-linejoin:miter;stroke-miterlimit:1;stroke-dasharray:none;stroke-opacity:1"
           transform="matrix(1.3333333,0,0,-1.3333333,323.61467,245.75067)" />
        <path
           id="path377"
           d="M 0,0 H 2.73"
           style="fill:none;stroke:#231f20;stroke-width:0.674;stroke-linecap:square;stroke-linejoin:miter;stroke-miterlimit:1;stroke-dasharray:none;stroke-opacity:1"
           transform="matrix(1.3333333,0,0,-1.3333333,323.61467,231.21467)" />
        <path
           id="path378"
           d="M 0,0 H 2.73"
           style="fill:none;stroke:#231f20;stroke-width:0.674;stroke-linecap:square;stroke-linejoin:miter;stroke-miterlimit:1;stroke-dasharray:none;stroke-opacity:1"
           transform="matrix(1.3333333,0,0,-1.3333333,323.61467,216.67867)" />
        <path
           id="path379"
           d="M 0,0 H 2.729"
           style="fill:none;stroke:#231f20;stroke-width:0.674;stroke-linecap:square;stroke-linejoin:miter;stroke-miterlimit:1;stroke-dasharray:none;stroke-opacity:1"
           transform="matrix(1.3333333,0,0,-1.3333333,323.616,202.14267)" />
        <path
           id="path380"
           d="M 0,0 H 2.729"
           style="fill:none;stroke:#231f20;stroke-width:0.674;stroke-linecap:square;stroke-linejoin:miter;stroke-miterlimit:1;stroke-dasharray:none;stroke-opacity:1"
           transform="matrix(1.3333333,0,0,-1.3333333,323.616,187.60667)" />
        <path
           id="path381"
           d="M 0,0 H 2.729"
           style="fill:none;stroke:#231f20;stroke-width:0.674;stroke-linecap:square;stroke-linejoin:miter;stroke-miterlimit:1;stroke-dasharray:none;stroke-opacity:1"
           transform="matrix(1.3333333,0,0,-1.3333333,323.616,173.07067)" />
        <path
           id="path382"
           d="M 0,0 H 2.729"
           style="fill:none;stroke:#231f20;stroke-width:0.674;stroke-linecap:square;stroke-linejoin:miter;stroke-miterlimit:1;stroke-dasharray:none;stroke-opacity:1"
           transform="matrix(1.3333333,0,0,-1.3333333,323.616,158.53467)" />
        <path
           id="path383"
           d="M 0,0 H 2.729"
           style="fill:none;stroke:#231f20;stroke-width:0.674;stroke-linecap:square;stroke-linejoin:miter;stroke-miterlimit:1;stroke-dasharray:none;stroke-opacity:1"
           transform="matrix(1.3333333,0,0,-1.3333333,323.616,143.99867)" />
        <path
           id="path384"
           d="M 0,0 H 2.729"
           style="fill:none;stroke:#231f20;stroke-width:0.674;stroke-linecap:square;stroke-linejoin:miter;stroke-miterlimit:1;stroke-dasharray:none;stroke-opacity:1"
           transform="matrix(1.3333333,0,0,-1.3333333,323.616,129.46267)" />
        <path
           id="path385"
           d="M 0,0 H 2.729"
           style="fill:none;stroke:#231f20;stroke-width:0.674;stroke-linecap:square;stroke-linejoin:miter;stroke-miterlimit:1;stroke-dasharray:none;stroke-opacity:1"
           transform="matrix(1.3333333,0,0,-1.3333333,323.616,114.92667)" />
        <path
           id="path386"
           d="M 0,0 H 2.729"
           style="fill:none;stroke:#918f90;stroke-width:0.886;stroke-linecap:butt;stroke-linejoin:miter;stroke-miterlimit:1;stroke-dasharray:none;stroke-opacity:1"
           transform="matrix(1.3333333,0,0,-1.3333333,323.29733,196.37467)" />
        <path
           id="path387"
           d="M 0,0 H 2.729"
           style="fill:none;stroke:#918f90;stroke-width:0.886;stroke-linecap:butt;stroke-linejoin:miter;stroke-miterlimit:1;stroke-dasharray:none;stroke-opacity:1"
           transform="matrix(1.3333333,0,0,-1.3333333,323.29733,170.34667)" />
        <path
           id="path388"
           d="M 0,0 H 0.922"
           style="fill:none;stroke:#918f90;stroke-width:0.886;stroke-linecap:butt;stroke-linejoin:miter;stroke-miterlimit:1;stroke-dasharray:none;stroke-opacity:1"
           transform="matrix(1.3333333,0,0,-1.3333333,326.93733,170.348)" />
        <path
           id="path389"
           d="M 0,0 H 0.887"
           style="fill:none;stroke:#918f90;stroke-width:0.886;stroke-linecap:butt;stroke-linejoin:miter;stroke-miterlimit:1;stroke-dasharray:none;stroke-opacity:1"
           transform="matrix(1.3333333,0,0,-1.3333333,329.39467,170.348)" />
        <path
           id="path390"
           d="M 0,0 H 0.921"
           style="fill:none;stroke:#918f90;stroke-width:0.886;stroke-linecap:butt;stroke-linejoin:miter;stroke-miterlimit:1;stroke-dasharray:none;stroke-opacity:1"
           transform="matrix(1.3333333,0,0,-1.3333333,331.80533,170.348)" />
        <path
           id="path391"
           d="M 0,0 H 0.922"
           style="fill:none;stroke:#918f90;stroke-width:0.886;stroke-linecap:butt;stroke-linejoin:miter;stroke-miterlimit:1;stroke-dasharray:none;stroke-opacity:1"
           transform="matrix(1.3333333,0,0,-1.3333333,334.216,170.348)" />
        <path
           id="path392"
           d="M 0,0 H 0.887"
           style="fill:none;stroke:#918f90;stroke-width:0.886;stroke-linecap:butt;stroke-linejoin:miter;stroke-miterlimit:1;stroke-dasharray:none;stroke-opacity:1"
           transform="matrix(1.3333333,0,0,-1.3333333,336.67333,170.348)" />
        <path
           id="path393"
           d="M 0,0 H 0.921"
           style="fill:none;stroke:#918f90;stroke-width:0.886;stroke-linecap:butt;stroke-linejoin:miter;stroke-miterlimit:1;stroke-dasharray:none;stroke-opacity:1"
           transform="matrix(1.3333333,0,0,-1.3333333,339.084,170.348)" />
        <path
           id="path394"
           d="M 0,0 H 0.922"
           style="fill:none;stroke:#918f90;stroke-width:0.886;stroke-linecap:butt;stroke-linejoin:miter;stroke-miterlimit:1;stroke-dasharray:none;stroke-opacity:1"
           transform="matrix(1.3333333,0,0,-1.3333333,341.49467,170.348)" />
        <path
           id="path395"
           d="M 0,0 H 0.887"
           style="fill:none;stroke:#918f90;stroke-width:0.886;stroke-linecap:butt;stroke-linejoin:miter;stroke-miterlimit:1;stroke-dasharray:none;stroke-opacity:1"
           transform="matrix(1.3333333,0,0,-1.3333333,343.952,170.348)" />
        <path
           id="path396"
           d="M 0,0 H 0.921"
           style="fill:none;stroke:#918f90;stroke-width:0.886;stroke-linecap:butt;stroke-linejoin:miter;stroke-miterlimit:1;stroke-dasharray:none;stroke-opacity:1"
           transform="matrix(1.3333333,0,0,-1.3333333,346.36267,170.348)" />
        <path
           id="path397"
           d="M 0,0 H 0.922"
           style="fill:none;stroke:#918f90;stroke-width:0.886;stroke-linecap:butt;stroke-linejoin:miter;stroke-miterlimit:1;stroke-dasharray:none;stroke-opacity:1"
           transform="matrix(1.3333333,0,0,-1.3333333,348.77333,170.348)" />
        <path
           id="path398"
           d="M 0,0 H 0.887"
           style="fill:none;stroke:#918f90;stroke-width:0.886;stroke-linecap:butt;stroke-linejoin:miter;stroke-miterlimit:1;stroke-dasharray:none;stroke-opacity:1"
           transform="matrix(1.3333333,0,0,-1.3333333,351.23067,170.348)" />
        <path
           id="path399"
           d="M 0,0 H 0.921"
           style="fill:none;stroke:#918f90;stroke-width:0.886;stroke-linecap:butt;stroke-linejoin:miter;stroke-miterlimit:1;stroke-dasharray:none;stroke-opacity:1"
           transform="matrix(1.3333333,0,0,-1.3333333,353.64133,170.348)" />
        <path
           id="path400"
           d="M 0,0 H 0.922"
           style="fill:none;stroke:#918f90;stroke-width:0.886;stroke-linecap:butt;stroke-linejoin:miter;stroke-miterlimit:1;stroke-dasharray:none;stroke-opacity:1"
           transform="matrix(1.3333333,0,0,-1.3333333,356.052,170.348)" />
        <path
           id="path401"
           d="M 0,0 H 0.887"
           style="fill:none;stroke:#918f90;stroke-width:0.886;stroke-linecap:butt;stroke-linejoin:miter;stroke-miterlimit:1;stroke-dasharray:none;stroke-opacity:1"
           transform="matrix(1.3333333,0,0,-1.3333333,358.50933,170.348)" />
        <path
           id="path402"
           d="M 0,0 H 0.921"
           style="fill:none;stroke:#918f90;stroke-width:0.886;stroke-linecap:butt;stroke-linejoin:miter;stroke-miterlimit:1;stroke-dasharray:none;stroke-opacity:1"
           transform="matrix(1.3333333,0,0,-1.3333333,360.92,170.348)" />
        <path
           id="path403"
           d="M 0,0 H 0.921"
           style="fill:none;stroke:#918f90;stroke-width:0.886;stroke-linecap:butt;stroke-linejoin:miter;stroke-miterlimit:1;stroke-dasharray:none;stroke-opacity:1"
           transform="matrix(1.3333333,0,0,-1.3333333,363.332,170.348)" />
        <path
           id="path404"
           d="M 0,0 H 0.887"
           style="fill:none;stroke:#918f90;stroke-width:0.886;stroke-linecap:butt;stroke-linejoin:miter;stroke-miterlimit:1;stroke-dasharray:none;stroke-opacity:1"
           transform="matrix(1.3333333,0,0,-1.3333333,365.788,170.348)" />
        <path
           id="path405"
           d="M 0,0 H 0.921"
           style="fill:none;stroke:#918f90;stroke-width:0.886;stroke-linecap:butt;stroke-linejoin:miter;stroke-miterlimit:1;stroke-dasharray:none;stroke-opacity:1"
           transform="matrix(1.3333333,0,0,-1.3333333,368.19867,170.348)" />
        <path
           id="path406"
           d="M 0,0 H 0.921"
           style="fill:none;stroke:#918f90;stroke-width:0.886;stroke-linecap:butt;stroke-linejoin:miter;stroke-miterlimit:1;stroke-dasharray:none;stroke-opacity:1"
           transform="matrix(1.3333333,0,0,-1.3333333,370.61067,170.348)" />
        <path
           id="path407"
           d="M 0,0 H 0.887"
           style="fill:none;stroke:#918f90;stroke-width:0.886;stroke-linecap:butt;stroke-linejoin:miter;stroke-miterlimit:1;stroke-dasharray:none;stroke-opacity:1"
           transform="matrix(1.3333333,0,0,-1.3333333,373.06667,170.348)" />
        <path
           id="path408"
           d="M 0,0 H 0.921"
           style="fill:none;stroke:#918f90;stroke-width:0.886;stroke-linecap:butt;stroke-linejoin:miter;stroke-miterlimit:1;stroke-dasharray:none;stroke-opacity:1"
           transform="matrix(1.3333333,0,0,-1.3333333,375.47733,170.348)" />
        <path
           id="path409"
           d="M 0,0 H 0.921"
           style="fill:none;stroke:#918f90;stroke-width:0.886;stroke-linecap:butt;stroke-linejoin:miter;stroke-miterlimit:1;stroke-dasharray:none;stroke-opacity:1"
           transform="matrix(1.3333333,0,0,-1.3333333,377.88933,170.348)" />
        <path
           id="path410"
           d="M 0,0 H 0.887"
           style="fill:none;stroke:#918f90;stroke-width:0.886;stroke-linecap:butt;stroke-linejoin:miter;stroke-miterlimit:1;stroke-dasharray:none;stroke-opacity:1"
           transform="matrix(1.3333333,0,0,-1.3333333,380.34533,170.348)" />
        <path
           id="path411"
           d="M 0,0 H 0.921"
           style="fill:none;stroke:#918f90;stroke-width:0.886;stroke-linecap:butt;stroke-linejoin:miter;stroke-miterlimit:1;stroke-dasharray:none;stroke-opacity:1"
           transform="matrix(1.3333333,0,0,-1.3333333,382.756,170.348)" />
        <path
           id="path412"
           d="M 0,0 H 0.921"
           style="fill:none;stroke:#918f90;stroke-width:0.886;stroke-linecap:butt;stroke-linejoin:miter;stroke-miterlimit:1;stroke-dasharray:none;stroke-opacity:1"
           transform="matrix(1.3333333,0,0,-1.3333333,385.168,170.348)" />
        <path
           id="path413"
           d="M 0,0 H 0.887"
           style="fill:none;stroke:#918f90;stroke-width:0.886;stroke-linecap:butt;stroke-linejoin:miter;stroke-miterlimit:1;stroke-dasharray:none;stroke-opacity:1"
           transform="matrix(1.3333333,0,0,-1.3333333,387.624,170.348)" />
        <path
           id="path414"
           d="M 0,0 H 0.922"
           style="fill:none;stroke:#918f90;stroke-width:0.886;stroke-linecap:butt;stroke-linejoin:miter;stroke-miterlimit:1;stroke-dasharray:none;stroke-opacity:1"
           transform="matrix(1.3333333,0,0,-1.3333333,390.03467,170.348)" />
        <path
           id="path415"
           d="M 0,0 H 0.921"
           style="fill:none;stroke:#918f90;stroke-width:0.886;stroke-linecap:butt;stroke-linejoin:miter;stroke-miterlimit:1;stroke-dasharray:none;stroke-opacity:1"
           transform="matrix(1.3333333,0,0,-1.3333333,392.44667,170.348)" />
        <path
           id="path416"
           d="M 0,0 H 0.887"
           style="fill:none;stroke:#918f90;stroke-width:0.886;stroke-linecap:butt;stroke-linejoin:miter;stroke-miterlimit:1;stroke-dasharray:none;stroke-opacity:1"
           transform="matrix(1.3333333,0,0,-1.3333333,394.90267,170.348)" />
        <path
           id="path417"
           d="M 0,0 H 0.922"
           style="fill:none;stroke:#918f90;stroke-width:0.886;stroke-linecap:butt;stroke-linejoin:miter;stroke-miterlimit:1;stroke-dasharray:none;stroke-opacity:1"
           transform="matrix(1.3333333,0,0,-1.3333333,397.31333,170.348)" />
        <path
           id="path418"
           d="M 0,0 H 0.921"
           style="fill:none;stroke:#918f90;stroke-width:0.886;stroke-linecap:butt;stroke-linejoin:miter;stroke-miterlimit:1;stroke-dasharray:none;stroke-opacity:1"
           transform="matrix(1.3333333,0,0,-1.3333333,399.72533,170.348)" />
        <path
           id="path419"
           d="M 0,0 H 0.887"
           style="fill:none;stroke:#918f90;stroke-width:0.886;stroke-linecap:butt;stroke-linejoin:miter;stroke-miterlimit:1;stroke-dasharray:none;stroke-opacity:1"
           transform="matrix(1.3333333,0,0,-1.3333333,402.18133,170.348)" />
        <path
           id="path420"
           d="M 0,0 H 0.922"
           style="fill:none;stroke:#918f90;stroke-width:0.886;stroke-linecap:butt;stroke-linejoin:miter;stroke-miterlimit:1;stroke-dasharray:none;stroke-opacity:1"
           transform="matrix(1.3333333,0,0,-1.3333333,404.592,170.348)" />
        <path
           id="path421"
           d="M 0,0 H 0.921"
           style="fill:none;stroke:#918f90;stroke-width:0.886;stroke-linecap:butt;stroke-linejoin:miter;stroke-miterlimit:1;stroke-dasharray:none;stroke-opacity:1"
           transform="matrix(1.3333333,0,0,-1.3333333,407.004,170.348)" />
        <path
           id="path422"
           d="M 0,0 H 0.887"
           style="fill:none;stroke:#918f90;stroke-width:0.886;stroke-linecap:butt;stroke-linejoin:miter;stroke-miterlimit:1;stroke-dasharray:none;stroke-opacity:1"
           transform="matrix(1.3333333,0,0,-1.3333333,409.46,170.348)" />
        <path
           id="path423"
           d="M 0,0 H 0.922"
           style="fill:none;stroke:#918f90;stroke-width:0.886;stroke-linecap:butt;stroke-linejoin:miter;stroke-miterlimit:1;stroke-dasharray:none;stroke-opacity:1"
           transform="matrix(1.3333333,0,0,-1.3333333,411.87067,170.348)" />
        <path
           id="path424"
           d="M 0,0 H 0.921"
           style="fill:none;stroke:#918f90;stroke-width:0.886;stroke-linecap:butt;stroke-linejoin:miter;stroke-miterlimit:1;stroke-dasharray:none;stroke-opacity:1"
           transform="matrix(1.3333333,0,0,-1.3333333,414.28267,170.348)" />
        <path
           id="path425"
           d="M 0,0 H 0.887"
           style="fill:none;stroke:#918f90;stroke-width:0.886;stroke-linecap:butt;stroke-linejoin:miter;stroke-miterlimit:1;stroke-dasharray:none;stroke-opacity:1"
           transform="matrix(1.3333333,0,0,-1.3333333,416.73867,170.348)" />
        <path
           id="path426"
           d="M 0,0 H 0.922"
           style="fill:none;stroke:#918f90;stroke-width:0.886;stroke-linecap:butt;stroke-linejoin:miter;stroke-miterlimit:1;stroke-dasharray:none;stroke-opacity:1"
           transform="matrix(1.3333333,0,0,-1.3333333,419.14933,170.348)" />
        <path
           id="path427"
           d="M 0,0 H 0.921"
           style="fill:none;stroke:#918f90;stroke-width:0.886;stroke-linecap:butt;stroke-linejoin:miter;stroke-miterlimit:1;stroke-dasharray:none;stroke-opacity:1"
           transform="matrix(1.3333333,0,0,-1.3333333,421.56133,170.348)" />
        <path
           id="path428"
           d="M 0,0 H 0.887"
           style="fill:none;stroke:#918f90;stroke-width:0.886;stroke-linecap:butt;stroke-linejoin:miter;stroke-miterlimit:1;stroke-dasharray:none;stroke-opacity:1"
           transform="matrix(1.3333333,0,0,-1.3333333,424.01733,170.348)" />
        <path
           id="path429"
           d="M 0,0 H 0.922"
           style="fill:none;stroke:#918f90;stroke-width:0.886;stroke-linecap:butt;stroke-linejoin:miter;stroke-miterlimit:1;stroke-dasharray:none;stroke-opacity:1"
           transform="matrix(1.3333333,0,0,-1.3333333,426.428,170.348)" />
        <path
           id="path430"
           d="M 0,0 H 0.921"
           style="fill:none;stroke:#918f90;stroke-width:0.886;stroke-linecap:butt;stroke-linejoin:miter;stroke-miterlimit:1;stroke-dasharray:none;stroke-opacity:1"
           transform="matrix(1.3333333,0,0,-1.3333333,428.84,170.348)" />
        <path
           id="path431"
           d="M 0,0 H 0.887"
           style="fill:none;stroke:#918f90;stroke-width:0.886;stroke-linecap:butt;stroke-linejoin:miter;stroke-miterlimit:1;stroke-dasharray:none;stroke-opacity:1"
           transform="matrix(1.3333333,0,0,-1.3333333,431.296,170.348)" />
        <path
           id="path432"
           d="M 0,0 H 0.921"
           style="fill:none;stroke:#918f90;stroke-width:0.886;stroke-linecap:butt;stroke-linejoin:miter;stroke-miterlimit:1;stroke-dasharray:none;stroke-opacity:1"
           transform="matrix(1.3333333,0,0,-1.3333333,433.708,170.348)" />
        <path
           id="path433"
           d="M 0,0 H 0.921"
           style="fill:none;stroke:#918f90;stroke-width:0.886;stroke-linecap:butt;stroke-linejoin:miter;stroke-miterlimit:1;stroke-dasharray:none;stroke-opacity:1"
           transform="matrix(1.3333333,0,0,-1.3333333,436.11867,170.348)" />
        <path
           id="path434"
           d="M 0,0 H 0.887"
           style="fill:none;stroke:#918f90;stroke-width:0.886;stroke-linecap:butt;stroke-linejoin:miter;stroke-miterlimit:1;stroke-dasharray:none;stroke-opacity:1"
           transform="matrix(1.3333333,0,0,-1.3333333,438.57467,170.348)" />
        <path
           id="path435"
           d="M 0,0 H 0.921"
           style="fill:none;stroke:#918f90;stroke-width:0.886;stroke-linecap:butt;stroke-linejoin:miter;stroke-miterlimit:1;stroke-dasharray:none;stroke-opacity:1"
           transform="matrix(1.3333333,0,0,-1.3333333,440.98667,170.348)" />
        <path
           id="path436"
           d="M 0,0 H 0.921"
           style="fill:none;stroke:#918f90;stroke-width:0.886;stroke-linecap:butt;stroke-linejoin:miter;stroke-miterlimit:1;stroke-dasharray:none;stroke-opacity:1"
           transform="matrix(1.3333333,0,0,-1.3333333,443.39733,170.348)" />
        <path
           id="path437"
           d="M 0,0 H 0.887"
           style="fill:none;stroke:#918f90;stroke-width:0.886;stroke-linecap:butt;stroke-linejoin:miter;stroke-miterlimit:1;stroke-dasharray:none;stroke-opacity:1"
           transform="matrix(1.3333333,0,0,-1.3333333,445.85333,170.348)" />
        <path
           id="path438"
           d="M 0,0 H 0.921"
           style="fill:none;stroke:#918f90;stroke-width:0.886;stroke-linecap:butt;stroke-linejoin:miter;stroke-miterlimit:1;stroke-dasharray:none;stroke-opacity:1"
           transform="matrix(1.3333333,0,0,-1.3333333,448.26533,170.348)" />
        <path
           id="path439"
           d="M 0,0 H 0.921"
           style="fill:none;stroke:#918f90;stroke-width:0.886;stroke-linecap:butt;stroke-linejoin:miter;stroke-miterlimit:1;stroke-dasharray:none;stroke-opacity:1"
           transform="matrix(1.3333333,0,0,-1.3333333,450.676,170.348)" />
        <path
           id="path440"
           d="M 0,0 H 0.887"
           style="fill:none;stroke:#918f90;stroke-width:0.886;stroke-linecap:butt;stroke-linejoin:miter;stroke-miterlimit:1;stroke-dasharray:none;stroke-opacity:1"
           transform="matrix(1.3333333,0,0,-1.3333333,453.132,170.348)" />
        <path
           id="path441"
           d="M 0,0 H 0.921"
           style="fill:none;stroke:#918f90;stroke-width:0.886;stroke-linecap:butt;stroke-linejoin:miter;stroke-miterlimit:1;stroke-dasharray:none;stroke-opacity:1"
           transform="matrix(1.3333333,0,0,-1.3333333,455.544,170.348)" />
        <path
           id="path442"
           d="M 0,0 H 0.921"
           style="fill:none;stroke:#918f90;stroke-width:0.886;stroke-linecap:butt;stroke-linejoin:miter;stroke-miterlimit:1;stroke-dasharray:none;stroke-opacity:1"
           transform="matrix(1.3333333,0,0,-1.3333333,457.95467,170.348)" />
        <path
           id="path443"
           d="M 0,0 H 0.887"
           style="fill:none;stroke:#918f90;stroke-width:0.886;stroke-linecap:butt;stroke-linejoin:miter;stroke-miterlimit:1;stroke-dasharray:none;stroke-opacity:1"
           transform="matrix(1.3333333,0,0,-1.3333333,460.41067,170.348)" />
        <path
           id="path444"
           d="M 0,0 H 0.921"
           style="fill:none;stroke:#918f90;stroke-width:0.886;stroke-linecap:butt;stroke-linejoin:miter;stroke-miterlimit:1;stroke-dasharray:none;stroke-opacity:1"
           transform="matrix(1.3333333,0,0,-1.3333333,462.82267,170.348)" />
        <path
           id="path445"
           d="M 0,0 H 0.921"
           style="fill:none;stroke:#918f90;stroke-width:0.886;stroke-linecap:butt;stroke-linejoin:miter;stroke-miterlimit:1;stroke-dasharray:none;stroke-opacity:1"
           transform="matrix(1.3333333,0,0,-1.3333333,465.23333,170.348)" />
        <path
           id="path446"
           d="M 0,0 H 0.887"
           style="fill:none;stroke:#918f90;stroke-width:0.886;stroke-linecap:butt;stroke-linejoin:miter;stroke-miterlimit:1;stroke-dasharray:none;stroke-opacity:1"
           transform="matrix(1.3333333,0,0,-1.3333333,467.68933,170.348)" />
        <path
           id="path447"
           d="M 0,0 H 0.921"
           style="fill:none;stroke:#918f90;stroke-width:0.886;stroke-linecap:butt;stroke-linejoin:miter;stroke-miterlimit:1;stroke-dasharray:none;stroke-opacity:1"
           transform="matrix(1.3333333,0,0,-1.3333333,470.10133,170.348)" />
        <path
           id="path448"
           d="M 0,0 H 0.922"
           style="fill:none;stroke:#918f90;stroke-width:0.886;stroke-linecap:butt;stroke-linejoin:miter;stroke-miterlimit:1;stroke-dasharray:none;stroke-opacity:1"
           transform="matrix(1.3333333,0,0,-1.3333333,326.93867,196.376)" />
        <path
           id="path449"
           d="M 0,0 H 0.887"
           style="fill:none;stroke:#918f90;stroke-width:0.886;stroke-linecap:butt;stroke-linejoin:miter;stroke-miterlimit:1;stroke-dasharray:none;stroke-opacity:1"
           transform="matrix(1.3333333,0,0,-1.3333333,329.396,196.376)" />
        <path
           id="path450"
           d="M 0,0 H 0.921"
           style="fill:none;stroke:#918f90;stroke-width:0.886;stroke-linecap:butt;stroke-linejoin:miter;stroke-miterlimit:1;stroke-dasharray:none;stroke-opacity:1"
           transform="matrix(1.3333333,0,0,-1.3333333,331.80667,196.376)" />
        <path
           id="path451"
           d="M 0,0 H 0.922"
           style="fill:none;stroke:#918f90;stroke-width:0.886;stroke-linecap:butt;stroke-linejoin:miter;stroke-miterlimit:1;stroke-dasharray:none;stroke-opacity:1"
           transform="matrix(1.3333333,0,0,-1.3333333,334.21733,196.376)" />
        <path
           id="path452"
           d="M 0,0 H 0.887"
           style="fill:none;stroke:#918f90;stroke-width:0.886;stroke-linecap:butt;stroke-linejoin:miter;stroke-miterlimit:1;stroke-dasharray:none;stroke-opacity:1"
           transform="matrix(1.3333333,0,0,-1.3333333,336.67467,196.376)" />
        <path
           id="path453"
           d="M 0,0 H 0.921"
           style="fill:none;stroke:#918f90;stroke-width:0.886;stroke-linecap:butt;stroke-linejoin:miter;stroke-miterlimit:1;stroke-dasharray:none;stroke-opacity:1"
           transform="matrix(1.3333333,0,0,-1.3333333,339.08533,196.376)" />
        <path
           id="path454"
           d="M 0,0 H 0.922"
           style="fill:none;stroke:#918f90;stroke-width:0.886;stroke-linecap:butt;stroke-linejoin:miter;stroke-miterlimit:1;stroke-dasharray:none;stroke-opacity:1"
           transform="matrix(1.3333333,0,0,-1.3333333,341.496,196.376)" />
        <path
           id="path455"
           d="M 0,0 H 0.887"
           style="fill:none;stroke:#918f90;stroke-width:0.886;stroke-linecap:butt;stroke-linejoin:miter;stroke-miterlimit:1;stroke-dasharray:none;stroke-opacity:1"
           transform="matrix(1.3333333,0,0,-1.3333333,343.95333,196.376)" />
        <path
           id="path456"
           d="M 0,0 H 0.921"
           style="fill:none;stroke:#918f90;stroke-width:0.886;stroke-linecap:butt;stroke-linejoin:miter;stroke-miterlimit:1;stroke-dasharray:none;stroke-opacity:1"
           transform="matrix(1.3333333,0,0,-1.3333333,346.364,196.376)" />
        <path
           id="path457"
           d="M 0,0 H 0.922"
           style="fill:none;stroke:#918f90;stroke-width:0.886;stroke-linecap:butt;stroke-linejoin:miter;stroke-miterlimit:1;stroke-dasharray:none;stroke-opacity:1"
           transform="matrix(1.3333333,0,0,-1.3333333,348.77467,196.376)" />
        <path
           id="path458"
           d="M 0,0 H 0.887"
           style="fill:none;stroke:#918f90;stroke-width:0.886;stroke-linecap:butt;stroke-linejoin:miter;stroke-miterlimit:1;stroke-dasharray:none;stroke-opacity:1"
           transform="matrix(1.3333333,0,0,-1.3333333,351.232,196.376)" />
        <path
           id="path459"
           d="M 0,0 H 0.921"
           style="fill:none;stroke:#918f90;stroke-width:0.886;stroke-linecap:butt;stroke-linejoin:miter;stroke-miterlimit:1;stroke-dasharray:none;stroke-opacity:1"
           transform="matrix(1.3333333,0,0,-1.3333333,353.64267,196.376)" />
        <path
           id="path460"
           d="M 0,0 H 0.921"
           style="fill:none;stroke:#918f90;stroke-width:0.886;stroke-linecap:butt;stroke-linejoin:miter;stroke-miterlimit:1;stroke-dasharray:none;stroke-opacity:1"
           transform="matrix(1.3333333,0,0,-1.3333333,356.05467,196.376)" />
        <path
           id="path461"
           d="M 0,0 H 0.887"
           style="fill:none;stroke:#918f90;stroke-width:0.886;stroke-linecap:butt;stroke-linejoin:miter;stroke-miterlimit:1;stroke-dasharray:none;stroke-opacity:1"
           transform="matrix(1.3333333,0,0,-1.3333333,358.51067,196.376)" />
        <path
           id="path462"
           d="M 0,0 H 0.921"
           style="fill:none;stroke:#918f90;stroke-width:0.886;stroke-linecap:butt;stroke-linejoin:miter;stroke-miterlimit:1;stroke-dasharray:none;stroke-opacity:1"
           transform="matrix(1.3333333,0,0,-1.3333333,360.92133,196.376)" />
        <path
           id="path463"
           d="M 0,0 H 0.921"
           style="fill:none;stroke:#918f90;stroke-width:0.886;stroke-linecap:butt;stroke-linejoin:miter;stroke-miterlimit:1;stroke-dasharray:none;stroke-opacity:1"
           transform="matrix(1.3333333,0,0,-1.3333333,363.33333,196.376)" />
        <path
           id="path464"
           d="M 0,0 H 0.887"
           style="fill:none;stroke:#918f90;stroke-width:0.886;stroke-linecap:butt;stroke-linejoin:miter;stroke-miterlimit:1;stroke-dasharray:none;stroke-opacity:1"
           transform="matrix(1.3333333,0,0,-1.3333333,365.78933,196.376)" />
        <path
           id="path465"
           d="M 0,0 H 0.921"
           style="fill:none;stroke:#918f90;stroke-width:0.886;stroke-linecap:butt;stroke-linejoin:miter;stroke-miterlimit:1;stroke-dasharray:none;stroke-opacity:1"
           transform="matrix(1.3333333,0,0,-1.3333333,368.2,196.376)" />
        <path
           id="path466"
           d="M 0,0 H 0.921"
           style="fill:none;stroke:#918f90;stroke-width:0.886;stroke-linecap:butt;stroke-linejoin:miter;stroke-miterlimit:1;stroke-dasharray:none;stroke-opacity:1"
           transform="matrix(1.3333333,0,0,-1.3333333,370.612,196.376)" />
        <path
           id="path467"
           d="M 0,0 H 0.887"
           style="fill:none;stroke:#918f90;stroke-width:0.886;stroke-linecap:butt;stroke-linejoin:miter;stroke-miterlimit:1;stroke-dasharray:none;stroke-opacity:1"
           transform="matrix(1.3333333,0,0,-1.3333333,373.068,196.376)" />
        <path
           id="path468"
           d="M 0,0 H 0.922"
           style="fill:none;stroke:#918f90;stroke-width:0.886;stroke-linecap:butt;stroke-linejoin:miter;stroke-miterlimit:1;stroke-dasharray:none;stroke-opacity:1"
           transform="matrix(1.3333333,0,0,-1.3333333,375.47867,196.376)" />
        <path
           id="path469"
           d="M 0,0 H 0.921"
           style="fill:none;stroke:#918f90;stroke-width:0.886;stroke-linecap:butt;stroke-linejoin:miter;stroke-miterlimit:1;stroke-dasharray:none;stroke-opacity:1"
           transform="matrix(1.3333333,0,0,-1.3333333,377.89067,196.376)" />
        <path
           id="path470"
           d="M 0,0 H 0.887"
           style="fill:none;stroke:#918f90;stroke-width:0.886;stroke-linecap:butt;stroke-linejoin:miter;stroke-miterlimit:1;stroke-dasharray:none;stroke-opacity:1"
           transform="matrix(1.3333333,0,0,-1.3333333,380.34667,196.376)" />
        <path
           id="path471"
           d="M 0,0 H 0.921"
           style="fill:none;stroke:#918f90;stroke-width:0.886;stroke-linecap:butt;stroke-linejoin:miter;stroke-miterlimit:1;stroke-dasharray:none;stroke-opacity:1"
           transform="matrix(1.3333333,0,0,-1.3333333,382.75733,196.376)" />
        <path
           id="path472"
           d="M 0,0 H 0.921"
           style="fill:none;stroke:#918f90;stroke-width:0.886;stroke-linecap:butt;stroke-linejoin:miter;stroke-miterlimit:1;stroke-dasharray:none;stroke-opacity:1"
           transform="matrix(1.3333333,0,0,-1.3333333,385.16933,196.376)" />
        <path
           id="path473"
           d="M 0,0 H 0.887"
           style="fill:none;stroke:#918f90;stroke-width:0.886;stroke-linecap:butt;stroke-linejoin:miter;stroke-miterlimit:1;stroke-dasharray:none;stroke-opacity:1"
           transform="matrix(1.3333333,0,0,-1.3333333,387.62533,196.376)" />
        <path
           id="path474"
           d="M 0,0 H 0.922"
           style="fill:none;stroke:#918f90;stroke-width:0.886;stroke-linecap:butt;stroke-linejoin:miter;stroke-miterlimit:1;stroke-dasharray:none;stroke-opacity:1"
           transform="matrix(1.3333333,0,0,-1.3333333,390.036,196.376)" />
        <path
           id="path475"
           d="M 0,0 H 0.921"
           style="fill:none;stroke:#918f90;stroke-width:0.886;stroke-linecap:butt;stroke-linejoin:miter;stroke-miterlimit:1;stroke-dasharray:none;stroke-opacity:1"
           transform="matrix(1.3333333,0,0,-1.3333333,392.448,196.376)" />
        <path
           id="path476"
           d="M 0,0 H 0.887"
           style="fill:none;stroke:#918f90;stroke-width:0.886;stroke-linecap:butt;stroke-linejoin:miter;stroke-miterlimit:1;stroke-dasharray:none;stroke-opacity:1"
           transform="matrix(1.3333333,0,0,-1.3333333,394.904,196.376)" />
        <path
           id="path477"
           d="M 0,0 H 0.922"
           style="fill:none;stroke:#918f90;stroke-width:0.886;stroke-linecap:butt;stroke-linejoin:miter;stroke-miterlimit:1;stroke-dasharray:none;stroke-opacity:1"
           transform="matrix(1.3333333,0,0,-1.3333333,397.31467,196.376)" />
        <path
           id="path478"
           d="M 0,0 H 0.921"
           style="fill:none;stroke:#918f90;stroke-width:0.886;stroke-linecap:butt;stroke-linejoin:miter;stroke-miterlimit:1;stroke-dasharray:none;stroke-opacity:1"
           transform="matrix(1.3333333,0,0,-1.3333333,399.72667,196.376)" />
        <path
           id="path479"
           d="M 0,0 H 0.887"
           style="fill:none;stroke:#918f90;stroke-width:0.886;stroke-linecap:butt;stroke-linejoin:miter;stroke-miterlimit:1;stroke-dasharray:none;stroke-opacity:1"
           transform="matrix(1.3333333,0,0,-1.3333333,402.18267,196.376)" />
        <path
           id="path480"
           d="M 0,0 H 0.922"
           style="fill:none;stroke:#918f90;stroke-width:0.886;stroke-linecap:butt;stroke-linejoin:miter;stroke-miterlimit:1;stroke-dasharray:none;stroke-opacity:1"
           transform="matrix(1.3333333,0,0,-1.3333333,404.59333,196.376)" />
        <path
           id="path481"
           d="M 0,0 H 0.921"
           style="fill:none;stroke:#918f90;stroke-width:0.886;stroke-linecap:butt;stroke-linejoin:miter;stroke-miterlimit:1;stroke-dasharray:none;stroke-opacity:1"
           transform="matrix(1.3333333,0,0,-1.3333333,407.00533,196.376)" />
        <path
           id="path482"
           d="M 0,0 H 0.887"
           style="fill:none;stroke:#918f90;stroke-width:0.886;stroke-linecap:butt;stroke-linejoin:miter;stroke-miterlimit:1;stroke-dasharray:none;stroke-opacity:1"
           transform="matrix(1.3333333,0,0,-1.3333333,409.46133,196.376)" />
        <path
           id="path483"
           d="M 0,0 H 0.922"
           style="fill:none;stroke:#918f90;stroke-width:0.886;stroke-linecap:butt;stroke-linejoin:miter;stroke-miterlimit:1;stroke-dasharray:none;stroke-opacity:1"
           transform="matrix(1.3333333,0,0,-1.3333333,411.872,196.376)" />
        <path
           id="path484"
           d="M 0,0 H 0.921"
           style="fill:none;stroke:#918f90;stroke-width:0.886;stroke-linecap:butt;stroke-linejoin:miter;stroke-miterlimit:1;stroke-dasharray:none;stroke-opacity:1"
           transform="matrix(1.3333333,0,0,-1.3333333,414.284,196.376)" />
        <path
           id="path485"
           d="M 0,0 H 0.887"
           style="fill:none;stroke:#918f90;stroke-width:0.886;stroke-linecap:butt;stroke-linejoin:miter;stroke-miterlimit:1;stroke-dasharray:none;stroke-opacity:1"
           transform="matrix(1.3333333,0,0,-1.3333333,416.74,196.376)" />
        <path
           id="path486"
           d="M 0,0 H 0.922"
           style="fill:none;stroke:#918f90;stroke-width:0.886;stroke-linecap:butt;stroke-linejoin:miter;stroke-miterlimit:1;stroke-dasharray:none;stroke-opacity:1"
           transform="matrix(1.3333333,0,0,-1.3333333,419.15067,196.376)" />
        <path
           id="path487"
           d="M 0,0 H 0.921"
           style="fill:none;stroke:#918f90;stroke-width:0.886;stroke-linecap:butt;stroke-linejoin:miter;stroke-miterlimit:1;stroke-dasharray:none;stroke-opacity:1"
           transform="matrix(1.3333333,0,0,-1.3333333,421.56267,196.376)" />
        <path
           id="path488"
           d="M 0,0 H 0.887"
           style="fill:none;stroke:#918f90;stroke-width:0.886;stroke-linecap:butt;stroke-linejoin:miter;stroke-miterlimit:1;stroke-dasharray:none;stroke-opacity:1"
           transform="matrix(1.3333333,0,0,-1.3333333,424.01867,196.376)" />
        <path
           id="path489"
           d="M 0,0 H 0.922"
           style="fill:none;stroke:#918f90;stroke-width:0.886;stroke-linecap:butt;stroke-linejoin:miter;stroke-miterlimit:1;stroke-dasharray:none;stroke-opacity:1"
           transform="matrix(1.3333333,0,0,-1.3333333,426.42933,196.376)" />
        <path
           id="path490"
           d="M 0,0 H 0.921"
           style="fill:none;stroke:#918f90;stroke-width:0.886;stroke-linecap:butt;stroke-linejoin:miter;stroke-miterlimit:1;stroke-dasharray:none;stroke-opacity:1"
           transform="matrix(1.3333333,0,0,-1.3333333,428.84133,196.376)" />
        <path
           id="path491"
           d="M 0,0 H 0.887"
           style="fill:none;stroke:#918f90;stroke-width:0.886;stroke-linecap:butt;stroke-linejoin:miter;stroke-miterlimit:1;stroke-dasharray:none;stroke-opacity:1"
           transform="matrix(1.3333333,0,0,-1.3333333,431.29733,196.376)" />
        <path
           id="path492"
           d="M 0,0 H 0.921"
           style="fill:none;stroke:#918f90;stroke-width:0.886;stroke-linecap:butt;stroke-linejoin:miter;stroke-miterlimit:1;stroke-dasharray:none;stroke-opacity:1"
           transform="matrix(1.3333333,0,0,-1.3333333,433.70933,196.376)" />
        <path
           id="path493"
           d="M 0,0 H 0.921"
           style="fill:none;stroke:#918f90;stroke-width:0.886;stroke-linecap:butt;stroke-linejoin:miter;stroke-miterlimit:1;stroke-dasharray:none;stroke-opacity:1"
           transform="matrix(1.3333333,0,0,-1.3333333,436.12,196.376)" />
        <path
           id="path494"
           d="M 0,0 H 0.887"
           style="fill:none;stroke:#918f90;stroke-width:0.886;stroke-linecap:butt;stroke-linejoin:miter;stroke-miterlimit:1;stroke-dasharray:none;stroke-opacity:1"
           transform="matrix(1.3333333,0,0,-1.3333333,438.576,196.376)" />
        <path
           id="path495"
           d="M 0,0 H 0.921"
           style="fill:none;stroke:#918f90;stroke-width:0.886;stroke-linecap:butt;stroke-linejoin:miter;stroke-miterlimit:1;stroke-dasharray:none;stroke-opacity:1"
           transform="matrix(1.3333333,0,0,-1.3333333,440.988,196.376)" />
        <path
           id="path496"
           d="M 0,0 H 0.921"
           style="fill:none;stroke:#918f90;stroke-width:0.886;stroke-linecap:butt;stroke-linejoin:miter;stroke-miterlimit:1;stroke-dasharray:none;stroke-opacity:1"
           transform="matrix(1.3333333,0,0,-1.3333333,443.39867,196.376)" />
        <path
           id="path497"
           d="M 0,0 H 0.887"
           style="fill:none;stroke:#918f90;stroke-width:0.886;stroke-linecap:butt;stroke-linejoin:miter;stroke-miterlimit:1;stroke-dasharray:none;stroke-opacity:1"
           transform="matrix(1.3333333,0,0,-1.3333333,445.85467,196.376)" />
        <path
           id="path498"
           d="M 0,0 H 0.921"
           style="fill:none;stroke:#918f90;stroke-width:0.886;stroke-linecap:butt;stroke-linejoin:miter;stroke-miterlimit:1;stroke-dasharray:none;stroke-opacity:1"
           transform="matrix(1.3333333,0,0,-1.3333333,448.26667,196.376)" />
        <path
           id="path499"
           d="M 0,0 H 0.921"
           style="fill:none;stroke:#918f90;stroke-width:0.886;stroke-linecap:butt;stroke-linejoin:miter;stroke-miterlimit:1;stroke-dasharray:none;stroke-opacity:1"
           transform="matrix(1.3333333,0,0,-1.3333333,450.67733,196.376)" />
        <path
           id="path500"
           d="M 0,0 H 0.887"
           style="fill:none;stroke:#918f90;stroke-width:0.886;stroke-linecap:butt;stroke-linejoin:miter;stroke-miterlimit:1;stroke-dasharray:none;stroke-opacity:1"
           transform="matrix(1.3333333,0,0,-1.3333333,453.13333,196.376)" />
        <path
           id="path501"
           d="M 0,0 H 0.921"
           style="fill:none;stroke:#918f90;stroke-width:0.886;stroke-linecap:butt;stroke-linejoin:miter;stroke-miterlimit:1;stroke-dasharray:none;stroke-opacity:1"
           transform="matrix(1.3333333,0,0,-1.3333333,455.54533,196.376)" />
        <path
           id="path502"
           d="M 0,0 H 0.921"
           style="fill:none;stroke:#918f90;stroke-width:0.886;stroke-linecap:butt;stroke-linejoin:miter;stroke-miterlimit:1;stroke-dasharray:none;stroke-opacity:1"
           transform="matrix(1.3333333,0,0,-1.3333333,457.956,196.376)" />
        <path
           id="path503"
           d="M 0,0 H 0.887"
           style="fill:none;stroke:#918f90;stroke-width:0.886;stroke-linecap:butt;stroke-linejoin:miter;stroke-miterlimit:1;stroke-dasharray:none;stroke-opacity:1"
           transform="matrix(1.3333333,0,0,-1.3333333,460.412,196.376)" />
        <path
           id="path504"
           d="M 0,0 H 0.921"
           style="fill:none;stroke:#918f90;stroke-width:0.886;stroke-linecap:butt;stroke-linejoin:miter;stroke-miterlimit:1;stroke-dasharray:none;stroke-opacity:1"
           transform="matrix(1.3333333,0,0,-1.3333333,462.824,196.376)" />
        <path
           id="path505"
           d="M 0,0 H 0.921"
           style="fill:none;stroke:#918f90;stroke-width:0.886;stroke-linecap:butt;stroke-linejoin:miter;stroke-miterlimit:1;stroke-dasharray:none;stroke-opacity:1"
           transform="matrix(1.3333333,0,0,-1.3333333,465.23467,196.376)" />
        <path
           id="path506"
           d="M 0,0 H 0.888"
           style="fill:none;stroke:#918f90;stroke-width:0.886;stroke-linecap:butt;stroke-linejoin:miter;stroke-miterlimit:1;stroke-dasharray:none;stroke-opacity:1"
           transform="matrix(1.3333333,0,0,-1.3333333,467.69067,196.376)" />
        <path
           id="path507"
           d="M 0,0 H 0.921"
           style="fill:none;stroke:#918f90;stroke-width:0.886;stroke-linecap:butt;stroke-linejoin:miter;stroke-miterlimit:1;stroke-dasharray:none;stroke-opacity:1"
           transform="matrix(1.3333333,0,0,-1.3333333,470.10267,196.376)" />
        <path
           id="path508"
           d="m 0,0 c 0,-0.954 -0.751,-1.703 -1.706,-1.703 -0.955,0 -1.706,0.749 -1.706,1.703 0,0.954 0.751,1.703 1.706,1.703 C -0.751,1.703 0,0.954 0,0 Z"
           style="fill:none;stroke:#231f20;stroke-width:0.477;stroke-linecap:butt;stroke-linejoin:miter;stroke-miterlimit:1;stroke-dasharray:none;stroke-opacity:1"
           transform="matrix(1.3333333,0,0,-1.3333333,334.444,187.29067)" />
        <path
           id="path509"
           d="m 0,0 c 0,-0.954 -0.751,-1.703 -1.706,-1.703 -0.955,0 -1.706,0.749 -1.706,1.703 0,0.954 0.751,1.703 1.706,1.703 C -0.751,1.703 0,0.954 0,0"
           style="fill:#231f20;fill-opacity:1;fill-rule:nonzero;stroke:none"
           transform="matrix(1.3333333,0,0,-1.3333333,337.03733,190.92533)" />
        <path
           id="path510"
           d="m 0,0 c 0,-0.954 -0.784,-1.703 -1.706,-1.703 -0.955,0 -1.74,0.749 -1.74,1.703 0,0.954 0.785,1.703 1.74,1.703 C -0.784,1.703 0,0.954 0,0 Z"
           style="fill:none;stroke:#231f20;stroke-width:0.477;stroke-linecap:butt;stroke-linejoin:miter;stroke-miterlimit:1;stroke-dasharray:none;stroke-opacity:1"
           transform="matrix(1.3333333,0,0,-1.3333333,339.12933,185.11067)" />
        <path
           id="path511"
           d="m 0,0 c 0,-0.954 -0.785,-1.703 -1.74,-1.703 -0.921,0 -1.706,0.749 -1.706,1.703 0,0.954 0.785,1.703 1.706,1.703 C -0.785,1.703 0,0.954 0,0 Z"
           style="fill:none;stroke:#231f20;stroke-width:0.477;stroke-linecap:butt;stroke-linejoin:miter;stroke-miterlimit:1;stroke-dasharray:none;stroke-opacity:1"
           transform="matrix(1.3333333,0,0,-1.3333333,340.176,185.11067)" />
        <path
           id="path512"
           d="m 0,0 c 0,-0.954 -0.785,-1.703 -1.706,-1.703 -0.955,0 -1.74,0.749 -1.74,1.703 0,0.954 0.785,1.703 1.74,1.703 C -0.785,1.703 0,0.954 0,0 Z"
           style="fill:none;stroke:#231f20;stroke-width:0.477;stroke-linecap:butt;stroke-linejoin:miter;stroke-miterlimit:1;stroke-dasharray:none;stroke-opacity:1"
           transform="matrix(1.3333333,0,0,-1.3333333,342.76933,184.384)" />
        <path
           id="path513"
           d="m 0,0 c 0,-0.954 -0.75,-1.703 -1.706,-1.703 -0.955,0 -1.706,0.749 -1.706,1.703 0,0.954 0.751,1.703 1.706,1.703 C -0.75,1.703 0,0.954 0,0"
           style="fill:#231f20;fill-opacity:1;fill-rule:nonzero;stroke:none"
           transform="matrix(1.3333333,0,0,-1.3333333,343.26933,190.92533)" />
        <path
           id="path514"
           d="m 0,0 c 0,-0.954 -0.784,-1.703 -1.74,-1.703 -0.921,0 -1.706,0.749 -1.706,1.703 0,0.954 0.785,1.703 1.706,1.703 C -0.784,1.703 0,0.954 0,0 Z"
           style="fill:none;stroke:#231f20;stroke-width:0.477;stroke-linecap:butt;stroke-linejoin:miter;stroke-miterlimit:1;stroke-dasharray:none;stroke-opacity:1"
           transform="matrix(1.3333333,0,0,-1.3333333,344.86133,182.93067)" />
        <path
           id="path515"
           d="m 0,0 c 0,-0.954 -0.75,-1.703 -1.705,-1.703 -0.956,0 -1.706,0.749 -1.706,1.703 0,0.954 0.75,1.703 1.706,1.703 C -0.75,1.703 0,0.954 0,0"
           style="fill:#231f20;fill-opacity:1;fill-rule:nonzero;stroke:none"
           transform="matrix(1.3333333,0,0,-1.3333333,347.95467,191.652)" />
        <path
           id="path516"
           d="m 0,0 c 0,-0.954 -0.75,-1.703 -1.706,-1.703 -0.955,0 -1.706,0.749 -1.706,1.703 0,0.954 0.751,1.703 1.706,1.703 C -0.75,1.703 0,0.954 0,0"
           style="fill:#231f20;fill-opacity:1;fill-rule:nonzero;stroke:#231f20;stroke-width:0.477;stroke-linecap:butt;stroke-linejoin:miter;stroke-miterlimit:1;stroke-dasharray:none;stroke-opacity:1"
           transform="matrix(1.3333333,0,0,-1.3333333,349.00133,190.19867)" />
        <path
           id="path517"
           d="m 0,0 c 0,-0.954 -0.751,-1.703 -1.706,-1.703 -0.956,0 -1.706,0.749 -1.706,1.703 0,0.954 0.75,1.703 1.706,1.703 C -0.751,1.703 0,0.954 0,0 Z"
           style="fill:none;stroke:#231f20;stroke-width:0.477;stroke-linecap:butt;stroke-linejoin:miter;stroke-miterlimit:1;stroke-dasharray:none;stroke-opacity:1"
           transform="matrix(1.3333333,0,0,-1.3333333,349.50267,182.204)" />
        <path
           id="path518"
           d="m 0,0 c 0,-0.954 -0.751,-1.703 -1.706,-1.703 -0.955,0 -1.706,0.749 -1.706,1.703 0,0.954 0.751,1.703 1.706,1.703 C -0.751,1.703 0,0.954 0,0"
           style="fill:#231f20;fill-opacity:1;fill-rule:nonzero;stroke:none"
           transform="matrix(1.3333333,0,0,-1.3333333,354.188,188.74533)" />
        <path
           id="path519"
           d="m 0,0 c 0,-0.954 -0.751,-1.703 -1.706,-1.703 -0.956,0 -1.706,0.749 -1.706,1.703 0,0.954 0.75,1.703 1.706,1.703 C -0.751,1.703 0,0.954 0,0"
           style="fill:#231f20;fill-opacity:1;fill-rule:nonzero;stroke:#231f20;stroke-width:0.477;stroke-linecap:butt;stroke-linejoin:miter;stroke-miterlimit:1;stroke-dasharray:none;stroke-opacity:1"
           transform="matrix(1.3333333,0,0,-1.3333333,355.23467,190.19867)" />
        <path
           id="path520"
           d="m 0,0 c 0,-0.954 -0.785,-1.703 -1.706,-1.703 -0.955,0 -1.74,0.749 -1.74,1.703 0,0.954 0.785,1.703 1.74,1.703 C -0.785,1.703 0,0.954 0,0 Z"
           style="fill:none;stroke:#231f20;stroke-width:0.477;stroke-linecap:butt;stroke-linejoin:miter;stroke-miterlimit:1;stroke-dasharray:none;stroke-opacity:1"
           transform="matrix(1.3333333,0,0,-1.3333333,357.32667,181.47733)" />
        <path
           id="path521"
           d="m 0,0 c 0,-0.954 -0.75,-1.703 -1.706,-1.703 -0.955,0 -1.706,0.749 -1.706,1.703 0,0.954 0.751,1.703 1.706,1.703 C -0.75,1.703 0,0.954 0,0 Z"
           style="fill:none;stroke:#231f20;stroke-width:0.477;stroke-linecap:butt;stroke-linejoin:miter;stroke-miterlimit:1;stroke-dasharray:none;stroke-opacity:1"
           transform="matrix(1.3333333,0,0,-1.3333333,358.87333,180.75067)" />
        <path
           id="path522"
           d="m 0,0 c 0,-0.954 -0.751,-1.703 -1.706,-1.703 -0.956,0 -1.706,0.749 -1.706,1.703 0,0.954 0.75,1.703 1.706,1.703 C -0.751,1.703 0,0.954 0,0"
           style="fill:#231f20;fill-opacity:1;fill-rule:nonzero;stroke:#231f20;stroke-width:0.477;stroke-linecap:butt;stroke-linejoin:miter;stroke-miterlimit:1;stroke-dasharray:none;stroke-opacity:1"
           transform="matrix(1.3333333,0,0,-1.3333333,362.51333,191.652)" />
        <path
           id="path523"
           d="m 0,0 c 0,-0.954 -0.751,-1.703 -1.706,-1.703 -0.955,0 -1.706,0.749 -1.706,1.703 0,0.954 0.751,1.703 1.706,1.703 C -0.751,1.703 0,0.954 0,0"
           style="fill:#231f20;fill-opacity:1;fill-rule:nonzero;stroke:none"
           transform="matrix(1.3333333,0,0,-1.3333333,364.06,188.01867)" />
        <path
           id="path524"
           d="m 0,0 c 0,-0.954 -0.751,-1.703 -1.706,-1.703 -0.955,0 -1.706,0.749 -1.706,1.703 0,0.954 0.751,1.703 1.706,1.703 C -0.751,1.703 0,0.954 0,0"
           style="fill:#231f20;fill-opacity:1;fill-rule:nonzero;stroke:#231f20;stroke-width:0.477;stroke-linecap:butt;stroke-linejoin:miter;stroke-miterlimit:1;stroke-dasharray:none;stroke-opacity:1"
           transform="matrix(1.3333333,0,0,-1.3333333,364.06,186.56533)" />
        <path
           id="path525"
           d="m 0,0 c 0,-0.954 -0.751,-1.703 -1.706,-1.703 -0.956,0 -1.706,0.749 -1.706,1.703 0,0.954 0.75,1.703 1.706,1.703 C -0.751,1.703 0,0.954 0,0 Z"
           style="fill:none;stroke:#231f20;stroke-width:0.477;stroke-linecap:butt;stroke-linejoin:miter;stroke-miterlimit:1;stroke-dasharray:none;stroke-opacity:1"
           transform="matrix(1.3333333,0,0,-1.3333333,370.83867,178.57067)" />
        <path
           id="path526"
           d="m 0,0 c 0,-0.954 -0.751,-1.703 -1.706,-1.703 -0.955,0 -1.706,0.749 -1.706,1.703 0,0.954 0.751,1.703 1.706,1.703 C -0.751,1.703 0,0.954 0,0"
           style="fill:#231f20;fill-opacity:1;fill-rule:nonzero;stroke:none"
           transform="matrix(1.3333333,0,0,-1.3333333,371.33867,190.92533)" />
        <path
           id="path527"
           d="m 0,0 c 0,-0.954 -0.784,-1.703 -1.706,-1.703 -0.955,0 -1.74,0.749 -1.74,1.703 0,0.954 0.785,1.704 1.74,1.704 C -0.784,1.704 0,0.954 0,0 Z"
           style="fill:none;stroke:#231f20;stroke-width:0.477;stroke-linecap:butt;stroke-linejoin:miter;stroke-miterlimit:1;stroke-dasharray:none;stroke-opacity:1"
           transform="matrix(1.3333333,0,0,-1.3333333,371.884,178.57067)" />
        <path
           id="path528"
           d="m 0,0 c 0,-0.954 -0.785,-1.703 -1.74,-1.703 -0.921,0 -1.706,0.749 -1.706,1.703 0,0.954 0.785,1.703 1.706,1.703 C -0.785,1.703 0,0.954 0,0"
           style="fill:#231f20;fill-opacity:1;fill-rule:nonzero;stroke:none"
           transform="matrix(1.3333333,0,0,-1.3333333,373.97733,185.83867)" />
        <path
           id="path529"
           d="m 0,0 c 0,-0.954 -0.751,-1.704 -1.706,-1.704 -0.955,0 -1.706,0.75 -1.706,1.704 0,0.954 0.751,1.703 1.706,1.703 C -0.751,1.703 0,0.954 0,0"
           style="fill:#231f20;fill-opacity:1;fill-rule:nonzero;stroke:none"
           transform="matrix(1.3333333,0,0,-1.3333333,377.07067,187.292)" />
        <path
           id="path530"
           d="m 0,0 c 0,-0.954 -0.751,-1.703 -1.706,-1.703 -0.955,0 -1.706,0.749 -1.706,1.703 0,0.954 0.751,1.703 1.706,1.703 C -0.751,1.703 0,0.954 0,0 Z"
           style="fill:none;stroke:#231f20;stroke-width:0.477;stroke-linecap:butt;stroke-linejoin:miter;stroke-miterlimit:1;stroke-dasharray:none;stroke-opacity:1"
           transform="matrix(1.3333333,0,0,-1.3333333,378.61733,176.39067)" />
        <path
           id="path531"
           d="m 0,0 c 0,-0.954 -0.751,-1.703 -1.706,-1.703 -0.955,0 -1.706,0.749 -1.706,1.703 0,0.954 0.751,1.703 1.706,1.703 C -0.751,1.703 0,0.954 0,0 Z"
           style="fill:none;stroke:#231f20;stroke-width:0.477;stroke-linecap:butt;stroke-linejoin:miter;stroke-miterlimit:1;stroke-dasharray:none;stroke-opacity:1"
           transform="matrix(1.3333333,0,0,-1.3333333,385.396,177.11733)" />
        <path
           id="path532"
           d="m 0,0 c 0,-0.954 -0.751,-1.703 -1.706,-1.703 -0.956,0 -1.706,0.749 -1.706,1.703 0,0.954 0.75,1.703 1.706,1.703 C -0.751,1.703 0,0.954 0,0"
           style="fill:#231f20;fill-opacity:1;fill-rule:nonzero;stroke:none"
           transform="matrix(1.3333333,0,0,-1.3333333,387.98933,185.112)" />
        <path
           id="path533"
           d="m 0,0 c 0,-0.954 -0.785,-1.703 -1.706,-1.703 -0.955,0 -1.74,0.749 -1.74,1.703 0,0.954 0.785,1.703 1.74,1.703 C -0.785,1.703 0,0.954 0,0"
           style="fill:#231f20;fill-opacity:1;fill-rule:nonzero;stroke:none"
           transform="matrix(1.3333333,0,0,-1.3333333,390.08133,186.56533)" />
        <path
           id="path534"
           d="m 0,0 c 0,-0.954 -0.784,-1.703 -1.74,-1.703 -0.921,0 -1.706,0.749 -1.706,1.703 0,0.954 0.785,1.703 1.706,1.703 C -0.784,1.703 0,0.954 0,0 Z"
           style="fill:none;stroke:#231f20;stroke-width:0.477;stroke-linecap:butt;stroke-linejoin:miter;stroke-miterlimit:1;stroke-dasharray:none;stroke-opacity:1"
           transform="matrix(1.3333333,0,0,-1.3333333,394.76667,172.756)" />
        <path
           id="path535"
           d="m 0,0 c 0,-0.954 -0.75,-1.703 -1.706,-1.703 -0.955,0 -1.706,0.749 -1.706,1.703 0,0.954 0.751,1.703 1.706,1.703 C -0.75,1.703 0,0.954 0,0 Z"
           style="fill:none;stroke:#231f20;stroke-width:0.477;stroke-linecap:butt;stroke-linejoin:miter;stroke-miterlimit:1;stroke-dasharray:none;stroke-opacity:1"
           transform="matrix(1.3333333,0,0,-1.3333333,398.90667,172.756)" />
        <path
           id="path536"
           d="m 0,0 c 0,-0.954 -0.784,-1.703 -1.74,-1.703 -0.921,0 -1.706,0.749 -1.706,1.703 0,0.954 0.785,1.703 1.706,1.703 C -0.784,1.703 0,0.954 0,0"
           style="fill:#231f20;fill-opacity:1;fill-rule:nonzero;stroke:none"
           transform="matrix(1.3333333,0,0,-1.3333333,402.04533,187.292)" />
        <path
           id="path537"
           d="m 0,0 c 0,-0.954 -0.751,-1.703 -1.706,-1.703 -0.955,0 -1.706,0.749 -1.706,1.703 0,0.954 0.751,1.703 1.706,1.703 C -0.751,1.703 0,0.954 0,0 Z"
           style="fill:none;stroke:#231f20;stroke-width:0.477;stroke-linecap:butt;stroke-linejoin:miter;stroke-miterlimit:1;stroke-dasharray:none;stroke-opacity:1"
           transform="matrix(1.3333333,0,0,-1.3333333,408.77867,170.576)" />
        <path
           id="path538"
           d="m 0,0 c 0,-0.954 -0.751,-1.703 -1.706,-1.703 -0.955,0 -1.706,0.749 -1.706,1.703 0,0.954 0.751,1.703 1.706,1.703 C -0.751,1.703 0,0.954 0,0"
           style="fill:#231f20;fill-opacity:1;fill-rule:nonzero;stroke:none"
           transform="matrix(1.3333333,0,0,-1.3333333,411.372,187.292)" />
        <path
           id="path539"
           d="m 0,0 c 0,-0.954 -0.785,-1.703 -1.74,-1.703 -0.921,0 -1.706,0.749 -1.706,1.703 0,0.954 0.785,1.703 1.706,1.703 C -0.785,1.703 0,0.954 0,0 Z"
           style="fill:none;stroke:#231f20;stroke-width:0.477;stroke-linecap:butt;stroke-linejoin:miter;stroke-miterlimit:1;stroke-dasharray:none;stroke-opacity:1"
           transform="matrix(1.3333333,0,0,-1.3333333,420.24267,169.12267)" />
        <path
           id="path540"
           d="m 0,0 c 0,-0.954 -0.784,-1.703 -1.74,-1.703 -0.921,0 -1.706,0.749 -1.706,1.703 0,0.954 0.785,1.703 1.706,1.703 C -0.784,1.703 0,0.954 0,0"
           style="fill:#231f20;fill-opacity:1;fill-rule:nonzero;stroke:none"
           transform="matrix(1.3333333,0,0,-1.3333333,432.20667,185.83867)" />
        <path
           id="path541"
           d="m 0,0 c 0,-0.954 -0.751,-1.703 -1.706,-1.703 -0.956,0 -1.706,0.749 -1.706,1.703 0,0.954 0.75,1.703 1.706,1.703 C -0.751,1.703 0,0.954 0,0 Z"
           style="fill:none;stroke:#231f20;stroke-width:0.477;stroke-linecap:butt;stroke-linejoin:miter;stroke-miterlimit:1;stroke-dasharray:none;stroke-opacity:1"
           transform="matrix(1.3333333,0,0,-1.3333333,441.53333,166.94133)" />
        <path
           id="path542"
           d="M 0,0 H 107.462"
           style="fill:none;stroke:#7b7979;stroke-width:0.443;stroke-linecap:butt;stroke-linejoin:miter;stroke-miterlimit:1;stroke-dasharray:none;stroke-opacity:1"
           transform="matrix(1.3333333,0,0,-1.3333333,329.85067,183.704)" />
        <path
           id="path543"
           d="M 0,0 V -2.725"
           style="fill:none;stroke:#231f20;stroke-width:0.674;stroke-linecap:square;stroke-linejoin:miter;stroke-miterlimit:1;stroke-dasharray:none;stroke-opacity:1"
           transform="matrix(1.3333333,0,0,-1.3333333,327.25733,260.29067)" />
        <path
           id="path544"
           d="M 0,0 V -2.725"
           style="fill:none;stroke:#231f20;stroke-width:0.674;stroke-linecap:square;stroke-linejoin:miter;stroke-miterlimit:1;stroke-dasharray:none;stroke-opacity:1"
           transform="matrix(1.3333333,0,0,-1.3333333,347.86533,260.29067)" />
        <path
           id="path545"
           d="M 0,0 V -2.725"
           style="fill:none;stroke:#231f20;stroke-width:0.674;stroke-linecap:square;stroke-linejoin:miter;stroke-miterlimit:1;stroke-dasharray:none;stroke-opacity:1"
           transform="matrix(1.3333333,0,0,-1.3333333,369.11067,260.29067)" />
        <path
           id="path546"
           d="M 0,0 V -2.725"
           style="fill:none;stroke:#231f20;stroke-width:0.674;stroke-linecap:square;stroke-linejoin:miter;stroke-miterlimit:1;stroke-dasharray:none;stroke-opacity:1"
           transform="matrix(1.3333333,0,0,-1.3333333,389.71867,260.29067)" />
        <path
           id="path547"
           d="M 0,0 V -2.725"
           style="fill:none;stroke:#231f20;stroke-width:0.674;stroke-linecap:square;stroke-linejoin:miter;stroke-miterlimit:1;stroke-dasharray:none;stroke-opacity:1"
           transform="matrix(1.3333333,0,0,-1.3333333,410.372,260.29067)" />
        <path
           id="path548"
           d="M 0,0 V -2.725"
           style="fill:none;stroke:#231f20;stroke-width:0.674;stroke-linecap:square;stroke-linejoin:miter;stroke-miterlimit:1;stroke-dasharray:none;stroke-opacity:1"
           transform="matrix(1.3333333,0,0,-1.3333333,430.98,260.29067)" />
        <path
           id="path549"
           d="M 0,0 V -2.725"
           style="fill:none;stroke:#231f20;stroke-width:0.674;stroke-linecap:square;stroke-linejoin:miter;stroke-miterlimit:1;stroke-dasharray:none;stroke-opacity:1"
           transform="matrix(1.3333333,0,0,-1.3333333,452.224,260.29067)" />
        <path
           id="path897"
           d="M 354.851,587.774 H 245.442 v 109.015 h 109.409 z"
           style="fill:none;stroke:#231f20;stroke-width:0.672;stroke-linecap:butt;stroke-linejoin:miter;stroke-miterlimit:10;stroke-dasharray:none;stroke-opacity:1"
           transform="matrix(1.3333333,0,0,-1.3333333,0,1043.9813)" />
        <path
           id="path939"
           d="m 0.79764219,-0.43317969 c 0.26953121,0.33984375 0.64453121,0.515625 1.13671871,0.515625 0.3632813,0 0.6679688,-0.09375 0.9140625,-0.29296875 0.234375,-0.19921875 0.421875,-0.48046875 0.5390625,-0.84374996 0.1171875,-0.3515625 0.1757813,-0.8320313 0.1757813,-1.4179688 0,-0.5039062 -0.035156,-0.9023437 -0.1054688,-1.1953125 -0.082031,-0.2929687 -0.1875,-0.5390625 -0.3164062,-0.75 -0.1289063,-0.1992187 -0.2929688,-0.3515625 -0.5039063,-0.46875 -0.1992187,-0.1054687 -0.4453125,-0.1640625 -0.703125,-0.1640625 -0.3632812,0 -0.6679687,0.1054688 -0.9140625,0.2929688 -0.24609371,0.1992187 -0.42187496,0.4804687 -0.53906246,0.84375 -0.1171875,0.3632812 -0.1875,0.84375 -0.1875,1.4414062 0,0.9375 0.17578125,1.61718751 0.50390625,2.03906251 z M 1.2429547,-4.1714609 c 0.1640625,-0.2460938 0.3984375,-0.3632813 0.6796875,-0.3632813 0.2929687,0 0.5273437,0.1289063 0.7265625,0.4101563 0.1875,0.2695312 0.28125,0.8203125 0.28125,1.6523437 0,0.8203125 -0.09375,1.3710938 -0.28125,1.64062501 -0.1992188,0.28125 -0.4335938,0.41015625 -0.7148438,0.41015625 -0.28125,0 -0.5273437,-0.12890625 -0.7148437,-0.41015625 C 1.0202984,-1.1011484 0.92654844,-1.6519297 0.92654844,-2.4722422 c 0,-0.8320312 0.10546876,-1.3945312 0.31640626,-1.6992187 z m 15.0175783,3.58593746 c 0.07031,-0.1171875 0.164062,-0.22265625 0.269531,-0.33984375 0.105469,-0.10546871 0.351563,-0.32812501 0.714844,-0.63281251 0.445312,-0.375 0.761719,-0.6679687 0.949219,-0.8789062 0.1875,-0.2226563 0.328125,-0.421875 0.410156,-0.6210938 0.08203,-0.1875 0.128906,-0.3867187 0.128906,-0.5859375 0,-0.3984375 -0.140625,-0.7382812 -0.421875,-1.0078125 -0.28125,-0.2578125 -0.667969,-0.3984375 -1.148437,-0.3984375 -0.480469,0 -0.867188,0.1289063 -1.148438,0.375 -0.28125,0.2460938 -0.445312,0.609375 -0.480469,1.078125 l 0.621094,0.070312 c 0,-0.3164062 0.09375,-0.5625 0.28125,-0.7382812 0.175781,-0.1757813 0.410156,-0.2695313 0.714844,-0.2695313 0.28125,0 0.515625,0.082031 0.691406,0.2578125 0.175781,0.1640625 0.257813,0.3632813 0.257813,0.609375 0,0.234375 -0.105469,0.4921875 -0.292969,0.75 -0.199219,0.2578125 -0.5625,0.6210938 -1.101563,1.0664063 -0.351562,0.28125 -0.621093,0.5273437 -0.808593,0.7617187 -0.1875,0.21093751 -0.328125,0.43359376 -0.421875,0.65625001 -0.04687,0.140625 -0.07031,0.28125 -0.07031,0.4335937525 h 3.328125 V -0.58552344 Z M 34.137486,4.140625e-4 V -1.1948984 h 0.679687 V -1.7691172 H 34.137486 V -5.0269297 H 33.63358 l -2.296875,3.2578125 v 0.5742188 h 2.179687 V 4.140625e-4 Z M 31.94608,-1.7691172 33.516392,-4.0308359 v 2.2617187 z m 17.909179,-2.953125 c -0.257812,-0.2109375 -0.574218,-0.328125 -0.972656,-0.328125 -0.527344,0 -0.949219,0.1875 -1.265625,0.5742188 -0.363281,0.4453125 -0.539062,1.1484375 -0.539062,2.1210937 0,0.8789063 0.164062,1.48828126 0.480468,1.87500001 0.328125,0.375 0.75,0.5625 1.265625,0.5625 0.304688,0 0.5625,-0.0703125 0.808594,-0.2109375 0.234375,-0.140625 0.421875,-0.3515625 0.5625,-0.62109375 0.128906,-0.26953126 0.199219,-0.57421876 0.199219,-0.89062496 0,-0.46875 -0.140625,-0.8671875 -0.433594,-1.171875 -0.292969,-0.2929688 -0.644531,-0.4570313 -1.054687,-0.4570313 -0.234375,0 -0.457032,0.058594 -0.667969,0.1640625 -0.222656,0.1171875 -0.410156,0.28125 -0.550781,0.5039063 0,-0.4921875 0.05859,-0.890625 0.175781,-1.1484375 0.105469,-0.28125 0.269531,-0.4804688 0.457031,-0.6328125 0.152344,-0.1054688 0.328125,-0.1640625 0.527344,-0.1640625 0.246094,0 0.457031,0.09375 0.621094,0.2695312 0.09375,0.1054688 0.175781,0.28125 0.234375,0.5273438 l 0.609375,-0.046875 c -0.04687,-0.3984375 -0.199219,-0.6914063 -0.457032,-0.9257813 z m -1.78125,2.3085938 c 0.199219,-0.1992188 0.433594,-0.3046875 0.714844,-0.3046875 0.28125,0 0.515625,0.1054687 0.703125,0.3046875 0.175781,0.1992187 0.269531,0.46875 0.269531,0.8203125 0,0.3632812 -0.09375,0.64453121 -0.28125,0.85546871 -0.175781,0.2109375 -0.410156,0.31640625 -0.667968,0.31640625 -0.1875,0 -0.351563,-0.046875 -0.515625,-0.15234375 -0.164063,-0.10546875 -0.292969,-0.24609375 -0.375,-0.44531251 -0.09375,-0.1992187 -0.140625,-0.3984375 -0.140625,-0.609375 0,-0.328125 0.105468,-0.5859375 0.292968,-0.7851562 z m 14.900391,0.140625 c -0.164062,0.2109375 -0.246094,0.4921875 -0.246094,0.8203125 0,0.4335937 0.152344,0.79687496 0.445313,1.08984371 0.304687,0.3046875 0.703125,0.4453125 1.207031,0.4453125 0.492188,0 0.890625,-0.140625 1.195313,-0.43359375 0.304687,-0.29296875 0.457031,-0.65624996 0.457031,-1.08984376 0,-0.3046875 -0.08203,-0.5742187 -0.246094,-0.796875 -0.152344,-0.2226562 -0.386719,-0.3867187 -0.703125,-0.4804687 0.246094,-0.1054688 0.445313,-0.234375 0.5625,-0.4101563 0.117188,-0.1757812 0.175781,-0.375 0.175781,-0.609375 0,-0.3632812 -0.128906,-0.6679687 -0.398437,-0.9257812 -0.269531,-0.2578125 -0.621094,-0.3867188 -1.054688,-0.3867188 -0.433593,0 -0.785156,0.1289063 -1.054687,0.375 -0.257813,0.2578125 -0.386719,0.5625 -0.386719,0.9257813 0,0.2460937 0.05859,0.4453125 0.1875,0.6210937 0.117188,0.1757813 0.304688,0.3046875 0.574219,0.4101563 -0.316406,0.070312 -0.550781,0.2226562 -0.714844,0.4453125 z m 0.820313,-2.0390625 c 0.152343,-0.1523438 0.351562,-0.234375 0.585937,-0.234375 0.234375,0 0.421875,0.082031 0.585938,0.234375 0.152343,0.1523437 0.222656,0.3515625 0.222656,0.5742187 0,0.2109375 -0.07031,0.3984375 -0.222656,0.5507813 -0.152344,0.1523437 -0.339844,0.2226562 -0.585938,0.2226562 -0.246094,0 -0.445312,-0.070312 -0.597656,-0.2226562 -0.152344,-0.1523438 -0.222656,-0.3515625 -0.222656,-0.5859375 0,-0.2109375 0.07031,-0.3867188 0.234375,-0.5390625 z m -0.164063,2.1445312 c 0.199219,-0.1875 0.445313,-0.2929687 0.726563,-0.2929687 0.304687,0 0.550781,0.1054687 0.75,0.2929687 0.1875,0.1992188 0.292968,0.4453125 0.292968,0.7382813 0,0.2929687 -0.105468,0.52734371 -0.292968,0.72656246 -0.1875,0.1875 -0.433594,0.28125 -0.726563,0.28125 -0.1875,0 -0.363281,-0.046875 -0.539062,-0.12890625 -0.152344,-0.09375 -0.28125,-0.22265625 -0.363282,-0.38671875 C 63.396275,-1.1011484 63.3494,-1.2652109 63.3494,-1.4409922 c 0,-0.2929687 0.09375,-0.5390625 0.28125,-0.7265625 z m 13.942383,-2.8828125 h -0.398438 c -0.105468,0.2226563 -0.292968,0.4453125 -0.550781,0.6796875 -0.257812,0.234375 -0.5625,0.421875 -0.902344,0.5859375 v 0.5976563 c 0.1875,-0.070312 0.398438,-0.1875 0.644532,-0.3164063 0.246093,-0.140625 0.445312,-0.28125 0.585937,-0.421875 V 4.140625e-4 h 0.621094 z m 2.827148,4.61718751 c 0.269532,0.33984375 0.644532,0.515625 1.136719,0.515625 0.363281,0 0.667969,-0.09375 0.914063,-0.29296875 0.234375,-0.19921875 0.421875,-0.48046875 0.539062,-0.84374996 0.117188,-0.3515625 0.175781,-0.8320313 0.175781,-1.4179688 0,-0.5039062 -0.03516,-0.9023437 -0.105468,-1.1953125 -0.08203,-0.2929687 -0.1875,-0.5390625 -0.316407,-0.75 -0.128906,-0.1992187 -0.292968,-0.3515625 -0.503906,-0.46875 -0.199219,-0.1054687 -0.445312,-0.1640625 -0.703125,-0.1640625 -0.363281,0 -0.667969,0.1054688 -0.914062,0.2929688 -0.246094,0.1992187 -0.421875,0.4804687 -0.539063,0.84375 -0.117187,0.3632812 -0.1875,0.84375 -0.1875,1.4414062 0,0.9375 0.175781,1.61718751 0.503906,2.03906251 z m 0.445313,-3.73828121 c 0.164062,-0.2460938 0.398437,-0.3632813 0.679687,-0.3632813 0.292969,0 0.527344,0.1289063 0.726563,0.4101563 0.1875,0.2695312 0.28125,0.8203125 0.28125,1.6523437 0,0.8203125 -0.09375,1.3710938 -0.28125,1.64062501 -0.199219,0.28125 -0.433594,0.41015625 -0.714844,0.41015625 -0.28125,0 -0.527344,-0.12890625 -0.714844,-0.41015625 -0.199218,-0.26953121 -0.292968,-0.82031251 -0.292968,-1.64062501 0,-0.8320312 0.105468,-1.3945312 0.316406,-1.6992187 z m 12.544922,-0.8789063 h -0.398438 c -0.105469,0.2226563 -0.292969,0.4453125 -0.550781,0.6796875 -0.257813,0.234375 -0.5625,0.421875 -0.902344,0.5859375 v 0.5976563 c 0.1875,-0.070312 0.398438,-0.1875 0.644531,-0.3164063 0.246094,-0.140625 0.445313,-0.28125 0.585938,-0.421875 V 4.140625e-4 h 0.621094 z m 3.082031,4.46484376 c 0.07031,-0.1171875 0.164062,-0.22265625 0.269531,-0.33984375 0.105469,-0.10546871 0.351563,-0.32812501 0.714844,-0.63281251 0.445312,-0.375 0.761719,-0.6679687 0.949219,-0.8789062 0.1875,-0.2226563 0.328125,-0.421875 0.410156,-0.6210938 0.08203,-0.1875 0.128906,-0.3867187 0.128906,-0.5859375 0,-0.3984375 -0.140625,-0.7382812 -0.421875,-1.0078125 -0.28125,-0.2578125 -0.667969,-0.3984375 -1.148437,-0.3984375 -0.480469,0 -0.867188,0.1289063 -1.148438,0.375 -0.28125,0.2460938 -0.445312,0.609375 -0.480469,1.078125 l 0.621094,0.070312 c 0,-0.3164062 0.09375,-0.5625 0.28125,-0.7382812 0.175781,-0.1757813 0.410156,-0.2695313 0.714844,-0.2695313 0.28125,0 0.515625,0.082031 0.691406,0.2578125 0.175781,0.1640625 0.257813,0.3632813 0.257813,0.609375 0,0.234375 -0.105469,0.4921875 -0.292969,0.75 -0.199219,0.2578125 -0.5625,0.6210938 -1.101563,1.0664063 -0.351562,0.28125 -0.621093,0.5273437 -0.808593,0.7617187 -0.1875,0.21093751 -0.328125,0.43359376 -0.421875,0.65625001 -0.04687,0.140625 -0.07031,0.28125 -0.07031,0.4335937525 h 3.328125 V -0.58552344 Z M 109.00272,-5.0503672 h -0.39844 c -0.10547,0.2226563 -0.29297,0.4453125 -0.55078,0.6796875 -0.25781,0.234375 -0.5625,0.421875 -0.90234,0.5859375 v 0.5976563 c 0.1875,-0.070312 0.39844,-0.1875 0.64453,-0.3164063 0.24609,-0.140625 0.44531,-0.28125 0.58594,-0.421875 V 4.140625e-4 h 0.62109 z m 4.91309,5.0507812625 V -1.1948984 h 0.67968 v -0.5742188 h -0.67968 v -3.2578125 h -0.50391 l -2.29687,3.2578125 v 0.5742188 h 2.17968 V 4.140625e-4 Z M 111.7244,-1.7691172 l 1.57031,-2.2617187 v 2.2617187 z m 0,0"
           style="fill:#231f20;fill-opacity:1;fill-rule:nonzero;stroke:none"
           aria-label="02468101214"
           transform="matrix(1.3333333,0,0,1.3333333,323.78413,274.19867)" />
        <path
           id="path940"
           d="M 0,0 V -2.726"
           style="fill:none;stroke:#231f20;stroke-width:0.674;stroke-linecap:square;stroke-linejoin:miter;stroke-miterlimit:1;stroke-dasharray:none;stroke-opacity:1"
           transform="matrix(1.3333333,0,0,-1.3333333,473.132,260.13333)" />
        <path
           id="path941"
           d="M 2.6125969,-5.0498891 H 2.2141594 c -0.1054688,0.2226563 -0.2929688,0.4453125 -0.5507813,0.6796875 -0.2578125,0.234375 -0.5625,0.421875 -0.90234372,0.5859375 v 0.5976563 c 0.1875,-0.070312 0.39843752,-0.1875 0.64453122,-0.3164063 0.2460938,-0.140625 0.4453125,-0.28125 0.5859375,-0.421875 V 8.921875e-4 h 0.6210938 z m 2.0917969,4.61718754 c 0.2695312,0.33984375 0.6445312,0.515625 1.1367187,0.515625 0.3632813,0 0.6679688,-0.09375 0.9140625,-0.29296875 0.234375,-0.19921875 0.421875,-0.48046875 0.5390625,-0.84374999 0.1171875,-0.3515625 0.1757813,-0.8320313 0.1757813,-1.4179688 0,-0.5039062 -0.035156,-0.9023437 -0.1054688,-1.1953125 -0.082031,-0.2929687 -0.1875,-0.5390625 -0.3164062,-0.75 C 6.9192375,-4.6162953 6.755175,-4.7686391 6.5442375,-4.8858266 6.3450188,-4.9912953 6.098925,-5.0498891 5.8411125,-5.0498891 c -0.3632812,0 -0.6679687,0.1054688 -0.9140625,0.2929688 -0.2460937,0.1992187 -0.421875,0.4804687 -0.5390625,0.84375 -0.1171875,0.3632812 -0.1875,0.84375 -0.1875,1.4414062 0,0.9375 0.1757813,1.61718754 0.5039063,2.03906254 z M 5.1497063,-4.1709828 c 0.1640625,-0.2460938 0.3984375,-0.3632813 0.6796875,-0.3632813 0.2929687,0 0.5273437,0.1289063 0.7265625,0.4101563 0.1875,0.2695312 0.28125,0.8203125 0.28125,1.6523437 0,0.8203125 -0.09375,1.3710938 -0.28125,1.64062504 -0.1992188,0.28125 -0.4335938,0.41015625 -0.7148438,0.41015625 -0.28125,0 -0.5273437,-0.12890625 -0.7148437,-0.41015625 C 4.92705,-1.1006703 4.8333,-1.6514516 4.8333,-2.4717641 c 0,-0.8320312 0.1054688,-1.3945312 0.3164063,-1.6992187 z M 4.4436516,8.6405406 C 4.2795891,8.8514781 4.1975578,9.1327281 4.1975578,9.4608531 c 0,0.4335938 0.1523438,0.7968749 0.4453125,1.0898439 0.3046875,0.304687 0.703125,0.445312 1.2070313,0.445312 0.4921875,0 0.890625,-0.140625 1.1953125,-0.433593 0.3046875,-0.292969 0.4570312,-0.6562504 0.4570312,-1.0898441 0,-0.3046875 -0.082031,-0.5742188 -0.2460937,-0.796875 C 7.1038078,8.4530406 6.8694328,8.2889781 6.5530266,8.1952281 c 0.2460937,-0.1054687 0.4453125,-0.234375 0.5625,-0.4101562 0.1171875,-0.1757813 0.1757812,-0.375 0.1757812,-0.609375 0,-0.3632813 -0.1289062,-0.6679688 -0.3984375,-0.9257813 C 6.6233391,5.9921031 6.2717766,5.8631969 5.8381828,5.8631969 c -0.4335937,0 -0.7851562,0.1289062 -1.0546875,0.375 -0.2578125,0.2578125 -0.3867187,0.5625 -0.3867187,0.9257812 0,0.2460938 0.058594,0.4453125 0.1875,0.6210938 C 4.7014641,7.9608531 4.8889641,8.0897594 5.1584953,8.1952281 4.8420891,8.2655406 4.6077141,8.4178844 4.4436516,8.6405406 Z M 5.2639641,6.6014781 c 0.1523437,-0.1523437 0.3515625,-0.234375 0.5859375,-0.234375 0.234375,0 0.421875,0.082031 0.5859375,0.234375 0.1523437,0.1523438 0.2226562,0.3515625 0.2226562,0.5742188 0,0.2109375 -0.070312,0.3984375 -0.2226562,0.5507812 -0.1523438,0.1523438 -0.3398438,0.2226563 -0.5859375,0.2226563 -0.2460938,0 -0.4453125,-0.070312 -0.5976563,-0.2226563 C 5.0999016,7.5741344 5.0295891,7.3749156 5.0295891,7.1405406 c 0,-0.2109375 0.070312,-0.3867187 0.234375,-0.5390625 z M 5.0999016,8.7460094 c 0.1992187,-0.1875 0.4453125,-0.2929688 0.7265625,-0.2929688 0.3046875,0 0.5507812,0.1054688 0.75,0.2929688 0.1875,0.1992187 0.2929687,0.4453125 0.2929687,0.7382812 0,0.2929688 -0.1054687,0.5273434 -0.2929687,0.7265624 -0.1875,0.1875 -0.4335938,0.28125 -0.7265625,0.28125 -0.1875,0 -0.3632813,-0.04687 -0.5390625,-0.128906 C 5.1584953,10.269447 5.0295891,10.140541 4.9475578,9.9764781 4.8655266,9.8124156 4.8186516,9.6483531 4.8186516,9.4725719 c 0,-0.2929688 0.09375,-0.5390625 0.28125,-0.7265625 z M 6.9514641,17.107338 C 6.6936516,16.8964 6.3772453,16.779213 5.9788078,16.779213 c -0.5273437,0 -0.9492187,0.1875 -1.265625,0.574218 -0.3632812,0.445313 -0.5390625,1.148438 -0.5390625,2.121094 0,0.878906 0.1640625,1.488281 0.4804688,1.875 0.328125,0.375 0.75,0.5625 1.265625,0.5625 0.3046875,0 0.5625,-0.07031 0.8085937,-0.210937 0.234375,-0.140625 0.421875,-0.351563 0.5625,-0.621094 0.1289063,-0.269531 0.1992188,-0.574219 0.1992188,-0.890625 0,-0.46875 -0.140625,-0.867188 -0.4335938,-1.171875 -0.2929687,-0.292969 -0.6445312,-0.457031 -1.0546875,-0.457031 -0.234375,0 -0.4570312,0.05859 -0.6679687,0.164062 -0.2226563,0.117188 -0.4101563,0.28125 -0.5507813,0.503906 0,-0.492187 0.058594,-0.890625 0.1757813,-1.148437 0.1054687,-0.28125 0.2695312,-0.480469 0.4570312,-0.632813 0.1523438,-0.105468 0.328125,-0.164062 0.5273438,-0.164062 0.2460937,0 0.4570312,0.09375 0.6210937,0.269531 0.09375,0.105469 0.1757813,0.28125 0.234375,0.527344 l 0.609375,-0.04687 C 7.3616203,17.634681 7.2092766,17.341713 6.9514641,17.107338 Z m -1.78125,2.308593 c 0.1992187,-0.199218 0.4335937,-0.304687 0.7148437,-0.304687 0.28125,0 0.515625,0.105469 0.703125,0.304687 0.1757813,0.199219 0.2695313,0.46875 0.2695313,0.820313 0,0.363281 -0.09375,0.644531 -0.28125,0.855469 -0.1757813,0.210937 -0.4101563,0.316406 -0.6679688,0.316406 -0.1875,0 -0.3515625,-0.04687 -0.515625,-0.152344 -0.1640625,-0.105469 -0.2929687,-0.246094 -0.375,-0.445312 -0.09375,-0.199219 -0.140625,-0.398438 -0.140625,-0.609375 0,-0.328125 0.1054688,-0.585938 0.2929688,-0.785157 z M 6.7874016,32.74308 V 31.547767 H 7.4670891 V 30.973548 H 6.7874016 V 27.715736 H 6.2834953 l -2.296875,3.257812 v 0.574219 H 6.1663078 V 32.74308 Z M 4.5959953,30.973548 6.1663078,28.71183 v 2.261718 z m 0.3632813,12.09961 c 0.070312,-0.117188 0.1640625,-0.222656 0.2695312,-0.339844 0.1054688,-0.105469 0.3515625,-0.328125 0.7148438,-0.632812 0.4453125,-0.375 0.7617187,-0.667969 0.9492187,-0.878907 0.1875,-0.222656 0.328125,-0.421875 0.4101563,-0.621093 0.082031,-0.1875 0.1289062,-0.386719 0.1289062,-0.585938 0,-0.398437 -0.140625,-0.738281 -0.421875,-1.007812 -0.28125,-0.257813 -0.6679687,-0.398438 -1.1484375,-0.398438 -0.4804687,0 -0.8671875,0.128906 -1.1484375,0.375 -0.28125,0.246094 -0.4453125,0.609375 -0.4804687,1.078125 l 0.6210937,0.07031 c 0,-0.316407 0.09375,-0.5625 0.28125,-0.738282 0.1757813,-0.175781 0.4101563,-0.269531 0.7148438,-0.269531 0.28125,0 0.515625,0.08203 0.6914062,0.257813 0.1757813,0.164062 0.2578125,0.363281 0.2578125,0.609375 0,0.234375 -0.1054687,0.492187 -0.2929687,0.75 -0.1992188,0.257812 -0.5625,0.621093 -1.1015625,1.066406 -0.3515625,0.28125 -0.6210938,0.527344 -0.8085938,0.761719 -0.1875,0.210937 -0.328125,0.433593 -0.421875,0.65625 -0.046875,0.140625 -0.070312,0.28125 -0.070312,0.433593 h 3.328125 v -0.585937 z m -0.2578125,11.06543 c 0.2695312,0.339843 0.6445312,0.515625 1.1367187,0.515625 0.3632813,0 0.6679688,-0.09375 0.9140625,-0.292969 0.234375,-0.199219 0.421875,-0.480469 0.5390625,-0.84375 0.1171875,-0.351563 0.1757813,-0.832031 0.1757813,-1.417969 0,-0.503906 -0.035156,-0.902344 -0.1054688,-1.195312 -0.082031,-0.292969 -0.1875,-0.539063 -0.3164062,-0.75 C 6.9163078,49.954994 6.7522453,49.80265 6.5413078,49.685463 6.3420891,49.579994 6.0959953,49.5214 5.8381828,49.5214 c -0.3632812,0 -0.6679687,0.105469 -0.9140625,0.292969 -0.2460937,0.199219 -0.421875,0.480469 -0.5390625,0.84375 -0.1171875,0.363281 -0.1875,0.84375 -0.1875,1.441406 0,0.9375 0.1757813,1.617188 0.5039063,2.039063 z m 0.4453125,-3.738282 c 0.1640625,-0.246093 0.3984375,-0.363281 0.6796875,-0.363281 0.2929687,0 0.5273437,0.128906 0.7265625,0.410156 0.1875,0.269532 0.28125,0.820313 0.28125,1.652344 0,0.820313 -0.09375,1.371094 -0.28125,1.640625 -0.1992188,0.28125 -0.4335938,0.410156 -0.7148438,0.410156 -0.28125,0 -0.5273437,-0.128906 -0.7148437,-0.410156 -0.1992188,-0.269531 -0.2929688,-0.820312 -0.2929688,-1.640625 0,-0.832031 0.1054688,-1.394531 0.3164063,-1.699219 z M 3.8782219,63.917884 v -0.503906 h -3.89062502 v 0.503906 z m 1.0839844,0.984375 C 5.0325188,64.785072 5.1262688,64.679603 5.2317375,64.562416 5.3372063,64.456947 5.5833,64.234291 5.9465813,63.929603 6.3918938,63.554603 6.7083,63.261634 6.8958,63.050697 c 0.1875,-0.222656 0.328125,-0.421875 0.4101563,-0.621094 0.082031,-0.1875 0.1289062,-0.386719 0.1289062,-0.585937 0,-0.398438 -0.140625,-0.738282 -0.421875,-1.007813 -0.28125,-0.257812 -0.6679687,-0.398437 -1.1484375,-0.398437 -0.4804687,0 -0.8671875,0.128906 -1.1484375,0.375 -0.28125,0.246093 -0.4453125,0.609375 -0.4804687,1.078125 l 0.6210937,0.07031 c 0,-0.316406 0.09375,-0.5625 0.28125,-0.738281 0.1757813,-0.175781 0.4101563,-0.269531 0.7148438,-0.269531 0.28125,0 0.515625,0.08203 0.6914062,0.257812 0.1757813,0.164063 0.2578125,0.363281 0.2578125,0.609375 0,0.234375 -0.1054687,0.492188 -0.2929687,0.75 -0.1992188,0.257813 -0.5625,0.621094 -1.1015625,1.066406 -0.3515625,0.28125 -0.6210938,0.527344 -0.8085938,0.761719 -0.1875,0.210938 -0.328125,0.433594 -0.421875,0.65625 -0.046875,0.140625 -0.070312,0.28125 -0.070312,0.433594 H 7.434863 V 64.902259 Z M 3.8782219,74.83097 v -0.503906 h -3.89062502 v 0.503906 z m 2.9121094,1.570313 V 75.20597 H 7.4700188 V 74.631752 H 6.7903313 V 71.373939 H 6.286425 L 3.98955,74.631752 v 0.574218 h 2.1796875 v 1.195313 z M 4.598925,74.631752 6.1692375,72.370033 v 2.261719 z M 3.8782219,85.746986 V 85.24308 h -3.89062502 v 0.503906 z M 6.9543938,82.594642 C 6.6965813,82.383705 6.380175,82.266517 5.9817375,82.266517 c -0.5273437,0 -0.9492187,0.1875 -1.265625,0.574219 C 4.3528313,83.286048 4.17705,83.989173 4.17705,84.96183 c 0,0.878906 0.1640625,1.488281 0.4804688,1.875 0.328125,0.375 0.75,0.5625 1.265625,0.5625 0.3046875,0 0.5625,-0.07031 0.8085937,-0.210938 0.234375,-0.140625 0.421875,-0.351562 0.5625,-0.621094 0.1289063,-0.269531 0.1992188,-0.574218 0.1992188,-0.890625 0,-0.46875 -0.140625,-0.867187 -0.4335938,-1.171875 C 6.7668938,84.21183 6.4153313,84.047767 6.005175,84.047767 c -0.234375,0 -0.4570312,0.05859 -0.6679687,0.164063 C 5.11455,84.329017 4.92705,84.49308 4.786425,84.715736 c 0,-0.492188 0.058594,-0.890625 0.1757813,-1.148438 0.1054687,-0.28125 0.2695312,-0.480468 0.4570312,-0.632812 0.1523438,-0.105469 0.328125,-0.164063 0.5273438,-0.164063 0.2460937,0 0.4570312,0.09375 0.6210937,0.269532 0.09375,0.105468 0.1757813,0.28125 0.234375,0.527343 l 0.609375,-0.04687 C 7.36455,83.121986 7.2122063,82.829017 6.9543938,82.594642 Z m -1.78125,2.308594 c 0.1992187,-0.199219 0.4335937,-0.304688 0.7148437,-0.304688 0.28125,0 0.515625,0.105469 0.703125,0.304688 0.1757813,0.199219 0.2695313,0.46875 0.2695313,0.820312 0,0.363282 -0.09375,0.644532 -0.28125,0.855469 -0.1757813,0.210938 -0.4101563,0.316406 -0.6679688,0.316406 -0.1875,0 -0.3515625,-0.04687 -0.515625,-0.152343 C 5.2317375,86.637611 5.1028313,86.496986 5.0208,86.297767 4.92705,86.098548 4.880175,85.89933 4.880175,85.688392 c 0,-0.328125 0.1054688,-0.585937 0.2929688,-0.785156 z M 3.8782219,96.660072 v -0.503906 h -3.89062502 v 0.503906 z m 0.5683594,-0.703125 c -0.1640625,0.210937 -0.2460938,0.492187 -0.2460938,0.820312 0,0.433594 0.1523438,0.796875 0.4453125,1.089844 0.3046875,0.304688 0.703125,0.445313 1.2070313,0.445313 0.4921875,0 0.890625,-0.140625 1.1953125,-0.433594 0.3046875,-0.292969 0.4570312,-0.65625 0.4570312,-1.089844 0,-0.304687 -0.082031,-0.574219 -0.2460937,-0.796875 -0.1523438,-0.222656 -0.3867188,-0.386719 -0.703125,-0.480469 0.2460937,-0.105468 0.4453125,-0.234375 0.5625,-0.410156 0.1171875,-0.175781 0.1757812,-0.375 0.1757812,-0.609375 0,-0.363281 -0.1289062,-0.667969 -0.3984375,-0.925781 -0.2695312,-0.257813 -0.6210937,-0.386719 -1.0546875,-0.386719 -0.4335937,0 -0.7851562,0.128906 -1.0546875,0.375 -0.2578125,0.257813 -0.3867187,0.5625 -0.3867187,0.925781 0,0.246094 0.058594,0.445313 0.1875,0.621094 0.1171875,0.175781 0.3046875,0.304688 0.5742187,0.410156 -0.3164062,0.07031 -0.5507812,0.222657 -0.7148437,0.445313 z m 0.8203125,-2.039063 c 0.1523437,-0.152343 0.3515625,-0.234375 0.5859375,-0.234375 0.234375,0 0.421875,0.08203 0.5859375,0.234375 0.1523437,0.152344 0.2226562,0.351563 0.2226562,0.574219 0,0.210938 -0.070312,0.398438 -0.2226562,0.550781 -0.1523438,0.152344 -0.3398438,0.222657 -0.5859375,0.222657 -0.2460938,0 -0.4453125,-0.07031 -0.5976563,-0.222657 -0.1523437,-0.152343 -0.2226562,-0.351562 -0.2226562,-0.585937 0,-0.210938 0.070312,-0.386719 0.234375,-0.539063 z m -0.1640625,2.144532 c 0.1992187,-0.1875 0.4453125,-0.292969 0.7265625,-0.292969 0.3046875,0 0.5507812,0.105469 0.75,0.292969 0.1875,0.199218 0.2929687,0.445312 0.2929687,0.738281 0,0.292969 -0.1054687,0.527344 -0.2929687,0.726562 -0.1875,0.1875 -0.4335938,0.28125 -0.7265625,0.28125 -0.1875,0 -0.3632813,-0.04687 -0.5390625,-0.128906 -0.1523438,-0.09375 -0.28125,-0.222656 -0.3632813,-0.386719 -0.082031,-0.164062 -0.1289062,-0.328125 -0.1289062,-0.503906 0,-0.292969 0.09375,-0.539062 0.28125,-0.726562 z m -5.12988286,11.513674 v -0.50391 H -3.9176766 v 0.50391 z M 2.6125969,104.09562 H 2.2141594 c -0.1054688,0.22266 -0.2929688,0.44531 -0.5507813,0.67969 -0.2578125,0.23437 -0.5625,0.42187 -0.90234372,0.58593 v 0.59766 c 0.1875,-0.0703 0.39843752,-0.1875 0.64453122,-0.31641 0.2460938,-0.14062 0.4453125,-0.28125 0.5859375,-0.42187 v 3.92578 h 0.6210938 z m 2.0888672,4.61719 c 0.2695312,0.33984 0.6445312,0.51562 1.1367187,0.51562 0.3632813,0 0.6679688,-0.0937 0.9140625,-0.29297 0.234375,-0.19922 0.421875,-0.48047 0.5390625,-0.84375 0.1171875,-0.35156 0.1757813,-0.83203 0.1757813,-1.41797 0,-0.5039 -0.035156,-0.90234 -0.1054688,-1.19531 -0.082031,-0.29297 -0.1875,-0.53906 -0.3164062,-0.75 -0.1289063,-0.19922 -0.2929688,-0.35156 -0.5039063,-0.46875 -0.1992187,-0.10547 -0.4453125,-0.16406 -0.703125,-0.16406 -0.3632812,0 -0.6679687,0.10547 -0.9140625,0.29297 -0.2460937,0.19922 -0.421875,0.48047 -0.5390625,0.84375 -0.1171875,0.36328 -0.1875,0.84375 -0.1875,1.4414 0,0.9375 0.1757813,1.61719 0.5039063,2.03907 z m 0.4453125,-3.73828 c 0.1640625,-0.2461 0.3984375,-0.36329 0.6796875,-0.36329 0.2929687,0 0.5273437,0.12891 0.7265625,0.41016 0.1875,0.26953 0.28125,0.82031 0.28125,1.65234 0,0.82032 -0.09375,1.3711 -0.28125,1.64063 -0.1992188,0.28125 -0.4335938,0.41016 -0.7148438,0.41016 -0.28125,0 -0.5273437,-0.12891 -0.7148437,-0.41016 -0.1992188,-0.26953 -0.2929688,-0.82031 -0.2929688,-1.64063 0,-0.83203 0.1054688,-1.39453 0.3164063,-1.69921 z m 0,0"
           style="fill:#231f20;fill-opacity:1;fill-rule:nonzero;stroke:none"
           aria-label="10&#10;8&#10;6&#10;4&#10;2&#10;0&#10;2&#10;4&#10;6&#10;8&#10;10"
           transform="matrix(1.3333333,0,0,1.3333333,310.8056,117.47147)" />
        <text
           xml:space="preserve"
           style="font-style:normal;font-variant:normal;font-weight:normal;font-stretch:normal;font-size:10.6667px;line-height:150%;font-family:sans-serif;-inkscape-font-specification:sans-serif;text-align:start;letter-spacing:0px;writing-mode:lr-tb;direction:ltr;text-anchor:start;fill:#000000;fill-opacity:0.873329;fill-rule:evenodd;stroke-width:0;stroke-linecap:round;stroke-linejoin:round;stroke-miterlimit:2;stroke-opacity:0.680142;paint-order:stroke markers fill"
           x="378.33746"
           y="126.89283"
           id="text1"><tspan
             sodipodi:role="line"
             id="tspan1"
             x="378.33746"
             y="126.89283">Biais: 0,5 cmH<tspan
   style="font-style:normal;font-variant:normal;font-weight:normal;font-stretch:normal;font-size:10.6667px;font-family:sans-serif;-inkscape-font-specification:sans-serif;baseline-shift:sub"
   id="tspan2">2</tspan>O</tspan></text>
        <text
           xml:space="preserve"
           style="font-style:normal;font-variant:normal;font-weight:normal;font-stretch:normal;font-size:8px;line-height:150%;font-family:sans-serif;-inkscape-font-specification:sans-serif;text-align:end;letter-spacing:0px;writing-mode:lr-tb;direction:ltr;text-anchor:end;fill:#000000;fill-opacity:0.873329;fill-rule:evenodd;stroke-width:0;stroke-linecap:round;stroke-linejoin:round;stroke-miterlimit:2;stroke-opacity:0.680142;paint-order:stroke markers fill"
           x="435.07422"
           y="289.02499"
           id="text1-7"><tspan
             sodipodi:role="line"
             id="tspan1-5"
             x="435.07422"
             y="289.02499">P<tspan
   style="font-size:8px;baseline-shift:sub"
   id="tspan3">0.1</tspan> rf. (cmH<tspan
   style="font-size:8px;baseline-shift:sub"
   id="tspan4">2</tspan>O)</tspan></text>
        <text
           xml:space="preserve"
           style="font-style:normal;font-variant:normal;font-weight:normal;font-stretch:normal;font-size:8px;line-height:150%;font-family:sans-serif;-inkscape-font-specification:sans-serif;text-align:end;letter-spacing:0px;writing-mode:lr-tb;direction:ltr;text-anchor:end;fill:#000000;fill-opacity:0.873329;fill-rule:evenodd;stroke-width:0;stroke-linecap:round;stroke-linejoin:round;stroke-miterlimit:2;stroke-opacity:0.680142;paint-order:stroke markers fill"
           x="-154.89453"
           y="302.97656"
           id="text7"
           transform="rotate(-90)"><tspan
             sodipodi:role="line"
             id="tspan7"
             x="-154.89453"
             y="302.97656">Drive (cmH<tspan
   style="font-size:8px;baseline-shift:sub"
   id="tspan6">2</tspan>O)</tspan></text>
      </g>
    </g>
  </g>
</svg>
